<?xml version="1.0" encoding="UTF-8"?>
<svg width="1200pt" height="1200pt" version="1.1" viewBox="0 0 1200 1200" xmlns="http://www.w3.org/2000/svg">
 <g fill="none" stroke="#000" stroke-linecap="round" stroke-linejoin="round" stroke-miterlimit="10" stroke-width=".5">
  <path transform="scale(12)" d="m63.2 80.8c6 6 13.1-5.1999 20.1 1.8001-6.9001-6.9001 4.3001-14-1.8001-20.1 8.5 0 5.5999-12.9 15.4-12.9-9.8001 0-6.9001-12.9-15.4-12.9 6-6-5.1999-13.1 1.8001-20.1-6.9001 6.9001-14-4.3001-20.1 1.8001 0-8.5-12.9-5.5999-12.9-15.4 0 9.8001-12.9 6.9001-12.9 15.4v0.099935c-6-6-13.1 5.1999-20.1-1.8001 6.9001 6.9001-4.3001 14 1.8001 20.1-8.5 0-5.5999 12.9-15.4 12.9 9.8001 0 6.9001 12.9 15.4 12.9-6 6 5.1999 13.1-1.8001 20.1 6.9001-6.9001 14 4.3001 20.1-1.8001 0 8.5 12.9 5.5999 12.9 15.4 3.25e-4 -9.8001 12.9-6.9001 12.9-15.5z"/>
  <path transform="scale(12)" d="m50.3 74.7c2.4001 5.9001 10.5 0.19987 13.3 6.9001-2.8001-6.6999 6.9001-8.4001 4.5-14.3 5.9001 2.4001 7.5999-7.3001 14.3-4.5-6.6999-2.8001-1.0999-10.9-6.9001-13.3 5.9001-2.4001 0.19987-10.5 6.9001-13.3-6.6999 2.8001-8.4001-6.9001-14.3-4.5 2.4001-5.9001-7.3001-7.5999-4.5-14.3-2.8001 6.6999-10.9 1.0999-13.3 6.9001-2.4001-5.9001-10.5-0.19987-13.3-6.9001 2.8001 6.6999-6.9001 8.4001-4.5 14.3-5.9001-2.4001-7.5999 7.3001-14.3 4.5 6.6999 2.8001 1.0999 10.9 6.9001 13.3-5.7998 2.5003-0.19987 10.5-6.9001 13.3 6.6999-2.8001 8.4001 6.9001 14.3 4.5-2.4001 5.9001 7.3001 7.5999 4.5 14.3 2.6999-6.7002 10.8-1.0003 13.3-6.9004z"/>
  <path transform="scale(12)" d="m57.4 66.8c3.3001 3.3001 7.1999-2.8001 11.1 1-3.8001-3.8001 2.4001-7.6999-1-11.1 4.6999 0 3.0999-7.0999 8.5-7.0999-5.4001 0-3.8001-7.0999-8.5-7.0999 3.3001-3.3001-2.8001-7.1999 1-11.1-3.8001 3.8001-7.6999-2.4001-11.1 1 0-4.6999-7.0999-3.0999-7.0999-8.5 0 5.4001-7.0999 3.8001-7.0999 8.5-3.3001-3.3001-7.1999 2.8001-11.1-1 3.8001 3.8001-2.4001 7.6999 1 11.1-4.6999 0-3.0999 7.0999-8.5 7.0999 5.4001 0 3.8001 7.0999 8.5 7.0999-3.3001 3.3001 2.8001 7.1999-1 11.1 3.8001-3.8001 7.6999 2.4001 11.1-1 0 4.6999 7.0999 3.0999 7.0999 8.5 0-5.4001 7.0999-3.8001 7.0999-8.5z"/>
  <path transform="scale(12)" d="m50.3 63.6c1.4001 3.3001 5.9001 0.099935 7.4001 3.9001-1.5999-3.8001 3.9001-4.6999 2.5-8 3.3001 1.4001 4.1999-4.0999 8-2.5-3.8001-1.5999-0.59994-6.0999-3.9001-7.4001 3.3001-1.4001 0.099935-5.9001 3.9001-7.4001-3.8001 1.5999-4.6999-3.9001-8-2.5 1.4001-3.3001-4.0999-4.1999-2.5-8-1.5999 3.8001-6.0999 0.59994-7.4001 3.9001-1.4001-3.3001-5.9001-0.099935-7.4001-3.9001 1.5999 3.8001-3.9001 4.6999-2.5 8-3.3001-1.4001-4.1999 4.0999-8 2.5 3.8001 1.5999 0.59994 6.0999 3.9001 7.4001-3.3001 1.4001-0.099935 5.9001-3.9001 7.4001 3.8001-1.5999 4.6999 3.9001 8 2.5-1.4001 3.3001 4.0999 4.1999 2.5 8 1.5-3.8001 6-0.59994 7.4001-3.9001z"/>
  <path transform="scale(12)" d="m54.4 59.4c1.9001 1.9001 4.1999-1.5999 6.3001 0.59994-2.1999-2.1999 1.3001-4.4001-0.59994-6.3001 2.6999 0 1.8001-4.0999 4.9001-4.0999-3.0999 0-2.1999-4.0999-4.9001-4.0999 1.9001-1.9001-1.5999-4.1999 0.59994-6.3001-2.1999 2.1999-4.4001-1.3001-6.3001 0.59994 0-2.6999-4.0999-1.8001-4.0999-4.9001 0 3.0999-4.0999 2.1999-4.0999 4.9001-1.9001-1.9001-4.1999 1.5999-6.3001-0.59994 2.1999 2.1999-1.3001 4.4001 0.59994 6.3001-2.6999 0-1.8001 4.0999-4.9001 4.0999 3.0999 0 2.1999 4.0999 4.9001 4.0999-1.9001 1.9001 1.5999 4.1999-0.59994 6.3001 2.1999-2.1999 4.4001 1.3001 6.3001-0.59994 0 2.6999 4.0999 1.8001 4.0999 4.9001 0-3.1003 4.0999-2.2002 4.0999-4.9001z"/>
  <path transform="scale(12)" d="m50.3 57.8c0.80013 1.9001 3.4001 0.099935 4.3001 2.3001-0.90006-2.1999 2.3001-2.8001 1.5-4.6999 1.9001 0.80013 2.5-2.4001 4.6999-1.5-2.1999-0.90006-0.30013-3.5999-2.3001-4.4001 1.9001-0.80013 0.099935-3.4001 2.3001-4.3001-2.1999 0.90006-2.8001-2.3001-4.6999-1.5 0.80013-1.9001-2.4001-2.5-1.5-4.6999-0.90006 2.1999-3.5999 0.30013-4.4001 2.3001-0.80013-1.9001-3.4001-0.099935-4.3001-2.3001 0.90006 2.1999-2.3001 2.8001-1.5 4.6999-1.9001-0.80013-2.5 2.4001-4.6999 1.5 2.1999 0.90006 0.30013 3.5999 2.3001 4.4001-1.9001 0.80013-0.099935 3.4001-2.3001 4.3001 2.1999-0.90006 2.8001 2.3001 4.6999 1.5-0.80013 1.9001 2.4001 2.5 1.5 4.6999 0.90006-2.2002 3.5999-0.40039 4.4001-2.3001z"/>
  <path transform="scale(12)" d="m52.7 55.5c1.0999 1.0999 2.5-1 3.8001 0.30013-1.3001-1.3001 0.80013-2.6999-0.30013-3.8001 1.5999 0 1.0999-2.5 2.9001-2.5-1.9001 0-1.3001-2.5-2.9001-2.5 1.0999-1.0999-1-2.5 0.30013-3.8001-1.3001 1.3001-2.6999-0.80013-3.8001 0.30013 0-1.5999-2.5-1.0999-2.5-2.9001 0 1.9001-2.5 1.3001-2.5 2.9001-1.0999-1.0999-2.5 1-3.8001-0.30013 1.3001 1.3001-0.80013 2.6999 0.30013 3.8001-1.5999 0-1.0999 2.5-2.9001 2.5 1.9001 0 1.3001 2.5 2.9001 2.5-1.0999 1.0999 1 2.5-0.30013 3.8001 1.3001-1.3001 2.6999 0.80013 3.8001-0.30013 0 1.5999 2.5 1.0999 2.5 2.9001 0.10026-1.8001 2.5-1.3001 2.5-2.9001z"/>
  <path transform="scale(12)" d="m50.3 54.5c0.5 1.1999 2.0999 0 2.5999 1.4001-0.59994-1.3001 1.4001-1.6999 0.90006-2.8001 1.1999 0.5 1.5-1.4001 2.8001-0.90006-1.3001-0.59994-0.19987-2.0999-1.4001-2.5999 1.1999-0.5 0-2.0999 1.4001-2.5999-1.3001 0.59994-1.6999-1.4001-2.8001-0.90006 0.5-1.1999-1.4001-1.5-0.90006-2.8001-0.59994 1.3001-2.0999 0.19987-2.5999 1.4001-0.5-1.1999-2.0999 0-2.5999-1.4001 0.59994 1.3001-1.4001 1.6999-0.90006 2.8001-1.1999-0.5-1.5 1.4001-2.8001 0.90006 1.3001 0.59994 0.19987 2.0999 1.4001 2.5999-1.1999 0.5 0 2.0999-1.4001 2.5999 1.3001-0.59994 1.6999 1.4001 2.8001 0.90006-0.5 1.1999 1.4001 1.5 0.90006 2.8001 0.49968-1.3001 2.0999-0.2002 2.5999-1.4001z"/>
  <path transform="scale(12)" d="m54.7 49.5c0 2.43-1.9697 4.4001-4.3997 4.4001-2.4303 0-4.4001-1.9701-4.4001-4.4001s1.9697-4.4001 4.4001-4.4001c2.43 0 4.3997 1.9701 4.3997 4.4001"/>
 </g>
</svg>
