<?xml version="1.0" encoding="UTF-8"?>
<svg width="1200pt" height="1200pt" version="1.1" viewBox="0 0 1200 1200" xmlns="http://www.w3.org/2000/svg">
 <g>
  <path d="m639.6 301.2c-13.199-2.3984-26.398-3.6016-40.801-3.6016-14.398 0-27.602 1.1992-40.801 3.6016-148.8 20.398-264 147.6-264 302.4 0 168 136.8 304.8 304.8 304.8s304.8-136.8 304.8-304.8c0-154.8-115.2-282-264-302.4zm-40.801 3.6016c13.199 0 27.602 1.1992 40.801 2.3984 115.2 19.199 202.8 118.8 202.8 240 0 134.4-109.2 243.6-243.6 243.6-134.4 0-243.6-109.2-243.6-243.6 0-120 87.602-220.8 202.8-240 13.199-1.1992 26.398-2.3984 40.801-2.3984zm0 597.6c-164.4 0-298.8-134.4-298.8-298.8 0-118.8 70.801-222 171.6-270-73.203 43.203-122.4 122.4-122.4 213.6 0 138 111.6 249.6 249.6 249.6s248.4-112.8 248.4-249.6c0-91.199-49.199-170.4-122.4-213.6 100.8 48 171.6 151.2 171.6 270 1.1992 164.4-133.2 298.8-297.6 298.8z"/>
  <path d="m1130.4 600c-68.398 0-91.199-48-114-93.602-20.398-42-42-86.398-102-86.398-1.1992 0-2.3984 1.1992-2.3984 2.3984v-1.1992c1.1992 0 1.1992-1.1992 1.1992-2.3984 28.801-51.602 1.1992-92.398-25.199-130.8-28.801-42-58.801-85.199-24-145.2v-1.1992c0-1.1992 0-2.3984-1.1992-2.3984-1.1992-1.1992-3.6016 0-3.6016 1.1992-33.602 60-86.398 56.398-138 52.801-46.801-3.6016-93.602-6-123.6 40.801-30-46.801-76.801-44.398-123.6-40.801-50.398 3.6016-103.2 7.1992-138-52.801-1.1992-1.1992-2.3984-2.3984-3.6016-1.1992-1.1992 0-1.1992 1.1992-1.1992 2.3984v1.1992c33.602 60 4.8008 103.2-24 145.2-26.398 39.602-55.199 79.199-25.199 130.8-58.801 0-80.398 44.398-100.8 87.602-21.602 45.602-45.602 93.602-114 93.602-1.1992 0-2.3984 1.1992-2.3984 2.3984 0 1.1992 1.1992 2.3984 2.3984 2.3984 68.398 0 91.199 48 114 93.602 20.398 43.199 42 87.602 100.8 87.602v1.1992c-28.801 51.602-1.1992 92.398 25.199 130.8 28.801 42 58.801 85.199 24 145.2v1.1992c0 1.1992 0 2.3984 1.1992 2.3984h1.1992c1.1992 0 2.3984 0 2.3984-1.1992 33.602-60 86.398-56.398 138-52.801 46.801 3.6016 93.602 6 123.6-40.801 30 46.801 76.801 44.398 123.6 40.801 50.398-3.6016 103.2-7.1992 138 52.801 0 1.1992 1.1992 1.1992 2.3984 1.1992h1.1992c1.1992 0 1.1992-1.1992 1.1992-2.3984v-1.1992c-33.602-60-4.8008-103.2 24-145.2 26.398-39.602 55.199-79.199 25.199-130.8 0 0 0-1.1992-1.1992-1.1992h1.1992 1.1992c58.801 0 80.398-44.398 100.8-87.602 21.602-45.602 45.602-93.602 114-93.602 1.1992 0 2.3984-1.1992 2.3984-2.3984 0.011718-1.2031 0.011718-2.4023-1.1914-2.4023zm-531.6 360c-196.8 0-356.4-159.6-356.4-356.4 0-196.8 159.6-356.4 356.4-356.4 196.8 0 356.4 159.6 356.4 356.4 0 196.8-159.6 356.4-356.4 356.4zm-314.4-538.8m27.602-129.6c25.199-37.199 51.602-75.602 36-124.8 34.801 38.398 81.602 34.801 126 32.398 48-3.6016 92.398-6 120 42l2.3984-1.1992h3.6016c27.602-48 73.199-45.602 120-42 44.398 3.6016 91.199 6 126-32.398-15.602 49.199 10.801 87.602 36 124.8 26.398 39.602 52.801 76.801 25.199 124.8-62.398-104.4-177.6-175.2-308.4-175.2-132 0-248.4 70.801-312 176.4v-1.1992c-27.602-46.801-2.4023-84 25.199-123.6zm-126 405.6c-19.199-40.801-39.602-82.801-90-93.602 50.398-10.801 70.801-52.801 90-93.602 20.398-43.199 40.801-84 96-84-30 52.801-46.801 112.8-46.801 177.6 0 64.801 16.801 124.8 46.801 177.6-56.398 0-75.602-40.801-96-84zm288 312c-44.398-3.6016-91.199-6-126 32.398 15.602-49.199-10.801-87.602-36-124.8-27.602-39.602-52.801-76.801-25.199-124.8v-1.1992c63.602 105.6 177.6 175.2 308.4 176.4h-1.1992c-26.398 48.004-72 44.406-120 42.004zm409.2-93.598c-25.199 37.199-51.602 75.602-36 124.8-34.801-38.398-81.602-34.801-126-32.398-48 3.6016-92.398 6-120-42 130.8 0 246-70.801 309.6-175.2 25.199 47.996-1.1992 85.195-27.602 124.8zm127.2-218.4c-20.398 43.199-40.801 84-96 84 30-52.801 46.801-112.8 46.801-177.6 0-64.801-16.801-124.8-46.801-177.6 55.199 0 75.602 40.801 96 84 19.199 40.801 39.602 82.801 90 93.602-49.199 10.801-69.598 52.801-90 93.602z"/>
 </g>
</svg>
