<?xml version="1.0" encoding="UTF-8"?>
<svg width="1200pt" height="1200pt" version="1.1" viewBox="0 0 1200 1200" xmlns="http://www.w3.org/2000/svg">
 <g fill="none" stroke="#ffee58" stroke-miterlimit="10" stroke-width=".7">
  <path transform="scale(12)" d="m82.3 50.1c0 11.897-6.347 22.89-16.65 28.839-10.303 5.9482-22.997 5.9482-33.3 0-10.303-5.9486-16.65-16.942-16.65-28.839 0-11.897 6.347-22.89 16.65-28.839 10.303-5.9486 22.997-5.9486 33.3 0 10.303 5.9486 16.65 16.942 16.65 28.839"/>
  <path transform="scale(12)" d="m81 59.8c6.6999-0.099935 4.3001-10.2 12-10.3-7.6999 0.099935-5.5999-10.1-12.3-10" stroke-linecap="round" stroke-linejoin="round"/>
  <path transform="scale(12)" d="m69 77c5.3001 4.1999 9.5-5.5 15.6-0.69987-6.0999-4.8001 1.8001-11.6-3.5-15.8" stroke-linecap="round" stroke-linejoin="round"/>
  <path transform="scale(12)" d="m49.3 83.8c2.0999 6.4001 11 1.0999 13.4 8.4001-2.4001-7.3001 8-8.3001 5.9001-14.7" stroke-linecap="round" stroke-linejoin="round"/>
  <path transform="scale(12)" d="m29.4 77.5c-2 6.4001 8.4001 7.1999 6.1999 14.6 2.3001-7.4001 11.3-2.1999 13.3-8.5999" stroke-linecap="round" stroke-linejoin="round"/>
  <path transform="scale(12)" d="m17.1 60.8c-5.4001 4 2.5 10.8-3.6999 15.4 6.1999-4.5999 10.4 5 15.8 1" stroke-linecap="round" stroke-linejoin="round"/>
  <path transform="scale(12)" d="m17.2 40c-6.6999-0.099935-4.5 10.1-12.2 10 7.6999 0.099935 5.4001 10.2 12.1 10.3" stroke-linecap="round" stroke-linejoin="round"/>
  <path transform="scale(12)" d="m16.9 39.7c-5.4001-4 2.4001-10.9-3.8001-15.4 6.1999 4.5999 10.4-5 15.8-1h0.30013c-2.1999-6.3001 8.1999-7.5 5.6999-14.8 2.5 7.3001 11.4 1.9001 13.5 8.1999v0.099935c1.8001-6.4001 11-1.5 13.1-8.9001-2.0999 7.4001 8.3001 8 6.5 14.5l0.19987 0.59994c5.4001-4 9.5999 5.5 15.8 0.90006-6.1999 4.5999 1.6999 11.4-3.5999 15.4" stroke-linecap="round" stroke-linejoin="round"/>
  <path transform="scale(12)" d="m48.9 83.4-28.6-49.6h57.2zm0 0" stroke-linecap="round" stroke-linejoin="round"/>
 </g>
</svg>
