<?xml version="1.0" encoding="UTF-8"?>
<svg width="1200pt" height="1200pt" version="1.1" viewBox="0 0 1200 1200" xmlns="http://www.w3.org/2000/svg">
 <g fill="none" stroke="#303f9f" stroke-miterlimit="10" stroke-width=".75">
  <path transform="scale(12)" d="m77.9 53.1c0 15.519-12.581 28.1-28.1 28.1s-28.1-12.581-28.1-28.1 12.581-28.1 28.1-28.1 28.1 12.581 28.1 28.1"/>
  <path transform="scale(12)" d="m49.8 80.8-23.9-41.4h47.8z"/>
  <path transform="scale(12)" d="m66.6 75.8c15 0 11.4-22.7 28.6-22.7-17.2 0-13.6-22.7-28.6-22.7h-0.099935"/>
  <path transform="scale(12)" d="m33.3 30.4c-15 0-11.4 22.6-28.6 22.6 17.2 0 13.6 22.7 28.6 22.7h0.099935"/>
 </g>
</svg>
