<?xml version="1.0" encoding="UTF-8"?>
<svg width="128pt" height="128pt" version="1.1" viewBox="0 0 128 128" xmlns="http://www.w3.org/2000/svg">
 <path d="m64 8.1484c15.422 0 29.387 6.2539 39.496 16.359 10.105 10.105 16.355 24.07 16.355 39.492s-6.2539 29.387-16.359 39.496c-10.105 10.105-24.07 16.355-39.492 16.355s-29.387-6.2539-39.496-16.359c-10.105-10.105-16.355-24.07-16.355-39.492s6.2539-29.387 16.359-39.496c10.105-10.105 24.07-16.355 39.492-16.355zm-18.605 61.961-6.1055 6.1055c-1.0391 1.0391-1.0391 2.7227 0 3.7617l6.1055 6.1055c1.0391 1.0391 2.7227 1.0391 3.7617 0 1.0391-1.0391 1.0391-2.7227 0-3.7617l-1.5625-1.5625h30.02c4.6094 0 8.8008-1.8828 11.836-4.9219 3.0352-3.0352 4.9219-7.2266 4.9219-11.836 0-1.4688-1.1914-2.6602-2.6602-2.6602-1.4766 0-2.6641 1.1914-2.6641 2.6602 0 3.1445-1.2891 6-3.3633 8.0742-2.0742 2.0742-4.9336 3.3633-8.0742 3.3633h-30.02l1.5625-1.5625c1.0391-1.0391 1.0391-2.7227 0-3.7617-1.0352-1.0391-2.7188-1.0391-3.7578-0.003906zm36.344-22.863h-31.348c-4.6094 0-8.8008 1.8828-11.836 4.9219-3.0352 3.0352-4.9219 7.2266-4.9219 11.836 0 1.4688 1.1914 2.6602 2.6602 2.6602s2.6602-1.1914 2.6602-2.6602c0-3.1445 1.2891-6 3.3633-8.0742 2.0742-2.0742 4.9336-3.3633 8.0742-3.3633h31.348l-1.5625 1.5625c-1.0391 1.0391-1.0391 2.7227 0 3.7617 1.0391 1.0391 2.7227 1.0391 3.7617 0l6.1055-6.1055c1.0391-1.0391 1.0391-2.7227 0-3.7617l-6.1055-6.1055c-1.0391-1.0391-2.7227-1.0391-3.7617 0-1.0391 1.0391-1.0391 2.7227 0 3.7617z" fill-rule="evenodd"/>
</svg>
