<?xml version="1.0" encoding="UTF-8"?>
<svg width="70" height="70" version="1.1" viewBox="0 0 100 100" xmlns="http://www.w3.org/2000/svg">
 <defs>
  <clipPath id="d">
   <path d="m22 25h27v25h-27z"/>
  </clipPath>
  <clipPath id="c">
   <path d="m11.434 27.734 60.832-16.301 16.301 60.832-60.832 16.301z"/>
  </clipPath>
  <clipPath id="b">
   <path d="m38 40h39v36h-39z"/>
  </clipPath>
  <clipPath id="a">
   <path d="m11.434 27.734 60.832-16.301 16.301 60.832-60.832 16.301z"/>
  </clipPath>
 </defs>
 <g>
  <g clip-path="url(#d)">
   <g clip-path="url(#c)">
    <path d="m37.699 46.941c-0.22656 0.078125-0.45312 0.16016-0.6875 0.22266-5.1719 1.3867-10.504-1.6953-11.891-6.8633-1.3867-5.1719 1.6953-10.504 6.8633-11.891 5.1758-1.3906 10.508 1.6914 11.895 6.8633 0.054688 0.21094 0.10156 0.42187 0.14453 0.63672l-0.066407 0.003906-2.0938 0.17578c-0.31641 0.027344-0.58594 0.24219-0.68359 0.54688-0.097657 0.30469 0 0.63672 0.24219 0.83984l3.4023 2.875c0.33203 0.28125 0.82812 0.23828 1.1094-0.09375l2.875-3.4023c0.20703-0.24219 0.24609-0.58594 0.097656-0.87109-0.14453-0.28125-0.44922-0.44922-0.76562-0.42188l-2.0156 0.17188c-0.058594-0.33984-0.12891-0.67188-0.21875-1.0039-1.6836-6.2891-8.1719-10.035-14.461-8.3477-6.2891 1.6797-10.035 8.168-8.3516 14.457 1.6836 6.2891 8.1719 10.035 14.461 8.3477 0.47656-0.12891 0.9375-0.28516 1.3828-0.46484l-1.0781-1.5352c-0.054687-0.078125-0.10547-0.16406-0.16016-0.24609z" fill="#fff"/>
   </g>
  </g>
  <g clip-path="url(#b)">
   <g clip-path="url(#a)">
    <path d="m68.059 46.125c-0.73047-1.043-2.1445-1.4961-3.5156-1.125-0.39453 0.10547-0.75391 0.27344-1.0781 0.49609-0.17578 0.12109-0.57812 0.49609-0.93359 0.95703-0.90625-1.1055-2.3984-1.5938-3.793-1.2188-0.41406 0.10938-0.80078 0.29297-1.1562 0.53906-0.69531 0.48437-1.1875 1.1797-1.4219 1.9805-1.1836-0.89062-2.7734-0.96484-4.0039-0.10547-0.80469 0.5625-1.3203 1.3984-1.4609 2.3516l-5.8789-7.7852c-0.98828-1.4141-2.6016-2.0664-4.1055-1.6641-0.41016 0.10938-0.80078 0.29297-1.1602 0.54688-1.7148 1.2031-2.0391 3.4961-0.74219 5.3477l9.9336 13.562c-0.21484 0.43359-0.5 1.1445-0.74609 2.2305-0.84766 3.7539 1.9805 9.4219 7.3945 11.547 3.8711 1.5195 7.1484 1.832 10.316 0.98438 1.8555-0.49609 3.6875-1.3906 5.5977-2.7266 5.4297-3.8008 5.3398-7.7969 4.7773-11.566-0.53516-3.625-7.7148-13.918-8.0234-14.352zm6.4688 14.582c0.52734 3.5469 0.57812 6.75-4.125 10.043-1.7578 1.2305-3.4258 2.0469-5.1016 2.4961-2.8633 0.76562-5.7422 0.48047-9.332-0.92969-3.2344-1.2695-7.3477-5.6914-6.4336-9.7344 0.097656-0.4375 0.20312-0.79688 0.30078-1.0898l3.2461 4.4297c0.25781 0.35156 0.75 0.42578 1.1016 0.16797 0.35156-0.25781 0.42578-0.75 0.16797-1.1016l-14.262-19.461c-0.79688-1.1367-0.64453-2.4297 0.36719-3.1406 1-0.69922 2.3047-0.375 3.0938 0.75391l8.8594 11.734c0.24219 0.32422 0.69141 0.41016 1.0391 0.19922 0.34375-0.21094 0.47656-0.64453 0.30469-1.0117l-1.0273-2.1641c-0.019531-0.039063-0.039062-0.078126-0.066406-0.11328-0.33203-0.47266-0.47266-1.0273-0.39453-1.5547 0.074219-0.52344 0.36328-0.98438 0.80859-1.293 0.89062-0.625 2.0234-0.33203 2.7148 0.66016l0.90234 1.2891c0.25 0.35547 0.74219 0.44141 1.0977 0.19141 0.35547-0.25 0.44141-0.73828 0.19141-1.0977v-0.003907c-0.32031-0.45703-0.44141-1.0156-0.34766-1.5664 0.097657-0.55078 0.40234-1.0352 0.86328-1.3555 0.20312-0.14063 0.42578-0.24609 0.66016-0.30859 0.84766-0.22656 1.7578 0.10547 2.2656 0.82422 0 0 1.707 2.2734 2.0781 2.7617s0.75 0.48047 1.0938 0.23828c0.34375-0.24609 0.37109-0.67187 0.074219-1.1094-0.30078-0.43359-1.1484-1.6406-1.1484-1.6406 0.16797-0.30469 0.55859-0.82812 0.86328-1.0391 0.16797-0.11719 0.36328-0.20703 0.58203-0.26562 0.72656-0.19531 1.4727 0.015625 1.8203 0.50781 2.0078 2.8906 7.3398 10.977 7.7422 13.684z" fill="#fff"/>
   </g>
  </g>
 </g>
</svg>
