<?xml version="1.0" encoding="UTF-8"?>
<svg width="55" height="55" version="1.1" viewBox="0 0 100 100" xmlns="http://www.w3.org/2000/svg">
 <defs>
  <clipPath id="f">
   <path d="m47 20h12v17h-12z"/>
  </clipPath>
  <clipPath id="e">
   <path d="m27.734 11.434 60.832 16.301-16.301 60.832-60.832-16.301z"/>
  </clipPath>
  <clipPath id="d">
   <path d="m21 37h13v17h-13z"/>
  </clipPath>
  <clipPath id="c">
   <path d="m27.734 11.434 60.832 16.301-16.301 60.832-60.832-16.301z"/>
  </clipPath>
  <clipPath id="b">
   <path d="m25 23h49v62h-49z"/>
  </clipPath>
  <clipPath id="a">
   <path d="m27.734 11.434 60.832 16.301-16.301 60.832-60.832-16.301z"/>
  </clipPath>
 </defs>
 <g>
  <g clip-path="url(#f)">
   <g clip-path="url(#e)">
    <path d="m47.887 22.941c3.4805 3.5742 6.2148 7.7227 8.1328 12.324 0.17969 0.43359 0.54688 0.73047 0.96484 0.84375 0.29688 0.078125 0.625 0.066406 0.93359-0.0625 0.73828-0.30859 1.0898-1.1602 0.78125-1.9023-2.0547-4.9414-4.9961-9.3945-8.7305-13.23-0.55859-0.57422-1.4805-0.58594-2.0547-0.027343-0.57422 0.55859-0.58594 1.4805-0.027343 2.0547z" fill="#fff"/>
   </g>
  </g>
  <g clip-path="url(#d)">
   <g clip-path="url(#c)">
    <path d="m32.781 50.602c-3.4805-3.5781-6.2148-7.7266-8.1328-12.328-0.30859-0.74219-1.1602-1.0898-1.9023-0.78125-0.74219 0.30859-1.0898 1.1602-0.78125 1.9023 2.0586 4.9414 5 9.3945 8.7344 13.234 0.1875 0.19531 0.41797 0.32422 0.66406 0.39062 0.47656 0.12891 1.0078 0.007813 1.3906-0.36328 0.57422-0.55859 0.58594-1.4766 0.027344-2.0547z" fill="#fff"/>
   </g>
  </g>
  <g clip-path="url(#b)">
   <g clip-path="url(#a)">
    <path d="m72.277 76.734-22.605-34.258c1.625-1.2734 3.1953-2.625 4.6875-4.0781 0.003906-0.003907 0.003906-0.003907 0.007813-0.007813 0.058593-0.054687 0.10547-0.11719 0.15234-0.18359 0.011719-0.011719 0.023438-0.023437 0.03125-0.039062 0.046875-0.074219 0.089844-0.14844 0.125-0.23047 0.003907-0.007812 0.007813-0.011719 0.011719-0.019531 0.13672-0.32422 0.15234-0.69922 0.023438-1.0547-0.003907-0.011719-0.007813-0.027343-0.011719-0.039062-0.003907-0.007813-0.003907-0.019531-0.007813-0.027344-2.0625-4.9453-5-9.3984-8.7344-13.234-0.007812-0.007812-0.015625-0.011719-0.023437-0.019531-0.007813-0.007813-0.019532-0.015625-0.027344-0.023438-0.42578-0.40234-1.0312-0.5-1.5469-0.28906h-0.003906c-6.7383 2.8086-12.812 6.8125-18.047 11.906-0.003906 0.003906-0.003906 0.003906-0.007813 0.007812-0.054687 0.054688-0.10547 0.11719-0.14844 0.17969-0.011719 0.015625-0.023438 0.027343-0.035156 0.042969-0.050782 0.074218-0.089844 0.15234-0.125 0.23047-0.003907 0.003906-0.003907 0.007813-0.007813 0.015625-0.13672 0.32422-0.15234 0.69531-0.027344 1.0508 0.003907 0.015626 0.007813 0.03125 0.015625 0.046876 0.003906 0.007812 0.003906 0.019531 0.007813 0.027343 2.0586 4.9414 4.9961 9.3906 8.7344 13.234 0.015625 0.015625 0.039062 0.027344 0.054687 0.042969 0.046875 0.046875 0.10156 0.085937 0.15234 0.12109 0.046875 0.035156 0.089844 0.070312 0.14062 0.097656 0.054688 0.03125 0.11328 0.050781 0.17188 0.070313 0.046875 0.019531 0.09375 0.046874 0.14062 0.058593 0.14062 0.039063 0.28516 0.046875 0.43359 0.042969 0.035156-0.003906 0.066406-0.007812 0.10156-0.011719 0.11719-0.011719 0.22656-0.039062 0.33984-0.078125 0.023438-0.007812 0.042969-0.007812 0.066406-0.015625 1.9219-0.80078 3.7852-1.7109 5.5938-2.7031l22.602 34.262c0.68359 1.0352 1.6953 1.7695 2.8594 2.082 0.042968 0.011719 0.085937 0.023438 0.125 0.03125 1.2539 0.30078 2.5273 0.082032 3.5781-0.61328 2.1445-1.4102 2.6836-4.3828 1.2031-6.625zm-43.207-40.188c4.5586-4.2812 9.7617-7.7109 15.488-10.219 2.9219 3.1602 5.2852 6.7383 7.043 10.672-4.5586 4.2773-9.7617 7.7109-15.488 10.219-2.9258-3.1641-5.2891-6.7461-7.043-10.672zm40.406 44.391c-0.375 0.24609-0.83594 0.32031-1.2969 0.21094-0.51563-0.13672-0.94141-0.4375-1.2383-0.89063l-22.52-34.121c0.99219-0.60938 1.9609-1.25 2.9141-1.9219l22.516 34.125c0.59766 0.89844 0.42969 2.0664-0.375 2.5977z" fill="#fff"/>
   </g>
  </g>
 </g>
</svg>
