<?xml version="1.0" encoding="UTF-8"?>
<svg width="100pt" height="100pt" version="1.1" viewBox="0 0 100 100" xmlns="http://www.w3.org/2000/svg">
 <g fill="#fff">
  <path d="m87.191 10.18-11.363 10.82 5.6289 5.8789 3-2.9102c-0.45703-2.7305 5.543-10.848 5.543-10.848z"/>
  <path d="m69.699 26.898-3.1797 3.0508 5.6211 5.8789 3.1875-3.0469z"/>
  <path d="m60.391 35.809-40.32 38.562 5.6289 5.8789 40.301-38.559zm-29.789 35.191-1.6914 1.6211c-0.14062 0.13281-0.32812 0.20703-0.51953 0.20703-0.20703 0.003906-0.40234-0.082031-0.53906-0.23828-0.29297-0.29297-0.29297-0.76562 0-1.0586l1.6914-1.6211h-0.003907c0.30078-0.28906 0.77344-0.28906 1.0703 0 0.14844 0.14453 0.23047 0.33984 0.23047 0.54688-0.003906 0.20703-0.089844 0.40234-0.23828 0.54297zm8.7617-8.3789-1.6992 1.6211-0.003906-0.003907c-0.13672 0.13672-0.32422 0.21484-0.51953 0.21094-0.20312-0.003907-0.39844-0.085938-0.53906-0.23047-0.28906-0.29297-0.28906-0.76562 0-1.0586l1.6992-1.6211c0.30469-0.1875 0.69922-0.13281 0.94531 0.12891 0.24219 0.26562 0.26562 0.66406 0.054687 0.95312zm8.75-8.3711-1.6914 1.6211c-0.14062 0.13281-0.32812 0.20703-0.52344 0.20703-0.30469 0-0.57813-0.18359-0.69531-0.46875-0.11328-0.28125-0.042969-0.60547 0.17578-0.82031l1.6992-1.6211v0.003906c0.29297-0.29297 0.76953-0.29297 1.0625 0 0.27734 0.29688 0.26562 0.76562-0.03125 1.0469zm8.7617-8.3711-1.6992 1.6211h-0.003906c-0.14062 0.13672-0.32812 0.21094-0.52344 0.21094-0.20313-0.003907-0.39844-0.089844-0.53906-0.24219-0.29297-0.29297-0.29297-0.76562 0-1.0586l1.6914-1.6211c0.29297-0.29297 0.76562-0.29297 1.0586 0 0.29688 0.28906 0.30078 0.76563 0.011719 1.0625z"/>
  <path d="m19.57 86.109-5.6289-5.8789-3.9414 3.7695 5.6211 5.8789z"/>
  <path d="m15.027 79.195 3.9609-3.7891 5.625 5.8828-3.9609 3.7891z"/>
  <path d="m70.789 25.863 3.9609-3.7891 5.625 5.8828-3.9609 3.7891z"/>
  <path d="m61.477 34.777 3.9609-3.7891 5.625 5.8828-3.9609 3.7891z"/>
 </g>
</svg>
