<?xml version="1.0" encoding="UTF-8"?>
<svg width="100pt" height="100pt" version="1.1" viewBox="0 0 100 100" xmlns="http://www.w3.org/2000/svg">
 <path d="m27 28.477v0.023438c0 1.3789 1.1211 2.5 2.5 2.5 1.207 0 2.2188-0.85938 2.4492-2h4.0508c1.6523 0 3 1.3477 3 3v30c0 8.8203 6.6172 16 14.75 16 8.2656 0 15.25-7.3281 15.25-16v-8c0-0.41016 0.11328-4 4-4h2.4141l-19.594-19.59 1.2266 3.8945c0.007813 0.03125 0.90625 3.0352-0.52734 3.8203-3.582 1.957-4.4297 9.8828-4.5195 10.875v13c0 1.1016-0.89844 2-2 2s-2-0.89844-2-2v-1h2v-2h-2v-2h2v-2h-2v-2h2v-2h-2v-2h2v-2h-2v-2h2v-2h-2v-2h2v-2h-2v-7c0-4.9609-4.0391-9-9-9h-7.0508c-0.23047-1.1406-1.2422-2-2.4492-2s-2.2188 0.85938-2.4492 2h-6.0508v3.9609l0.96094 0.039062c0.98047 0.039062 3.6484 0.39062 5.0391 1.4766z" fill="#fff"/>
</svg>
