<?xml version="1.0" encoding="UTF-8"?>
<svg width="100pt" height="100pt" version="1.1" viewBox="0 0 100 100" xmlns="http://www.w3.org/2000/svg">
 <path d="m8.6602 36.262 21.973 5.5195 0.54688-2.1797-21.973-5.5352z" fill="#fff"/>
 <path d="m29.031 21.535c-2.4453-0.51562-7.1523-1.1758-11.496-1.6797-4.3438 0.5-9.0352 1.1602-11.496 1.6797 2.1172 0.375 6.1484 0.72266 11.496 0.72266 5.3633 0 9.3945-0.34766 11.496-0.72266z" fill="#fff"/>
 <path d="m91.34 36.262-0.54688-2.1953-21.973 5.5352 0.54688 2.1797z" fill="#fff"/>
 <path d="m93.961 21.535c-2.4609-0.51562-7.1523-1.1758-11.496-1.6797-4.3438 0.5-9.0508 1.1602-11.496 1.6797 2.1016 0.375 6.1328 0.72266 11.496 0.72266 5.3477 0 9.3789-0.34766 11.496-0.72266z" fill="#fff"/>
 <path d="m91.719 37.781-21.957 5.5234 4.375 17.391 21.957-5.5352z" fill="#fff"/>
 <path d="m8.2812 37.781-4.375 17.379 21.957 5.5352 4.375-17.391z" fill="#fff"/>
 <path d="m50 34.707c-11.184 0-20.277 9.0977-20.277 20.277 0 11.184 9.0938 20.281 20.277 20.281s20.277-9.0977 20.277-20.277c0-11.184-9.0938-20.281-20.277-20.281zm0 38.363c-9.9766 0-18.082-8.1094-18.082-18.082 0-9.9609 8.1094-18.066 18.082-18.066 9.9766 0 18.082 8.1094 18.082 18.066 0 9.9727-8.1055 18.082-18.082 18.082z" fill="#fff"/>
 <path d="m50 38.488c-9.1133 0-16.516 7.4023-16.516 16.5 0 9.1133 7.4023 16.516 16.516 16.516s16.516-7.4023 16.516-16.516c0-9.0977-7.4023-16.5-16.516-16.5z" fill="#fff"/>
 <path d="m16.5 23.465v11.219l2.0703 0.53125v-11.75z" fill="#fff"/>
 <path d="m81.43 35.215 2.0703-0.53125v-11.219h-2.0703z" fill="#fff"/>
 <path d="m18.691 73.891c-0.074218-0.066406-0.12109-0.17578-0.12109-0.28906v-13.527l-2.0703-0.53125v14.055c0 0.10938-0.046875 0.21484-0.12109 0.28906-1 0.91406-2.0078 1.8242-3.0195 2.7344-0.6875 0.61719-1.375 1.2383-2.043 1.8438-0.17969 0.14453-0.40625 0.38672-0.32422 0.78906 0.078124 0.37891 0.39844 0.72656 0.75781 0.83203 0.29688 0.089843 0.55078 0.019531 0.76562-0.19531l4.7656-4.2969c0.14844-0.13281 0.38281-0.13281 0.52734-0.003906 1.5703 1.4297 3.1406 2.8555 4.7227 4.2539 0.078125 0.074219 0.27734 0.27734 0.57031 0.27734 0.066407 0 0.13672-0.011719 0.21484-0.035156 0.36719-0.097657 0.70703-0.46484 0.78516-0.84375 0.0625-0.28125-0.035156-0.53516-0.27734-0.75z" fill="#fff"/>
 <path d="m40.836 74.367-0.53125-0.25781-4.832 4.375c-0.11328 0.089844-0.41016 0.34766-0.31641 0.76562 0.074219 0.38672 0.41016 0.75391 0.76172 0.84766 0.085937 0.027344 0.16797 0.039063 0.24609 0.039063 0.20313 0 0.38672-0.082031 0.51563-0.23047 0.98828-0.89453 3.3242-2.9805 5.0469-4.5156l0.46484-0.41406-0.57422-0.23828c-0.26563-0.11719-0.52344-0.24609-0.78125-0.37109z" fill="#fff"/>
 <path d="m87.312 77.227c-1.2422-1.1133-2.4727-2.2188-3.6758-3.3203-0.085938-0.085938-0.13281-0.19531-0.13281-0.30078v-14.055l-2.0703 0.53125v13.527c0 0.10938-0.046875 0.22266-0.12109 0.28906l-5.082 4.582c-0.10156 0.085937-0.41797 0.33984-0.32422 0.77344 0.078125 0.38672 0.41797 0.75391 0.76172 0.84375 0.085937 0.027344 0.16797 0.042969 0.24609 0.042969 0.19141 0 0.36328-0.078125 0.51563-0.23047 1.6328-1.4453 3.1992-2.8711 4.7695-4.3008 0.14844-0.13281 0.37891-0.13281 0.52734 0l4.7227 4.2539c0.16016 0.15625 0.41016 0.35156 0.80859 0.23828 0.36328-0.10547 0.68359-0.45312 0.76172-0.83203 0.058594-0.29297-0.03125-0.54297-0.28125-0.76172z" fill="#fff"/>
 <path d="m59.695 74.109-0.66797 0.32422c-0.21484 0.10547-0.43359 0.21484-0.66016 0.32031l-0.54688 0.25391 3.7734 3.3516c0.69922 0.625 1.3047 1.1641 1.6758 1.5 0.19141 0.19141 0.39062 0.28516 0.59375 0.28516 0.070313 0 0.14453-0.011719 0.21875-0.035156 0.35547-0.12109 0.66016-0.45703 0.75781-0.84766 0.066406-0.29297-0.042969-0.57422-0.27734-0.75391z" fill="#fff"/>
</svg>
