<?xml version="1.0" encoding="UTF-8"?>
<svg width="128pt" height="128pt" version="1.1" viewBox="0 0 128 128" xmlns="http://www.w3.org/2000/svg">
 <path d="m29.812 87.289c0 5.0781 4.1328 9.2109 9.2109 9.2109 4.5117 0 8.3125-3.2773 9.0391-7.7109-6.4297-0.66406-12.508-1.7227-18.082-3.1562-0.11328 0.58984-0.16797 1.1367-0.16797 1.6562z" fill="#fff"/>
 <path d="m122.5 53.574c0 13.531-26.191 24.5-58.5 24.5s-58.5-10.969-58.5-24.5 26.191-24.5 58.5-24.5 58.5 10.969 58.5 24.5" fill="#fff"/>
 <path d="m7.5859 74.203c-1.3555 1.6523-2.0938 3.6953-2.0938 5.8008 0 5.082 4.1328 9.2109 9.2109 9.2109 3.8164 0 7.1992-2.3633 8.5586-5.9297-6.9883-2.5078-12.387-5.6367-15.676-9.082z" fill="#fff"/>
 <path d="m64 89.594c-2.3477 0-6.8711-0.18359-9.1797-0.28516-0.015624 0.19141-0.03125 0.35156-0.03125 0.42969 0 5.0547 4.1328 9.1875 9.2109 9.1875s9.2109-4.1328 9.2109-9.2109c-0.003907-0.074219-0.015626-0.22266-0.03125-0.40625-2.3086 0.10156-6.832 0.28516-9.1797 0.28516z" fill="#fff"/>
 <path d="m120.41 74.203c-3.2891 3.4453-8.6875 6.5742-15.676 9.082 1.3633 3.5664 4.7422 5.9297 8.5586 5.9297 5.0781 0 9.2109-4.1328 9.2109-9.2109 0-2.1055-0.73828-4.1484-2.0938-5.8008z" fill="#fff"/>
 <path d="m101.42 82.82c-0.25-0.77344 0.16406-1.6055 0.92969-1.8789l0.92188-0.32031c7.0234-2.4648 12.316-5.5234 15.293-8.8359l0.73828-0.82031c0.28516-0.31641 0.73047-0.58594 1.1172-0.49609 0.42188 0 0.82031 0.17578 1.1055 0.48828l0.74219 0.8125c0.085937 0.09375 0.14844 0.20703 0.23047 0.30469v-9.8516c-7.9297 11.059-30.797 18.859-58.5 18.859s-50.57-7.7969-58.5-18.859v9.8555c0.085937-0.097656 0.14453-0.21094 0.23438-0.30469l0.74219-0.8125c0.28516-0.3125 0.64844-0.52344 1.1133-0.48828 0.42187 0.003906 0.82422 0.18359 1.1094 0.49609l0.73828 0.82031c2.9766 3.3164 8.2695 6.3711 15.293 8.8359l0.91797 0.32031c0.76953 0.26953 1.1836 1.1016 0.92969 1.8789l-0.29688 0.92578c-0.65234 2.0195-1.8008 3.7539-3.2578 5.1328 1.332 0.49219 2.7266 0.95703 4.1797 1.3945-0.24219-0.96094-0.38672-1.957-0.38672-2.9922 0-0.90234 0.11719-1.8359 0.36328-2.8516l0.24219-0.99219c0.09375-0.39453 0.34375-0.72656 0.6875-0.93359 0.34766-0.20703 0.75781-0.26562 1.1523-0.16406l0.98828 0.25781c5.7031 1.5 11.973 2.5977 18.633 3.2578l1.0039 0.10156c0.39844 0.039062 0.76563 0.23828 1.0195 0.54687 0.25391 0.3125 0.37109 0.71094 0.32422 1.1094l-0.10937 1.0039c-0.23828 2.1602-1.0508 4.1172-2.2344 5.7773 1.3203 0.13281 2.6484 0.24609 4 0.33594-0.69531-1.5312-1.0898-3.2266-1.0898-5.0156 0-0.26562 0.19531-2.1289 0.19531-2.1289 0.082031-0.78906 0.79297-1.3945 1.5625-1.3359 0.066407 0 7.3516 0.33984 10.449 0.33984s10.383-0.33984 10.457-0.34766c0.76562-0.058594 1.4805 0.54688 1.5625 1.3359 0 0 0.19531 1.8633 0.19531 2.1289 0 1.7891-0.39453 3.4844-1.0898 5.0156 1.3516-0.09375 2.6836-0.20312 4-0.33594-1.1875-1.6562-2-3.6133-2.2344-5.7773l-0.10938-1.0039c-0.042969-0.39844 0.074219-0.79688 0.32422-1.1094 0.25391-0.30859 0.61719-0.50781 1.0195-0.54688l1-0.097656c6.6602-0.66406 12.93-1.7578 18.633-3.2578l0.98828-0.25781c0.39062-0.10156 0.80469-0.042969 1.1523 0.16406 0.34766 0.20703 0.59375 0.54297 0.6875 0.93359l0.23828 0.99219c0.24609 1.0195 0.36328 1.9531 0.36328 2.8555 0 1.0352-0.14453 2.0312-0.38672 2.9922 1.4531-0.4375 2.8477-0.90234 4.1797-1.3945-1.4609-1.3789-2.6055-3.1172-3.2578-5.1328z" fill="#fff"/>
 <path d="m79.938 88.789c0.72656 4.4297 4.5273 7.7109 9.0391 7.7109 5.0781 0 9.2109-4.1328 9.2109-9.2109 0-0.51953-0.054688-1.0664-0.17188-1.6523-5.5703 1.4297-11.648 2.4922-18.078 3.1523z" fill="#fff"/>
</svg>
