<?xml version="1.0" encoding="UTF-8"?>
<svg width="128pt" height="128pt" version="1.1" viewBox="0 0 128 128" xmlns="http://www.w3.org/2000/svg">
 <defs>
  <clipPath id="b">
   <path d="m63 86h23v18.305h-23z"/>
  </clipPath>
  <clipPath id="a">
   <path d="m39 23.695h50v56.305h-50z"/>
  </clipPath>
 </defs>
 <path d="m85.512 80.039c0 2.6484-1.7461 4.8047-3.8945 4.8047h-1.1016c1.207-1.125 1.9844-2.8594 1.9844-4.8047 0-1.5-0.46875-2.9336-1.2969-4.0469 0.30859-0.23438 0.60938-0.47266 0.90625-0.72266 1.9258 0.30078 3.4023 2.3359 3.4023 4.7695z" fill="#fff"/>
 <g clip-path="url(#b)">
  <path d="m72.004 87.324c0.45703-0.72656 1.2383-1.1602 2.0977-1.1602h9.4102c1.3672 0 2.4766 1.1094 2.4766 2.4766v13.184c0 1.3672-1.1094 2.4766-2.4766 2.4766h-17.699c-0.91406 0-1.7266-0.47656-2.168-1.2812-0.44141-0.80078-0.41406-1.7422 0.070313-2.5156zm5.6523 11.207c1.3359 0 2.4219-1.9844 2.4219-4.4336 0-2.4492-1.0859-4.4336-2.4219-4.4336s-2.4219 1.9844-2.4219 4.4336c0.003906 2.4453 1.0859 4.4336 2.4219 4.4336z" fill="#fff"/>
 </g>
 <path d="m80.129 76.754c0.67578 0.88672 1.0547 2.0547 1.0547 3.2812 0 2.6484-1.7461 4.8047-3.8945 4.8047-2.1484 0-3.8945-2.1562-3.8945-4.8047 0-0.089844 0.003907-0.18359 0.007813-0.27344 1.7812-0.46094 3.5352-1.1523 5.2188-2.0898 0.51953-0.28516 1.0195-0.59375 1.5078-0.91797z" fill="#fff"/>
 <path d="m75.637 72.312c3.4844-1.9414 6.2188-0.41016 7.2812 0.38281-1.4102 1.4805-3.0625 2.7773-4.9414 3.8203-1.8789 1.0469-3.8555 1.7695-5.8555 2.1875-0.125-1.3203 0.003906-4.4336 3.5156-6.3906z" fill="#fff"/>
 <g clip-path="url(#a)">
  <path d="m49.684 49.355c-3.2734 1.8242-6.5469 2.1875-9.4805 1.0703-1.125-3.7578-1.1602-7.7617-0.058594-11.625 1.5234-5.3438 5.0352-9.7773 9.8906-12.48 8.668-4.8281 19.332-2.7773 25.668 4.3477-0.59766 3.082-2.6289 5.668-5.9023 7.4883-0.32031 0.17578-0.43359 0.57812-0.25781 0.89844 0.12109 0.21875 0.34766 0.33984 0.57812 0.33984 0.10938 0 0.21875-0.027343 0.32031-0.082031 3.2656-1.8164 5.4219-4.3438 6.3125-7.3594 0.57422 0.76172 1.1055 1.5703 1.582 2.4258l1.7695 3.1797c-0.39062 3.4414-2.4688 6.3047-6.0273 8.2852-0.32031 0.17578-0.43359 0.57812-0.25781 0.89844 0.12109 0.21875 0.34766 0.33984 0.57813 0.33984 0.10937 0 0.21875-0.027343 0.32031-0.082031 3.375-1.8789 5.5508-4.4922 6.3906-7.6367l3.2734 5.8828c-0.39062 3.4414-2.4688 6.3008-6.0273 8.2852-0.32031 0.17578-0.43359 0.57812-0.25781 0.89844 0.12109 0.21875 0.34766 0.33984 0.57812 0.33984 0.10938 0 0.21875-0.027343 0.32031-0.082031 3.375-1.8789 5.5508-4.4922 6.3906-7.6367l0.65234 1.1719c1.1367 2.043 1.8906 4.1992 2.2891 6.3789-0.78906 2.7227-2.7031 4.9492-5.6953 6.6133-0.32031 0.17578-0.43359 0.57812-0.25781 0.89844 0.12109 0.21875 0.34766 0.33984 0.57812 0.33984 0.10938 0 0.21875-0.027344 0.32031-0.082031 2.4062-1.3438 4.2188-3.082 5.3633-5.1172 0.26562 5.2266-1.4531 10.418-4.8359 14.461-1.2656-0.96484-4.6055-2.8906-8.8047-0.55469-4.1992 2.3398-4.3203 6.1875-4.168 7.7734-5.2148 0.74609-10.531-0.52734-14.832-3.5039 0.16016 0.007812 0.32031 0.011718 0.48047 0.011718 2.1836 0 4.4492-0.62891 6.6836-1.875 0.32031-0.17578 0.43359-0.57812 0.25781-0.89844-0.17578-0.32031-0.57812-0.43359-0.89844-0.25781-2.9922 1.6641-5.8906 2.1211-8.6211 1.3555-1.6445-1.4883-3.0781-3.2656-4.2188-5.3086l-0.65234-1.1719c1.0391 0.31641 2.1055 0.47266 3.1914 0.47266 2.1719 0 4.418-0.62891 6.668-1.8789 0.32031-0.17578 0.43359-0.57812 0.25781-0.89844-0.17578-0.32031-0.57812-0.43359-0.89844-0.25781-3.5586 1.9805-7.0859 2.2422-10.219 0.75781l-3.2734-5.8828c1.0391 0.31641 2.1055 0.47266 3.1914 0.47266 2.1719 0 4.418-0.62891 6.668-1.8789 0.32031-0.17578 0.43359-0.57812 0.25781-0.89844-0.17578-0.32031-0.57812-0.43359-0.89844-0.25781-3.5586 1.9805-7.0859 2.2422-10.219 0.75781l-1.7695-3.1797c-0.47656-0.85547-0.88672-1.7305-1.2344-2.6289 0.94922 0.26172 1.9219 0.39453 2.9141 0.39453 2.1758 0 4.4297-0.62891 6.6719-1.8789 0.32031-0.17578 0.43359-0.57812 0.25781-0.89844-0.19141-0.30859-0.59375-0.42187-0.91016-0.24609zm15.98 22.059c0.12109 0.21875 0.34766 0.33984 0.57813 0.33984 0.10937 0 0.21875-0.027344 0.32031-0.082031l13.312-7.4102c0.32031-0.17578 0.43359-0.57812 0.25781-0.89844-0.17578-0.32031-0.57812-0.43359-0.89844-0.25781l-13.312 7.4102c-0.32031 0.17578-0.4375 0.57812-0.25781 0.89844zm-4.2773-7.6836c0.12109 0.21875 0.34766 0.33984 0.57812 0.33984 0.10938 0 0.21875-0.027343 0.32031-0.082031l13.312-7.4102c0.32031-0.17578 0.43359-0.57812 0.25781-0.89844-0.17578-0.32031-0.57812-0.43359-0.89844-0.25781l-13.312 7.4102c-0.32031 0.17578-0.4375 0.57812-0.25781 0.89844zm-4.2773-7.6836c0.12109 0.21875 0.34766 0.33984 0.57812 0.33984 0.10938 0 0.21875-0.027344 0.32031-0.082031l13.312-7.4102c0.32031-0.17578 0.43359-0.57812 0.25781-0.89844-0.17578-0.32031-0.57812-0.43359-0.89844-0.25781l-13.312 7.4102c-0.32422 0.17578-0.4375 0.57812-0.25781 0.89844zm-4.2773-7.6875c0.12109 0.21875 0.34766 0.33984 0.57812 0.33984 0.10938 0 0.21875-0.027344 0.32031-0.082031l13.312-7.4102c0.32031-0.17578 0.43359-0.57812 0.25781-0.89844-0.17578-0.32031-0.57812-0.43359-0.89844-0.25781l-13.312 7.4102c-0.32422 0.17969-0.4375 0.58203-0.25781 0.89844zm0.20312-16.648c4.8555-2.707 10.762-2.4844 15.41 0.57422 0.30469 0.19922 0.71484 0.11719 0.91406-0.1875 0.19922-0.30469 0.11719-0.71484-0.1875-0.91406-5.0586-3.332-11.488-3.5703-16.777-0.625-4.2344 2.3555-7.168 6.4453-8.043 11.215-0.066406 0.35937 0.17188 0.70312 0.53125 0.76953 0.039063 0.007812 0.082032 0.011719 0.12109 0.011719 0.3125 0 0.58984-0.22266 0.64844-0.54297 0.80078-4.3828 3.4961-8.1367 7.3828-10.301z" fill="#fff"/>
 </g>
</svg>
