<?xml version="1.0" encoding="UTF-8"?>
<svg viewBox="0 0 100 100" xmlns="http://www.w3.org/2000/svg">
 <rect x="-10" y="-10" width="120" height="120"/>
 <path d="m78.914 25.941-4.8711-4.8711c-0.85156-0.85156-2.3359-0.84766-3.1797 0-0.42578 0.42578-0.65625 0.98828-0.65625 1.5898 0 0.60156 0.23438 1.168 0.65625 1.5938l0.55859 0.55859-2.3789 2.3789-2.2422-2.2422c-0.24609-0.24609-0.64453-0.24609-0.89062 0-0.24609 0.24609-0.24609 0.64453 0 0.89062l2.2422 2.2461-1.9766 1.9766-2.2383-2.2422c-0.24609-0.24609-0.64453-0.24609-0.89062 0-0.24609 0.24609-0.24609 0.64453 0 0.89063l2.2383 2.2422-3.0664 3.0664c-2.8555-2.0742-6.2695-3.2148-9.8672-3.2148-4.4961 0-8.7266 1.75-11.906 4.9297l-0.35156 0.35156c-0.21094 0.21094-0.24219 0.53906-0.082031 0.78906 2.5 3.8398 1.9609 8.9844-1.2852 12.227-1.8438 1.8438-4.2969 2.8594-6.9023 2.8594-1.8984 0-3.7422-0.54297-5.3242-1.5742-0.25-0.16406-0.57812-0.12891-0.78906 0.082031l-0.35156 0.35156c-3.1797 3.1797-4.9336 7.4062-4.9336 11.902s1.7539 8.7266 4.9336 11.906c3.1797 3.1797 7.4062 4.9297 11.902 4.9297 4.4961 0 8.7266-1.7539 11.906-4.9336l0.35156-0.35156c0.21094-0.21094 0.24609-0.53906 0.082031-0.78906-2.5-3.8438-1.957-8.9805 1.2852-12.227 1.8477-1.8477 4.3008-2.8594 6.9102-2.8594 1.5156 0 2.9844 0.35937 4.3242 1.0234 0.058594 0.085937 0.14062 0.15234 0.25391 0.15234 0.003906 0 0.007812-0.003907 0.011719-0.003907 0.24609 0.13281 0.49609 0.25 0.73047 0.40234 0.24219 0.16016 0.57422 0.12891 0.78906-0.082031l0.35547-0.35156c5.9219-5.9219 6.4805-15.191 1.7148-21.77l3.0703-3.0703 2.2383 2.2383c0.125 0.125 0.28516 0.18359 0.44531 0.18359 0.16016 0 0.32422-0.0625 0.44531-0.18359 0.24609-0.24609 0.24609-0.64453 0-0.89062l-2.2422-2.2383 1.9766-1.9766 2.2383 2.2422c0.125 0.125 0.28516 0.18359 0.44531 0.18359s0.32422-0.0625 0.44531-0.18359c0.24609-0.24609 0.24609-0.64453 0-0.89062l-2.2422-2.2422 2.3828-2.3789 0.55469 0.55859c0.42578 0.42578 0.98828 0.66016 1.5938 0.66016 0.60156 0 1.168-0.23438 1.5938-0.66016 0.42578-0.42578 0.66016-0.98828 0.66016-1.5898-0.007812-0.59766-0.24219-1.1641-0.66797-1.5898zm-12.738 5.8984 0.050781 0.050781c-0.066406 0.007813-0.12891 0.03125-0.17578 0.074219zm-2.8086 4.7812c0.023437 0.023437 0.042968 0.050781 0.070312 0.078125 0.003906 0 0.003906 0.003906 0.007812 0.007812 0.30469 0.30859 0.58984 0.62891 0.86328 0.95312l-0.36719 0.36719c0.019532-0.042969 0.054688-0.078125 0.054688-0.125 0-0.17969-0.14844-0.32422-0.32422-0.32422s-0.32422 0.14453-0.32422 0.32422c0 0.17969 0.14844 0.32422 0.32422 0.32422 0.046875 0 0.082031-0.03125 0.125-0.054687l-1.1133 1.1133c-0.019532-0.16016-0.14453-0.28516-0.30469-0.28516-0.17969 0-0.32812 0.14453-0.32812 0.32422 0 0.16406 0.12891 0.28906 0.28906 0.30859l-0.98438 0.98828c-0.054688-0.10938-0.14062-0.19531-0.27344-0.19531-0.17969 0-0.32422 0.14453-0.32422 0.32422 0 0.12891 0.085938 0.21875 0.19531 0.26953l-0.93359 0.93359c-0.058593-0.0625-0.14062-0.10547-0.23438-0.10547-0.18359 0-0.32812 0.14453-0.32812 0.32422 0 0.09375 0.042969 0.17578 0.10547 0.23438l-0.92969 0.92969c-0.046874-0.027344-0.089843-0.0625-0.14844-0.0625-0.17969 0-0.32422 0.14453-0.32422 0.32422 0 0.058594 0.035156 0.10156 0.0625 0.14844l-0.97656 0.97656c-0.023438-0.003906-0.035156-0.023437-0.058594-0.023437-0.17969 0-0.32422 0.14453-0.32422 0.32422 0 0.023437 0.019531 0.039062 0.023438 0.058593l-1.0664 1.0664c-0.11328 0.027343-0.19531 0.10937-0.22656 0.22656l-7.3203 7.3203c0.019531-0.042968 0.054687-0.082031 0.054687-0.13281 0-0.17969-0.14453-0.32422-0.32422-0.32422-0.17969 0-0.32422 0.14453-0.32422 0.32422s0.14453 0.32812 0.32422 0.32812c0.050782 0 0.085938-0.03125 0.12891-0.054687l-1.1172 1.1172c-0.019531-0.16016-0.14453-0.28906-0.30859-0.28906-0.17969 0-0.32422 0.14453-0.32422 0.32813 0 0.16406 0.12891 0.28906 0.28906 0.30859l-0.98828 0.98438c-0.054688-0.10938-0.14062-0.19922-0.27344-0.19922-0.17969 0-0.32422 0.14453-0.32422 0.32422 0 0.12891 0.089843 0.21875 0.19922 0.27344l-0.93359 0.93359c-0.058593-0.066407-0.14062-0.10938-0.23828-0.10938-0.17578 0-0.32422 0.14453-0.32422 0.32422 0 0.09375 0.042969 0.17578 0.10938 0.23438l-0.92969 0.92969c-0.046875-0.027344-0.09375-0.0625-0.15234-0.0625-0.17969 0-0.32422 0.14453-0.32422 0.32422 0 0.058594 0.035156 0.10547 0.0625 0.15234l-0.97266 0.97266c-0.023437-0.003906-0.039062-0.027343-0.0625-0.027343-0.17969 0-0.32422 0.14453-0.32422 0.32422 0 0.023437 0.019532 0.039062 0.027344 0.0625l-1.0664 1.0664c-0.11719 0.027344-0.19922 0.10938-0.22656 0.22656l-4.2891 4.2891-1.9727-1.9766 2.4141-2.418c-0.035156 0.050781-0.070312 0.10547-0.070312 0.17187 0 0.17969 0.14453 0.32422 0.32422 0.32422 0.17969 0 0.32422-0.14453 0.32422-0.32422 0-0.17969-0.14453-0.32422-0.32422-0.32422-0.066407 0-0.11719 0.035156-0.17188 0.070312l1.1484-1.1484c0.011719 0.16797 0.14453 0.30469 0.31641 0.30469 0.17969 0 0.32422-0.14453 0.32422-0.32422 0-0.17188-0.13672-0.30469-0.30469-0.31641l0.99609-0.99609c0.050781 0.12109 0.14453 0.21484 0.28125 0.21484 0.17578 0 0.32422-0.14453 0.32422-0.32812 0-0.13672-0.097656-0.23047-0.21094-0.28125l0.94531-0.94531c0.058594 0.070312 0.14062 0.125 0.24219 0.125 0.17969 0 0.32422-0.14453 0.32422-0.32422 0-0.10156-0.050781-0.18359-0.125-0.24219l0.92578-0.92578c0.050782 0.03125 0.10156 0.070313 0.16797 0.070313 0.17969 0 0.32422-0.14453 0.32422-0.32422 0-0.066406-0.035156-0.11719-0.070312-0.16797l0.96094-0.96484c0.027344 0.007812 0.046875 0.03125 0.078125 0.03125 0.17969 0 0.32422-0.14453 0.32422-0.32422 0-0.03125-0.023438-0.050781-0.03125-0.078125l1.0352-1.0352c0.15234-0.015626 0.26562-0.13281 0.28516-0.28516l7.3203-7.3164c-0.035156 0.050781-0.070313 0.10547-0.070313 0.17188 0 0.17969 0.14453 0.32422 0.32422 0.32422s0.32422-0.14453 0.32422-0.32422-0.14062-0.32422-0.32422-0.32422c-0.066406 0-0.12109 0.035157-0.17188 0.070313l1.1523-1.1523c0.011719 0.16797 0.14453 0.30469 0.31641 0.30469 0.17969 0 0.32422-0.14453 0.32422-0.32422 0-0.17188-0.13672-0.30469-0.30469-0.31641l0.99609-0.99219c0.046875 0.12109 0.14062 0.21484 0.28125 0.21484 0.17578 0 0.32422-0.14453 0.32422-0.32422 0-0.13672-0.097657-0.23047-0.21484-0.28125l0.94531-0.94531c0.058593 0.074218 0.14062 0.125 0.23828 0.125 0.18359 0 0.32812-0.14453 0.32812-0.32422 0-0.10156-0.054688-0.18359-0.125-0.24219l0.92578-0.92578c0.050781 0.035156 0.10156 0.070312 0.17188 0.070312 0.17578 0 0.32422-0.14453 0.32422-0.32422 0-0.066406-0.035157-0.11719-0.070313-0.16797l0.96484-0.96484c0.027344 0.007813 0.050781 0.03125 0.078125 0.03125 0.17969 0 0.32422-0.14453 0.32422-0.32422 0-0.03125-0.023438-0.050781-0.03125-0.078124l1.0273-1.0273c0.15625-0.011719 0.27734-0.13281 0.29297-0.28906l2.2383-2.2422c0.35156 0.29688 0.70312 0.60547 1.0312 0.9375zm4.4648 12.547c-0.050781-0.11328-0.14062-0.20703-0.27344-0.20703-0.17969 0-0.32422 0.14453-0.32422 0.32422 0 0.17969 0.14453 0.32422 0.32422 0.32422 0.09375 0 0.17188-0.042969 0.23438-0.10547-0.035157 0.30859-0.078125 0.61719-0.13281 0.92188-0.035156-0.011719-0.0625-0.042969-0.10156-0.042969-0.17969 0-0.32422 0.14453-0.32422 0.32422 0 0.17188 0.13281 0.30078 0.30078 0.31641-0.074218 0.33984-0.16016 0.67187-0.25781 1.0078-0.011719 0.035156-0.042969 0.0625-0.042969 0.10156 0 0.007813 0.007813 0.011719 0.007813 0.015626-0.25781 0.86328-0.59375 1.7031-1.0039 2.5156-0.16797 0.015626-0.29688 0.14453-0.29688 0.31641 0 0.058593 0.035156 0.10156 0.0625 0.14844-0.22656 0.41406-0.47266 0.81641-0.73828 1.2148-0.03125-0.14453-0.14062-0.26562-0.29688-0.26562-0.17969 0-0.32422 0.14453-0.32422 0.32422 0 0.17969 0.14062 0.32422 0.32422 0.32422 0.015625 0 0.023438-0.015624 0.035156-0.015624-0.48438 0.67578-1.0234 1.3281-1.6289 1.9336-0.32031-0.1875-0.65625-0.34375-0.99609-0.49609 0.17578 0 0.32031-0.14453 0.32031-0.32422 0-0.17969-0.14453-0.32422-0.32422-0.32422s-0.32812 0.14453-0.32812 0.32422c0 0.078125 0.035156 0.14453 0.085937 0.20312-0.25-0.10547-0.50391-0.18359-0.76172-0.26953-0.035156-0.14062-0.14453-0.25391-0.29688-0.25391-0.078125 0-0.14453 0.035156-0.20312 0.082032-0.99219-0.28906-2.0234-0.44531-3.0742-0.44531-1.043 0-2.0625 0.15234-3.0391 0.42969-0.050781-0.03125-0.10156-0.066406-0.16406-0.066406-0.13281 0-0.22656 0.09375-0.27734 0.20703-0.25391 0.085937-0.51172 0.17187-0.76172 0.27344 0.027343-0.050781 0.066406-0.097656 0.066406-0.16016 0-0.17969-0.14453-0.32422-0.32422-0.32422s-0.32422 0.14453-0.32422 0.32422c0 0.16016 0.125 0.27734 0.27734 0.30469-1.1914 0.54297-2.293 1.2891-3.25 2.2422-0.16016 0.16016-0.30469 0.32812-0.45312 0.49219 0.042969-0.054687 0.078125-0.11328 0.078125-0.1875 0-0.17969-0.14453-0.32422-0.32422-0.32422-0.17969 0-0.32422 0.14453-0.32422 0.32422 0 0.17969 0.14063 0.32422 0.32422 0.32422 0.078125 0 0.14062-0.035156 0.19531-0.082031-0.61719 0.71094-1.1328 1.4805-1.5391 2.2969-0.15234 0.027344-0.27344 0.14453-0.27344 0.30469 0 0.058594 0.035156 0.10156 0.0625 0.15234-0.36328 0.81641-0.62109 1.668-0.77734 2.5391-0.058594-0.09375-0.14062-0.16406-0.25781-0.16406-0.17969 0-0.32422 0.14453-0.32422 0.32422 0 0.17969 0.14453 0.32422 0.32422 0.32422 0.074218 0 0.13672-0.035156 0.19141-0.078124-0.042969 0.29687-0.074219 0.59766-0.089844 0.89453-0.035156-0.015625-0.058594-0.042969-0.097656-0.042969-0.17969 0-0.32422 0.14453-0.32422 0.32422 0 0.17969 0.14453 0.32812 0.32422 0.32812 0.03125 0 0.054687-0.027344 0.082031-0.035156-0.003906 0.28516 0.003906 0.57031 0.023437 0.85547-0.035156-0.015625-0.066406-0.042968-0.10937-0.042968-0.17969 0-0.32422 0.14453-0.32422 0.32422 0 0.17969 0.14453 0.32422 0.32422 0.32422 0.058593 0 0.10156-0.035156 0.14844-0.0625 0.14844 1.2734 0.52344 2.5234 1.1211 3.6953-0.16797 0.015624-0.29688 0.14453-0.29688 0.3125 0 0.17969 0.14453 0.32422 0.32422 0.32422 0.10156 0 0.18359-0.054687 0.24219-0.12891 0.011719 0.019531 0.019531 0.035156 0.027344 0.054688-0.40234 0.40234-0.82812 0.77344-1.2656 1.1289-0.027344-0.15234-0.14453-0.27734-0.30469-0.27734-0.17969 0-0.32422 0.14453-0.32422 0.32422 0 0.13281 0.089844 0.22266 0.19922 0.27344-0.42578 0.32031-0.86719 0.61719-1.3203 0.89062-0.03125 0.019531-0.066407 0.027344-0.089844 0.054688-1.0664 0.63281-2.1953 1.1484-3.3789 1.5039-0.054688-0.10938-0.14453-0.19922-0.27344-0.19922-0.17969 0-0.32422 0.14453-0.32422 0.32422 0 0.007813 0.007813 0.015625 0.007813 0.019531-0.24609 0.066406-0.49219 0.13281-0.74219 0.18359 0.050781-0.058594 0.085937-0.12891 0.085937-0.20703 0-0.17969-0.14453-0.32422-0.32422-0.32422-0.17969 0-0.32422 0.14453-0.32422 0.32422 0 0.13281 0.089843 0.22266 0.19922 0.27344-0.92969 0.17188-1.875 0.26562-2.8398 0.26562-1.1133 0-2.207-0.125-3.2734-0.35156 0.039063-0.054688 0.078125-0.11719 0.078125-0.1875 0-0.17969-0.14453-0.32422-0.32422-0.32422-0.17969 0-0.32812 0.14453-0.32812 0.32422 0 0.019531 0.019532 0.03125 0.019532 0.050781-0.24219-0.058594-0.48438-0.10938-0.72266-0.17969-0.054687-0.10937-0.14062-0.19531-0.26953-0.19531-0.050781 0-0.085938 0.03125-0.12891 0.054688-0.76562-0.25391-1.5156-0.5625-2.2305-0.9375 0.050781-0.058594 0.089844-0.12891 0.089844-0.21094 0-0.17969-0.14453-0.32422-0.32422-0.32422-0.14844 0-0.25 0.10938-0.28906 0.24219-0.6875-0.39453-1.3516-0.83594-1.9805-1.3359v-0.003906c0-0.17969-0.14453-0.32422-0.32422-0.32422-0.019531 0-0.03125 0.019532-0.050781 0.019532-0.32812-0.28125-0.65234-0.5625-0.96094-0.87109-0.015625-0.015625-0.027343-0.03125-0.042969-0.050782 0.046876-0.054687 0.082032-0.12109 0.082032-0.19922 0-0.17969-0.14453-0.32422-0.32422-0.32422-0.066406 0-0.11719 0.035156-0.17188 0.070313-0.29297-0.33594-0.58203-0.67188-0.85547-1.0234 0.027344-0.046875 0.0625-0.089844 0.0625-0.14844 0-0.17969-0.14453-0.32812-0.32422-0.32812-0.027343 0-0.042968 0.023437-0.066406 0.027343-0.51953-0.72266-0.96875-1.4844-1.3555-2.2773 0.042968 0.019531 0.078124 0.050781 0.125 0.050781 0.17969 0 0.32422-0.14453 0.32422-0.32422s-0.14453-0.32422-0.32422-0.32422c-0.14844 0-0.25391 0.10938-0.28906 0.24609-0.36719-0.80469-0.65625-1.6367-0.87891-2.4961 0.10938-0.050781 0.19922-0.14062 0.19922-0.27344 0-0.17969-0.14453-0.32422-0.32422-0.32422-0.007813 0-0.015625 0.007813-0.019531 0.007813-0.0625-0.28516-0.10938-0.57031-0.15625-0.85938 0.054687 0.035157 0.10547 0.074219 0.17578 0.074219 0.17578 0 0.32422-0.14453 0.32422-0.32422 0-0.17969-0.14453-0.32812-0.32422-0.32812-0.10156 0-0.18359 0.054687-0.24219 0.12891-0.085937-0.66797-0.14453-1.3398-0.14453-2.0234 0-0.64062 0.050781-1.2695 0.12891-1.8945 0.054688 0.097656 0.14062 0.17188 0.26172 0.17188 0.17578 0 0.32422-0.14453 0.32422-0.32422 0-0.17969-0.14453-0.32422-0.32422-0.32422-0.082031 0-0.14844 0.035157-0.20312 0.085938 0.042969-0.29688 0.082031-0.59375 0.14062-0.88281 0.023437 0.003906 0.039063 0.027343 0.0625 0.027343 0.17578 0 0.32422-0.14453 0.32422-0.32812 0-0.14453-0.10547-0.25-0.23828-0.28906 0.45703-1.8477 1.2422-3.5898 2.3398-5.1523 0.050782 0.03125 0.10156 0.070312 0.16797 0.070312 0.17969 0 0.32422-0.14453 0.32422-0.32812 0-0.097657-0.050782-0.17969-0.125-0.23828 0.26562-0.34766 0.54688-0.68359 0.84375-1.0117 0.058594 0.085937 0.14062 0.15625 0.25391 0.15625 0.17969 0 0.32422-0.14453 0.32422-0.32422 0-0.125-0.082031-0.21094-0.18359-0.26562 0.050781-0.050782 0.09375-0.10938 0.14453-0.16016 0.23047 0.13672 0.47656 0.23828 0.71484 0.35937-0.003906 0.023438-0.027344 0.039063-0.027344 0.066407 0 0.17969 0.14453 0.32422 0.32422 0.32422 0.097656 0 0.17969-0.050782 0.23828-0.125 1.3594 0.57812 2.8242 0.88281 4.3203 0.88281 1.4961 0 2.9453-0.29688 4.2812-0.86328 0.058593 0.0625 0.14062 0.10547 0.23438 0.10547 0.17969 0 0.32422-0.14453 0.32422-0.32422 0-0.015625-0.015624-0.023438-0.015624-0.035157 0.71094-0.34766 1.3828-0.76562 2.0078-1.2617 0.054688 0.11328 0.14453 0.19922 0.27344 0.19922 0.17578 0 0.32422-0.14453 0.32422-0.32422 0-0.11328-0.066406-0.19531-0.15234-0.25391 0.17188-0.15234 0.35156-0.30078 0.51563-0.46875 0.14844-0.14844 0.28125-0.30078 0.41797-0.45703 0.054688 0.042969 0.11719 0.078125 0.19141 0.078125 0.17969 0 0.32422-0.14453 0.32422-0.32422 0-0.097656-0.042969-0.17578-0.10938-0.23437 0.28516-0.35938 0.55078-0.73438 0.78516-1.1211 0.035157 0.14062 0.14453 0.25391 0.29688 0.25391 0.17969 0 0.32422-0.14453 0.32422-0.32422 0-0.17969-0.14453-0.32422-0.32422-0.32422-0.035157 0-0.058594 0.027344-0.09375 0.039063 0.64453-1.1602 1.0703-2.418 1.2695-3.7109 0.039062 0.019531 0.074219 0.050781 0.12109 0.050781 0.17969 0 0.32422-0.14453 0.32422-0.32422s-0.14453-0.32422-0.32422-0.32422c-0.019531 0-0.027343 0.015625-0.046874 0.019531 0.027343-0.26562 0.046874-0.53125 0.054687-0.79687 0.17578-0.003907 0.31641-0.14453 0.31641-0.32422 0-0.17578-0.13672-0.3125-0.3125-0.32031-0.007812-0.26562-0.027343-0.53125-0.054687-0.79688 0.015625 0.003907 0.027344 0.019531 0.042968 0.019531 0.17969 0 0.32422-0.14453 0.32422-0.32422 0-0.17969-0.14453-0.32422-0.32422-0.32422-0.046874 0-0.082031 0.03125-0.125 0.050781-0.19922-1.2891-0.625-2.5508-1.2891-3.7227 0.039062 0.019531 0.074219 0.050781 0.12109 0.050781 0.17969 0 0.32422-0.14453 0.32422-0.32422 0-0.089843-0.035156-0.17187-0.097656-0.23047 0.33203-0.30859 0.67578-0.60547 1.0273-0.88672 0.015625 0 0.023438 0.015625 0.035156 0.015625 0.15625 0 0.26953-0.11719 0.30078-0.26562 0.65234-0.48438 1.332-0.92188 2.0469-1.293 0.058594 0.078125 0.14063 0.13672 0.24609 0.13672 0.17969 0 0.32422-0.14453 0.32422-0.32422 0-0.027344-0.023437-0.042968-0.027344-0.066406 1.0703-0.50781 2.1914-0.89453 3.3555-1.1445 0.058594 0.066406 0.13672 0.11328 0.23828 0.11328 0.13672 0 0.22656-0.09375 0.27734-0.21094 0.26562-0.046874 0.53516-0.085937 0.80469-0.11719v0.003906c0 0.17969 0.14453 0.32422 0.32422 0.32422 0.17969 0 0.32422-0.14453 0.32422-0.32422 0-0.027343-0.023438-0.050781-0.03125-0.078125 0.23828-0.019531 0.48438-0.027344 0.72656-0.035156-0.015624 0.039062-0.046874 0.066406-0.046874 0.10938 0 0.17969 0.14453 0.32422 0.32422 0.32422 0.17969 0 0.32422-0.14453 0.32422-0.32422 0-0.054687-0.03125-0.09375-0.058594-0.13672 0.027344 0 0.054688-0.003906 0.082031-0.003906 0.22656 0 0.44531 0.015625 0.67188 0.027344-0.019532 0.039062-0.046876 0.070312-0.046876 0.11719 0 0.17969 0.14453 0.32422 0.32422 0.32422 0.17969 0 0.32422-0.14453 0.32422-0.32422 0-0.035156-0.027344-0.058593-0.039062-0.09375 0.23047 0.019531 0.46094 0.054688 0.69141 0.082031 0 0.003907-0.003906 0.007813-0.003906 0.011719 0 0.17969 0.14453 0.32422 0.32422 0.32422 0.14844 0 0.25781-0.11328 0.29297-0.25391 0.25781 0.042968 0.51562 0.097656 0.76953 0.15234 0.058594 0.0625 0.13672 0.10547 0.23047 0.10547 0.035156 0 0.058594-0.027344 0.09375-0.039062 0.84766 0.20312 1.6719 0.48438 2.4688 0.82812-0.16016 0.019531-0.28906 0.14453-0.28906 0.3125 0 0.17969 0.14063 0.32422 0.32422 0.32422 0.17969 0 0.32422-0.14453 0.32422-0.32422 0-0.070313-0.035156-0.13281-0.074219-0.18359 0.27344 0.125 0.54688 0.25391 0.8125 0.39453 0.03125 0.035156 0.078125 0.046875 0.12109 0.066406 0.47656 0.25391 0.9375 0.53125 1.3867 0.83594-0.16406 0.015625-0.29297 0.14453-0.29297 0.3125 0 0.11719 0.074219 0.20312 0.16797 0.26172l-0.92578 0.92578c-0.058593-0.050781-0.12891-0.089844-0.21094-0.089844-0.18359 0-0.32812 0.14453-0.32812 0.32422 0 0.082031 0.035156 0.15625 0.089844 0.21094l-0.9375 0.9375c-0.039063-0.019531-0.074219-0.050781-0.125-0.050781-0.17969 0-0.32422 0.14453-0.32422 0.32422 0 0.046875 0.03125 0.082031 0.050781 0.12109l-0.99219 0.99219c-0.011719 0-0.019531-0.015625-0.03125-0.015625-0.17969 0-0.32422 0.14453-0.32422 0.32422 0 0.015625 0.011719 0.019531 0.015625 0.035156l-1.1211 1.1211c-0.058593 0.03125-0.10156 0.070313-0.13281 0.13281l-7.3203 7.3203c0.003906-0.023438 0.027344-0.039062 0.027344-0.066406 0-0.17969-0.14453-0.32422-0.32422-0.32422-0.17969 0-0.32422 0.14453-0.32422 0.32422 0 0.17969 0.14453 0.32422 0.32422 0.32422 0.023438 0 0.039063-0.019531 0.0625-0.027343l-1.0625 1.0625c-0.03125-0.14453-0.14453-0.26172-0.29688-0.26172-0.17969 0-0.32422 0.14453-0.32422 0.32422 0 0.15625 0.11719 0.26562 0.26172 0.29688l-0.97266 0.97266c-0.054688-0.097656-0.14062-0.17188-0.26172-0.17188-0.17969 0-0.32422 0.14453-0.32422 0.32422 0 0.12109 0.074219 0.20703 0.17188 0.26172l-0.92578 0.92578c-0.058594-0.050782-0.13281-0.089844-0.21875-0.089844-0.17578 0-0.32422 0.14453-0.32422 0.32422 0 0.085937 0.035156 0.16016 0.089843 0.21484l-0.93359 0.93359c-0.042969-0.019531-0.078126-0.054687-0.12891-0.054687-0.17969 0-0.32422 0.14453-0.32422 0.32422 0 0.050781 0.03125 0.085937 0.054688 0.12891l-0.98828 0.98828c-0.015625-0.003906-0.023438-0.015625-0.039063-0.015625-0.17969 0-0.32422 0.14453-0.32422 0.32812 0 0.015625 0.015624 0.023437 0.015624 0.035156l-1.1133 1.1133c-0.066406 0.03125-0.10938 0.078126-0.14062 0.14063l-5.9336 5.9375c0.015626-0.035157 0.046876-0.066407 0.046876-0.10938 0-0.17969-0.14453-0.32422-0.32422-0.32422-0.17969 0-0.32812 0.14453-0.32812 0.32422 0 0.17969 0.14453 0.32422 0.32812 0.32422 0.042969 0 0.070312-0.03125 0.10938-0.046875l-1.0781 1.0781-0.054688-0.054687c-0.03125-0.074219-0.078125-0.12109-0.15234-0.15234l-1.1094-1.1094c0.003907-0.015625 0.015626-0.023437 0.015626-0.039063 0-0.17969-0.14453-0.32422-0.32422-0.32422-0.09375 0-0.17578 0.042968-0.23438 0.10938-0.15234 0.003906-0.30469 0.0625-0.42188 0.17969-0.24609 0.24609-0.24609 0.64453 0 0.89062l0.40234 0.40234c-0.035156 0.050781-0.070312 0.10156-0.070312 0.16797 0 0.17969 0.14453 0.32422 0.32812 0.32422 0.066406 0 0.11719-0.035156 0.16797-0.070312l0.92578 0.92578c-0.070313 0.058594-0.125 0.14062-0.125 0.24219 0 0.17969 0.14453 0.32422 0.32422 0.32422 0.10156 0 0.18359-0.050782 0.24219-0.125l0.94531 0.94531c-0.12109 0.046875-0.21484 0.14062-0.21484 0.27734 0 0.17969 0.14453 0.32422 0.32812 0.32422 0.13672 0 0.23047-0.09375 0.27734-0.21484l0.99609 1c-0.16797 0.011719-0.30078 0.14453-0.30078 0.3125 0 0.17969 0.14453 0.32812 0.32422 0.32812 0.17188 0 0.30078-0.13672 0.31641-0.30469l1.1445 1.1445c-0.050782-0.03125-0.097657-0.066407-0.16406-0.066407-0.17969 0-0.32422 0.14453-0.32422 0.32422s0.14453 0.32422 0.32422 0.32422 0.32422-0.14453 0.32422-0.32422c0-0.0625-0.035156-0.11328-0.066406-0.16406l0.44141 0.44141c0.125 0.125 0.28516 0.18359 0.44531 0.18359s0.32422-0.0625 0.44531-0.18359c0.24609-0.24609 0.24609-0.64453 0-0.89062l-1.3906-1.3906 0.79297-0.79297c0.027344 0.15234 0.14453 0.27734 0.30469 0.27734 0.17969 0 0.32422-0.14453 0.32422-0.32422 0-0.16016-0.125-0.27734-0.27734-0.30469l0.98047-0.98047c0.054687 0.10156 0.14453 0.18359 0.26953 0.18359 0.17578 0 0.32422-0.14453 0.32422-0.32422 0-0.125-0.082032-0.21484-0.18359-0.26953l0.92969-0.92969c0.058593 0.058594 0.14062 0.097656 0.23047 0.097656 0.17969 0 0.32422-0.14453 0.32422-0.32422 0-0.089844-0.035156-0.17188-0.097656-0.23047l0.92578-0.92578c0.046875 0.023437 0.085938 0.058593 0.14062 0.058593 0.17969 0 0.32422-0.14453 0.32422-0.32422 0-0.054687-0.035156-0.097656-0.058594-0.14062l0.98047-0.98047c0.019531 0.003906 0.03125 0.019531 0.050781 0.019531 0.17969 0 0.32422-0.14453 0.32422-0.32422 0-0.019531-0.019531-0.03125-0.019531-0.050781l1.0859-1.0859c0.097656-0.03125 0.16016-0.097656 0.19531-0.19531l7.3164-7.3164c-0.015625 0.035156-0.042969 0.0625-0.042969 0.10547 0 0.17969 0.14453 0.32422 0.32422 0.32422 0.17969 0 0.32422-0.14453 0.32422-0.32422 0-0.17969-0.14062-0.32422-0.32422-0.32422-0.042969 0-0.070313 0.027344-0.10547 0.042968l1.0977-1.0977c0.023438 0.15234 0.14453 0.27734 0.30469 0.27734 0.17969 0 0.32422-0.14453 0.32422-0.32422 0-0.16016-0.125-0.28125-0.27734-0.30469l0.98047-0.98438c0.054688 0.10547 0.14063 0.1875 0.26953 0.1875 0.17578 0 0.32422-0.14453 0.32422-0.32422 0-0.125-0.082031-0.21484-0.1875-0.26953l0.92969-0.92969c0.058594 0.058594 0.13672 0.097657 0.22656 0.097657 0.18359 0 0.32813-0.14453 0.32813-0.32422 0-0.089844-0.039063-0.17188-0.097657-0.23047l0.92578-0.92969c0.046876 0.023438 0.085938 0.058594 0.14063 0.058594 0.17578 0 0.32422-0.14453 0.32422-0.32422 0-0.054688-0.035156-0.097657-0.058594-0.14063l0.98047-0.98047c0.019531 0.003906 0.03125 0.023437 0.054688 0.023437 0.17969 0 0.32422-0.14453 0.32422-0.32422 0-0.019531-0.019532-0.03125-0.019532-0.050781l1.0859-1.0859c0.097656-0.03125 0.16406-0.097656 0.19531-0.19531l5.0117-5.0117c0.40625 0.57813 0.75391 1.1797 1.0742 1.793-0.11719 0.046875-0.21094 0.14453-0.21094 0.28125 0 0.17969 0.14062 0.32422 0.32422 0.32422 0.066406 0 0.11719-0.035156 0.16797-0.070312 0.36719 0.77734 0.65625 1.5781 0.88672 2.3945-0.046874 0.054687-0.082031 0.12109-0.082031 0.19922 0 0.13281 0.09375 0.22656 0.20703 0.27734 0.070313 0.28516 0.13672 0.56641 0.1875 0.85547-0.027343-0.007812-0.042968-0.03125-0.074218-0.03125-0.17969 0-0.32422 0.14453-0.32422 0.32422 0 0.17969 0.14453 0.32422 0.32422 0.32422 0.0625 0 0.11328-0.035157 0.16406-0.066407 0.058594 0.36719 0.10547 0.73828 0.13672 1.1094-0.03125-0.14844-0.14453-0.26562-0.29688-0.26562-0.17969 0-0.32422 0.14453-0.32422 0.32422s0.14453 0.32422 0.32422 0.32422c0.16016 0 0.28125-0.125 0.30469-0.27734 0.03125 0.89844 0.019531 1.793-0.066407 2.6836zm-2.6367-12.398c-0.015624-0.015625-0.027343-0.03125-0.042968-0.050781 0.078125-0.058594 0.13672-0.14062 0.13672-0.24609 0-0.17969-0.14062-0.32422-0.32422-0.32422-0.09375 0-0.17578 0.042968-0.23438 0.10547-0.15625-0.17578-0.30469-0.35547-0.47266-0.52344-0.14453-0.14453-0.30469-0.27734-0.45703-0.41406 0.10547-0.054687 0.19141-0.14453 0.19141-0.26953 0-0.17969-0.14844-0.32422-0.32422-0.32422-0.13672 0-0.23047 0.097656-0.28125 0.21484-0.058594-0.050781-0.10938-0.10156-0.16406-0.14844l2.8008-2.8008c-0.050782 0.058594-0.085938 0.12891-0.085938 0.21094 0 0.17969 0.14062 0.32422 0.32422 0.32422 0.17188 0 0.29297-0.13281 0.3125-0.29297l1.125 1.125c-0.042969-0.023438-0.082031-0.058594-0.13672-0.058594-0.17969 0-0.32422 0.14453-0.32422 0.32422 0 0.17969 0.14453 0.32422 0.32422 0.32422 0.17578 0 0.32422-0.14453 0.32422-0.32422 0-0.054688-0.035157-0.09375-0.058594-0.14062l0.32812 0.32812zm4.8438-4.8438c-0.082031 0.03125-0.13672 0.089844-0.17187 0.17188l-0.82813 0.82812-1.9727-1.9766 0.16797-0.16797c0 0.17969 0.14453 0.32422 0.32422 0.32422 0.17578 0 0.32422-0.14453 0.32422-0.32422s-0.14453-0.32422-0.32031-0.32422l1.0078-1.0078c0.042969 0.12891 0.14063 0.23438 0.28906 0.23438 0.17578 0 0.32422-0.14453 0.32422-0.32422 0-0.14453-0.10156-0.24219-0.23047-0.28906l0.097656-0.097656 1.9727 1.9766zm1.4648-2.2695c0.14844-0.03125 0.26562-0.14453 0.26562-0.30078 0-0.17969-0.14844-0.32422-0.32812-0.32422-0.15625 0-0.26562 0.12109-0.29688 0.26562l-1.0703-1.0742c0.027343 0.007813 0.046875 0.03125 0.074219 0.03125 0.17578 0 0.32422-0.14453 0.32422-0.32422 0-0.10547-0.058594-0.1875-0.14062-0.25l0.92578-0.92969c0.054688 0.039062 0.11328 0.078125 0.18359 0.078125 0.17969 0 0.32812-0.14453 0.32812-0.32422 0-0.074218-0.035156-0.13281-0.078125-0.18359l0.61719-0.62109 0.51562 0.51562c-0.03125-0.011719-0.054688-0.035156-0.089844-0.035156-0.17969 0-0.32422 0.14453-0.32422 0.32422 0 0.17969 0.14062 0.32422 0.32422 0.32422s0.32422-0.14453 0.32422-0.32422c0-0.035156-0.027344-0.058594-0.035156-0.089844l1.2578 1.2578-0.023438 0.023437c-0.058593-0.058593-0.13672-0.09375-0.22656-0.09375-0.17969 0-0.32422 0.14453-0.32422 0.32422 0 0.089844 0.035157 0.16797 0.09375 0.22656l-0.92969 0.92969c-0.042969-0.023437-0.082032-0.058593-0.13672-0.058593-0.17969 0-0.32422 0.14453-0.32422 0.32422 0 0.054688 0.03125 0.089844 0.054688 0.13672l-0.56641 0.56641zm6.7383-1.7539c-0.019532-0.16406-0.14844-0.29688-0.3125-0.29688-0.17969 0-0.32422 0.14453-0.32422 0.32422 0 0.17969 0.14453 0.32422 0.32422 0.32422 0.042968 0 0.074218-0.03125 0.11328-0.046875-0.007813 0.007813-0.011719 0.019531-0.019531 0.027344-0.36719 0.36719-1 0.37109-1.3789 0.015625 0.17188-0.007812 0.30859-0.14453 0.30859-0.32031 0-0.17969-0.14453-0.32422-0.32422-0.32422-0.17578 0-0.31641 0.14062-0.32031 0.31641l-1.1719-1.1719c0.054687 0.042969 0.11719 0.078125 0.19141 0.078125 0.18359 0 0.32812-0.14453 0.32812-0.32422 0-0.17969-0.14453-0.32422-0.32812-0.32422-0.17969 0-0.32422 0.14453-0.32422 0.32422 0 0.074219 0.035156 0.13672 0.078125 0.19141l-3.3359-3.3359c-0.18359-0.1875-0.28906-0.4375-0.28906-0.70312 0-0.042969 0.019531-0.082031 0.023438-0.12109 0.15625-0.023437 0.28125-0.14453 0.28125-0.30469 0-0.070313-0.035157-0.12891-0.078125-0.17969 0.023437-0.027343 0.035156-0.0625 0.0625-0.089843 0.18359-0.1875 0.43359-0.28906 0.69922-0.28906 0.26563 0 0.51563 0.10156 0.70313 0.28906l3.1758 3.1758c0.035156 0.13281 0.125 0.22266 0.25391 0.25l1.0547 1.0547c-0.007812 0.023438-0.027343 0.042969-0.027343 0.066406 0 0.17969 0.14453 0.32422 0.32422 0.32422 0.027343 0 0.042968-0.019531 0.066406-0.027343l0.03125 0.03125c0.18359 0.1875 0.28906 0.4375 0.28906 0.70312 0 0.125-0.027344 0.25-0.074218 0.36328z" fill="#fff"/>
 <path d="m74.363 23.66c0 0.43359-0.65234 0.43359-0.65234 0s0.65234-0.43359 0.65234 0" fill="#fff"/>
 <path d="m72.742 23.336c-0.17969 0-0.32422 0.14453-0.32422 0.32422 0 0.17969 0.14062 0.32422 0.32422 0.32422 0.18359 0 0.32422-0.14453 0.32422-0.32422 0-0.17969-0.14453-0.32422-0.32422-0.32422z" fill="#fff"/>
 <path d="m75.332 24.758c-0.17969 0-0.32422 0.14453-0.32422 0.32422 0 0.17969 0.14063 0.32422 0.32422 0.32422 0.18359 0 0.32812-0.14453 0.32812-0.32422 0-0.17969-0.14453-0.32422-0.32812-0.32422z" fill="#fff"/>
 <path d="m74.363 25.082c0 0.43359-0.65234 0.43359-0.65234 0 0-0.42969 0.65234-0.42969 0.65234 0" fill="#fff"/>
 <path d="m76.957 26.508c0 0.43359-0.64844 0.43359-0.64844 0 0-0.43359 0.64844-0.43359 0.64844 0" fill="#fff"/>
 <path d="m73.066 27.934c0 0.42969-0.64844 0.42969-0.64844 0 0-0.43359 0.64844-0.43359 0.64844 0" fill="#fff"/>
 <path d="m71.77 27.934c0 0.42969-0.64844 0.42969-0.64844 0 0-0.43359 0.64844-0.43359 0.64844 0" fill="#fff"/>
 <path d="m70.477 30.781c0 0.42969-0.65234 0.42969-0.65234 0 0-0.43359 0.65234-0.43359 0.65234 0" fill="#fff"/>
 <path d="m69.18 30.781c0 0.42969-0.64844 0.42969-0.64844 0 0-0.43359 0.64844-0.43359 0.64844 0" fill="#fff"/>
 <path d="m69.18 32.203c0 0.43359-0.64844 0.43359-0.64844 0s0.64844-0.43359 0.64844 0" fill="#fff"/>
 <path d="m51.027 33.625c0 0.43359-0.64844 0.43359-0.64844 0s0.64844-0.43359 0.64844 0" fill="#fff"/>
 <path d="m52.324 33.625c0 0.43359-0.65234 0.43359-0.65234 0s0.65234-0.43359 0.65234 0" fill="#fff"/>
 <path d="m66.258 33.301c-0.17969 0-0.32422 0.14453-0.32422 0.32422s0.14062 0.32422 0.32422 0.32422c0.18359 0 0.32422-0.14453 0.32422-0.32422 0-0.17578-0.14062-0.32422-0.32422-0.32422z" fill="#fff"/>
 <path d="m65.289 33.625c0 0.43359-0.65234 0.43359-0.65234 0s0.65234-0.43359 0.65234 0" fill="#fff"/>
 <path d="m57.508 33.625c0 0.43359-0.64844 0.43359-0.64844 0s0.64844-0.43359 0.64844 0" fill="#fff"/>
 <path d="m55.887 33.949c0.18359 0 0.32812-0.14453 0.32812-0.32422s-0.14453-0.32422-0.32812-0.32422c-0.17578 0-0.32422 0.14453-0.32422 0.32422s0.14844 0.32422 0.32422 0.32422z" fill="#fff"/>
 <path d="m54.918 33.625c0 0.43359-0.65234 0.43359-0.65234 0s0.65234-0.43359 0.65234 0" fill="#fff"/>
 <path d="m53.621 33.625c0 0.43359-0.65234 0.43359-0.65234 0s0.65234-0.43359 0.65234 0" fill="#fff"/>
 <path d="m51.027 35.051c0 0.43359-0.64844 0.43359-0.64844 0 0-0.43359 0.64844-0.43359 0.64844 0" fill="#fff"/>
 <path d="m52.324 35.051c0 0.43359-0.65234 0.43359-0.65234 0 0-0.43359 0.65234-0.43359 0.65234 0" fill="#fff"/>
 <path d="m66.258 34.727c-0.17969 0-0.32422 0.14453-0.32422 0.32422 0 0.17969 0.14062 0.32422 0.32422 0.32422 0.18359 0 0.32422-0.14453 0.32422-0.32422 0-0.17969-0.14062-0.32422-0.32422-0.32422z" fill="#fff"/>
 <path d="m65.289 35.051c0 0.43359-0.65234 0.43359-0.65234 0 0-0.43359 0.65234-0.43359 0.65234 0" fill="#fff"/>
 <path d="m59.781 35.375c0.17578 0 0.32422-0.14453 0.32422-0.32422 0-0.17969-0.14453-0.32422-0.32422-0.32422-0.18359 0-0.32812 0.14453-0.32812 0.32422 0 0.17969 0.14453 0.32422 0.32812 0.32422z" fill="#fff"/>
 <path d="m58.805 35.051c0 0.43359-0.64844 0.43359-0.64844 0 0-0.43359 0.64844-0.43359 0.64844 0" fill="#fff"/>
 <path d="m57.508 35.051c0 0.43359-0.64844 0.43359-0.64844 0 0-0.43359 0.64844-0.43359 0.64844 0" fill="#fff"/>
 <path d="m55.887 35.375c0.18359 0 0.32812-0.14453 0.32812-0.32422 0-0.17969-0.14453-0.32422-0.32812-0.32422-0.17578 0-0.32422 0.14453-0.32422 0.32422 0 0.17969 0.14844 0.32422 0.32422 0.32422z" fill="#fff"/>
 <path d="m54.918 35.051c0 0.43359-0.65234 0.43359-0.65234 0 0-0.43359 0.65234-0.43359 0.65234 0" fill="#fff"/>
 <path d="m53.621 35.051c0 0.43359-0.65234 0.43359-0.65234 0 0-0.43359 0.65234-0.43359 0.65234 0" fill="#fff"/>
 <path d="m51.027 36.477c0 0.43359-0.64844 0.43359-0.64844 0 0-0.43359 0.64844-0.43359 0.64844 0" fill="#fff"/>
 <path d="m52.324 36.477c0 0.43359-0.65234 0.43359-0.65234 0 0-0.43359 0.65234-0.43359 0.65234 0" fill="#fff"/>
 <path d="m62.695 36.477c0 0.43359-0.65234 0.43359-0.65234 0 0-0.43359 0.65234-0.43359 0.65234 0" fill="#fff"/>
 <path d="m58.805 36.477c0 0.43359-0.64844 0.43359-0.64844 0 0-0.43359 0.64844-0.43359 0.64844 0" fill="#fff"/>
 <path d="m57.508 36.477c0 0.43359-0.64844 0.43359-0.64844 0 0-0.43359 0.64844-0.43359 0.64844 0" fill="#fff"/>
 <path d="m55.887 36.801c0.18359 0 0.32812-0.14453 0.32812-0.32422 0-0.17969-0.14453-0.32422-0.32812-0.32422-0.17578 0-0.32422 0.14453-0.32422 0.32422 0 0.17969 0.14844 0.32422 0.32422 0.32422z" fill="#fff"/>
 <path d="m54.918 36.477c0 0.43359-0.65234 0.43359-0.65234 0 0-0.43359 0.65234-0.43359 0.65234 0" fill="#fff"/>
 <path d="m53.621 36.477c0 0.43359-0.65234 0.43359-0.65234 0 0-0.43359 0.65234-0.43359 0.65234 0" fill="#fff"/>
 <path d="m51.027 37.898c0 0.43359-0.64844 0.43359-0.64844 0 0-0.43359 0.64844-0.43359 0.64844 0" fill="#fff"/>
 <path d="m52.324 37.898c0 0.43359-0.65234 0.43359-0.65234 0 0-0.43359 0.65234-0.43359 0.65234 0" fill="#fff"/>
 <path d="m62.371 37.574c-0.17969 0-0.32812 0.14453-0.32812 0.32422 0 0.17969 0.14844 0.32422 0.32812 0.32422 0.17578 0 0.32422-0.14453 0.32422-0.32422 0-0.17969-0.14453-0.32422-0.32422-0.32422z" fill="#fff"/>
 <path d="m61.398 37.898c0 0.43359-0.64844 0.43359-0.64844 0 0-0.43359 0.64844-0.43359 0.64844 0" fill="#fff"/>
 <path d="m57.508 37.898c0 0.43359-0.64844 0.43359-0.64844 0 0-0.43359 0.64844-0.43359 0.64844 0" fill="#fff"/>
 <path d="m55.887 38.223c0.18359 0 0.32812-0.14453 0.32812-0.32422 0-0.17969-0.14453-0.32422-0.32812-0.32422-0.17578 0-0.32422 0.14453-0.32422 0.32422 0 0.17969 0.14844 0.32422 0.32422 0.32422z" fill="#fff"/>
 <path d="m54.918 37.898c0 0.43359-0.65234 0.43359-0.65234 0 0-0.43359 0.65234-0.43359 0.65234 0" fill="#fff"/>
 <path d="m53.621 37.898c0 0.43359-0.65234 0.43359-0.65234 0 0-0.43359 0.65234-0.43359 0.65234 0" fill="#fff"/>
 <path d="m51.027 39.324c0 0.43359-0.64844 0.43359-0.64844 0 0-0.43359 0.64844-0.43359 0.64844 0" fill="#fff"/>
 <path d="m52.324 39.324c0 0.43359-0.65234 0.43359-0.65234 0 0-0.43359 0.65234-0.43359 0.65234 0" fill="#fff"/>
 <path d="m65.289 39.324c0 0.43359-0.65234 0.43359-0.65234 0 0-0.43359 0.65234-0.43359 0.65234 0" fill="#fff"/>
 <path d="m61.398 39.324c0 0.43359-0.64844 0.43359-0.64844 0 0-0.43359 0.64844-0.43359 0.64844 0" fill="#fff"/>
 <path d="m59.781 38.996c-0.18359 0-0.32812 0.14453-0.32812 0.32422 0 0.17969 0.14453 0.32422 0.32812 0.32422 0.17578 0 0.32422-0.14453 0.32422-0.32422-0.003907-0.17578-0.14844-0.32422-0.32422-0.32422z" fill="#fff"/>
 <path d="m55.887 39.648c0.18359 0 0.32812-0.14453 0.32812-0.32422 0-0.17969-0.14453-0.32422-0.32812-0.32422-0.17578 0-0.32422 0.14453-0.32422 0.32422 0 0.17578 0.14844 0.32422 0.32422 0.32422z" fill="#fff"/>
 <path d="m54.918 39.324c0 0.43359-0.65234 0.43359-0.65234 0 0-0.43359 0.65234-0.43359 0.65234 0" fill="#fff"/>
 <path d="m53.621 39.324c0 0.43359-0.65234 0.43359-0.65234 0 0-0.43359 0.65234-0.43359 0.65234 0" fill="#fff"/>
 <path d="m51.027 40.746c0 0.43359-0.64844 0.43359-0.64844 0s0.64844-0.43359 0.64844 0" fill="#fff"/>
 <path d="m52.324 40.746c0 0.43359-0.65234 0.43359-0.65234 0s0.65234-0.43359 0.65234 0" fill="#fff"/>
 <path d="m65.289 40.746c0 0.43359-0.65234 0.43359-0.65234 0s0.65234-0.43359 0.65234 0" fill="#fff"/>
 <path d="m63.992 40.746c0 0.43359-0.64844 0.43359-0.64844 0s0.64844-0.43359 0.64844 0" fill="#fff"/>
 <path d="m59.781 40.422c-0.18359 0-0.32812 0.14453-0.32812 0.32422 0 0.17969 0.14453 0.32422 0.32812 0.32422 0.17578 0 0.32422-0.14453 0.32422-0.32422-0.003907-0.17969-0.14844-0.32422-0.32422-0.32422z" fill="#fff"/>
 <path d="m58.805 40.746c0 0.43359-0.64844 0.43359-0.64844 0s0.64844-0.43359 0.64844 0" fill="#fff"/>
 <path d="m54.918 40.746c0 0.43359-0.65234 0.43359-0.65234 0s0.65234-0.43359 0.65234 0" fill="#fff"/>
 <path d="m53.621 40.746c0 0.43359-0.65234 0.43359-0.65234 0s0.65234-0.43359 0.65234 0" fill="#fff"/>
 <path d="m51.027 42.172c0 0.43359-0.64844 0.43359-0.64844 0s0.64844-0.43359 0.64844 0" fill="#fff"/>
 <path d="m52.324 42.172c0 0.43359-0.65234 0.43359-0.65234 0s0.65234-0.43359 0.65234 0" fill="#fff"/>
 <path d="m66.258 41.844c-0.17969 0-0.32422 0.14453-0.32422 0.32422 0 0.17969 0.14062 0.32422 0.32422 0.32422 0.18359 0 0.32422-0.14453 0.32422-0.32422 0-0.17578-0.14062-0.32422-0.32422-0.32422z" fill="#fff"/>
 <path d="m65.289 42.172c0 0.43359-0.65234 0.43359-0.65234 0s0.65234-0.43359 0.65234 0" fill="#fff"/>
 <path d="m63.992 42.172c0 0.43359-0.64844 0.43359-0.64844 0s0.64844-0.43359 0.64844 0" fill="#fff"/>
 <path d="m62.371 41.844c-0.17969 0-0.32812 0.14453-0.32812 0.32422 0 0.17969 0.14844 0.32422 0.32812 0.32422 0.17578 0 0.32422-0.14453 0.32422-0.32422 0-0.17578-0.14453-0.32422-0.32422-0.32422z" fill="#fff"/>
 <path d="m58.805 42.172c0 0.43359-0.64844 0.43359-0.64844 0s0.64844-0.43359 0.64844 0" fill="#fff"/>
 <path d="m57.508 42.172c0 0.43359-0.64844 0.43359-0.64844 0s0.64844-0.43359 0.64844 0" fill="#fff"/>
 <path d="m53.621 42.172c0 0.43359-0.65234 0.43359-0.65234 0s0.65234-0.43359 0.65234 0" fill="#fff"/>
 <path d="m51.027 43.594c0 0.43359-0.64844 0.43359-0.64844 0s0.64844-0.43359 0.64844 0" fill="#fff"/>
 <path d="m52.324 43.594c0 0.43359-0.65234 0.43359-0.65234 0s0.65234-0.43359 0.65234 0" fill="#fff"/>
 <path d="m66.258 43.27c-0.17969 0-0.32422 0.14453-0.32422 0.32422s0.14062 0.32422 0.32422 0.32422c0.18359 0 0.32422-0.14453 0.32422-0.32422s-0.14062-0.32422-0.32422-0.32422z" fill="#fff"/>
 <path d="m65.289 43.594c0 0.43359-0.65234 0.43359-0.65234 0s0.65234-0.43359 0.65234 0" fill="#fff"/>
 <path d="m63.992 43.594c0 0.43359-0.64844 0.43359-0.64844 0s0.64844-0.43359 0.64844 0" fill="#fff"/>
 <path d="m62.371 43.27c-0.17969 0-0.32812 0.14453-0.32812 0.32422s0.14844 0.32422 0.32812 0.32422c0.17578 0 0.32422-0.14453 0.32422-0.32422s-0.14453-0.32422-0.32422-0.32422z" fill="#fff"/>
 <path d="m61.398 43.594c0 0.43359-0.64844 0.43359-0.64844 0s0.64844-0.43359 0.64844 0" fill="#fff"/>
 <path d="m57.508 43.594c0 0.43359-0.64844 0.43359-0.64844 0s0.64844-0.43359 0.64844 0" fill="#fff"/>
 <path d="m55.887 43.27c-0.17578 0-0.32422 0.14453-0.32422 0.32422s0.14844 0.32422 0.32422 0.32422c0.18359 0 0.32812-0.14453 0.32812-0.32422s-0.14844-0.32422-0.32812-0.32422z" fill="#fff"/>
 <path d="m72.742 21.91c-0.17969 0-0.32422 0.14453-0.32422 0.32422s0.14062 0.32422 0.32422 0.32422c0.18359 0 0.32422-0.14453 0.32422-0.32422 0-0.17578-0.14453-0.32422-0.32422-0.32422z" fill="#fff"/>
 <path d="m51.027 45.02c0 0.43359-0.64844 0.43359-0.64844 0 0-0.43359 0.64844-0.43359 0.64844 0" fill="#fff"/>
 <path d="m66.258 44.695c-0.17969 0-0.32422 0.14453-0.32422 0.32422 0 0.17969 0.14062 0.32422 0.32422 0.32422 0.18359 0 0.32422-0.14453 0.32422-0.32422 0-0.17969-0.14062-0.32422-0.32422-0.32422z" fill="#fff"/>
 <path d="m65.289 45.02c0 0.43359-0.65234 0.43359-0.65234 0 0-0.43359 0.65234-0.43359 0.65234 0" fill="#fff"/>
 <path d="m63.992 45.02c0 0.43359-0.64844 0.43359-0.64844 0 0-0.43359 0.64844-0.43359 0.64844 0" fill="#fff"/>
 <path d="m62.371 44.695c-0.17969 0-0.32812 0.14453-0.32812 0.32422 0 0.17969 0.14844 0.32422 0.32812 0.32422 0.17578 0 0.32422-0.14453 0.32422-0.32422 0-0.17969-0.14453-0.32422-0.32422-0.32422z" fill="#fff"/>
 <path d="m61.398 45.02c0 0.43359-0.64844 0.43359-0.64844 0 0-0.43359 0.64844-0.43359 0.64844 0" fill="#fff"/>
 <path d="m59.781 44.695c-0.18359 0-0.32812 0.14453-0.32812 0.32422 0 0.17969 0.14453 0.32422 0.32812 0.32422 0.17578 0 0.32422-0.14453 0.32422-0.32422-0.003907-0.17969-0.14844-0.32422-0.32422-0.32422z" fill="#fff"/>
 <path d="m55.887 44.695c-0.17578 0-0.32422 0.14453-0.32422 0.32422 0 0.17969 0.14844 0.32422 0.32422 0.32422 0.18359 0 0.32812-0.14453 0.32812-0.32422 0-0.17969-0.14844-0.32422-0.32812-0.32422z" fill="#fff"/>
 <path d="m54.918 45.02c0 0.43359-0.65234 0.43359-0.65234 0 0-0.43359 0.65234-0.43359 0.65234 0" fill="#fff"/>
 <path d="m51.027 47.863c0 0.43359-0.64844 0.43359-0.64844 0 0-0.42969 0.64844-0.42969 0.64844 0" fill="#fff"/>
 <path d="m52.324 47.863c0 0.43359-0.64844 0.43359-0.64844 0 0-0.42969 0.64844-0.42969 0.64844 0" fill="#fff"/>
 <path d="m67.883 47.863c0 0.43359-0.64844 0.43359-0.64844 0 0-0.42969 0.64844-0.42969 0.64844 0" fill="#fff"/>
 <path d="m66.258 47.543c-0.17969 0-0.32422 0.14453-0.32422 0.32422 0 0.17969 0.14062 0.32422 0.32422 0.32422 0.18359 0 0.32422-0.14453 0.32422-0.32422 0-0.17969-0.14062-0.32422-0.32422-0.32422z" fill="#fff"/>
 <path d="m65.285 47.863c0 0.43359-0.64453 0.43359-0.64453 0 0-0.42969 0.64453-0.42969 0.64453 0" fill="#fff"/>
 <path d="m63.992 47.863c0 0.43359-0.64844 0.43359-0.64844 0 0-0.42969 0.64844-0.42969 0.64844 0" fill="#fff"/>
 <path d="m62.371 47.543c-0.17969 0-0.32812 0.14453-0.32812 0.32422 0 0.17969 0.14844 0.32422 0.32812 0.32422 0.17578 0 0.32422-0.14453 0.32422-0.32422 0-0.17969-0.14453-0.32422-0.32422-0.32422z" fill="#fff"/>
 <path d="m61.398 47.863c0 0.43359-0.64844 0.43359-0.64844 0 0-0.42969 0.64844-0.42969 0.64844 0" fill="#fff"/>
 <path d="m59.781 47.543c-0.18359 0-0.32812 0.14453-0.32812 0.32422 0 0.17969 0.14453 0.32422 0.32812 0.32422 0.17578 0 0.32422-0.14453 0.32422-0.32422-0.003907-0.17969-0.14844-0.32422-0.32422-0.32422z" fill="#fff"/>
 <path d="m58.805 47.863c0 0.43359-0.64844 0.43359-0.64844 0 0-0.42969 0.64844-0.42969 0.64844 0" fill="#fff"/>
 <path d="m57.508 47.863c0 0.43359-0.64844 0.43359-0.64844 0 0-0.42969 0.64844-0.42969 0.64844 0" fill="#fff"/>
 <path d="m53.617 47.863c0 0.43359-0.64453 0.43359-0.64453 0 0-0.42969 0.64453-0.42969 0.64453 0" fill="#fff"/>
 <path d="m51.027 49.289c0 0.43359-0.64844 0.43359-0.64844 0 0-0.43359 0.64844-0.43359 0.64844 0" fill="#fff"/>
 <path d="m52.324 49.289c0 0.43359-0.65234 0.43359-0.65234 0 0-0.43359 0.65234-0.43359 0.65234 0" fill="#fff"/>
 <path d="m66.258 48.965c-0.17969 0-0.32422 0.14453-0.32422 0.32422 0 0.17969 0.14062 0.32422 0.32422 0.32422 0.18359 0 0.32422-0.14453 0.32422-0.32422 0-0.17969-0.14062-0.32422-0.32422-0.32422z" fill="#fff"/>
 <path d="m65.289 49.289c0 0.43359-0.65234 0.43359-0.65234 0 0-0.43359 0.65234-0.43359 0.65234 0" fill="#fff"/>
 <path d="m63.992 49.289c0 0.43359-0.64844 0.43359-0.64844 0 0-0.43359 0.64844-0.43359 0.64844 0" fill="#fff"/>
 <path d="m62.371 48.965c-0.17969 0-0.32812 0.14453-0.32812 0.32422 0 0.17969 0.14844 0.32422 0.32812 0.32422 0.17578 0 0.32422-0.14453 0.32422-0.32422 0-0.17969-0.14453-0.32422-0.32422-0.32422z" fill="#fff"/>
 <path d="m61.398 49.289c0 0.43359-0.64844 0.43359-0.64844 0 0-0.43359 0.64844-0.43359 0.64844 0" fill="#fff"/>
 <path d="m59.781 48.965c-0.18359 0-0.32812 0.14453-0.32812 0.32422 0 0.17969 0.14453 0.32422 0.32812 0.32422 0.17578 0 0.32422-0.14453 0.32422-0.32422-0.003907-0.17969-0.14844-0.32422-0.32422-0.32422z" fill="#fff"/>
 <path d="m58.805 49.289c0 0.43359-0.64844 0.43359-0.64844 0 0-0.43359 0.64844-0.43359 0.64844 0" fill="#fff"/>
 <path d="m57.508 49.289c0 0.43359-0.64844 0.43359-0.64844 0 0-0.43359 0.64844-0.43359 0.64844 0" fill="#fff"/>
 <path d="m55.887 48.965c-0.17578 0-0.32422 0.14453-0.32422 0.32422 0 0.17969 0.14844 0.32422 0.32422 0.32422 0.18359 0 0.32812-0.14453 0.32812-0.32422 0-0.17969-0.14844-0.32422-0.32812-0.32422z" fill="#fff"/>
 <path d="m51.027 50.711c0 0.43359-0.64844 0.43359-0.64844 0 0-0.42969 0.64844-0.42969 0.64844 0" fill="#fff"/>
 <path d="m66.258 50.391c-0.17969 0-0.32422 0.14453-0.32422 0.32422 0 0.17969 0.14062 0.32422 0.32422 0.32422 0.18359 0 0.32422-0.14453 0.32422-0.32422 0-0.17969-0.14062-0.32422-0.32422-0.32422z" fill="#fff"/>
 <path d="m65.289 50.711c0 0.43359-0.65234 0.43359-0.65234 0 0-0.42969 0.65234-0.42969 0.65234 0" fill="#fff"/>
 <path d="m63.992 50.711c0 0.43359-0.64844 0.43359-0.64844 0 0-0.42969 0.64844-0.42969 0.64844 0" fill="#fff"/>
 <path d="m62.371 50.391c-0.17969 0-0.32812 0.14453-0.32812 0.32422 0 0.17969 0.14844 0.32422 0.32812 0.32422 0.17578 0 0.32422-0.14453 0.32422-0.32422 0-0.17969-0.14453-0.32422-0.32422-0.32422z" fill="#fff"/>
 <path d="m61.398 50.711c0 0.43359-0.64844 0.43359-0.64844 0 0-0.42969 0.64844-0.42969 0.64844 0" fill="#fff"/>
 <path d="m59.781 50.391c-0.18359 0-0.32812 0.14453-0.32812 0.32422 0 0.17969 0.14453 0.32422 0.32812 0.32422 0.17578 0 0.32422-0.14453 0.32422-0.32422-0.003907-0.17969-0.14844-0.32422-0.32422-0.32422z" fill="#fff"/>
 <path d="m58.805 50.711c0 0.43359-0.64844 0.43359-0.64844 0 0-0.42969 0.64844-0.42969 0.64844 0" fill="#fff"/>
 <path d="m57.508 50.711c0 0.43359-0.64844 0.43359-0.64844 0 0-0.42969 0.64844-0.42969 0.64844 0" fill="#fff"/>
 <path d="m55.887 50.391c-0.17578 0-0.32422 0.14453-0.32422 0.32422 0 0.17969 0.14844 0.32422 0.32422 0.32422 0.18359 0 0.32812-0.14453 0.32812-0.32422 0-0.17969-0.14844-0.32422-0.32812-0.32422z" fill="#fff"/>
 <path d="m54.918 50.711c0 0.43359-0.65234 0.43359-0.65234 0 0-0.42969 0.65234-0.42969 0.65234 0" fill="#fff"/>
 <path d="m66.258 51.812c-0.17969 0-0.32422 0.14453-0.32422 0.32422 0 0.17969 0.14062 0.32422 0.32422 0.32422 0.18359 0 0.32422-0.14453 0.32422-0.32422 0-0.17969-0.14062-0.32422-0.32422-0.32422z" fill="#fff"/>
 <path d="m65.285 52.137c0 0.43359-0.64453 0.43359-0.64453 0 0-0.42969 0.64453-0.42969 0.64453 0" fill="#fff"/>
 <path d="m63.992 52.137c0 0.43359-0.64844 0.43359-0.64844 0 0-0.42969 0.64844-0.42969 0.64844 0" fill="#fff"/>
 <path d="m62.371 51.812c-0.17969 0-0.32812 0.14453-0.32812 0.32422 0 0.17969 0.14844 0.32422 0.32812 0.32422 0.17578 0 0.32422-0.14453 0.32422-0.32422 0-0.17969-0.14453-0.32422-0.32422-0.32422z" fill="#fff"/>
 <path d="m61.398 52.137c0 0.43359-0.64844 0.43359-0.64844 0 0-0.42969 0.64844-0.42969 0.64844 0" fill="#fff"/>
 <path d="m59.781 51.812c-0.18359 0-0.32812 0.14453-0.32812 0.32422 0 0.17969 0.14453 0.32422 0.32812 0.32422 0.17578 0 0.32422-0.14453 0.32422-0.32422-0.003907-0.17969-0.14844-0.32422-0.32422-0.32422z" fill="#fff"/>
 <path d="m58.805 52.137c0 0.43359-0.64844 0.43359-0.64844 0 0-0.42969 0.64844-0.42969 0.64844 0" fill="#fff"/>
 <path d="m57.508 52.137c0 0.43359-0.64844 0.43359-0.64844 0 0-0.42969 0.64844-0.42969 0.64844 0" fill="#fff"/>
 <path d="m55.887 51.812c-0.17578 0-0.32422 0.14453-0.32422 0.32422 0 0.17969 0.14844 0.32422 0.32422 0.32422 0.18359 0 0.32812-0.14453 0.32812-0.32422 0-0.17969-0.14844-0.32422-0.32812-0.32422z" fill="#fff"/>
 <path d="m54.914 52.137c0 0.43359-0.64453 0.43359-0.64453 0 0-0.42969 0.64453-0.42969 0.64453 0" fill="#fff"/>
 <path d="m53.617 52.137c0 0.43359-0.64453 0.43359-0.64453 0 0-0.42969 0.64453-0.42969 0.64453 0" fill="#fff"/>
 <path d="m51.027 53.559c0 0.43359-0.64844 0.43359-0.64844 0s0.64844-0.43359 0.64844 0" fill="#fff"/>
 <path d="m52.324 53.559c0 0.43359-0.65234 0.43359-0.65234 0s0.65234-0.43359 0.65234 0" fill="#fff"/>
 <path d="m66.258 53.234c-0.17969 0-0.32422 0.14453-0.32422 0.32422 0 0.17969 0.14062 0.32812 0.32422 0.32812 0.18359 0 0.32422-0.14453 0.32422-0.32812 0-0.17969-0.14062-0.32422-0.32422-0.32422z" fill="#fff"/>
 <path d="m65.289 53.559c0 0.43359-0.65234 0.43359-0.65234 0s0.65234-0.43359 0.65234 0" fill="#fff"/>
 <path d="m63.992 53.559c0 0.43359-0.64844 0.43359-0.64844 0s0.64844-0.43359 0.64844 0" fill="#fff"/>
 <path d="m62.371 53.234c-0.17969 0-0.32812 0.14453-0.32812 0.32422 0 0.17969 0.14844 0.32812 0.32812 0.32812 0.17578 0 0.32422-0.14453 0.32422-0.32812 0-0.17969-0.14453-0.32422-0.32422-0.32422z" fill="#fff"/>
 <path d="m61.398 53.559c0 0.43359-0.64844 0.43359-0.64844 0s0.64844-0.43359 0.64844 0" fill="#fff"/>
 <path d="m59.781 53.234c-0.18359 0-0.32812 0.14453-0.32812 0.32422 0 0.17969 0.14453 0.32812 0.32812 0.32812 0.17578 0 0.32422-0.14453 0.32422-0.32812-0.003907-0.17969-0.14844-0.32422-0.32422-0.32422z" fill="#fff"/>
 <path d="m58.805 53.559c0 0.43359-0.64844 0.43359-0.64844 0s0.64844-0.43359 0.64844 0" fill="#fff"/>
 <path d="m57.508 53.559c0 0.43359-0.64844 0.43359-0.64844 0s0.64844-0.43359 0.64844 0" fill="#fff"/>
 <path d="m55.887 53.234c-0.17578 0-0.32422 0.14453-0.32422 0.32422 0 0.17969 0.14844 0.32812 0.32422 0.32812 0.18359 0 0.32812-0.14453 0.32812-0.32812 0-0.17969-0.14844-0.32422-0.32812-0.32422z" fill="#fff"/>
 <path d="m54.918 53.559c0 0.43359-0.65234 0.43359-0.65234 0s0.65234-0.43359 0.65234 0" fill="#fff"/>
 <path d="m53.621 53.559c0 0.43359-0.65234 0.43359-0.65234 0s0.65234-0.43359 0.65234 0" fill="#fff"/>
 <path d="m51.027 54.984c0 0.43359-0.64844 0.43359-0.64844 0s0.64844-0.43359 0.64844 0" fill="#fff"/>
 <path d="m52.324 54.984c0 0.43359-0.65234 0.43359-0.65234 0s0.65234-0.43359 0.65234 0" fill="#fff"/>
 <path d="m65.289 54.984c0 0.43359-0.65234 0.43359-0.65234 0s0.65234-0.43359 0.65234 0" fill="#fff"/>
 <path d="m63.992 54.984c0 0.43359-0.64844 0.43359-0.64844 0s0.64844-0.43359 0.64844 0" fill="#fff"/>
 <path d="m62.371 54.66c-0.17969 0-0.32812 0.14453-0.32812 0.32812 0 0.17969 0.14844 0.32422 0.32812 0.32422 0.17578 0 0.32422-0.14453 0.32422-0.32422 0-0.18359-0.14453-0.32812-0.32422-0.32812z" fill="#fff"/>
 <path d="m61.398 54.984c0 0.43359-0.64844 0.43359-0.64844 0s0.64844-0.43359 0.64844 0" fill="#fff"/>
 <path d="m59.781 54.66c-0.18359 0-0.32812 0.14453-0.32812 0.32812 0 0.17969 0.14453 0.32422 0.32812 0.32422 0.17578 0 0.32422-0.14453 0.32422-0.32422-0.003907-0.18359-0.14844-0.32812-0.32422-0.32812z" fill="#fff"/>
 <path d="m58.805 54.984c0 0.43359-0.64844 0.43359-0.64844 0s0.64844-0.43359 0.64844 0" fill="#fff"/>
 <path d="m57.508 54.984c0 0.43359-0.64844 0.43359-0.64844 0s0.64844-0.43359 0.64844 0" fill="#fff"/>
 <path d="m55.887 54.66c-0.17578 0-0.32422 0.14453-0.32422 0.32812 0 0.17969 0.14844 0.32422 0.32422 0.32422 0.18359 0 0.32812-0.14453 0.32812-0.32422 0-0.18359-0.14844-0.32812-0.32812-0.32812z" fill="#fff"/>
 <path d="m54.918 54.984c0 0.43359-0.65234 0.43359-0.65234 0s0.65234-0.43359 0.65234 0" fill="#fff"/>
 <path d="m53.621 54.984c0 0.43359-0.65234 0.43359-0.65234 0s0.65234-0.43359 0.65234 0" fill="#fff"/>
 <path d="m51.027 56.406c0 0.43359-0.64844 0.43359-0.64844 0 0-0.42969 0.64844-0.42969 0.64844 0" fill="#fff"/>
 <path d="m52.324 56.406c0 0.43359-0.64844 0.43359-0.64844 0 0-0.42969 0.64844-0.42969 0.64844 0" fill="#fff"/>
 <path d="m63.992 56.406c0 0.43359-0.64844 0.43359-0.64844 0 0-0.42969 0.64844-0.42969 0.64844 0" fill="#fff"/>
 <path d="m62.371 56.082c-0.17969 0-0.32812 0.14453-0.32812 0.32422s0.14844 0.32422 0.32812 0.32422c0.17578 0 0.32422-0.14453 0.32422-0.32422s-0.14453-0.32422-0.32422-0.32422z" fill="#fff"/>
 <path d="m61.398 56.406c0 0.43359-0.64844 0.43359-0.64844 0 0-0.42969 0.64844-0.42969 0.64844 0" fill="#fff"/>
 <path d="m59.781 56.082c-0.18359 0-0.32812 0.14453-0.32812 0.32422s0.14453 0.32422 0.32812 0.32422c0.17578 0 0.32422-0.14453 0.32422-0.32422-0.003907-0.17969-0.14844-0.32422-0.32422-0.32422z" fill="#fff"/>
 <path d="m58.805 56.406c0 0.43359-0.64844 0.43359-0.64844 0 0-0.42969 0.64844-0.42969 0.64844 0" fill="#fff"/>
 <path d="m57.508 56.406c0 0.43359-0.64844 0.43359-0.64844 0 0-0.42969 0.64844-0.42969 0.64844 0" fill="#fff"/>
 <path d="m55.887 56.082c-0.17578 0-0.32422 0.14453-0.32422 0.32422s0.14844 0.32422 0.32422 0.32422c0.18359 0 0.32812-0.14453 0.32812-0.32422s-0.14844-0.32422-0.32812-0.32422z" fill="#fff"/>
 <path d="m54.914 56.406c0 0.43359-0.64453 0.43359-0.64453 0 0-0.42969 0.64453-0.42969 0.64453 0" fill="#fff"/>
 <path d="m53.617 56.406c0 0.43359-0.64453 0.43359-0.64453 0 0-0.42969 0.64453-0.42969 0.64453 0" fill="#fff"/>
 <path d="m51.027 57.832c0 0.42969-0.64844 0.42969-0.64844 0 0-0.43359 0.64844-0.43359 0.64844 0" fill="#fff"/>
 <path d="m52.324 57.832c0 0.42969-0.64844 0.42969-0.64844 0 0-0.43359 0.64844-0.43359 0.64844 0" fill="#fff"/>
 <path d="m63.992 57.832c0 0.42969-0.64844 0.42969-0.64844 0 0-0.43359 0.64844-0.43359 0.64844 0" fill="#fff"/>
 <path d="m51.027 59.258c0 0.42969-0.64844 0.42969-0.64844 0 0-0.43359 0.64844-0.43359 0.64844 0" fill="#fff"/>
 <path d="m66.258 46.117c-0.17969 0-0.32422 0.14453-0.32422 0.32422 0 0.17969 0.14062 0.32422 0.32422 0.32422 0.18359 0 0.32422-0.14453 0.32422-0.32422 0-0.17969-0.14062-0.32422-0.32422-0.32422z" fill="#fff"/>
 <path d="m65.289 46.441c0 0.43359-0.65234 0.43359-0.65234 0s0.65234-0.43359 0.65234 0" fill="#fff"/>
 <path d="m63.992 46.441c0 0.43359-0.64844 0.43359-0.64844 0s0.64844-0.43359 0.64844 0" fill="#fff"/>
 <path d="m62.371 46.117c-0.17969 0-0.32812 0.14453-0.32812 0.32422 0 0.17969 0.14844 0.32422 0.32812 0.32422 0.17578 0 0.32422-0.14453 0.32422-0.32422 0-0.17969-0.14453-0.32422-0.32422-0.32422z" fill="#fff"/>
 <path d="m61.398 46.441c0 0.43359-0.64844 0.43359-0.64844 0s0.64844-0.43359 0.64844 0" fill="#fff"/>
 <path d="m59.781 46.117c-0.18359 0-0.32812 0.14453-0.32812 0.32422 0 0.17969 0.14453 0.32422 0.32812 0.32422 0.17578 0 0.32422-0.14453 0.32422-0.32422-0.003907-0.17969-0.14844-0.32422-0.32422-0.32422z" fill="#fff"/>
 <path d="m58.805 46.441c0 0.43359-0.64844 0.43359-0.64844 0s0.64844-0.43359 0.64844 0" fill="#fff"/>
 <path d="m54.918 46.441c0 0.43359-0.65234 0.43359-0.65234 0s0.65234-0.43359 0.65234 0" fill="#fff"/>
 <path d="m53.621 46.441c0 0.43359-0.65234 0.43359-0.65234 0s0.65234-0.43359 0.65234 0" fill="#fff"/>
 <path d="m48.328 33.625c0 0.43359-0.64844 0.43359-0.64844 0s0.64844-0.43359 0.64844 0" fill="#fff"/>
 <path d="m47.031 33.625c0 0.43359-0.64844 0.43359-0.64844 0s0.64844-0.43359 0.64844 0" fill="#fff"/>
 <path d="m49.625 33.625c0 0.43359-0.65234 0.43359-0.65234 0s0.65234-0.43359 0.65234 0" fill="#fff"/>
 <path d="m48.328 35.051c0 0.43359-0.64844 0.43359-0.64844 0 0-0.43359 0.64844-0.43359 0.64844 0" fill="#fff"/>
 <path d="m47.031 35.051c0 0.43359-0.64844 0.43359-0.64844 0 0-0.43359 0.64844-0.43359 0.64844 0" fill="#fff"/>
 <path d="m45.734 35.051c0 0.43359-0.65234 0.43359-0.65234 0 0-0.43359 0.65234-0.43359 0.65234 0" fill="#fff"/>
 <path d="m44.113 35.375c0.18359 0 0.32812-0.14453 0.32812-0.32422 0-0.17969-0.14453-0.32422-0.32812-0.32422-0.17578 0-0.32422 0.14453-0.32422 0.32422 0 0.17969 0.14453 0.32422 0.32422 0.32422z" fill="#fff"/>
 <path d="m49.625 35.051c0 0.43359-0.65234 0.43359-0.65234 0 0-0.43359 0.65234-0.43359 0.65234 0" fill="#fff"/>
 <path d="m48.328 36.477c0 0.43359-0.64844 0.43359-0.64844 0 0-0.43359 0.64844-0.43359 0.64844 0" fill="#fff"/>
 <path d="m47.031 36.477c0 0.43359-0.64844 0.43359-0.64844 0 0-0.43359 0.64844-0.43359 0.64844 0" fill="#fff"/>
 <path d="m45.734 36.477c0 0.43359-0.65234 0.43359-0.65234 0 0-0.43359 0.65234-0.43359 0.65234 0" fill="#fff"/>
 <path d="m44.113 36.801c0.18359 0 0.32812-0.14453 0.32812-0.32422 0-0.17969-0.14453-0.32422-0.32812-0.32422-0.17578 0-0.32422 0.14453-0.32422 0.32422 0 0.17969 0.14453 0.32422 0.32422 0.32422z" fill="#fff"/>
 <path d="m43.141 36.477c0 0.43359-0.64844 0.43359-0.64844 0 0-0.43359 0.64844-0.43359 0.64844 0" fill="#fff"/>
 <path d="m49.625 36.477c0 0.43359-0.65234 0.43359-0.65234 0 0-0.43359 0.65234-0.43359 0.65234 0" fill="#fff"/>
 <path d="m48.328 37.898c0 0.43359-0.64844 0.43359-0.64844 0 0-0.43359 0.64844-0.43359 0.64844 0" fill="#fff"/>
 <path d="m47.031 37.898c0 0.43359-0.64844 0.43359-0.64844 0 0-0.43359 0.64844-0.43359 0.64844 0" fill="#fff"/>
 <path d="m45.734 37.898c0 0.43359-0.65234 0.43359-0.65234 0 0-0.43359 0.65234-0.43359 0.65234 0" fill="#fff"/>
 <path d="m44.113 38.223c0.18359 0 0.32812-0.14453 0.32812-0.32422 0-0.17969-0.14453-0.32422-0.32812-0.32422-0.17578 0-0.32422 0.14453-0.32422 0.32422 0 0.17969 0.14453 0.32422 0.32422 0.32422z" fill="#fff"/>
 <path d="m43.141 37.898c0 0.43359-0.64844 0.43359-0.64844 0 0-0.43359 0.64844-0.43359 0.64844 0" fill="#fff"/>
 <path d="m49.625 37.898c0 0.43359-0.65234 0.43359-0.65234 0 0-0.43359 0.65234-0.43359 0.65234 0" fill="#fff"/>
 <path d="m48.328 39.324c0 0.43359-0.64844 0.43359-0.64844 0 0-0.43359 0.64844-0.43359 0.64844 0" fill="#fff"/>
 <path d="m47.031 39.324c0 0.43359-0.64844 0.43359-0.64844 0 0-0.43359 0.64844-0.43359 0.64844 0" fill="#fff"/>
 <path d="m45.734 39.324c0 0.43359-0.65234 0.43359-0.65234 0 0-0.43359 0.65234-0.43359 0.65234 0" fill="#fff"/>
 <path d="m44.113 39.648c0.18359 0 0.32812-0.14453 0.32812-0.32422 0-0.17969-0.14453-0.32422-0.32812-0.32422-0.17578 0-0.32422 0.14453-0.32422 0.32422 0 0.17578 0.14453 0.32422 0.32422 0.32422z" fill="#fff"/>
 <path d="m43.141 39.324c0 0.43359-0.64844 0.43359-0.64844 0 0-0.43359 0.64844-0.43359 0.64844 0" fill="#fff"/>
 <path d="m49.625 39.324c0 0.43359-0.65234 0.43359-0.65234 0 0-0.43359 0.65234-0.43359 0.65234 0" fill="#fff"/>
 <path d="m48.328 40.746c0 0.43359-0.64844 0.43359-0.64844 0s0.64844-0.43359 0.64844 0" fill="#fff"/>
 <path d="m47.031 40.746c0 0.43359-0.64844 0.43359-0.64844 0s0.64844-0.43359 0.64844 0" fill="#fff"/>
 <path d="m45.734 40.746c0 0.43359-0.65234 0.43359-0.65234 0s0.65234-0.43359 0.65234 0" fill="#fff"/>
 <path d="m44.113 41.07c0.18359 0 0.32812-0.14453 0.32812-0.32422 0-0.17969-0.14453-0.32422-0.32812-0.32422-0.17578 0-0.32422 0.14453-0.32422 0.32422 0 0.17969 0.14453 0.32422 0.32422 0.32422z" fill="#fff"/>
 <path d="m49.625 40.746c0 0.43359-0.65234 0.43359-0.65234 0s0.65234-0.43359 0.65234 0" fill="#fff"/>
 <path d="m48.328 42.172c0 0.43359-0.64844 0.43359-0.64844 0s0.64844-0.43359 0.64844 0" fill="#fff"/>
 <path d="m47.031 42.172c0 0.43359-0.64844 0.43359-0.64844 0s0.64844-0.43359 0.64844 0" fill="#fff"/>
 <path d="m45.734 42.172c0 0.43359-0.65234 0.43359-0.65234 0s0.65234-0.43359 0.65234 0" fill="#fff"/>
 <path d="m44.113 42.496c0.18359 0 0.32812-0.14453 0.32812-0.32422s-0.14453-0.32422-0.32812-0.32422c-0.17578 0-0.32422 0.14453-0.32422 0.32422 0 0.17578 0.14453 0.32422 0.32422 0.32422z" fill="#fff"/>
 <path d="m49.625 42.172c0 0.43359-0.65234 0.43359-0.65234 0s0.65234-0.43359 0.65234 0" fill="#fff"/>
 <path d="m48.328 43.594c0 0.43359-0.64844 0.43359-0.64844 0s0.64844-0.43359 0.64844 0" fill="#fff"/>
 <path d="m47.031 43.594c0 0.43359-0.64844 0.43359-0.64844 0s0.64844-0.43359 0.64844 0" fill="#fff"/>
 <path d="m45.734 43.594c0 0.43359-0.65234 0.43359-0.65234 0s0.65234-0.43359 0.65234 0" fill="#fff"/>
 <path d="m44.113 43.918c0.18359 0 0.32812-0.14453 0.32812-0.32422s-0.14453-0.32422-0.32812-0.32422c-0.17578 0-0.32422 0.14453-0.32422 0.32422s0.14453 0.32422 0.32422 0.32422z" fill="#fff"/>
 <path d="m49.625 43.594c0 0.43359-0.65234 0.43359-0.65234 0s0.65234-0.43359 0.65234 0" fill="#fff"/>
 <path d="m48.328 45.02c0 0.43359-0.64844 0.43359-0.64844 0 0-0.43359 0.64844-0.43359 0.64844 0" fill="#fff"/>
 <path d="m47.031 45.02c0 0.43359-0.64844 0.43359-0.64844 0 0-0.43359 0.64844-0.43359 0.64844 0" fill="#fff"/>
 <path d="m45.734 45.02c0 0.43359-0.65234 0.43359-0.65234 0 0-0.43359 0.65234-0.43359 0.65234 0" fill="#fff"/>
 <path d="m44.113 45.344c0.18359 0 0.32812-0.14453 0.32812-0.32422 0-0.17969-0.14453-0.32422-0.32812-0.32422-0.17578 0-0.32422 0.14453-0.32422 0.32422 0 0.17578 0.14453 0.32422 0.32422 0.32422z" fill="#fff"/>
 <path d="m43.141 45.02c0 0.43359-0.64844 0.43359-0.64844 0 0-0.43359 0.64844-0.43359 0.64844 0" fill="#fff"/>
 <path d="m49.625 45.02c0 0.43359-0.65234 0.43359-0.65234 0 0-0.43359 0.65234-0.43359 0.65234 0" fill="#fff"/>
 <path d="m47.031 47.863c0 0.43359-0.64844 0.43359-0.64844 0 0-0.42969 0.64844-0.42969 0.64844 0" fill="#fff"/>
 <path d="m45.734 47.863c0 0.43359-0.64844 0.43359-0.64844 0 0-0.42969 0.64844-0.42969 0.64844 0" fill="#fff"/>
 <path d="m44.113 48.191c0.18359 0 0.32812-0.14453 0.32812-0.32422 0-0.17969-0.14453-0.32422-0.32812-0.32422-0.17578 0-0.32422 0.14453-0.32422 0.32422 0 0.17969 0.14453 0.32422 0.32422 0.32422z" fill="#fff"/>
 <path d="m43.141 47.863c0 0.43359-0.64844 0.43359-0.64844 0 0-0.42969 0.64844-0.42969 0.64844 0" fill="#fff"/>
 <path d="m45.734 49.289c0 0.43359-0.65234 0.43359-0.65234 0 0-0.43359 0.65234-0.43359 0.65234 0" fill="#fff"/>
 <path d="m44.113 49.613c0.18359 0 0.32812-0.14453 0.32812-0.32422 0-0.17969-0.14453-0.32422-0.32812-0.32422-0.17578 0-0.32422 0.14453-0.32422 0.32422 0 0.17969 0.14453 0.32422 0.32422 0.32422z" fill="#fff"/>
 <path d="m43.141 49.289c0 0.43359-0.64844 0.43359-0.64844 0 0-0.43359 0.64844-0.43359 0.64844 0" fill="#fff"/>
 <path d="m41.844 49.289c0 0.43359-0.64844 0.43359-0.64844 0 0-0.43359 0.64844-0.43359 0.64844 0" fill="#fff"/>
 <path d="m49.625 49.289c0 0.43359-0.65234 0.43359-0.65234 0 0-0.43359 0.65234-0.43359 0.65234 0" fill="#fff"/>
 <path d="m48.328 50.711c0 0.43359-0.64844 0.43359-0.64844 0 0-0.42969 0.64844-0.42969 0.64844 0" fill="#fff"/>
 <path d="m44.113 51.039c0.18359 0 0.32812-0.14453 0.32812-0.32422 0-0.17969-0.14453-0.32422-0.32812-0.32422-0.17578 0-0.32422 0.14453-0.32422 0.32422 0 0.17969 0.14453 0.32422 0.32422 0.32422z" fill="#fff"/>
 <path d="m43.141 50.711c0 0.43359-0.64844 0.43359-0.64844 0 0-0.42969 0.64844-0.42969 0.64844 0" fill="#fff"/>
 <path d="m41.844 50.711c0 0.43359-0.64844 0.43359-0.64844 0 0-0.42969 0.64844-0.42969 0.64844 0" fill="#fff"/>
 <path d="m40.547 50.711c0 0.43359-0.64844 0.43359-0.64844 0 0-0.42969 0.64844-0.42969 0.64844 0" fill="#fff"/>
 <path d="m49.625 50.711c0 0.43359-0.65234 0.43359-0.65234 0 0-0.42969 0.65234-0.42969 0.65234 0" fill="#fff"/>
 <path d="m48.328 52.137c0 0.43359-0.64844 0.43359-0.64844 0 0-0.42969 0.64844-0.42969 0.64844 0" fill="#fff"/>
 <path d="m47.031 52.137c0 0.43359-0.64844 0.43359-0.64844 0 0-0.42969 0.64844-0.42969 0.64844 0" fill="#fff"/>
 <path d="m43.141 52.137c0 0.43359-0.64844 0.43359-0.64844 0 0-0.42969 0.64844-0.42969 0.64844 0" fill="#fff"/>
 <path d="m41.844 52.137c0 0.43359-0.64844 0.43359-0.64844 0 0-0.42969 0.64844-0.42969 0.64844 0" fill="#fff"/>
 <path d="m40.547 52.137c0 0.43359-0.64844 0.43359-0.64844 0 0-0.42969 0.64844-0.42969 0.64844 0" fill="#fff"/>
 <path d="m39.254 52.137c0 0.43359-0.64844 0.43359-0.64844 0 0-0.42969 0.64844-0.42969 0.64844 0" fill="#fff"/>
 <path d="m37.953 52.137c0 0.43359-0.64453 0.43359-0.64453 0 0-0.42969 0.64453-0.42969 0.64453 0" fill="#fff"/>
 <path d="m49.621 52.137c0 0.43359-0.64844 0.43359-0.64844 0 0-0.42969 0.64844-0.42969 0.64844 0" fill="#fff"/>
 <path d="m47.031 53.559c0 0.43359-0.64844 0.43359-0.64844 0s0.64844-0.43359 0.64844 0" fill="#fff"/>
 <path d="m45.734 53.559c0 0.43359-0.65234 0.43359-0.65234 0s0.65234-0.43359 0.65234 0" fill="#fff"/>
 <path d="m41.844 53.559c0 0.43359-0.64844 0.43359-0.64844 0s0.64844-0.43359 0.64844 0" fill="#fff"/>
 <path d="m40.547 53.559c0 0.43359-0.64844 0.43359-0.64844 0s0.64844-0.43359 0.64844 0" fill="#fff"/>
 <path d="m39.254 53.559c0 0.43359-0.64844 0.43359-0.64844 0s0.64844-0.43359 0.64844 0" fill="#fff"/>
 <path d="m37.957 53.559c0 0.43359-0.65234 0.43359-0.65234 0s0.65234-0.43359 0.65234 0" fill="#fff"/>
 <path d="m36.66 53.559c0 0.43359-0.65234 0.43359-0.65234 0s0.65234-0.43359 0.65234 0" fill="#fff"/>
 <path d="m35.363 53.559c0 0.43359-0.64844 0.43359-0.64844 0s0.64844-0.43359 0.64844 0" fill="#fff"/>
 <path d="m34.066 53.559c0 0.43359-0.64844 0.43359-0.64844 0s0.64844-0.43359 0.64844 0" fill="#fff"/>
 <path d="m32.77 53.559c0 0.43359-0.64844 0.43359-0.64844 0s0.64844-0.43359 0.64844 0" fill="#fff"/>
 <path d="m31.473 53.559c0 0.43359-0.64844 0.43359-0.64844 0s0.64844-0.43359 0.64844 0" fill="#fff"/>
 <path d="m30.176 53.559c0 0.43359-0.64844 0.43359-0.64844 0s0.64844-0.43359 0.64844 0" fill="#fff"/>
 <path d="m28.879 53.559c0 0.43359-0.64844 0.43359-0.64844 0s0.64844-0.43359 0.64844 0" fill="#fff"/>
 <path d="m27.586 53.559c0 0.43359-0.65234 0.43359-0.65234 0s0.65234-0.43359 0.65234 0" fill="#fff"/>
 <path d="m26.285 53.559c0 0.43359-0.64844 0.43359-0.64844 0s0.64844-0.43359 0.64844 0" fill="#fff"/>
 <path d="m45.734 54.984c0 0.43359-0.65234 0.43359-0.65234 0s0.65234-0.43359 0.65234 0" fill="#fff"/>
 <path d="m44.113 54.66c-0.17578 0-0.32422 0.14453-0.32422 0.32812 0 0.17969 0.14453 0.32422 0.32422 0.32422 0.18359 0 0.32812-0.14453 0.32812-0.32422-0.003906-0.18359-0.14844-0.32812-0.32812-0.32812z" fill="#fff"/>
 <path d="m40.547 54.984c0 0.43359-0.64844 0.43359-0.64844 0s0.64844-0.43359 0.64844 0" fill="#fff"/>
 <path d="m39.254 54.984c0 0.43359-0.64844 0.43359-0.64844 0s0.64844-0.43359 0.64844 0" fill="#fff"/>
 <path d="m37.957 54.984c0 0.43359-0.65234 0.43359-0.65234 0s0.65234-0.43359 0.65234 0" fill="#fff"/>
 <path d="m36.66 54.984c0 0.43359-0.65234 0.43359-0.65234 0s0.65234-0.43359 0.65234 0" fill="#fff"/>
 <path d="m35.363 54.984c0 0.43359-0.64844 0.43359-0.64844 0s0.64844-0.43359 0.64844 0" fill="#fff"/>
 <path d="m34.066 54.984c0 0.43359-0.64844 0.43359-0.64844 0s0.64844-0.43359 0.64844 0" fill="#fff"/>
 <path d="m32.77 54.984c0 0.43359-0.64844 0.43359-0.64844 0s0.64844-0.43359 0.64844 0" fill="#fff"/>
 <path d="m31.473 54.984c0 0.43359-0.64844 0.43359-0.64844 0s0.64844-0.43359 0.64844 0" fill="#fff"/>
 <path d="m30.176 54.984c0 0.43359-0.64844 0.43359-0.64844 0s0.64844-0.43359 0.64844 0" fill="#fff"/>
 <path d="m28.879 54.984c0 0.43359-0.64844 0.43359-0.64844 0s0.64844-0.43359 0.64844 0" fill="#fff"/>
 <path d="m27.586 54.984c0 0.43359-0.65234 0.43359-0.65234 0s0.65234-0.43359 0.65234 0" fill="#fff"/>
 <path d="m26.285 54.984c0 0.43359-0.64844 0.43359-0.64844 0s0.64844-0.43359 0.64844 0" fill="#fff"/>
 <path d="m24.988 54.984c0 0.43359-0.64844 0.43359-0.64844 0s0.64844-0.43359 0.64844 0" fill="#fff"/>
 <path d="m49.625 54.984c0 0.43359-0.65234 0.43359-0.65234 0s0.65234-0.43359 0.65234 0" fill="#fff"/>
 <path d="m48.328 56.406c0 0.43359-0.64844 0.43359-0.64844 0 0-0.42969 0.64844-0.42969 0.64844 0" fill="#fff"/>
 <path d="m44.113 56.082c-0.17578 0-0.32422 0.14453-0.32422 0.32422s0.14453 0.32422 0.32422 0.32422c0.18359 0 0.32812-0.14453 0.32812-0.32422-0.003906-0.17969-0.14844-0.32422-0.32812-0.32422z" fill="#fff"/>
 <path d="m43.141 56.406c0 0.43359-0.64844 0.43359-0.64844 0 0-0.42969 0.64844-0.42969 0.64844 0" fill="#fff"/>
 <path d="m39.254 56.406c0 0.43359-0.64844 0.43359-0.64844 0 0-0.42969 0.64844-0.42969 0.64844 0" fill="#fff"/>
 <path d="m37.953 56.406c0 0.43359-0.64453 0.43359-0.64453 0 0-0.42969 0.64453-0.42969 0.64453 0" fill="#fff"/>
 <path d="m36.656 56.406c0 0.43359-0.64453 0.43359-0.64453 0 0-0.42969 0.64453-0.42969 0.64453 0" fill="#fff"/>
 <path d="m35.363 56.406c0 0.43359-0.64844 0.43359-0.64844 0 0-0.42969 0.64844-0.42969 0.64844 0" fill="#fff"/>
 <path d="m34.066 56.406c0 0.43359-0.64844 0.43359-0.64844 0 0-0.42969 0.64844-0.42969 0.64844 0" fill="#fff"/>
 <path d="m32.77 56.406c0 0.43359-0.64844 0.43359-0.64844 0 0-0.42969 0.64844-0.42969 0.64844 0" fill="#fff"/>
 <path d="m31.473 56.406c0 0.43359-0.64844 0.43359-0.64844 0 0-0.42969 0.64844-0.42969 0.64844 0" fill="#fff"/>
 <path d="m30.176 56.406c0 0.43359-0.64844 0.43359-0.64844 0 0-0.42969 0.64844-0.42969 0.64844 0" fill="#fff"/>
 <path d="m28.879 56.406c0 0.43359-0.64844 0.43359-0.64844 0 0-0.42969 0.64844-0.42969 0.64844 0" fill="#fff"/>
 <path d="m27.582 56.406c0 0.43359-0.64844 0.43359-0.64844 0 0-0.42969 0.64844-0.42969 0.64844 0" fill="#fff"/>
 <path d="m26.285 56.406c0 0.43359-0.64844 0.43359-0.64844 0 0-0.42969 0.64844-0.42969 0.64844 0" fill="#fff"/>
 <path d="m24.988 56.406c0 0.43359-0.64844 0.43359-0.64844 0 0-0.42969 0.64844-0.42969 0.64844 0" fill="#fff"/>
 <path d="m23.691 56.406c0 0.43359-0.64844 0.43359-0.64844 0 0-0.42969 0.64844-0.42969 0.64844 0" fill="#fff"/>
 <path d="m49.621 56.406c0 0.43359-0.64844 0.43359-0.64844 0 0-0.42969 0.64844-0.42969 0.64844 0" fill="#fff"/>
 <path d="m48.328 57.832c0 0.42969-0.64844 0.42969-0.64844 0 0-0.43359 0.64844-0.43359 0.64844 0" fill="#fff"/>
 <path d="m47.031 57.832c0 0.42969-0.64844 0.42969-0.64844 0 0-0.43359 0.64844-0.43359 0.64844 0" fill="#fff"/>
 <path d="m43.141 57.832c0 0.42969-0.64844 0.42969-0.64844 0 0-0.43359 0.64844-0.43359 0.64844 0" fill="#fff"/>
 <path d="m41.844 57.832c0 0.42969-0.64844 0.42969-0.64844 0 0-0.43359 0.64844-0.43359 0.64844 0" fill="#fff"/>
 <path d="m37.953 57.832c0 0.42969-0.64453 0.42969-0.64453 0 0-0.43359 0.64453-0.43359 0.64453 0" fill="#fff"/>
 <path d="m36.656 57.832c0 0.42969-0.64453 0.42969-0.64453 0 0-0.43359 0.64453-0.43359 0.64453 0" fill="#fff"/>
 <path d="m35.363 57.832c0 0.42969-0.64844 0.42969-0.64844 0 0-0.43359 0.64844-0.43359 0.64844 0" fill="#fff"/>
 <path d="m34.066 57.832c0 0.42969-0.64844 0.42969-0.64844 0 0-0.43359 0.64844-0.43359 0.64844 0" fill="#fff"/>
 <path d="m32.77 57.832c0 0.42969-0.64844 0.42969-0.64844 0 0-0.43359 0.64844-0.43359 0.64844 0" fill="#fff"/>
 <path d="m31.473 57.832c0 0.42969-0.64844 0.42969-0.64844 0 0-0.43359 0.64844-0.43359 0.64844 0" fill="#fff"/>
 <path d="m30.176 57.832c0 0.42969-0.64844 0.42969-0.64844 0 0-0.43359 0.64844-0.43359 0.64844 0" fill="#fff"/>
 <path d="m28.879 57.832c0 0.42969-0.64844 0.42969-0.64844 0 0-0.43359 0.64844-0.43359 0.64844 0" fill="#fff"/>
 <path d="m27.582 57.832c0 0.42969-0.64844 0.42969-0.64844 0 0-0.43359 0.64844-0.43359 0.64844 0" fill="#fff"/>
 <path d="m26.285 57.832c0 0.42969-0.64844 0.42969-0.64844 0 0-0.43359 0.64844-0.43359 0.64844 0" fill="#fff"/>
 <path d="m24.988 57.832c0 0.42969-0.64844 0.42969-0.64844 0 0-0.43359 0.64844-0.43359 0.64844 0" fill="#fff"/>
 <path d="m23.691 57.832c0 0.42969-0.64844 0.42969-0.64844 0 0-0.43359 0.64844-0.43359 0.64844 0" fill="#fff"/>
 <path d="m49.621 57.832c0 0.42969-0.64844 0.42969-0.64844 0 0-0.43359 0.64844-0.43359 0.64844 0" fill="#fff"/>
 <path d="m48.328 59.258c0 0.42969-0.64844 0.42969-0.64844 0 0-0.43359 0.64844-0.43359 0.64844 0" fill="#fff"/>
 <path d="m47.031 59.258c0 0.42969-0.64844 0.42969-0.64844 0 0-0.43359 0.64844-0.43359 0.64844 0" fill="#fff"/>
 <path d="m45.734 59.258c0 0.42969-0.65234 0.42969-0.65234 0 0-0.43359 0.65234-0.43359 0.65234 0" fill="#fff"/>
 <path d="m41.844 59.258c0 0.42969-0.64844 0.42969-0.64844 0 0-0.43359 0.64844-0.43359 0.64844 0" fill="#fff"/>
 <path d="m40.547 59.258c0 0.42969-0.64844 0.42969-0.64844 0 0-0.43359 0.64844-0.43359 0.64844 0" fill="#fff"/>
 <path d="m36.66 59.258c0 0.42969-0.65234 0.42969-0.65234 0 0-0.43359 0.65234-0.43359 0.65234 0" fill="#fff"/>
 <path d="m35.363 59.258c0 0.42969-0.64844 0.42969-0.64844 0 0-0.43359 0.64844-0.43359 0.64844 0" fill="#fff"/>
 <path d="m34.066 59.258c0 0.42969-0.64844 0.42969-0.64844 0 0-0.43359 0.64844-0.43359 0.64844 0" fill="#fff"/>
 <path d="m32.77 59.258c0 0.42969-0.64844 0.42969-0.64844 0 0-0.43359 0.64844-0.43359 0.64844 0" fill="#fff"/>
 <path d="m31.473 59.258c0 0.42969-0.64844 0.42969-0.64844 0 0-0.43359 0.64844-0.43359 0.64844 0" fill="#fff"/>
 <path d="m30.176 59.258c0 0.42969-0.64844 0.42969-0.64844 0 0-0.43359 0.64844-0.43359 0.64844 0" fill="#fff"/>
 <path d="m28.879 59.258c0 0.42969-0.64844 0.42969-0.64844 0 0-0.43359 0.64844-0.43359 0.64844 0" fill="#fff"/>
 <path d="m27.586 59.258c0 0.42969-0.65234 0.42969-0.65234 0 0-0.43359 0.65234-0.43359 0.65234 0" fill="#fff"/>
 <path d="m26.285 59.258c0 0.42969-0.64844 0.42969-0.64844 0 0-0.43359 0.64844-0.43359 0.64844 0" fill="#fff"/>
 <path d="m24.988 59.258c0 0.42969-0.64844 0.42969-0.64844 0 0-0.43359 0.64844-0.43359 0.64844 0" fill="#fff"/>
 <path d="m23.691 59.258c0 0.42969-0.64844 0.42969-0.64844 0 0-0.43359 0.64844-0.43359 0.64844 0" fill="#fff"/>
 <path d="m49.625 59.258c0 0.42969-0.65234 0.42969-0.65234 0 0-0.43359 0.65234-0.43359 0.65234 0" fill="#fff"/>
 <path d="m48.328 60.68c0 0.43359-0.64844 0.43359-0.64844 0 0-0.43359 0.64844-0.43359 0.64844 0" fill="#fff"/>
 <path d="m47.031 60.68c0 0.43359-0.64844 0.43359-0.64844 0 0-0.43359 0.64844-0.43359 0.64844 0" fill="#fff"/>
 <path d="m45.734 60.68c0 0.43359-0.65234 0.43359-0.65234 0 0-0.43359 0.65234-0.43359 0.65234 0" fill="#fff"/>
 <path d="m44.113 60.355c-0.17578 0-0.32422 0.14453-0.32422 0.32422 0 0.17969 0.14453 0.32422 0.32422 0.32422 0.18359 0 0.32812-0.14453 0.32812-0.32422-0.003906-0.17969-0.14844-0.32422-0.32812-0.32422z" fill="#fff"/>
 <path d="m40.547 60.68c0 0.43359-0.64844 0.43359-0.64844 0 0-0.43359 0.64844-0.43359 0.64844 0" fill="#fff"/>
 <path d="m38.93 60.355c-0.17969 0-0.32813 0.14453-0.32813 0.32422 0 0.17969 0.14844 0.32422 0.32813 0.32422 0.17578 0 0.32422-0.14453 0.32422-0.32422-0.003906-0.17969-0.14844-0.32422-0.32422-0.32422z" fill="#fff"/>
 <path d="m35.363 60.68c0 0.43359-0.64844 0.43359-0.64844 0 0-0.43359 0.64844-0.43359 0.64844 0" fill="#fff"/>
 <path d="m34.066 60.68c0 0.43359-0.64844 0.43359-0.64844 0 0-0.43359 0.64844-0.43359 0.64844 0" fill="#fff"/>
 <path d="m32.77 60.68c0 0.43359-0.64844 0.43359-0.64844 0 0-0.43359 0.64844-0.43359 0.64844 0" fill="#fff"/>
 <path d="m31.473 60.68c0 0.43359-0.64844 0.43359-0.64844 0 0-0.43359 0.64844-0.43359 0.64844 0" fill="#fff"/>
 <path d="m30.176 60.68c0 0.43359-0.64844 0.43359-0.64844 0 0-0.43359 0.64844-0.43359 0.64844 0" fill="#fff"/>
 <path d="m28.879 60.68c0 0.43359-0.64844 0.43359-0.64844 0 0-0.43359 0.64844-0.43359 0.64844 0" fill="#fff"/>
 <path d="m27.586 60.68c0 0.43359-0.65234 0.43359-0.65234 0 0-0.43359 0.65234-0.43359 0.65234 0" fill="#fff"/>
 <path d="m26.285 60.68c0 0.43359-0.64844 0.43359-0.64844 0 0-0.43359 0.64844-0.43359 0.64844 0" fill="#fff"/>
 <path d="m24.988 60.68c0 0.43359-0.64844 0.43359-0.64844 0 0-0.43359 0.64844-0.43359 0.64844 0" fill="#fff"/>
 <path d="m23.691 60.68c0 0.43359-0.64844 0.43359-0.64844 0 0-0.43359 0.64844-0.43359 0.64844 0" fill="#fff"/>
 <path d="m48.328 62.105c0 0.42969-0.64844 0.42969-0.64844 0 0-0.43359 0.64844-0.43359 0.64844 0" fill="#fff"/>
 <path d="m47.031 62.105c0 0.42969-0.64844 0.42969-0.64844 0 0-0.43359 0.64844-0.43359 0.64844 0" fill="#fff"/>
 <path d="m45.734 62.105c0 0.42969-0.64844 0.42969-0.64844 0 0-0.43359 0.64844-0.43359 0.64844 0" fill="#fff"/>
 <path d="m44.113 61.781c-0.17578 0-0.32422 0.14453-0.32422 0.32422 0 0.17969 0.14453 0.32422 0.32422 0.32422 0.18359 0 0.32812-0.14453 0.32812-0.32422-0.003906-0.17969-0.14844-0.32422-0.32812-0.32422z" fill="#fff"/>
 <path d="m43.141 62.105c0 0.42969-0.64844 0.42969-0.64844 0 0-0.43359 0.64844-0.43359 0.64844 0" fill="#fff"/>
 <path d="m38.93 61.781c-0.17969 0-0.32813 0.14453-0.32813 0.32422 0 0.17969 0.14844 0.32422 0.32813 0.32422 0.17578 0 0.32422-0.14453 0.32422-0.32422-0.003906-0.17969-0.14844-0.32422-0.32422-0.32422z" fill="#fff"/>
 <path d="m37.953 62.105c0 0.42969-0.64453 0.42969-0.64453 0 0-0.43359 0.64453-0.43359 0.64453 0" fill="#fff"/>
 <path d="m32.77 62.105c0 0.42969-0.64844 0.42969-0.64844 0 0-0.43359 0.64844-0.43359 0.64844 0" fill="#fff"/>
 <path d="m30.176 62.105c0 0.42969-0.64844 0.42969-0.64844 0 0-0.43359 0.64844-0.43359 0.64844 0" fill="#fff"/>
 <path d="m28.879 62.105c0 0.42969-0.64844 0.42969-0.64844 0 0-0.43359 0.64844-0.43359 0.64844 0" fill="#fff"/>
 <path d="m27.582 62.105c0 0.42969-0.64844 0.42969-0.64844 0 0-0.43359 0.64844-0.43359 0.64844 0" fill="#fff"/>
 <path d="m26.285 62.105c0 0.42969-0.64844 0.42969-0.64844 0 0-0.43359 0.64844-0.43359 0.64844 0" fill="#fff"/>
 <path d="m24.988 62.105c0 0.42969-0.64844 0.42969-0.64844 0 0-0.43359 0.64844-0.43359 0.64844 0" fill="#fff"/>
 <path d="m23.691 62.105c0 0.42969-0.64844 0.42969-0.64844 0 0-0.43359 0.64844-0.43359 0.64844 0" fill="#fff"/>
 <path d="m22.395 62.105c0 0.42969-0.64453 0.42969-0.64453 0 0-0.43359 0.64453-0.43359 0.64453 0" fill="#fff"/>
 <path d="m47.031 63.527c0 0.43359-0.64844 0.43359-0.64844 0s0.64844-0.43359 0.64844 0" fill="#fff"/>
 <path d="m45.734 63.527c0 0.43359-0.65234 0.43359-0.65234 0s0.65234-0.43359 0.65234 0" fill="#fff"/>
 <path d="m44.113 63.199c-0.17578 0-0.32422 0.14453-0.32422 0.32812 0 0.17969 0.14453 0.32422 0.32422 0.32422 0.18359 0 0.32812-0.14453 0.32812-0.32422-0.003906-0.17969-0.14844-0.32812-0.32812-0.32812z" fill="#fff"/>
 <path d="m43.141 63.527c0 0.43359-0.64844 0.43359-0.64844 0s0.64844-0.43359 0.64844 0" fill="#fff"/>
 <path d="m41.844 63.527c0 0.43359-0.64844 0.43359-0.64844 0s0.64844-0.43359 0.64844 0" fill="#fff"/>
 <path d="m37.957 63.527c0 0.43359-0.65234 0.43359-0.65234 0s0.65234-0.43359 0.65234 0" fill="#fff"/>
 <path d="m36.66 63.527c0 0.43359-0.65234 0.43359-0.65234 0s0.65234-0.43359 0.65234 0" fill="#fff"/>
 <path d="m35.363 63.527c0 0.43359-0.64844 0.43359-0.64844 0s0.64844-0.43359 0.64844 0" fill="#fff"/>
 <path d="m30.176 63.527c0 0.43359-0.64844 0.43359-0.64844 0s0.64844-0.43359 0.64844 0" fill="#fff"/>
 <path d="m28.879 63.527c0 0.43359-0.64844 0.43359-0.64844 0s0.64844-0.43359 0.64844 0" fill="#fff"/>
 <path d="m27.586 63.527c0 0.43359-0.65234 0.43359-0.65234 0s0.65234-0.43359 0.65234 0" fill="#fff"/>
 <path d="m26.285 63.527c0 0.43359-0.64844 0.43359-0.64844 0s0.64844-0.43359 0.64844 0" fill="#fff"/>
 <path d="m24.988 63.527c0 0.43359-0.64844 0.43359-0.64844 0s0.64844-0.43359 0.64844 0" fill="#fff"/>
 <path d="m23.691 63.527c0 0.43359-0.64844 0.43359-0.64844 0s0.64844-0.43359 0.64844 0" fill="#fff"/>
 <path d="m22.398 63.527c0 0.43359-0.65234 0.43359-0.65234 0s0.65234-0.43359 0.65234 0" fill="#fff"/>
 <path d="m47.031 64.949c0 0.43359-0.64844 0.43359-0.64844 0 0-0.43359 0.64844-0.43359 0.64844 0" fill="#fff"/>
 <path d="m45.734 64.949c0 0.43359-0.65234 0.43359-0.65234 0 0-0.43359 0.65234-0.43359 0.65234 0" fill="#fff"/>
 <path d="m44.113 64.625c-0.17578 0-0.32422 0.14453-0.32422 0.32812 0 0.17969 0.14453 0.32422 0.32422 0.32422 0.18359 0 0.32812-0.14453 0.32812-0.32422-0.003906-0.17969-0.14844-0.32812-0.32812-0.32812z" fill="#fff"/>
 <path d="m43.141 64.949c0 0.43359-0.64844 0.43359-0.64844 0 0-0.43359 0.64844-0.43359 0.64844 0" fill="#fff"/>
 <path d="m41.844 64.949c0 0.43359-0.64844 0.43359-0.64844 0 0-0.43359 0.64844-0.43359 0.64844 0" fill="#fff"/>
 <path d="m40.547 64.949c0 0.43359-0.64844 0.43359-0.64844 0 0-0.43359 0.64844-0.43359 0.64844 0" fill="#fff"/>
 <path d="m36.66 64.949c0 0.43359-0.65234 0.43359-0.65234 0 0-0.43359 0.65234-0.43359 0.65234 0" fill="#fff"/>
 <path d="m35.363 64.949c0 0.43359-0.64844 0.43359-0.64844 0 0-0.43359 0.64844-0.43359 0.64844 0" fill="#fff"/>
 <path d="m31.473 64.949c0 0.43359-0.64844 0.43359-0.64844 0 0-0.43359 0.64844-0.43359 0.64844 0" fill="#fff"/>
 <path d="m30.176 64.949c0 0.43359-0.64844 0.43359-0.64844 0 0-0.43359 0.64844-0.43359 0.64844 0" fill="#fff"/>
 <path d="m28.879 64.949c0 0.43359-0.64844 0.43359-0.64844 0 0-0.43359 0.64844-0.43359 0.64844 0" fill="#fff"/>
 <path d="m27.586 64.949c0 0.43359-0.65234 0.43359-0.65234 0 0-0.43359 0.65234-0.43359 0.65234 0" fill="#fff"/>
 <path d="m26.285 64.949c0 0.43359-0.64844 0.43359-0.64844 0 0-0.43359 0.64844-0.43359 0.64844 0" fill="#fff"/>
 <path d="m24.988 64.949c0 0.43359-0.64844 0.43359-0.64844 0 0-0.43359 0.64844-0.43359 0.64844 0" fill="#fff"/>
 <path d="m23.691 64.949c0 0.43359-0.64844 0.43359-0.64844 0 0-0.43359 0.64844-0.43359 0.64844 0" fill="#fff"/>
 <path d="m45.734 66.375c0 0.42969-0.64844 0.42969-0.64844 0 0-0.43359 0.64844-0.43359 0.64844 0" fill="#fff"/>
 <path d="m44.113 66.051c-0.17578 0-0.32422 0.14453-0.32422 0.32422s0.14453 0.32422 0.32422 0.32422c0.18359 0 0.32812-0.14453 0.32812-0.32422-0.003906-0.17969-0.14844-0.32422-0.32812-0.32422z" fill="#fff"/>
 <path d="m43.141 66.375c0 0.42969-0.64844 0.42969-0.64844 0 0-0.43359 0.64844-0.43359 0.64844 0" fill="#fff"/>
 <path d="m41.844 66.375c0 0.42969-0.64844 0.42969-0.64844 0 0-0.43359 0.64844-0.43359 0.64844 0" fill="#fff"/>
 <path d="m40.547 66.375c0 0.42969-0.64844 0.42969-0.64844 0 0-0.43359 0.64844-0.43359 0.64844 0" fill="#fff"/>
 <path d="m38.93 66.051c-0.17969 0-0.32813 0.14453-0.32813 0.32422s0.14844 0.32422 0.32813 0.32422c0.17578 0 0.32422-0.14453 0.32422-0.32422-0.003906-0.17969-0.14844-0.32422-0.32422-0.32422z" fill="#fff"/>
 <path d="m32.77 66.375c0 0.42969-0.64844 0.42969-0.64844 0 0-0.43359 0.64844-0.43359 0.64844 0" fill="#fff"/>
 <path d="m31.473 66.375c0 0.42969-0.64844 0.42969-0.64844 0 0-0.43359 0.64844-0.43359 0.64844 0" fill="#fff"/>
 <path d="m30.176 66.375c0 0.42969-0.64844 0.42969-0.64844 0 0-0.43359 0.64844-0.43359 0.64844 0" fill="#fff"/>
 <path d="m28.879 66.375c0 0.42969-0.64844 0.42969-0.64844 0 0-0.43359 0.64844-0.43359 0.64844 0" fill="#fff"/>
 <path d="m27.582 66.375c0 0.42969-0.64844 0.42969-0.64844 0 0-0.43359 0.64844-0.43359 0.64844 0" fill="#fff"/>
 <path d="m26.285 66.375c0 0.42969-0.64844 0.42969-0.64844 0 0-0.43359 0.64844-0.43359 0.64844 0" fill="#fff"/>
 <path d="m24.988 66.375c0 0.42969-0.64844 0.42969-0.64844 0 0-0.43359 0.64844-0.43359 0.64844 0" fill="#fff"/>
 <path d="m23.691 66.375c0 0.42969-0.64844 0.42969-0.64844 0 0-0.43359 0.64844-0.43359 0.64844 0" fill="#fff"/>
 <path d="m45.734 67.797c0 0.43359-0.65234 0.43359-0.65234 0s0.65234-0.43359 0.65234 0" fill="#fff"/>
 <path d="m44.113 67.473c-0.17578 0-0.32422 0.14453-0.32422 0.32422s0.14453 0.32812 0.32422 0.32812c0.18359 0 0.32812-0.14453 0.32812-0.32812-0.003906-0.17969-0.14844-0.32422-0.32812-0.32422z" fill="#fff"/>
 <path d="m43.141 67.797c0 0.43359-0.64844 0.43359-0.64844 0s0.64844-0.43359 0.64844 0" fill="#fff"/>
 <path d="m41.844 67.797c0 0.43359-0.64844 0.43359-0.64844 0s0.64844-0.43359 0.64844 0" fill="#fff"/>
 <path d="m40.547 67.797c0 0.43359-0.64844 0.43359-0.64844 0s0.64844-0.43359 0.64844 0" fill="#fff"/>
 <path d="m38.93 67.473c-0.17969 0-0.32813 0.14453-0.32813 0.32422s0.14844 0.32812 0.32813 0.32812c0.17578 0 0.32422-0.14453 0.32422-0.32812-0.003906-0.17969-0.14844-0.32422-0.32422-0.32422z" fill="#fff"/>
 <path d="m37.957 67.797c0 0.43359-0.65234 0.43359-0.65234 0s0.65234-0.43359 0.65234 0" fill="#fff"/>
 <path d="m34.066 67.797c0 0.43359-0.64844 0.43359-0.64844 0s0.64844-0.43359 0.64844 0" fill="#fff"/>
 <path d="m32.77 67.797c0 0.43359-0.64844 0.43359-0.64844 0s0.64844-0.43359 0.64844 0" fill="#fff"/>
 <path d="m31.473 67.797c0 0.43359-0.64844 0.43359-0.64844 0s0.64844-0.43359 0.64844 0" fill="#fff"/>
 <path d="m30.176 67.797c0 0.43359-0.64844 0.43359-0.64844 0s0.64844-0.43359 0.64844 0" fill="#fff"/>
 <path d="m28.879 67.797c0 0.43359-0.64844 0.43359-0.64844 0s0.64844-0.43359 0.64844 0" fill="#fff"/>
 <path d="m27.586 67.797c0 0.43359-0.65234 0.43359-0.65234 0s0.65234-0.43359 0.65234 0" fill="#fff"/>
 <path d="m26.285 67.797c0 0.43359-0.64844 0.43359-0.64844 0s0.64844-0.43359 0.64844 0" fill="#fff"/>
 <path d="m24.988 67.797c0 0.43359-0.64844 0.43359-0.64844 0s0.64844-0.43359 0.64844 0" fill="#fff"/>
 <path d="m23.691 67.797c0 0.43359-0.64844 0.43359-0.64844 0s0.64844-0.43359 0.64844 0" fill="#fff"/>
 <path d="m48.328 46.441c0 0.43359-0.64844 0.43359-0.64844 0s0.64844-0.43359 0.64844 0" fill="#fff"/>
 <path d="m47.031 46.441c0 0.43359-0.64844 0.43359-0.64844 0s0.64844-0.43359 0.64844 0" fill="#fff"/>
 <path d="m45.734 46.441c0 0.43359-0.65234 0.43359-0.65234 0s0.65234-0.43359 0.65234 0" fill="#fff"/>
 <path d="m44.113 46.766c0.18359 0 0.32812-0.14453 0.32812-0.32422 0-0.17969-0.14453-0.32422-0.32812-0.32422-0.17578 0-0.32422 0.14453-0.32422 0.32422 0 0.17969 0.14453 0.32422 0.32422 0.32422z" fill="#fff"/>
 <path d="m43.141 46.441c0 0.43359-0.64844 0.43359-0.64844 0s0.64844-0.43359 0.64844 0" fill="#fff"/>
 <path d="m49.625 46.441c0 0.43359-0.65234 0.43359-0.65234 0s0.65234-0.43359 0.65234 0" fill="#fff"/>
 <path d="m45.734 69.223c0 0.42969-0.64844 0.42969-0.64844 0 0-0.43359 0.64844-0.43359 0.64844 0" fill="#fff"/>
 <path d="m44.113 68.898c-0.17578 0-0.32422 0.14453-0.32422 0.32422 0 0.17969 0.14453 0.32422 0.32422 0.32422 0.18359 0 0.32812-0.14453 0.32812-0.32422-0.003906-0.17969-0.14844-0.32422-0.32812-0.32422z" fill="#fff"/>
 <path d="m43.141 69.223c0 0.42969-0.64844 0.42969-0.64844 0 0-0.43359 0.64844-0.43359 0.64844 0" fill="#fff"/>
 <path d="m41.844 69.223c0 0.42969-0.64844 0.42969-0.64844 0 0-0.43359 0.64844-0.43359 0.64844 0" fill="#fff"/>
 <path d="m40.547 69.223c0 0.42969-0.64844 0.42969-0.64844 0 0-0.43359 0.64844-0.43359 0.64844 0" fill="#fff"/>
 <path d="m38.93 68.898c-0.17969 0-0.32813 0.14453-0.32813 0.32422 0 0.17969 0.14844 0.32422 0.32813 0.32422 0.17578 0 0.32422-0.14453 0.32422-0.32422-0.003906-0.17969-0.14844-0.32422-0.32422-0.32422z" fill="#fff"/>
 <path d="m35.363 69.223c0 0.42969-0.64844 0.42969-0.64844 0 0-0.43359 0.64844-0.43359 0.64844 0" fill="#fff"/>
 <path d="m34.066 69.223c0 0.42969-0.64844 0.42969-0.64844 0 0-0.43359 0.64844-0.43359 0.64844 0" fill="#fff"/>
 <path d="m32.77 69.223c0 0.42969-0.64844 0.42969-0.64844 0 0-0.43359 0.64844-0.43359 0.64844 0" fill="#fff"/>
 <path d="m31.473 69.223c0 0.42969-0.64844 0.42969-0.64844 0 0-0.43359 0.64844-0.43359 0.64844 0" fill="#fff"/>
 <path d="m30.176 69.223c0 0.42969-0.64844 0.42969-0.64844 0 0-0.43359 0.64844-0.43359 0.64844 0" fill="#fff"/>
 <path d="m28.879 69.223c0 0.42969-0.64844 0.42969-0.64844 0 0-0.43359 0.64844-0.43359 0.64844 0" fill="#fff"/>
 <path d="m27.582 69.223c0 0.42969-0.64844 0.42969-0.64844 0 0-0.43359 0.64844-0.43359 0.64844 0" fill="#fff"/>
 <path d="m26.285 69.223c0 0.42969-0.64844 0.42969-0.64844 0 0-0.43359 0.64844-0.43359 0.64844 0" fill="#fff"/>
 <path d="m24.988 69.223c0 0.42969-0.64844 0.42969-0.64844 0 0-0.43359 0.64844-0.43359 0.64844 0" fill="#fff"/>
 <path d="m47.031 70.645c0 0.43359-0.64844 0.43359-0.64844 0 0-0.43359 0.64844-0.43359 0.64844 0" fill="#fff"/>
 <path d="m45.734 70.645c0 0.43359-0.65234 0.43359-0.65234 0 0-0.43359 0.65234-0.43359 0.65234 0" fill="#fff"/>
 <path d="m44.113 70.32c-0.17578 0-0.32422 0.14453-0.32422 0.32813 0 0.17969 0.14453 0.32422 0.32422 0.32422 0.18359 0 0.32812-0.14453 0.32812-0.32422-0.003906-0.18359-0.14844-0.32813-0.32812-0.32813z" fill="#fff"/>
 <path d="m43.141 70.645c0 0.43359-0.64844 0.43359-0.64844 0 0-0.43359 0.64844-0.43359 0.64844 0" fill="#fff"/>
 <path d="m41.844 70.645c0 0.43359-0.64844 0.43359-0.64844 0 0-0.43359 0.64844-0.43359 0.64844 0" fill="#fff"/>
 <path d="m40.547 70.645c0 0.43359-0.64844 0.43359-0.64844 0 0-0.43359 0.64844-0.43359 0.64844 0" fill="#fff"/>
 <path d="m38.93 70.32c-0.17969 0-0.32813 0.14453-0.32813 0.32813 0 0.17969 0.14844 0.32422 0.32813 0.32422 0.17578 0 0.32422-0.14453 0.32422-0.32422-0.003906-0.18359-0.14844-0.32813-0.32422-0.32813z" fill="#fff"/>
 <path d="m37.957 70.645c0 0.43359-0.65234 0.43359-0.65234 0 0-0.43359 0.65234-0.43359 0.65234 0" fill="#fff"/>
 <path d="m36.66 70.645c0 0.43359-0.65234 0.43359-0.65234 0 0-0.43359 0.65234-0.43359 0.65234 0" fill="#fff"/>
 <path d="m35.363 70.645c0 0.43359-0.64844 0.43359-0.64844 0 0-0.43359 0.64844-0.43359 0.64844 0" fill="#fff"/>
 <path d="m34.066 70.645c0 0.43359-0.64844 0.43359-0.64844 0 0-0.43359 0.64844-0.43359 0.64844 0" fill="#fff"/>
 <path d="m32.77 70.645c0 0.43359-0.64844 0.43359-0.64844 0 0-0.43359 0.64844-0.43359 0.64844 0" fill="#fff"/>
 <path d="m31.473 70.645c0 0.43359-0.64844 0.43359-0.64844 0 0-0.43359 0.64844-0.43359 0.64844 0" fill="#fff"/>
 <path d="m30.176 70.645c0 0.43359-0.64844 0.43359-0.64844 0 0-0.43359 0.64844-0.43359 0.64844 0" fill="#fff"/>
 <path d="m28.879 70.645c0 0.43359-0.64844 0.43359-0.64844 0 0-0.43359 0.64844-0.43359 0.64844 0" fill="#fff"/>
 <path d="m27.586 70.645c0 0.43359-0.65234 0.43359-0.65234 0 0-0.43359 0.65234-0.43359 0.65234 0" fill="#fff"/>
 <path d="m26.285 70.645c0 0.43359-0.64844 0.43359-0.64844 0 0-0.43359 0.64844-0.43359 0.64844 0" fill="#fff"/>
 <path d="m24.988 70.645c0 0.43359-0.64844 0.43359-0.64844 0 0-0.43359 0.64844-0.43359 0.64844 0" fill="#fff"/>
 <path d="m47.031 72.066c0 0.43359-0.64844 0.43359-0.64844 0s0.64844-0.43359 0.64844 0" fill="#fff"/>
 <path d="m45.734 72.066c0 0.43359-0.65234 0.43359-0.65234 0s0.65234-0.43359 0.65234 0" fill="#fff"/>
 <path d="m44.113 71.746c-0.17578 0-0.32422 0.14453-0.32422 0.32812 0 0.17969 0.14453 0.32422 0.32422 0.32422 0.18359 0 0.32812-0.14453 0.32812-0.32422-0.003906-0.18359-0.14844-0.32812-0.32812-0.32812z" fill="#fff"/>
 <path d="m43.141 72.066c0 0.43359-0.64844 0.43359-0.64844 0s0.64844-0.43359 0.64844 0" fill="#fff"/>
 <path d="m41.844 72.066c0 0.43359-0.64844 0.43359-0.64844 0s0.64844-0.43359 0.64844 0" fill="#fff"/>
 <path d="m40.547 72.066c0 0.43359-0.64844 0.43359-0.64844 0s0.64844-0.43359 0.64844 0" fill="#fff"/>
 <path d="m38.93 71.746c-0.17969 0-0.32813 0.14453-0.32813 0.32812 0 0.17969 0.14844 0.32422 0.32813 0.32422 0.17578 0 0.32422-0.14453 0.32422-0.32422-0.003906-0.18359-0.14844-0.32812-0.32422-0.32812z" fill="#fff"/>
 <path d="m37.957 72.066c0 0.43359-0.65234 0.43359-0.65234 0s0.65234-0.43359 0.65234 0" fill="#fff"/>
 <path d="m36.66 72.066c0 0.43359-0.65234 0.43359-0.65234 0s0.65234-0.43359 0.65234 0" fill="#fff"/>
 <path d="m35.363 72.066c0 0.43359-0.64844 0.43359-0.64844 0s0.64844-0.43359 0.64844 0" fill="#fff"/>
 <path d="m34.066 72.066c0 0.43359-0.64844 0.43359-0.64844 0s0.64844-0.43359 0.64844 0" fill="#fff"/>
 <path d="m32.77 72.066c0 0.43359-0.64844 0.43359-0.64844 0s0.64844-0.43359 0.64844 0" fill="#fff"/>
 <path d="m31.473 72.066c0 0.43359-0.64844 0.43359-0.64844 0s0.64844-0.43359 0.64844 0" fill="#fff"/>
 <path d="m30.176 72.066c0 0.43359-0.64844 0.43359-0.64844 0s0.64844-0.43359 0.64844 0" fill="#fff"/>
 <path d="m28.879 72.066c0 0.43359-0.64844 0.43359-0.64844 0s0.64844-0.43359 0.64844 0" fill="#fff"/>
 <path d="m27.586 72.066c0 0.43359-0.65234 0.43359-0.65234 0s0.65234-0.43359 0.65234 0" fill="#fff"/>
 <path d="m26.285 72.066c0 0.43359-0.64844 0.43359-0.64844 0s0.64844-0.43359 0.64844 0" fill="#fff"/>
 <path d="m47.031 73.492c0 0.43359-0.64844 0.43359-0.64844 0 0-0.42969 0.64844-0.42969 0.64844 0" fill="#fff"/>
 <path d="m45.734 73.492c0 0.43359-0.64844 0.43359-0.64844 0 0-0.42969 0.64844-0.42969 0.64844 0" fill="#fff"/>
 <path d="m44.113 73.168c-0.17578 0-0.32422 0.14453-0.32422 0.32422 0 0.17969 0.14453 0.32422 0.32422 0.32422 0.18359 0 0.32812-0.14453 0.32812-0.32422-0.003906-0.17969-0.14844-0.32422-0.32812-0.32422z" fill="#fff"/>
 <path d="m43.141 73.492c0 0.43359-0.64844 0.43359-0.64844 0 0-0.42969 0.64844-0.42969 0.64844 0" fill="#fff"/>
 <path d="m41.844 73.492c0 0.43359-0.64844 0.43359-0.64844 0 0-0.42969 0.64844-0.42969 0.64844 0" fill="#fff"/>
 <path d="m40.547 73.492c0 0.43359-0.64844 0.43359-0.64844 0 0-0.42969 0.64844-0.42969 0.64844 0" fill="#fff"/>
 <path d="m38.93 73.168c-0.17969 0-0.32813 0.14453-0.32813 0.32422 0 0.17969 0.14844 0.32422 0.32813 0.32422 0.17578 0 0.32422-0.14453 0.32422-0.32422-0.003906-0.17969-0.14844-0.32422-0.32422-0.32422z" fill="#fff"/>
 <path d="m37.953 73.492c0 0.43359-0.64453 0.43359-0.64453 0 0-0.42969 0.64453-0.42969 0.64453 0" fill="#fff"/>
 <path d="m36.656 73.492c0 0.43359-0.64453 0.43359-0.64453 0 0-0.42969 0.64453-0.42969 0.64453 0" fill="#fff"/>
 <path d="m35.363 73.492c0 0.43359-0.64844 0.43359-0.64844 0 0-0.42969 0.64844-0.42969 0.64844 0" fill="#fff"/>
 <path d="m34.066 73.492c0 0.43359-0.64844 0.43359-0.64844 0 0-0.42969 0.64844-0.42969 0.64844 0" fill="#fff"/>
 <path d="m32.77 73.492c0 0.43359-0.64844 0.43359-0.64844 0 0-0.42969 0.64844-0.42969 0.64844 0" fill="#fff"/>
 <path d="m31.473 73.492c0 0.43359-0.64844 0.43359-0.64844 0 0-0.42969 0.64844-0.42969 0.64844 0" fill="#fff"/>
 <path d="m30.176 73.492c0 0.43359-0.64844 0.43359-0.64844 0 0-0.42969 0.64844-0.42969 0.64844 0" fill="#fff"/>
 <path d="m28.879 73.492c0 0.43359-0.64844 0.43359-0.64844 0 0-0.42969 0.64844-0.42969 0.64844 0" fill="#fff"/>
 <path d="m27.582 73.492c0 0.43359-0.64844 0.43359-0.64844 0 0-0.42969 0.64844-0.42969 0.64844 0" fill="#fff"/>
 <path d="m45.734 74.914c0 0.43359-0.64844 0.43359-0.64844 0 0-0.42969 0.64844-0.42969 0.64844 0" fill="#fff"/>
 <path d="m44.113 74.59c-0.17578 0-0.32422 0.14453-0.32422 0.32422 0 0.17969 0.14453 0.32422 0.32422 0.32422 0.18359 0 0.32812-0.14453 0.32812-0.32422-0.003906-0.17969-0.14844-0.32422-0.32812-0.32422z" fill="#fff"/>
 <path d="m43.141 74.914c0 0.43359-0.64844 0.43359-0.64844 0 0-0.42969 0.64844-0.42969 0.64844 0" fill="#fff"/>
 <path d="m41.844 74.914c0 0.43359-0.64844 0.43359-0.64844 0 0-0.42969 0.64844-0.42969 0.64844 0" fill="#fff"/>
 <path d="m40.547 74.914c0 0.43359-0.64844 0.43359-0.64844 0 0-0.42969 0.64844-0.42969 0.64844 0" fill="#fff"/>
 <path d="m38.93 74.59c-0.17969 0-0.32813 0.14453-0.32813 0.32422 0 0.17969 0.14844 0.32422 0.32813 0.32422 0.17578 0 0.32422-0.14453 0.32422-0.32422-0.003906-0.17969-0.14844-0.32422-0.32422-0.32422z" fill="#fff"/>
 <path d="m37.953 74.914c0 0.43359-0.64453 0.43359-0.64453 0 0-0.42969 0.64453-0.42969 0.64453 0" fill="#fff"/>
 <path d="m36.656 74.914c0 0.43359-0.64453 0.43359-0.64453 0 0-0.42969 0.64453-0.42969 0.64453 0" fill="#fff"/>
 <path d="m35.363 74.914c0 0.43359-0.64844 0.43359-0.64844 0 0-0.42969 0.64844-0.42969 0.64844 0" fill="#fff"/>
 <path d="m34.066 74.914c0 0.43359-0.64844 0.43359-0.64844 0 0-0.42969 0.64844-0.42969 0.64844 0" fill="#fff"/>
 <path d="m32.77 74.914c0 0.43359-0.64844 0.43359-0.64844 0 0-0.42969 0.64844-0.42969 0.64844 0" fill="#fff"/>
 <path d="m31.473 74.914c0 0.43359-0.64844 0.43359-0.64844 0 0-0.42969 0.64844-0.42969 0.64844 0" fill="#fff"/>
 <path d="m30.176 74.914c0 0.43359-0.64844 0.43359-0.64844 0 0-0.42969 0.64844-0.42969 0.64844 0" fill="#fff"/>
 <path d="m28.879 74.914c0 0.43359-0.64844 0.43359-0.64844 0 0-0.42969 0.64844-0.42969 0.64844 0" fill="#fff"/>
 <path d="m44.113 76.016c-0.17578 0-0.32422 0.14453-0.32422 0.32422 0 0.17969 0.14453 0.32422 0.32422 0.32422 0.18359 0 0.32812-0.14453 0.32812-0.32422-0.003906-0.17969-0.14844-0.32422-0.32812-0.32422z" fill="#fff"/>
 <path d="m43.141 76.34c0 0.43359-0.64844 0.43359-0.64844 0 0-0.42969 0.64844-0.42969 0.64844 0" fill="#fff"/>
 <path d="m41.844 76.34c0 0.43359-0.64844 0.43359-0.64844 0 0-0.42969 0.64844-0.42969 0.64844 0" fill="#fff"/>
 <path d="m40.547 76.34c0 0.43359-0.64844 0.43359-0.64844 0 0-0.42969 0.64844-0.42969 0.64844 0" fill="#fff"/>
 <path d="m38.93 76.016c-0.17969 0-0.32813 0.14453-0.32813 0.32422 0 0.17969 0.14844 0.32422 0.32813 0.32422 0.17578 0 0.32422-0.14453 0.32422-0.32422-0.003906-0.17969-0.14844-0.32422-0.32422-0.32422z" fill="#fff"/>
 <path d="m37.953 76.34c0 0.43359-0.64453 0.43359-0.64453 0 0-0.42969 0.64453-0.42969 0.64453 0" fill="#fff"/>
 <path d="m36.656 76.34c0 0.43359-0.64453 0.43359-0.64453 0 0-0.42969 0.64453-0.42969 0.64453 0" fill="#fff"/>
 <path d="m35.363 76.34c0 0.43359-0.64844 0.43359-0.64844 0 0-0.42969 0.64844-0.42969 0.64844 0" fill="#fff"/>
 <path d="m34.066 76.34c0 0.43359-0.64844 0.43359-0.64844 0 0-0.42969 0.64844-0.42969 0.64844 0" fill="#fff"/>
 <path d="m32.77 76.34c0 0.43359-0.64844 0.43359-0.64844 0 0-0.42969 0.64844-0.42969 0.64844 0" fill="#fff"/>
 <path d="m31.473 76.34c0 0.43359-0.64844 0.43359-0.64844 0 0-0.42969 0.64844-0.42969 0.64844 0" fill="#fff"/>
 <path d="m38.93 77.438c-0.17969 0-0.32813 0.14453-0.32813 0.32422 0 0.17969 0.14844 0.32812 0.32813 0.32812 0.17578 0 0.32422-0.14453 0.32422-0.32812-0.003906-0.17969-0.14844-0.32422-0.32422-0.32422z" fill="#fff"/>
 <path d="m37.957 77.762c0 0.43359-0.65234 0.43359-0.65234 0 0-0.43359 0.65234-0.43359 0.65234 0" fill="#fff"/>
 <path d="m36.66 77.762c0 0.43359-0.65234 0.43359-0.65234 0 0-0.43359 0.65234-0.43359 0.65234 0" fill="#fff"/>
 <path d="m35.363 77.762c0 0.43359-0.64844 0.43359-0.64844 0 0-0.43359 0.64844-0.43359 0.64844 0" fill="#fff"/>
</svg>
