<?xml version="1.0" encoding="UTF-8"?>
<svg width="128pt" height="128pt" version="1.1" viewBox="0 0 128 128" xmlns="http://www.w3.org/2000/svg">
 <path d="m56 84.891h0.046875c0.066406-0.011719 0.125-0.054687 0.16406-0.10938l0.85937-1.3359c0.039063-0.058593 0.050782-0.13281 0.03125-0.20312-0.019531-0.066407-0.066406-0.125-0.12891-0.15625-2.0039-1.0156-3.875-2.2773-5.5664-3.7578-0.054688-0.046875-0.125-0.070313-0.19531-0.058594-0.074219 0.007813-0.13672 0.050781-0.17578 0.10938-0.34375 0.51953-0.68359 1.0625-1.043 1.6602-0.039063 0.066407-0.046876 0.14453-0.019532 0.21484 0.023438 0.070313 0.078125 0.125 0.14844 0.14844 2.0664 0.86328 3.9961 2.0234 5.7266 3.4414 0.046875 0.03125 0.097656 0.046875 0.15234 0.046875z" fill="#fff"/>
 <path d="m45.938 104.23c-0.007812-0.074219-0.046875-0.14062-0.10938-0.17969-0.74609-0.50781-1.5273-0.98828-2.2852-1.4492-0.72266-0.44531-1.4688-0.89844-2.1836-1.3828-0.375-0.25-0.74219-0.51172-1.1133-0.77734h0.003906c-1.0039-0.76953-2.0898-1.4297-3.2305-1.9727-0.10938-0.046875-0.23047-0.011719-0.30078 0.082031-0.76562 1.0586-1.4531 2.1445-2.2539 3.4492-0.074219 0.11719-0.035156 0.26953 0.082031 0.34375 0.61719 0.38281 1.2305 0.76562 1.8438 1.1562 2.2539 1.418 4.5859 2.8828 7.0195 4.0938v-0.003906c0.11719 0.058594 0.26172 0.015625 0.32812-0.10156 0.58984-1.0977 1.3047-2.1289 2.1328-3.0625 0.046875-0.054687 0.074218-0.125 0.066406-0.19531z" fill="#fff"/>
 <path d="m48.957 116.54c0.21484 0.11719 0.44922 0.18359 0.69141 0.1875 0.24219 0.003907 0.47656-0.082031 0.65234-0.24609 0.44922-0.39844 0.5625-1.0547 0.27734-1.582-0.3125-0.64844-1.0039-1.0195-1.7148-0.92188-0.80469 0.1875-0.98047 0.65234-1.0117 0.91016 0.027344 0.71484 0.45313 1.3555 1.1055 1.6523z" fill="#fff"/>
 <path d="m40.508 116.98c-0.09375 0.03125-0.16016 0.11719-0.16797 0.21484-0.011719 0.097657 0.039062 0.19141 0.125 0.24219 2.3398 1.4141 4.9922 2.2461 7.7227 2.418 0.71484 0.007812 1.4258-0.089844 2.1133-0.28516 1.6094-0.47266 2.9453-1.5977 3.6836-3.0977 1.4609-2.7461 1.4766-5.8438 1.4883-8.8398-0.023437-1.543 0.046875-3.082 0.21875-4.6172 0.19531-2.4883 1.0898-4.875 2.5742-6.8789 0.97656-1.1133 2.0781-2.1094 3.2812-2.9727 0.71875-0.55469 1.457-1.1289 2.1523-1.7695 0.55078-0.50781 0.74609-0.84766 0.65234-1.1445-0.11719-0.375-0.60937-0.44141-1.1797-0.51953h0.007813c-0.24219-0.027344-0.48047-0.070313-0.71875-0.125-0.74609-0.19922-1.4492-0.53125-2.0742-0.98438-1.2148-0.89453-2.168-2.0977-2.75-3.4883-0.039063-0.082031-0.11719-0.13672-0.20703-0.14453-0.09375-0.007812-0.17969 0.035157-0.22656 0.11328-0.64453 0.98828-1.2383 1.8398-1.8125 2.5938h-0.003906c-0.058594 0.074219-0.13672 0.12891-0.22266 0.16406-0.042968 0.015625-0.078124 0.046875-0.10547 0.082031-0.058594 0.085938-0.15234 0.14844-0.25391 0.17188-0.10547 0.019531-0.21484-0.003906-0.30469-0.0625-0.60938-0.36719-1.2344-0.71484-1.8438-1.043-1.6523-0.78906-3.168-1.8438-4.4766-3.1289-0.085938-0.085937-0.13281-0.20312-0.125-0.32031 0-0.0625-0.015626-0.12109-0.054688-0.16797-0.10938-0.14062-0.13281-0.33203-0.050781-0.49219 0.039062-0.082032 0.078125-0.16016 0.12109-0.24219l0.050782-0.10156c1.1367-2.0234 2.3984-3.9375 3.375-5.3789 0.042968-0.058593 0.054687-0.13281 0.039062-0.19922-0.015625-0.066406-0.058594-0.125-0.11328-0.16016-1.0586-0.57031-1.9609-1.3867-2.6406-2.375-0.058594-0.10156-0.13281-0.23047-0.21875-0.38672-0.76172-1.3555-1.5703-2.6719-2.457-2.5547-0.51953 0.066406-0.89844 0.61719-1.1719 1.6836-0.19141 0.92578-0.23438 1.875-0.13281 2.8164 0.03125 0.5 0.058594 1.0195 0.039063 1.5312-0.042969 1.4805-0.32031 2.9414-0.82031 4.332-0.99219 2.6367-2.6328 4.9805-4.7656 6.8164-1.4102 1.293-2.7305 2.9336-1.793 5.3008 0.39453 0.94141 0.84766 1.8594 1.3594 2.7461 0.45313 0.79297 0.86328 1.6094 1.2266 2.4453 0.019531 0.050781 0.050781 0.09375 0.09375 0.125l0.18359 0.125c0.47656 0.33203 0.97266 0.67578 1.4805 0.98828 0.43359 0.26953 0.87109 0.53906 1.3086 0.80469 1.293 0.78906 2.6289 1.6055 3.8555 2.5117 0.085938 0.0625 0.15234 0.15234 0.17969 0.25391 0.007812 0.023437 0.019531 0.046875 0.035156 0.070312 0.054687 0.074219 0.078125 0.16406 0.0625 0.25391-0.015625 0.09375-0.066406 0.17187-0.14453 0.22266-0.91406 0.83203-1.6797 1.8125-2.2617 2.9023-0.054688 0.085937-0.046875 0.19531 0.011718 0.27344 0.92578 1.2344 1.1836 2.8438 0.67969 4.3008-0.82422 2.3398-2.6758 4.1719-5.0234 4.9766zm5.1914 0.57031c-0.042969 0.13672-0.15234 0.24219-0.29297 0.28516-0.74219 0.13281-1.082 0.039062-1.1992-0.34375-0.035156-0.26953 0.039063-0.54297 0.19922-0.76172l0.066406-0.12891c0.089844-0.14453 0.25391-0.22656 0.42188-0.21094 0.16797-0.011719 0.33203 0.0625 0.4375 0.19922 0.10938 0.078125 0.20312 0.17188 0.28125 0.27734 0.12109 0.20703 0.14844 0.45312 0.085938 0.68359zm4.8008-14.879c0.054688-0.007813 0.10938-0.015625 0.16406-0.015625 1.1758-0.21484 2.3281 0.46875 2.6992 1.6016 0.39453 0.97266 0.054688 2.0898-0.81641 2.6797-1.2969 0.53516-2.7891-0.007812-3.4336-1.2539-0.30859-0.58203-0.34766-1.2656-0.10156-1.875 0.26562-0.55078 0.76562-0.95312 1.3633-1.0977 0.039062-0.015626 0.082031-0.03125 0.125-0.039063zm-1.0117 6.8125v0.003906c0.26953-0.55078 0.76562-0.95703 1.3633-1.1016 0.039063-0.015625 0.082032-0.027344 0.12109-0.035157 0.054688-0.011718 0.10938-0.015624 0.16406-0.015624 0.125-0.015626 0.25391-0.023438 0.37891-0.023438 1.0508-0.046875 2.0039 0.61719 2.3242 1.6211 0.39453 0.97266 0.050781 2.0898-0.82031 2.6758-1.2969 0.53906-2.7891-0.007813-3.4297-1.2539-0.3125-0.57812-0.34766-1.2617-0.10547-1.8672zm4.1367-15.352v0.003907c-0.39062 0.92969-0.89844 1.8125-1.5078 2.6211-0.42578 0.59766-0.82031 1.2188-1.1719 1.8633-0.050781 0.11719-0.15625 0.19922-0.27734 0.21875-0.16406 0.015625-0.32422-0.050782-0.43359-0.17188-0.027344-0.027344-0.0625-0.050781-0.097656-0.0625-2.0898-1.0742-4.1016-2.3594-6.0469-3.6016-1.1562-0.73828-2.3516-1.5-3.5547-2.2188-0.058594-0.03125-0.10547-0.078125-0.14453-0.13281-0.023437-0.03125-0.054687-0.054688-0.089844-0.074219-0.14844-0.078125-0.25781-0.21875-0.28906-0.38281-0.027344-0.14062 0.019531-0.28125 0.11719-0.37891l0.070313-0.074218c1.0977-0.99219 1.9062-2.2617 2.3359-3.6758 0.015625-0.11719 0.085938-0.21484 0.1875-0.27344 0.13281-0.058594 0.28906-0.054688 0.42188 0.015625 0.035157 0.015625 0.078125 0.023437 0.12109 0.019531 0.09375-0.007813 0.18359 0.015625 0.26562 0.0625 0.98438 0.53125 1.9727 1.0508 2.9648 1.5703 2.3477 1.2305 4.7734 2.5 7.0469 3.9453h-0.003907c0.10156 0.058594 0.17578 0.16016 0.19922 0.27734 0.023438 0.16016-0.019531 0.32031-0.11719 0.45312zm-5.1641 19 0.023437-0.007812v0.003906c0.039063-0.015625 0.078125-0.027344 0.12109-0.035156 0.054687-0.011719 0.10938-0.015625 0.16406-0.015625 0.125-0.015625 0.25391-0.023437 0.37891-0.023437 1.0508-0.046876 2.0039 0.61719 2.3242 1.6172 0.39453 0.97656 0.050782 2.0938-0.82031 2.6797-1.2969 0.53516-2.7891-0.007812-3.4336-1.2539-0.30859-0.57812-0.34375-1.2656-0.097656-1.875 0.26172-0.54297 0.75-0.94141 1.3359-1.0898z" fill="#fff"/>
 <path d="m58.801 80.734c0.035157-0.054687 0.046875-0.125 0.03125-0.1875-0.015625-0.066406-0.054687-0.12109-0.10938-0.15625-0.87109-0.55078-1.7148-1.1797-2.5273-1.7891-0.9375-0.73047-1.9102-1.4102-2.918-2.0352-0.0625-0.039062-0.14062-0.046875-0.21094-0.023437-0.070312 0.023437-0.125 0.078125-0.15234 0.14844-0.058593 0.10547-0.38672 0.55859-0.96484 1.3516l-0.10547 0.14844v-0.003906c-0.078125 0.10547-0.058594 0.25 0.035156 0.33594 1.7109 1.5078 3.6055 2.7891 5.6445 3.8086 0.03125 0.015625 0.070312 0.023438 0.10937 0.023438 0.085938 0 0.16406-0.042969 0.21094-0.11328 0.25781-0.39844 0.51562-0.80469 0.76953-1.2109z" fill="#fff"/>
 <path d="m30.102 108.54c0.16016-0.19922 0.33203-0.44531 0.51172-0.71094 0.76172-1.1211 1.4062-1.9453 2.2344-1.5156h-0.003906c0.31641 0.17578 0.61719 0.375 0.90234 0.59766 0.32031 0.25391 0.66406 0.48047 1.0234 0.67578 0.1875 0.09375 0.37109 0.18359 0.55859 0.27734 0.56641 0.26562 1.1133 0.55859 1.6484 0.88672 1.4219 0.84766 2.7734 1.8125 4.043 2.8828 0.066407 0.054687 0.11328 0.12891 0.13672 0.21094 0.003906 0.023438 0.015625 0.046875 0.027344 0.070313 0.082031 0.12891 0.074218 0.29297-0.015625 0.41406-0.35156 0.55469-0.69141 1.1133-1.0352 1.6719-0.40625 0.66016-0.80859 1.3203-1.2266 1.9727-0.050781 0.078126-0.054688 0.17578-0.007812 0.25391 0.042968 0.082031 0.125 0.12891 0.21875 0.12891h0.027343c2.2852-0.40625 4.2422-1.8672 5.293-3.9375 0.66406-1.1836 0.64453-2.6328-0.050781-3.8008-0.082031-0.097656-0.21875-0.13281-0.33984-0.089844-0.039063 0.011719-0.070313 0.027344-0.10156 0.046875-0.14453 0.12109-0.34375 0.14453-0.51172 0.058594-2.5703-1.293-5.0625-2.7344-7.4688-4.3164-0.76172-0.48047-1.5234-0.96094-2.293-1.4336-0.13672-0.074219-0.21875-0.21875-0.21875-0.37109 0-0.050781-0.011719-0.097656-0.039063-0.13672-0.089843-0.13281-0.085937-0.30859 0.007813-0.4375 0.90625-1.4883 1.7344-2.8203 2.6641-4.0859l0.003906 0.003906c0.027344-0.039063 0.0625-0.070313 0.097656-0.10156 0.039062-0.03125 0.066406-0.074218 0.082031-0.12109 0.027344-0.10938 0.10156-0.20312 0.19922-0.25781 0.09375-0.042968 0.20312-0.042968 0.30078 0 0.37891 0.14453 0.75 0.30859 1.1055 0.5 0.097656 0.050782 0.21875 0.03125 0.29688-0.046875 0.074219-0.078125 0.09375-0.19922 0.039063-0.29688l-0.10938-0.19922c-1.3398-2.4492-2.7227-4.9844-1.1172-7.5625l-0.003906 0.003906c0.54688-0.77734 1.2109-1.4648 1.9688-2.0352 0.64453-0.50391 1.2305-1.0742 1.75-1.7031 1.8555-2.2656 2.9727-5.043 3.1992-7.9609 0.015624-0.41406 0-0.92188-0.023438-1.457-0.085938-2.3555-0.19922-5.5781 2.3906-5.9844h0.003906c0.87891-0.22656 1.7891 0.21875 2.1484 1.0508 0.74219 1.7695 1.9766 3.2852 3.5547 4.3711 0.11328 0.074218 0.26953 0.042968 0.34375-0.070313 0.26172-0.37891 0.52344-0.76172 0.78906-1.1406l0.35938-0.51953h0.003906c0.042969-0.058594 0.054688-0.13672 0.035156-0.21094-0.023437-0.070313-0.074218-0.12891-0.14062-0.16016-3.0625-1.2695-5.0391-4.2734-5-7.5898 0.13281-1.6328 1.0352-3.1094 2.4258-3.9727 1.3828-0.84766 1.1602-1.6992 1-2.0234-0.75391-1.0117-2.1094-1.3672-3.2656-0.85547-2.1055 0.67969-3.7734 2.3008-4.5156 4.3828-0.48047 1.5859-0.8125 3.2148-0.98828 4.8633-0.17188 1.5781-0.48438 3.1367-0.92969 4.6602-0.83984 2.6289-2.125 5.0938-3.8008 7.2852-2.0859 2.707-4.9961 4.4062-7.8086 6.0508v-0.003906c-2.0508 1.1133-3.9922 2.418-5.8008 3.8906-2.3867 2.0703-5.1992 5.3828-5.0625 9.4219 0.17578 3.5039 1.5938 6.832 4 9.3828 0.97266 1.1016 1.9883 2.168 3.0117 3.1758 0.074219 0.074219 0.1875 0.09375 0.28125 0.050781 0.097656-0.046875 0.15234-0.14453 0.14453-0.25 0.85156-1.2891 1.8047-2.5078 2.8516-3.6484z" fill="#fff"/>
 <path d="m49.578 82.184c-0.11719-0.039063-0.24219 0.011718-0.30078 0.12109-0.12891 0.24609-0.25391 0.5-0.37891 0.75391h0.003906c-0.046875 0.09375-0.027344 0.20703 0.042968 0.28516 1.2656 1.1875 2.707 2.1758 4.2695 2.9258 0.42578 0.23047 0.85547 0.46484 1.2773 0.70703 0.039062 0.023438 0.082031 0.035157 0.125 0.035157 0.082031 0 0.16016-0.042969 0.20703-0.10938 0.10156-0.14062 0.1875-0.28125 0.28125-0.42188l0.13281-0.19922c0.066407-0.10156 0.13672-0.20703 0.19922-0.3125v-0.003906c0.070312-0.10938 0.042969-0.25391-0.0625-0.33203l-0.19922-0.14844c-1.6797-1.3906-3.5664-2.5039-5.5977-3.3008z" fill="#fff"/>
 <path d="m32.355 114.77c0.10938 0.066407 0.25 0.035157 0.32812-0.066406 1.0547-1.3984 2.0195-2.8984 2.9531-4.3477l0.44141-0.67969c0.039063-0.058593 0.050781-0.13281 0.03125-0.19922-0.015625-0.066406-0.058594-0.125-0.12109-0.16016l-0.43359-0.23828c-0.29297-0.16016-0.58203-0.32031-0.875-0.47266-0.10938-0.058594-0.24609-0.027344-0.32031 0.074219-1.1992 1.6016-2.3047 3.2734-3.3164 5-0.0625 0.11719-0.027344 0.26562 0.085937 0.33594 0.40234 0.25391 0.81641 0.50391 1.2266 0.75391z" fill="#fff"/>
 <path d="m50.852 106.12c0.21094 0.11719 0.44922 0.17969 0.69141 0.1875 0.24219 0.003906 0.47656-0.085938 0.65234-0.25 0.44922-0.39844 0.5625-1.0547 0.27734-1.582-0.3125-0.64453-1.0039-1.0156-1.7148-0.92188-0.80078 0.1875-0.98047 0.65234-1.0117 0.91016 0.027344 0.71484 0.45312 1.3555 1.1055 1.6562z" fill="#fff"/>
 <path d="m60.25 70.68c1.1406 0.57812 2.2188 1.2695 3.2188 2.0625 0.046875 0.039062 0.10547 0.0625 0.16406 0.0625h0.039063c0.070313-0.011719 0.13281-0.054688 0.17188-0.11719l1.4922-2.4141c0.035156-0.058594 0.046874-0.125 0.03125-0.19141-0.015626-0.066406-0.058594-0.12109-0.11328-0.15625l-0.19922-0.11719h-0.003907c-1.7031-0.89453-3.25-2.0586-4.582-3.4453-0.046875-0.0625-0.12109-0.09375-0.19922-0.089843-0.078125 0.003906-0.14844 0.042968-0.19531 0.10937-0.41406 0.60156-0.82422 1.1992-1.2383 1.8008l-0.67578 0.98438c-0.035156 0.054687-0.050781 0.125-0.039062 0.1875 0.015625 0.066406 0.054687 0.125 0.10938 0.16406 0.66016 0.41797 1.3516 0.79688 2.0195 1.1602z" fill="#fff"/>
 <path d="m65.438 68.965 0.30078 0.17969c0.039063 0.023438 0.082031 0.035157 0.12891 0.035157 0.085937 0 0.16797-0.042969 0.21094-0.11719l1.4219-2.3047c0.070312-0.11719 0.035156-0.26562-0.074219-0.33984-0.03125-0.019531-0.058593-0.042969-0.078125-0.066407-0.85938-0.82422-1.7812-1.5703-2.7695-2.2344-0.57422-0.41016-1.1719-0.83594-1.7227-1.2891-0.054688-0.042969-0.12109-0.0625-0.19141-0.054687-0.066406 0.007812-0.12891 0.046874-0.17187 0.10156-0.37109 0.53516-0.73828 1.0664-1.1016 1.5938l-0.48828 0.70703h0.003906c-0.0625 0.11328-0.042969 0.25391 0.054688 0.34375 1.2773 1.3984 2.793 2.5664 4.4766 3.4453z" fill="#fff"/>
 <path d="m45.891 90.176c-0.78516-0.41016-1.5664-0.82422-2.3477-1.2383-0.0625-0.035156-0.13672-0.039062-0.20703-0.015625-0.066407 0.027344-0.12109 0.078125-0.14453 0.14844-0.44531 1.0273-1.0742 1.9688-1.8516 2.7773-0.050782 0.054688-0.070313 0.12891-0.0625 0.20312 0.011718 0.070313 0.054687 0.13672 0.11719 0.17578 1.0312 0.625 2.0703 1.2852 3.0703 1.9258 1.8477 1.1797 3.7578 2.3984 5.7305 3.4414 0.039063 0.019531 0.078126 0.027344 0.11719 0.027344 0.085938 0 0.16406-0.042969 0.21094-0.11328 0.22656-0.35547 0.47266-0.69922 0.71484-1.0469v-0.003907c0.54297-0.71094 1.0039-1.4766 1.3828-2.2852 0.046875-0.11719 0.007812-0.25-0.097656-0.3125-2.1562-1.3359-4.4297-2.5312-6.6328-3.6836z" fill="#fff"/>
 <path d="m56.605 73.141c1.582 0.96094 3.2188 1.9531 4.7695 3.0156 0.039062 0.03125 0.089844 0.046875 0.14062 0.046875h0.050781c0.066406-0.015625 0.125-0.054687 0.16016-0.11328 0.45313-0.72656 0.91016-1.4531 1.3594-2.1836 0.0625-0.10156 0.046874-0.23438-0.042969-0.31641-1.0195-0.85938-2.1406-1.5859-3.3359-2.168-0.67188-0.35938-1.3633-0.73438-2.0078-1.1523v-0.003906c-0.11328-0.074219-0.26562-0.042969-0.34375 0.066406l-1.4336 2.0898c-0.039063 0.054687-0.054687 0.125-0.039063 0.19141 0.015626 0.070313 0.054688 0.12891 0.11328 0.16406z" fill="#fff"/>
 <path d="m51.324 111.8c0.21484 0.11719 0.44922 0.18359 0.69141 0.1875 0.24219 0.003906 0.47656-0.082032 0.65625-0.24609 0.44531-0.40234 0.55859-1.0547 0.27734-1.5859-0.30859-0.64062-0.99609-1.0156-1.7031-0.92188h-0.015625c-0.80469 0.1875-0.98047 0.65234-1.0117 0.91016h0.003906c0.023438 0.71484 0.45312 1.3555 1.1016 1.6562z" fill="#fff"/>
 <path d="m33.555 108.09c-0.015626-0.070312-0.0625-0.13281-0.125-0.16406-0.32422-0.17578-0.64453-0.35156-0.96094-0.53516l0.003906-0.003906c-0.10938-0.058594-0.24219-0.035156-0.32031 0.058594-0.33203 0.41016-0.66797 0.82031-1 1.2305-0.87109 1.0625-1.7734 2.1562-2.5938 3.2891-0.082032 0.10938-0.058594 0.26562 0.050781 0.34766 0.42969 0.32031 0.87109 0.62891 1.3164 0.92578h0.003907c0.039062 0.027343 0.085937 0.042968 0.13672 0.042968 0.019532 0 0.039063-0.003906 0.058594-0.007812 0.066406-0.015625 0.125-0.058594 0.16016-0.12109 0.98828-1.6758 2.0664-3.3008 3.2305-4.8594 0.042969-0.0625 0.054687-0.13672 0.039063-0.20312z" fill="#fff"/>
 <path d="m56.59 77.766c0.83984 0.63281 1.7109 1.2812 2.6172 1.8516h0.003907c0.039062 0.023437 0.085937 0.035156 0.13281 0.035156 0.085938 0 0.16406-0.042969 0.21094-0.11328 0.47266-0.75 0.94922-1.5 1.4219-2.25 0.023438-0.039062 0.035157-0.085937 0.035157-0.13281 0-0.36719-5.5117-3.6016-5.5664-3.6289-0.074218-0.039063-0.16016-0.039063-0.23047 0-0.074219 0.039062-0.12109 0.11328-0.12891 0.19531-0.17969 0.45312-0.45703 0.85547-0.82031 1.1797-0.17188 0.17969-0.33594 0.375-0.49219 0.57422-0.039063 0.058594-0.054688 0.12891-0.039063 0.19531 0.011719 0.070313 0.054687 0.12891 0.11328 0.16406 0.95312 0.58203 1.8633 1.2656 2.7422 1.9297z" fill="#fff"/>
 <path d="m81.555 41.652c-0.94922-0.50391-1.8086-1.1641-2.5352-1.9531-0.050781-0.058594-0.125-0.089844-0.20312-0.089844-0.074218 0.003906-0.14844 0.042969-0.19141 0.10938-0.60156 0.85547-1.1992 1.7148-1.8008 2.5703l-1.1719 1.6797c-0.039063 0.054688-0.054688 0.125-0.042969 0.19141 0.015625 0.066406 0.054687 0.125 0.11328 0.16016 0.38672 0.25 0.77734 0.48828 1.1719 0.72656l-0.003906 0.003906c0.88281 0.50391 1.7227 1.0742 2.5156 1.7109 0.046875 0.035156 0.10547 0.058593 0.16406 0.058593h0.039063c0.074219-0.011718 0.13672-0.054687 0.17188-0.12109 0.85547-1.4219 1.7148-2.8398 2.5742-4.2578l0.003906 0.003906c0.070313-0.11719 0.035156-0.26562-0.082031-0.33984-0.23828-0.15625-0.47656-0.30469-0.72266-0.45312z" fill="#fff"/>
 <path d="m87.746 30.508c-0.42578-0.28516-0.85156-0.57422-1.2812-0.85156-0.054688-0.035156-0.10547-0.085938-0.14453-0.14062-0.042968-0.066406-0.11719-0.10938-0.19922-0.11328-0.078125 0.003906-0.15625 0.039062-0.20703 0.10156-0.99219 1.3633-1.9805 2.7305-2.9648 4.1016v-0.003907c-0.039063 0.0625-0.050781 0.13672-0.03125 0.20703 0.019531 0.074218 0.066406 0.13281 0.13281 0.16797 0.42578 0.26563 0.85938 0.51172 1.3008 0.75391 0.58984 0.32812 1.1953 0.67188 1.7539 1.0625 0.042969 0.03125 0.089843 0.046875 0.14062 0.046875 0.019531 0 0.035156-0.003906 0.054687-0.003906 0.066407-0.015626 0.125-0.058594 0.16016-0.11719 0.83594-1.3633 1.6836-2.7227 2.5391-4.082 0.070312-0.11719 0.039062-0.26953-0.074219-0.34375-0.39844-0.25391-0.78516-0.51953-1.1797-0.78516z" fill="#fff"/>
 <path d="m92.43 21.246c-0.76172 0.046875-1.6523 1.0938-2.0312 1.7422v0.003907c-0.0625 0.10937-0.035157 0.25391 0.070312 0.32812 0.72656 0.51953 1.4844 0.99609 2.2695 1.4219 0.039063 0.019531 0.078125 0.03125 0.12109 0.03125 0.023437 0 0.050781-0.003907 0.074219-0.007813 0.0625-0.019531 0.11719-0.066406 0.14844-0.125 0.53516-0.94141 0.5625-2.0859 0.074219-3.0508-0.16406-0.23438-0.44141-0.36328-0.72656-0.34375z" fill="#fff"/>
 <path d="m83.812 35.48c-0.39844-0.21875-0.82422-0.44922-1.2148-0.69141l0.003906-0.003906c-0.035156-0.023437-0.070312-0.054687-0.10156-0.085937-0.050781-0.046875-0.125-0.070313-0.19531-0.0625-0.070313 0.007812-0.13281 0.042969-0.17578 0.10156-0.89453 1.2617-1.7891 2.5234-2.6758 3.793-0.074219 0.10938-0.050781 0.25391 0.046875 0.33594 0.039062 0.03125 0.078125 0.070312 0.10547 0.10937 0.65234 0.79688 1.4688 1.4414 2.3945 1.8906 0.25391 0.14453 0.5 0.28906 0.74609 0.44141 0.039062 0.023437 0.085937 0.039062 0.13281 0.039062 0.019532-0.003906 0.039063-0.003906 0.058594-0.007812 0.0625-0.015625 0.12109-0.054688 0.15625-0.11328 0.87109-1.4336 1.7461-2.8672 2.6211-4.3008 0.066406-0.10938 0.039062-0.25391-0.066406-0.33203-0.58594-0.41016-1.1992-0.78516-1.8359-1.1133z" fill="#fff"/>
 <path d="m109.05 16.809c-0.03125-0.48047-0.36719-0.88672-0.82813-1.0117-0.69141-0.11719-1.3945 0.046875-1.9648 0.44922-0.73047-0.60938-1.5156-1.1445-2.3516-1.6016 0.36328-0.47266 0.72656-0.94531 1.0664-1.4336v0.003906c0.070313-0.10156 0.058594-0.23438-0.027343-0.32031-0.23047-0.23047-0.46875-0.45703-0.69922-0.68359h-0.003906c-0.94922-0.82031-1.7695-1.7812-2.4375-2.8477-0.03125-0.054687-0.082032-0.097656-0.14453-0.11719-0.30859-0.09375-0.625-0.16797-0.94141-0.24219-0.59766-0.12109-1.1836-0.30859-1.7422-0.55859-0.30859-0.15234-0.60547-0.33594-0.89844-0.51172-0.40234-0.25391-0.82031-0.48047-1.2539-0.67969-0.10547-0.042968-0.23047-0.011718-0.29688 0.085938-0.5 0.69141-1.0078 1.375-1.5156 2.0586h-0.003906c-0.050781-0.054688-0.10938-0.10156-0.17188-0.13672-0.90234-0.44141-1.7422-0.99219-2.5-1.6445-0.11328-0.09375-0.25-0.15625-0.39453-0.17188 0.10938-0.74219-0.054687-1.4961-0.46484-2.125-0.11328-0.12891-0.28125-0.19141-0.45312-0.16797-0.16797 0.023437-0.3125 0.13281-0.38281 0.28906-0.046875 0.10156-0.09375 0.19922-0.14062 0.29297-0.12109 0.26562-0.29297 0.50391-0.5 0.70312-0.16406 0.125-0.33984 0.23438-0.52344 0.32031l-0.22266 0.11719c-0.074218 0.039062-0.14062 0.074219-0.19922 0.10938-0.23047 0.13281-0.3125 0.42188-0.19141 0.65625 0.30078 0.52734 0.83594 0.875 1.4414 0.92969 0.078125 0.007813 0.15625 0.015626 0.23438 0.015626 0.19922 0 0.39453-0.039063 0.58203-0.10547 0.039062 0.074219 0.089844 0.14062 0.15234 0.19922 0.85156 0.74219 1.793 1.375 2.8047 1.8789 0.019531 0.011718 0.039063 0.007812 0.0625 0.015625-0.84375 1.1367-1.6836 2.293-2.4648 3.4922-0.91406-0.375-1.7891-0.83594-2.6133-1.3867 0.007813-0.035157 0.027344-0.066407 0.035156-0.10156v0.003906c0.11328-0.60547-0.12109-1.2227-0.60547-1.6016-0.28125-0.23047-0.64844-0.32812-1.0039-0.27344-0.35938 0.058594-0.67969 0.26562-0.875 0.57422-0.5 0.57812-1.1172 1.9375-0.51172 2.4844 0.30078 0.27734 0.69141 0.42969 1.1016 0.43359 0.1875 0 0.375-0.03125 0.55078-0.09375 0.14844-0.054688 0.29297-0.125 0.42578-0.21094 0.84766 0.57422 1.75 1.0664 2.6953 1.4648-0.60938 1-1.1484 2.043-1.6172 3.1133-0.035157 0.078125-0.027344 0.16797 0.019531 0.23828 0.47656 0.82812 0.67188 1.793 0.55859 2.7422-0.007813 0.10547 0.050781 0.20312 0.14844 0.24609 0.097657 0.042969 0.21484 0.015625 0.28516-0.0625 0.55078-0.71484 1.3633-1.1797 2.2578-1.3008 0.44141-0.007813 0.86719 0.17578 1.1641 0.5 0.72266 0.91797 0.94141 2.1328 0.58203 3.2422-0.023438 0.09375 0.003906 0.19141 0.078125 0.25 0.070312 0.0625 0.16797 0.082031 0.25781 0.042969 0.83203-0.30078 1.7148-0.42969 2.5977-0.37891 0.10156 0.007812 0.19531-0.050782 0.23828-0.14453 0.51562-1.1172 1.1289-2.1836 1.8281-3.1953 0.035156 0.0625 0.082031 0.12109 0.13281 0.16797 0.70703 0.65625 1.4453 1.2734 2.2227 1.8477 0.023438 0.011719 0.046876 0.019531 0.070313 0.027343 0.03125 0.11719 0.078125 0.22656 0.14062 0.32813 0.25391 0.53906 0.76953 0.90625 1.3594 0.96094 0.0625 0 0.125-0.003906 0.1875-0.011719 0.42188-0.023437 0.76953-0.33984 0.83203-0.75781 0.003906-0.046875 0.019532-0.089844 0.042969-0.13281 0.42188-0.43359 0.55078-1.0781 0.32812-1.6445-0.16406-0.30078-0.56641-0.65234-1.5273-0.59375-0.042968 0.003906-0.082031 0.007812-0.12109 0.019531v0.03125c-0.042968 0.007813-0.085937 0.015625-0.125 0.027344l-0.027343 0.019531 0.027343-0.019531-0.003906 0.003906c-0.042968 0.011719-0.085937 0.03125-0.125 0.050781-0.054687 0.027344-0.10156 0.058594-0.14453 0.10156-0.078125 0.078125-0.15234 0.16406-0.21094 0.25781-0.64844-0.49219-1.2695-1.0195-1.8633-1.5742-0.125-0.10156-0.28125-0.16016-0.44141-0.16797 0.69922-0.94531 1.4336-1.8555 2.1641-2.7539 0.26172-0.32031 0.52344-0.65625 0.78906-0.98438v0.003906c0.86719 0.44922 1.6836 0.99609 2.4258 1.6328-0.097656 0.35156-0.054687 0.72656 0.11719 1.0469 0.38672 0.45703 0.94141 0.73828 1.5391 0.78516 0.042969 0 0.085938-0.003907 0.12891-0.011719 0.27344-0.035156 0.49219-0.23828 0.54297-0.50781 0.035157-0.1875 0.042969-0.375 0.023438-0.5625-0.007813-0.050782-0.015625-0.10156-0.027344-0.14844l0.10156-0.050781c0.078124-0.023438 0.16016-0.039063 0.24219-0.039063 0.30469-0.003906 0.59375-0.12891 0.80078-0.35156 0.17188-0.23828 0.23828-0.53516 0.18359-0.82422zm-6.3633 4.207v-0.003906c-0.035156 0.046875-0.0625 0.097656-0.078125 0.15234 0.015625-0.054687 0.042969-0.10547 0.078125-0.15234zm-8.668-4.1016h0.003906c-0.27734 0.23047-0.68359 0.21484-0.94141-0.035156-0.035157-0.03125-0.078126-0.046875-0.125-0.046875-0.22266-0.066406-0.35938-0.28516-0.32813-0.51562 0.003907-0.019531 0.003907-0.042968 0-0.0625-0.011718-0.10938 0.015626-0.21484 0.082032-0.30078 0.011718-0.019531 0.023437-0.042969 0.03125-0.0625 0.24609-0.68359 0.56641-0.73047 0.71094-0.73047h0.035157v-0.003906c0.37891 0.0625 0.67187 0.37109 0.71094 0.75391 0.050781 0.28906 0.097656 0.79688-0.17578 1.0078zm1.7578-5.2852h0.003906c0.011719-0.042968 0.011719-0.089844 0-0.13281-0.023437-0.125 0.003906-0.25 0.074219-0.35156 0.050781-0.082031 0.12891-0.14453 0.22266-0.16797 0.60547-0.082031 0.98438 0 1.1914 0.26563 0.24609 0.28906 0.28906 0.69922 0.11719 1.0352-0.16016 0.3125-0.51172 0.48047-0.85547 0.41016-0.37891-0.058594-0.60156-0.48828-0.75391-0.85938h0.003906c-0.023437-0.0625-0.023437-0.13281 0-0.19531zm1.8477 8.3242c-0.023437-0.039063-0.058594-0.066406-0.097656-0.085937-0.046875-0.019532-0.085938-0.046876-0.12109-0.078126-0.15234-0.16797-0.16797-0.42187-0.039062-0.60937 0.0625-0.16406 0.19922-0.28906 0.37109-0.32813 0.023437-0.003906 0.042968-0.011718 0.058593-0.023437 0.12109-0.074219 0.25781-0.11719 0.40234-0.125 0.097656 0 0.19141 0.03125 0.27344 0.085937 0.29297 0.21094 0.42578 0.58203 0.32813 0.93359-0.046876 0.28906-0.30859 0.60938-0.61719 0.58203h-0.003906c-0.23047-0.019532-0.4375-0.14844-0.55469-0.34766zm3.4922-4.0508h0.003906c-0.027344-0.007813-0.054688-0.011719-0.078125-0.011719h-0.027344c-0.054687 0.003906-0.11328 0.003906-0.16797-0.007813-0.24219-0.074218-0.38281-0.32812-0.31641-0.57422 0.003906-0.027344 0.003906-0.054688 0-0.082032-0.035156-0.26172 0.011719-0.52344 0.12891-0.75391 0.089844-0.14453 0.25781-0.22266 0.42578-0.19922 0.039062 0 0.078125-0.003907 0.11328-0.015626 0.15625-0.0625 0.33203-0.0625 0.48828 0.007813 0.15625 0.066406 0.27734 0.19141 0.33594 0.35156 0.15234 0.30859 0.16016 0.66406 0.03125 0.98047-0.20312 0.30859-0.58984 0.4375-0.93359 0.30859z" fill="#fff"/>
 <path d="m34.754 116.21c0.10938 0.070312 0.25391 0.039062 0.33203-0.066407 1.2031-1.6328 2.3086-3.332 3.3164-5.0898 0.0625-0.11719 0.027344-0.25781-0.082032-0.33203-0.35937-0.23828-0.72656-0.46484-1.0938-0.6875h0.003907c-0.11719-0.070312-0.26562-0.035156-0.33984 0.078125l-0.46875 0.72266c-0.92578 1.4336-1.8828 2.9141-2.9219 4.3008-0.042969 0.054687-0.058594 0.12891-0.042969 0.19531 0.011719 0.070313 0.054688 0.13281 0.11328 0.16797 0.39844 0.23438 0.78906 0.46875 1.1836 0.71094z" fill="#fff"/>
 <path d="m90.145 24.215c-0.058593-0.042969-0.13672-0.054688-0.20703-0.035156-0.066406 0.019531-0.125 0.066406-0.15625 0.12891-0.007812 0.007812-0.015625 0.019531-0.023438 0.027344-1.0273 1.3516-2.0469 2.7109-3.0508 4.0859v-0.003906c-0.046875 0.0625-0.0625 0.14453-0.039062 0.21875 0.019531 0.074219 0.074219 0.13281 0.14453 0.16406 0.035156 0.011719 0.070312 0.027344 0.10156 0.046875 0.41797 0.26953 0.82813 0.55078 1.2422 0.82812 0.41016 0.27734 0.83594 0.56641 1.2578 0.83984 0.054688 0.035156 0.125 0.050781 0.1875 0.035156 0.066407-0.015625 0.12109-0.054687 0.16016-0.11328 0.9375-1.4766 1.8867-2.9531 2.8477-4.4141h-0.003906c0.039062-0.058594 0.054687-0.12891 0.035156-0.19922-0.015625-0.066407-0.058594-0.125-0.12109-0.16016-0.81641-0.44141-1.6055-0.92578-2.375-1.4492z" fill="#fff"/>
 <path d="m66.816 87.188c-0.3125 0.023438-0.625 0.066406-0.94141 0.10938v0.003906c-0.40234 0.0625-0.80469 0.10156-1.2109 0.12109-1.0195 0.089844-2.0391-0.15625-2.9102-0.69531-1.3633-0.89062-2.3086-2.2969-2.625-3.8984-0.019531-0.10156-0.10156-0.17969-0.20312-0.19922-0.10156-0.015625-0.20312 0.03125-0.25781 0.11719-0.20703 0.34375-0.42188 0.6875-0.63281 1.0273v0.003906c-0.066406 0.10938-0.039062 0.25 0.0625 0.32812 0.074219 0.054687 0.13281 0.12891 0.16797 0.21094 0.37891 0.91016 1.8281 3.9141 4.4688 4.3984 0.23047 0.042968 0.46875 0.074218 0.71094 0.10547v0.003907c0.53906 0.042969 1.0703 0.16797 1.5781 0.36328 0.34766 0.12891 0.60937 0.42188 0.69922 0.78125 0.058594 0.41406-0.089844 0.82812-0.39062 1.1133-0.88672 0.89844-1.8477 1.7188-2.8711 2.4492-1.7891 1.1523-3.2852 2.7109-4.3594 4.5469-1.5352 3.0938-1.6953 6.4727-1.7266 9.6719-0.035156 3.8984-0.089844 9.8008-4.3359 11.988-4.7109 2.4219-10.031-0.027343-13.664-2.5117-0.11328-0.078124-0.26562-0.050781-0.34375 0.0625-0.20703 0.29297-0.41797 0.58203-0.63281 0.86719-0.039063 0.050781-0.089844 0.09375-0.14453 0.125-0.035156 0.023438-0.0625 0.050781-0.082031 0.085938-0.058594 0.10937-0.15625 0.19141-0.27344 0.22656-0.10156 0.015625-0.20703-0.011719-0.28906-0.078125-1.2773-0.89844-2.6367-1.7148-3.9531-2.5-1.5664-0.90234-3.0859-1.8828-4.5547-2.9414-0.054687-0.039063-0.125-0.054688-0.19141-0.042969-0.070312 0.011719-0.12891 0.050781-0.16797 0.10547-0.023438 0.035156-0.050782 0.066406-0.085938 0.09375-0.050781 0.046875-0.082031 0.11328-0.082031 0.18359-0.003907 0.070313 0.027343 0.14063 0.078125 0.1875 3.3906 3.3125 7.418 5.8984 11.84 7.6055 2.4258 0.88281 4.9883 1.3555 7.5742 1.3945 3.9844 0 7.7148-1.3516 9.5859-5.1016 1.543-3.0938 1.6406-6.5 1.7344-9.8008h-0.003907c0.007813-1.8398 0.14453-3.6758 0.39844-5.5 0.35156-2.1211 0.91406-4.5078 2.4297-6.0938 0.83203-0.84375 1.7734-1.5742 2.8008-2.1719 0.30469-0.1875 0.66016-0.37891 1.0312-0.58203 1.293-0.69922 2.7578-1.5 3.3867-2.6328h0.003906c0.53125-0.84766 0.60938-1.9062 0.19922-2.8203-0.41797-0.57031-1.125-0.84766-1.8164-0.71094z" fill="#fff"/>
 <path d="m36.332 117.22 0.21484 0.14453h-0.003906c0.11328 0.074218 0.26172 0.046874 0.33984-0.0625 0.91016-1.2422 1.7227-2.5703 2.5078-3.8555 0.23047-0.375 0.45703-0.74609 0.6875-1.1211h0.003906c0.0625-0.10547 0.042969-0.24219-0.050781-0.32031-0.17578-0.14844-0.35156-0.30078-0.53516-0.44141-0.058594-0.042968-0.13281-0.0625-0.19922-0.046875-0.074219 0.015625-0.13281 0.0625-0.16797 0.125-0.99219 1.7109-2.0742 3.3711-3.2461 4.9648-0.042968 0.054687-0.058593 0.125-0.042968 0.19531 0.011718 0.066406 0.050781 0.125 0.10938 0.16406 0.12891 0.078125 0.25 0.16797 0.38281 0.25391z" fill="#fff"/>
 <path d="m68.613 60.82c-0.89062-0.85156-1.9531-1.5078-3.1133-1.9258-0.10547-0.035156-0.22266 0.003907-0.28906 0.09375l-1.8984 2.7266c-0.074219 0.10547-0.054688 0.25 0.042969 0.33594 0.62109 0.52344 1.2891 1 1.9336 1.4648 0.91406 0.61719 1.7773 1.3047 2.582 2.0586 0.046875 0.046875 0.10938 0.070312 0.17578 0.070312h0.03125c0.074219-0.007812 0.14453-0.050781 0.18359-0.11719l1.9609-3.1992c0.070313-0.11719 0.035156-0.26953-0.078125-0.33984-0.53516-0.35938-1.0469-0.75-1.5312-1.168z" fill="#fff"/>
 <path d="m68.719 54.301c-0.10938-0.042969-0.23438-0.007812-0.30078 0.085938-0.46094 0.65625-0.91797 1.3125-1.3789 1.9766l-0.98828 1.4219v-0.003906c-0.046875 0.0625-0.058593 0.14453-0.035156 0.21484 0.023437 0.074218 0.078125 0.13281 0.14844 0.16016 1.0156 0.45312 1.9531 1.0586 2.7773 1.8008 0.53125 0.44531 1.0898 0.85938 1.668 1.2422 0.039063 0.027343 0.085937 0.039062 0.13281 0.039062 0.019531 0 0.039062 0 0.058593-0.007812 0.066407-0.015625 0.12109-0.054688 0.15625-0.11328 0.51562-0.84375 1.0312-1.6875 1.5469-2.5312l0.64844-1.0586v0.003906c0.070312-0.10938 0.046875-0.25-0.050782-0.33203-1.3242-1.1602-2.8008-2.1367-4.3828-2.8984z" fill="#fff"/>
 <path d="m76.398 45.82c-0.41016-0.24219-0.81641-0.48828-1.2148-0.74609l0.003906-0.003907c-0.11328-0.070312-0.26562-0.042968-0.34375 0.066407l-2.6797 3.8555c-0.042968 0.0625-0.054687 0.14062-0.035156 0.21484 0.023438 0.074219 0.078125 0.13281 0.14844 0.16016 1.4648 0.60156 2.8008 1.4883 3.9258 2.6055 0.046875 0.046875 0.10938 0.074219 0.17578 0.074219h0.03125c0.074219-0.007813 0.14453-0.054687 0.18359-0.11719 0.82031-1.332 1.6328-2.6719 2.4453-4.0078 0.0625-0.10156-0.015624-0.27734-0.10156-0.35938-0.78906-0.66016-1.6367-1.2461-2.5391-1.7422z" fill="#fff"/>
 <path d="m75.715 52.785c-1.1094-1.1641-2.4609-2.0664-3.9648-2.6445-0.023438-0.007813-0.046875-0.019531-0.070312-0.03125-0.11328-0.066406-0.25781-0.035156-0.32813 0.074219-0.70312 1.0117-1.4102 2.0234-2.1172 3.0352v-0.003906c-0.042969 0.0625-0.054687 0.13672-0.035156 0.20703 0.019531 0.074219 0.066406 0.13281 0.13672 0.16406 1.5 0.76562 2.9102 1.7031 4.1992 2.793 0.042969 0.039063 0.097656 0.058594 0.15625 0.058594h0.042969c0.070313-0.015625 0.13281-0.054688 0.16797-0.11719 0.52734-0.85547 1.0508-1.7148 1.5742-2.5625 0.09375-0.14844 0.1875-0.30078 0.27734-0.45312l0.082032-0.13672 0.003906-0.003907c0.066406-0.10547 0.042968-0.24219-0.054688-0.32031z" fill="#fff"/>
</svg>
