<?xml version="1.0" encoding="UTF-8"?>
<svg width="128pt" height="128pt" version="1.1" viewBox="0 0 128 128" xmlns="http://www.w3.org/2000/svg">
 <path d="m85.492 19.441 1.0625 0.88281c0.11328 0.089843 0.30859 0 0.44922-0.14062l1.5234-1.8164c0.12891-0.16797 0.16797-0.38281 0-0.47266l-1.0625-0.88281c-0.11328-0.089844-0.30859 0-0.44922 0.14062l-1.5234 1.8164c-0.089844 0.23047-0.11719 0.38672 0 0.47266zm4.543-5.0312 1.0234 0.93359c0.10156 0.10156 0.30859 0 0.44922-0.11328l1.6133-1.7422c0.14062-0.15234 0.17969-0.37109 0.078125-0.46094l-1.0391-0.94531c-0.10156-0.089843-0.30859 0-0.44922 0.12891l-1.5977 1.7422c-0.14062 0.125-0.17969 0.35547-0.078125 0.46094zm10.598 5.4414c-0.0625 0.20313 0 0.41016 0.11328 0.44922l1.2812 0.44922c0.14062 0 0.29297-0.089844 0.37109-0.29297l0.75391-2.2539c0-0.20312 0-0.41016-0.11328-0.44922l-1.2812-0.44922c-0.12891 0-0.29297 0.089843-0.37109 0.29297zm-1.0352 3.1875-0.79297 2.2383c0 0.20312 0 0.41016 0.11328 0.46094l1.2812 0.46094c0.14062 0 0.30859-0.089844 0.37109-0.29297l0.79297-2.2383c0.0625-0.20312 0-0.41016-0.11328-0.44922l-1.2812-0.46094c-0.12891-0.023437-0.30859 0.10156-0.37109 0.28125zm-5.875-9.2305c-2.3164 2.3438-7 8.168-7 8.168 2.0625 2.8945 0.12891 4.6445 0.12891 4.6445l5.9648 3.4414c1.7266-2.9805 4.082-2.2148 4.082-2.2148l3.5859-10.125c0.29297-0.91016 1.0625-1.6133 2.5586-3.6719 1.4961-2.0625-4.2617-7.3477-5.582-7.6797-1.3203-0.32812-1.4609 5.1484-3.7383 7.4648zm-41.867 81.922h-0.003907c0.30078 0.16797 0.67969 0.066406 0.85938-0.23047 0.17187-0.30078 0.070312-0.68359-0.23047-0.85547-0.30078-0.17578-0.68359-0.070312-0.85938 0.23047-0.14062 0.28906-0.042969 0.64453 0.23047 0.81641zm-1.9336-1.1758c0.21875 0.125 0.49219 0.10547 0.69141-0.046876 0.20312-0.15625 0.28906-0.41406 0.22656-0.66016-0.066406-0.24609-0.27344-0.42578-0.52734-0.46094-0.25-0.03125-0.49609 0.089843-0.62109 0.30859-0.085937 0.14453-0.10938 0.31641-0.066406 0.47656 0.046875 0.16016 0.15234 0.29688 0.29688 0.38281zm3.9297 2.2656h-0.003906c0.22266 0.125 0.49609 0.10547 0.69531-0.046874 0.20312-0.15625 0.28906-0.41406 0.22656-0.66016-0.066406-0.24609-0.27344-0.42578-0.52734-0.46094-0.25-0.03125-0.49609 0.089844-0.62109 0.30859-0.089844 0.14062-0.12109 0.3125-0.082032 0.47266 0.039063 0.16016 0.14063 0.30078 0.28516 0.38672zm1.957 1.1406v-0.003907c0.30078 0.17578 0.68359 0.070313 0.85547-0.23047 0.17578-0.30078 0.070313-0.68359-0.23047-0.85547-0.30078-0.17578-0.68359-0.070313-0.85547 0.23047-0.17188 0.30078-0.070313 0.68359 0.23047 0.85547zm12.875 5.8633c-0.11328-4.7617 0.30859-8.5234 3.8398-12.031 3.2656-3.2656 4.9922-2.8164 6.0156-4.5039 1.8047-2.9297 2.6484-5.1211 0.64063-6.3086-1.0742-0.62891-5.1211 2.3047-6.7578 3.0977-4.2734 2.0352-6.9102-1.793-8.1523-4.4414l28.004-48.582-5.9766-3.4414-25.867 44.801c-1.6367-3.0977-5.5156-12.133-0.55078-20.723 0 0 2.3672-3.0469 0.34375-4.2109-2.0234-1.1641-6.3984 0.53906-9.2539 8.1914-2.8555 7.6562-2.2266 15.512-3.7617 18.176-2.4844 4.3008-7.0273 5.2344-11.211 7.5117l-0.003906-0.003906c-3.5195 1.8477-6.4766 4.6055-8.5625 7.9883-2.1523 3.7383-8.3438 15.707 11.188 26.98 19.535 11.277 25.922 1.4375 28.07-2.25 1.5859-2.7148 2.0859-5.6055 1.9727-10.254zm-10.57-7.5039c0.070313 0.039063 0.125 0.10547 0.14453 0.1875 0.023438 0.078126 0.011719 0.16406-0.03125 0.23438l-1.6367 2.8555c-0.097656 0.14062-0.28125 0.1875-0.4375 0.11328l-7.8594-4.543c-0.14844-0.089844-0.19922-0.28125-0.11328-0.43359l1.6367-2.8398v-0.003906c0.089844-0.15234 0.28516-0.20312 0.4375-0.11328zm-9.4727-10.305c0.089844-0.15234 0.28125-0.20312 0.43359-0.11328l7.8594 4.5312c0.15234 0.085937 0.20312 0.28125 0.11719 0.43359l-1.6367 2.8398h-0.003906c-0.089844 0.15234-0.28125 0.20312-0.43359 0.11719l-7.8594-4.543c-0.074219-0.039062-0.12891-0.10547-0.15234-0.1875-0.023438-0.078125-0.007813-0.16406 0.035156-0.23438zm-2.4336 29.824c-0.089843 0.15234-0.28125 0.20312-0.43359 0.11719l-9.7539-5.6328c-0.15234-0.089844-0.20312-0.28516-0.11719-0.4375l2.7383-4.7344h0.003906c0.035157-0.074219 0.10547-0.12891 0.18359-0.15234 0.082031-0.023438 0.16797-0.007812 0.23828 0.035156l9.7656 5.6328c0.070313 0.042969 0.125 0.10938 0.14453 0.1875 0.023438 0.078125 0.011719 0.16406-0.03125 0.23438zm7.5547-9.2305c-0.089844 0.15234-0.28516 0.20312-0.4375 0.11719l-13.066-7.5156c-0.15234-0.085938-0.20312-0.28125-0.11719-0.43359l1.6523-2.7773c0.035156-0.074219 0.10547-0.12891 0.18359-0.15234 0.082032-0.019531 0.16797-0.007812 0.23828 0.039063l13.02 7.5117h-0.003906c0.15234 0.089843 0.20312 0.28125 0.11719 0.43359zm10.238-2.0859c0.67578 0.38672 0.91016 1.2461 0.52344 1.9219-0.28125 0.49609-0.83203 0.76953-1.3984 0.69922-0.56641-0.070312-1.0312-0.47656-1.1797-1.0273-0.15234-0.54688 0.042969-1.1328 0.49219-1.4844 0.45312-0.34766 1.0664-0.39062 1.5625-0.10937zm-7.2969 12.66c-0.33203-0.19531-0.57031-0.51562-0.66406-0.88672-0.089843-0.375-0.027343-0.76953 0.17969-1.0977 0.1875-0.32422 0.49609-0.5625 0.85938-0.65625 0.36328-0.097657 0.75-0.046875 1.0742 0.14453 0.32422 0.18359 0.55859 0.49219 0.65625 0.85156 0.09375 0.36328 0.042968 0.74609-0.14453 1.0703-0.17969 0.33203-0.48047 0.57812-0.83984 0.6875-0.36328 0.10938-0.75 0.066406-1.082-0.11328zm4.6094-4.1719c-0.67578-0.39062-0.90625-1.25-0.51953-1.9258 0.39062-0.67578 1.25-0.91016 1.9258-0.51953 0.32812 0.1875 0.5625 0.49609 0.66016 0.85938s0.042969 0.75-0.14844 1.0742c-0.38281 0.65234-1.2188 0.87891-1.8789 0.51172zm-12.609-24.32c0.30078 0.16797 0.67969 0.0625 0.85938-0.23047 0.10938-0.14453 0.15234-0.32422 0.11719-0.50391-0.035157-0.17578-0.14453-0.32812-0.30078-0.41797-0.15625-0.089843-0.34375-0.10937-0.51172-0.054687-0.17188 0.058594-0.30859 0.18359-0.37891 0.34766-0.15234 0.30078-0.042969 0.67188 0.25391 0.83203zm1.9727 1.1406c0.30078 0.17188 0.68359 0.070313 0.85547-0.23047 0.17578-0.30078 0.070312-0.6875-0.23047-0.85937-0.14062-0.085938-0.31641-0.10938-0.47656-0.066407-0.16016 0.042969-0.30078 0.14844-0.37891 0.29688-0.14453 0.30469-0.027343 0.66797 0.26953 0.83203zm3.9297 2.2656c0.30078 0.16406 0.67969 0.0625 0.85547-0.23047 0.089843-0.14453 0.11328-0.31641 0.070312-0.48047-0.042969-0.16016-0.15234-0.29688-0.30078-0.37891-0.30078-0.17187-0.68359-0.070312-0.85547 0.23047s-0.070312 0.68359 0.23047 0.85938zm-1.9219-1.2188c0.22266 0.12891 0.49609 0.10938 0.69531-0.046875 0.20312-0.15234 0.28906-0.41406 0.22266-0.66016-0.0625-0.24219-0.26953-0.42578-0.52344-0.45703-0.25-0.035156-0.49609 0.089844-0.625 0.30859-0.085937 0.14062-0.10938 0.31641-0.066406 0.47656 0.042969 0.16406 0.15234 0.30078 0.29688 0.37891z" fill="#fff"/>
</svg>
