<?xml version="1.0" encoding="UTF-8"?>
<svg width="128pt" height="128pt" version="1.1" viewBox="0 0 128 128" xmlns="http://www.w3.org/2000/svg">
 <defs>
  <clipPath id="h">
   <path d="m77 47h9v9h-9z"/>
  </clipPath>
  <clipPath id="g">
   <path d="m35.5 14.637 77.863 20.863-20.863 77.863-77.863-20.863z"/>
  </clipPath>
  <clipPath id="f">
   <path d="m85 43h4v4h-4z"/>
  </clipPath>
  <clipPath id="e">
   <path d="m35.5 14.637 77.863 20.863-20.863 77.863-77.863-20.863z"/>
  </clipPath>
  <clipPath id="d">
   <path d="m38 68h35v26h-35z"/>
  </clipPath>
  <clipPath id="c">
   <path d="m35.5 14.637 77.863 20.863-20.863 77.863-77.863-20.863z"/>
  </clipPath>
  <clipPath id="b">
   <path d="m20 31h85v69h-85z"/>
  </clipPath>
  <clipPath id="a">
   <path d="m35.5 14.637 77.863 20.863-20.863 77.863-77.863-20.863z"/>
  </clipPath>
 </defs>
 <g clip-path="url(#h)">
  <g clip-path="url(#g)">
   <path d="m85.148 47.301c-0.19531-0.16016-0.44531-0.23438-0.69531-0.21094-0.24609 0.027344-0.47656 0.14844-0.63672 0.34375-0.27734 0.33984-0.52344 0.62891-0.75 0.89453-1.5898 1.8438-3.3203 3.5586-5.1719 5.1367-0.39453 0.33984-0.44141 0.9375-0.10156 1.332 0.33984 0.39844 0.93359 0.44531 1.332 0.10547 1.9219-1.6406 3.7188-3.4258 5.3711-5.3398 0.23828-0.27734 0.49609-0.58203 0.78125-0.92969h0.003906c0.15625-0.19531 0.23438-0.44531 0.20703-0.69531-0.023437-0.25-0.14844-0.47656-0.33984-0.63672z" fill="#fff"/>
  </g>
 </g>
 <g clip-path="url(#f)">
  <g clip-path="url(#e)">
   <path d="m86.52 43.75c-0.27344 0.41406-0.55469 0.82812-0.84375 1.2344-0.30078 0.42578-0.19922 1.0156 0.22656 1.3164 0.42578 0.30078 1.0156 0.19922 1.3164-0.22656 0.29688-0.42188 0.59375-0.85547 0.87891-1.2852 0.28516-0.4375 0.16406-1.0195-0.26953-1.3047-0.4375-0.28906-1.0195-0.16797-1.3086 0.26562z" fill="#fff"/>
  </g>
 </g>
 <g clip-path="url(#d)">
  <g clip-path="url(#c)">
   <path d="m39.148 85.609c-0.62109 2.3203 0.21484 4.7812 2.1211 6.2422 1.9023 1.4609 4.5 1.6328 6.5781 0.43359l21.602-12.473c1.3672-0.78516 2.3672-2.0781 2.7773-3.6016 0.41016-1.5234 0.19922-3.1484-0.58984-4.5117-0.78906-1.3672-2.0898-2.3633-3.6133-2.7695-1.5234-0.40625-3.1445-0.1875-4.5078 0.60547l-21.602 12.473c-1.3672 0.78516-2.3594 2.082-2.7656 3.6016zm25.312-14.438c0.92578-0.53906 2.0352-0.69141 3.0742-0.41406 1.0391 0.27734 1.9258 0.95703 2.4609 1.8867 0.53906 0.93359 0.68359 2.0391 0.40234 3.0781-0.28125 1.0352-0.96094 1.9219-1.8945 2.4531l-0.76562 0.44141-4.043-7.0039zm-2.4023 1.3867 4.043 7.0039-7.1484 4.1289-4.043-7.0039zm-8.7852 5.0742 4.043 7.0039-7.1484 4.1289-4.043-7.0039zm-10.414 6.0117 1.6289-0.94141 4.043 7.0039-1.6289 0.94141c-1.9336 1.1172-4.4062 0.45312-5.5234-1.4805-1.1172-1.9336-0.45312-4.4062 1.4805-5.5234z" fill="#fff"/>
  </g>
 </g>
 <g clip-path="url(#b)">
  <g clip-path="url(#a)">
   <path d="m90.172 31.723c-0.1875-0.32031-0.54297-0.50391-0.91406-0.46875-0.36719 0.039063-0.67969 0.28906-0.80078 0.63672-2.0664 6.0859-6.2227 15.109-18.449 23.152l-11.91 6.875-0.95312-1.6484 1.8438-1.0625h-0.003906c0.45312-0.26172 0.60938-0.83984 0.34766-1.2891l-0.84766-1.4727v-0.003906c-0.54297-0.9375-1.7461-1.2617-2.6875-0.71875l-3.4102 1.9727c-0.9375 0.54297-1.2617 1.7422-0.71875 2.6797l0.85156 1.4727v0.003906c0.26172 0.44922 0.83594 0.60547 1.2891 0.34375l1.6992-0.98047 0.95313 1.6484-7.1484 4.1289-0.95312-1.6484 1.8438-1.0664c0.21875-0.125 0.375-0.33203 0.44141-0.57422 0.0625-0.24219 0.03125-0.5-0.09375-0.71875l-0.85156-1.4727v0.003906c-0.54297-0.9375-1.7422-1.2617-2.6836-0.71875l-3.4102 1.9688c-0.94141 0.54297-1.2617 1.7422-0.71875 2.6836l0.84766 1.4727c0.125 0.21484 0.33203 0.375 0.57422 0.44141 0.24219 0.0625 0.5 0.03125 0.71484-0.097656l1.6992-0.98047 0.95312 1.6484-7.1484 4.1289-0.95312-1.6484 1.8438-1.0664c0.21875-0.125 0.375-0.33203 0.44141-0.57031 0.066406-0.24219 0.03125-0.5-0.09375-0.71875l-0.85156-1.4727c-0.54297-0.9375-1.7422-1.2578-2.6836-0.71875l-3.4102 1.9688c-0.94141 0.54297-1.2617 1.7461-0.71875 2.6836l0.84766 1.4727c0.125 0.21875 0.33203 0.375 0.57422 0.44141 0.24219 0.066406 0.5 0.03125 0.71484-0.09375l1.6992-0.98047 0.95312 1.6484-13.156 7.5977c-0.20703-0.22266-0.47266-0.38281-0.76953-0.46094h-0.003906 0.003906c-0.41797-0.11328-0.85938-0.054687-1.2305 0.16016l-2.3555 1.3633c-0.375 0.21484-0.64844 0.56641-0.76172 0.98438-0.10938 0.41797-0.050782 0.85938 0.16406 1.2344l3.5742 6.1875c0.21484 0.375 0.57031 0.64453 0.98438 0.75781 0.41797 0.10938 0.85938 0.050781 1.2344-0.16406l2.3555-1.3594c0.65625-0.37891 0.96484-1.1602 0.74219-1.8828l4.4727-2.582c-1.1875 5.7031 2.2812 11.344 7.9102 12.852 2.793 0.75781 5.7695 0.36719 8.2734-1.082l1.6445-0.94922 1.9766 3.4219c0.26172 0.45312 0.83984 0.60937 1.2891 0.34766 0.45312-0.26172 0.60938-0.83984 0.34766-1.2891l-1.9766-3.4219 7.1484-4.1289 1.9766 3.4258v-0.003906c0.26172 0.45312 0.83984 0.60547 1.2891 0.34375 0.45312-0.25781 0.60937-0.83594 0.34766-1.2891l-1.9805-3.4219 7.1484-4.1289 1.9766 3.4258c0.26172 0.44922 0.83984 0.60547 1.293 0.34375 0.21484-0.125 0.375-0.33203 0.4375-0.57031 0.066406-0.24219 0.03125-0.5-0.09375-0.71875l-1.9766-3.4258 0.75391-0.43359c3.7344-2.1719 5.8438-6.3359 5.3867-10.633-0.46094-4.293-3.3984-7.9219-7.5078-9.2578l4.0703-2.3516c3.6133-1.8281 7.9766-3.8359 12.938-4.8867 5.4297-1.1523 10.773-1.0078 16.348 0.4375 0.37109 0.09375 0.76172-0.039063 0.99219-0.34375 0.23047-0.30078 0.25391-0.71484 0.066406-1.043zm-36.488 28.363-0.37891-0.65625v0.003906c-0.023438-0.039063-0.007813-0.082032 0.027343-0.10547l3.4102-1.9688c0.035156-0.019531 0.082031-0.007813 0.10547 0.027344l0.37891 0.65625zm-8.7852 5.0703-0.37891-0.65625v0.003906c-0.019531-0.035156-0.007812-0.082031 0.027344-0.10156l3.4102-1.9688h0.003907c0.035156-0.023438 0.082031-0.011719 0.10156 0.027344l0.37891 0.65234zm-8.7852 5.0703-0.37891-0.65625v0.003907c-0.019531-0.035157-0.007813-0.082031 0.027344-0.10156l3.4102-1.9688c0.039063-0.019531 0.085937-0.007812 0.10547 0.027344l0.37891 0.65234zm-10.254 18.672-3.3086-5.7305 1.8984-1.0977 0.15625 0.26953 3.1523 5.457zm36.41-22.477c-0.44922 0.26172-0.60547 0.83984-0.34375 1.2891 0.25781 0.45312 0.83594 0.60937 1.2891 0.34766l4.1641-2.4062c3.8984 0.41406 7.0898 3.2891 7.9102 7.1211 0.81641 3.832-0.91797 7.7578-4.3047 9.7305l-21.602 12.473c-4.3359 2.4844-9.8594 0.98828-12.355-3.3359-1.4492-2.5039-1.6211-5.5508-0.45703-8.1992l22.664-13.086c0.45312-0.26172 0.60938-0.83984 0.34766-1.2891-0.26172-0.45312-0.83984-0.60938-1.2891-0.34766l-29.531 17.051-2.0469-3.5508 43.434-25.074 2.0039 3.5703zm11.543-6.6016-2.0586-3.6719c5.7266-3.8594 13.336-10.207 17.793-21.723l11.953 20.699c-11.09-2.2617-19.863 0.82031-27.684 4.6953z" fill="#fff"/>
  </g>
 </g>
</svg>
