<?xml version="1.0" encoding="UTF-8"?>
<svg viewBox="0 0 100 100" xmlns="http://www.w3.org/2000/svg">
 <rect x="-10" y="-10" width="120" height="120"/>
 <path d="m79.207 34.508-13.535-13.535c-0.89453-0.89453-2.3203-0.96094-3.2891-0.15234-0.96875 0.8125-1.1602 2.2266-0.4375 3.2617-0.29687 3.6328-2.043 10.82-10.109 19.875-0.6875 0.77344-1.7383 1.8789-3.1172 3.2891h0.003906c-0.67578-0.51562-1.582-0.60547-2.3477-0.23438l-1.3242-1.3242 0.34766-0.34766c0.26953-0.26172 0.30469-0.68359 0.078124-0.98828-0.12891-0.16797-0.32422-0.27344-0.53516-0.28906-0.21094-0.011719-0.41797 0.066406-0.57031 0.21484l-1.75 1.7539c-0.14453 0.14062-0.23047 0.33594-0.23047 0.53906 0 0.20313 0.078125 0.39844 0.22266 0.54297 0.28906 0.27344 0.74609 0.26562 1.0273-0.015625l0.36328-0.36328 1.3281 1.3281v-0.003906c-0.37109 0.76953-0.27734 1.6797 0.24219 2.3555-0.35547 0.35547-0.71484 0.71094-1.0703 1.0625v0.003907c-0.67578-0.52344-1.5898-0.61328-2.3555-0.24219l-1.3242-1.3242 0.34766-0.34766c0.26953-0.26172 0.30469-0.6875 0.082031-0.98828-0.13281-0.16797-0.32812-0.27344-0.53906-0.28906-0.21094-0.011718-0.41797 0.066407-0.57031 0.21484l-1.75 1.75v0.003906c-0.14453 0.14063-0.22656 0.33594-0.23047 0.53906 0 0.20312 0.082032 0.39844 0.22266 0.54297 0.29297 0.27344 0.74609 0.26562 1.0273-0.015625l0.36328-0.36328 1.3281 1.3242c-0.36328 0.75391-0.28125 1.6484 0.21875 2.3242-0.375 0.36719-0.74219 0.72266-1.0898 1.0625-0.67188-0.49219-1.5625-0.57422-2.3086-0.20703l-1.3242-1.3242 0.34766-0.34766h-0.003907c0.26953-0.26562 0.30469-0.6875 0.082032-0.99219-0.12891-0.16797-0.32422-0.26953-0.53906-0.28516-0.21094-0.011719-0.41797 0.066406-0.57031 0.21484l-1.75 1.75c-0.14453 0.14453-0.22656 0.33594-0.22656 0.53906-0.003906 0.20703 0.078125 0.40234 0.22266 0.54297 0.28906 0.27344 0.74219 0.26953 1.0273-0.015625l0.36328-0.36328 1.3281 1.3281c-0.35156 0.72656-0.28906 1.5859 0.16406 2.2539-0.54297 0.53125-1.0703 1.082-1.582 1.6406-2.8594 3.1328-7.6641 8.207-9.3086 9.2578-0.41016 0.26172-1.7578 0.71484-2.707 1.0039-0.49219-0.28906-1.0859-0.34766-1.6211-0.16016-0.085937 0.027344-0.16797 0.066407-0.24219 0.10547-0.53906 0.28516-0.90625 0.80859-1 1.4062-0.089844 0.60156 0.10937 1.2109 0.53906 1.6406l5 5c0.35547 0.36328 0.83594 0.57812 1.3477 0.59375 0.72266 0.015625 1.3906-0.375 1.7305-1.0156 0.042969-0.070312 0.074219-0.14844 0.10156-0.22656 0.19922-0.53906 0.14453-1.1445-0.15234-1.6406 0.28906-0.95312 0.74219-2.2969 1.0039-2.707 0.48828-0.76172 1.9727-2.3633 4.2148-4.5586h0.003906c0.46875 1.3125 1.2227 2.5039 2.2109 3.4844l0.69141 0.69141h-0.003906c3.7031 3.6797 9.6797 3.6797 13.383 0l0.42578-0.42578 0.011719 0.011719c0.28906 0.29297 0.65234 0.5 1.0508 0.59766 0.76953 0.1875 1.5781-0.039063 2.1367-0.59766 1.1719-0.58594 1.3711-1.8242 0.44141-2.75l-0.45312-0.45313 1.0391-1.0391 0.011718 0.011719v0.003906c0.28516 0.28906 0.64453 0.49609 1.043 0.59375 0.76953 0.19531 1.582-0.03125 2.1445-0.59375 1.168-0.58594 1.3711-1.8203 0.44531-2.7422l-0.45703-0.45703 1.0391-1.0391 0.011719 0.011718c0.28906 0.29297 0.65234 0.5 1.0508 0.59766 0.76953 0.1875 1.5781-0.039063 2.1367-0.59766 1.168-0.58594 1.3672-1.8203 0.44531-2.7422l-0.51172-0.51172c2.918-3.7695 2.5898-9.1172-0.77344-12.496l-2.8711-2.8711c4.5781-3.7109 10.555-7.5 16.938-7.6562 1.0117 0.80469 2.4766 0.68359 3.3398-0.28125 0.85938-0.96484 0.82031-2.4336-0.09375-3.3477zm-51.391 43.145c-0.17188 0.16406-0.44141 0.16406-0.61328 0l-5.0352-5.0352c-0.16797-0.17188-0.16406-0.44141 0.003906-0.60938 0.16797-0.16797 0.4375-0.17187 0.60938-0.003906l5.0391 5.0391-0.003906-0.003907c0.17188 0.17188 0.17188 0.44531 0 0.61328zm6.1328-10.195c-1.9453 1.875-4.293 4.2461-5.0391 5.4102-0.29688 0.46094-0.65234 1.457-0.91797 2.2617l-3.3008-3.3047c0.80469-0.26562 1.8008-0.62109 2.2617-0.91797 1.4023-0.89844 4.5664-4.125 7.0312-6.7344h-0.003906c-0.19922 1.0859-0.21094 2.1992-0.027344 3.2852zm12.656-15.984 2.0273 2.0273c-0.34375 0.34766-0.69141 0.69531-1.0312 1.043l-2.0312-2.0312c0.33984-0.34766 0.6875-0.69531 1.0352-1.0391zm-4.2578 4.1992 2.082 2.082c-0.35547 0.36328-0.69922 0.71484-1.0273 1.0508l-2.1094-2.1094c0.34375-0.32812 0.69141-0.67187 1.0547-1.0234zm7.2617 16.566h0.003906c-3.125 3.1055-8.1719 3.1055-11.293 0l-0.69141-0.69141c-3.1016-3.1211-3.1055-8.1602-0.003906-11.285 0.03125-0.027344 0.18359-0.17578 0.44141-0.42578l2.2031 2.2031-0.15625 0.16016h-0.003906c-1.9844 1.9922-1.9805 5.2148 0.003906 7.207l0.34375 0.34375h0.003907c1.9922 1.9844 5.2188 1.9844 7.2109 0l0.15234-0.15234 2.2148 2.2109zm-8.4531-9 0.007812-0.007812s0.050782-0.050781 0.14063-0.14453l5.4727 5.4727-0.14844 0.14844c-1.418 1.4102-3.707 1.4102-5.125 0l-0.34375-0.34375c-1.4141-1.418-1.4141-3.7109 0-5.125zm12.078 8.5859h0.003906c-0.14453 0.14453-0.34375 0.22656-0.55078 0.22656s-0.40234-0.082031-0.55078-0.22656l-13.781-13.781c-0.14453-0.14453-0.22656-0.34375-0.22656-0.55078-0.003906-0.20703 0.078125-0.40625 0.22656-0.55078 0.14453-0.14844 0.34375-0.23047 0.55078-0.23047s0.40625 0.085937 0.55078 0.23047l13.781 13.781c0.30469 0.30469 0.30469 0.79688 0 1.1016zm-8.7891-11.977c0.32813-0.33594 0.66797-0.6875 1.0273-1.0508l5.5352 5.5312-1.0391 1.0391zm8.7773 8.7773-2.2109-2.2109 1.0391-1.0391 2.2109 2.2109zm4.2383-1.0273h0.003906c-0.14453 0.14453-0.34375 0.22656-0.55078 0.22656-0.20703 0-0.40625-0.082031-0.55078-0.22656l-13.781-13.781c-0.14453-0.14453-0.23047-0.34375-0.23047-0.55078s0.082032-0.40625 0.23047-0.55078c0.14453-0.14844 0.34375-0.23047 0.55078-0.23047 0.20703 0.003906 0.40625 0.085937 0.55078 0.23047l13.781 13.781c0.30078 0.30469 0.30078 0.79688 0 1.1016zm-8.8203-12.012c0.34375-0.34766 0.6875-0.69531 1.0352-1.043l5.5586 5.5586-1.0391 1.0391zm8.8125 8.8125-2.2148-2.2148 1.0391-1.0391 2.2148 2.2148zm4.2383-1.0273c-0.14844 0.14453-0.34766 0.22656-0.55078 0.22656-0.20703 0-0.40625-0.082031-0.55078-0.22656l-13.781-13.781c-0.14844-0.14453-0.23438-0.34375-0.23438-0.55078 0-0.20703 0.082031-0.40625 0.22656-0.55469 0.14844-0.14844 0.34766-0.23047 0.55859-0.22656 0.20703 0 0.40625 0.082032 0.55078 0.23438l13.781 13.781-0.003906-0.003907c0.30469 0.30469 0.30469 0.79688 0.003906 1.1016zm-8.8203-12.008c0.53906-0.53125 1.0352-1.0078 1.4844-1.4375l2.9648 2.9648c0.98438 0.98828 1.3164 2.457 0.85156 3.7734zm7.9805-1.6562c2.7852 2.8047 3.1094 7.2188 0.76563 10.402l-2.3242-2.3242c1.0117-1.9727 0.63672-4.3672-0.92969-5.9375l-2.9375-2.9375c0.25-0.23047 0.47656-0.4375 0.67578-0.62109 0.55859-0.5 1.1562-1.0234 1.7812-1.5508zm-5.7305-2.5156c-0.77734 0.69531-1.8828 1.7461-3.293 3.1289l-2.0469-2.0469c1.3945-1.4258 2.457-2.543 3.1602-3.332 1.7695-1.9844 4.3281-5.1484 6.4805-8.9414 2.0898-3.6758 3.3789-7.2109 3.8516-10.527l11.277 11.273c-7.7812 0.76953-14.754 6.2539-19.434 10.445zm23.043-10.281c-0.375 0.375-0.98437 0.375-1.3594 0l-13.539-13.535c-0.17969-0.17969-0.28125-0.42578-0.28516-0.67969 0-0.25781 0.10156-0.50391 0.28125-0.68359 0.18359-0.17969 0.42969-0.28125 0.68359-0.28125 0.25781 0 0.5 0.10156 0.67969 0.28516l13.539 13.535c0.375 0.37891 0.375 0.98438 0 1.3594z" fill="#fff"/>
</svg>
