<?xml version="1.0" encoding="UTF-8"?>
<svg width="100pt" height="100pt" version="1.1" viewBox="0 0 100 100" xmlns="http://www.w3.org/2000/svg">
 <path d="m66.938 49.637c-0.03125 0.70703-0.074219 1.2461-0.074219 1.7852-0.007812 1.6836-0.92969 3.0391-1.6094 4.4766-0.49219 0.80078-0.5625 1.7891-0.1875 2.6484 0.15234 0.42578 0.0625 0.90234-0.23438 1.2422-0.29688 0.33984-0.75781 0.49219-1.1992 0.39453-0.83594-0.10156-1.6602-0.28906-2.4922-0.44922-1.0664-0.20703-1.0898-0.21094-1.5859 0.70703-1.1211 2.0312-2 4.1836-2.625 6.4141-0.1875 0.67578 0.074218 0.98438 0.61719 1.1367 0.68359 0.19531 1.3867 0.33984 2.0938 0.42578 1.1289 0.125 2.2656 0.17578 3.4141 0.25781h0.003906c0.14453 0.125 0.22656 0.30859 0.22266 0.5-0.007812 0.19141-0.097656 0.37109-0.25391 0.48828-0.76953 1.0156-1.1914 2.25-1.207 3.5273-0.25 1.918-0.22266 3.8672-0.44141 5.7891-0.23438 2.8945-1.1719 5.6875-2.7266 8.1367-1.0625 1.5039-2.457 2.7422-4.0742 3.6211-1.2305 0.65234-2.582 1.0352-3.9688 1.1289-1.6289 0.21094-3.25 0.47656-4.8789 0.69531-0.46094 0.050781-0.92188 0.074219-1.3867 0.070312-1.1758 0.007813-2.3555 0.015626-3.5312-0.011718v-0.003906c-0.4375-0.023438-0.83203 0.26562-0.94922 0.6875-0.44531 1.1758-0.83984 2.3672-1.2461 3.5586h-0.003907c-0.015625 0.125-0.027343 0.25-0.03125 0.375-0.085937 0.38672-0.22656 0.78516-0.69922 0.75781-0.50391-0.027344-0.67578-0.42969-0.73047-0.88672-0.16406-1.332-0.39062-2.6602-0.47656-3.9961l0.003907 0.003907c0.03125-0.64844-0.44141-1.2109-1.0859-1.2891-1.3281-0.36719-2.6484-0.78906-3.9375-1.2773-0.44141-0.16797-0.76172-0.63281-1.1758-0.89453v0.003906c-2.7578-1.6797-4.543-4.5781-4.8047-7.7969-0.35156-2.8008-0.20703-5.6406 0.42969-8.3867 0.68359-2.6992 0.9375-5.4883 0.75391-8.2695-0.003906-0.085937-0.015625-0.16797-0.019531-0.25391-0.023438-1.3164 0.32422-1.5859 1.5898-1.293v0.003906c0.55469 0.17578 1.1328 0.26953 1.7148 0.27734 1.4375-0.12109 2.6367-1.1562 2.957-2.5664 0.45313-1.4961 0.63672-3.0625 0.54297-4.625 0.019531-1.0859-0.65625-2.0625-1.6797-2.4297-1.1328-0.49219-1.1406-0.59375-0.47656-1.6445 0.35547-0.5625 0.75-1.1016 1.2734-1.8594-0.57422-0.019531-0.96484-0.03125-1.3516-0.050781-0.86719-0.042969-1.2227-0.29297-1.3008-0.91016h-0.003906c-0.0625-0.66016 0.39453-1.2617 1.0547-1.3711 0.375-0.082031 0.75391-0.14844 1.1328-0.19141 0.085937-0.48828 0.21094-1.0117 0.26953-1.543 0.55078-4.8945 3.3477-8.1016 7.5781-10.32l0.003906-0.003907c1.7695-0.89453 3.6953-1.4453 5.6719-1.6133 0.63672-0.019531 1.1875-0.45312 1.3555-1.0703 0.81641-2.0352 1.6211-4.0781 2.5195-6.0781 0.98828-2.1953 1.6523-4.5 2.4648-6.7539 0.88281-2.457 1.9375-4.8516 2.9141-7.2734 0.15234-0.37891 0.30469-0.76172 0.44531-1.1172-1.9883-1.2891-1.8086-2.1289-0.57812-2.8516 0.03125-1.8906 0.32812-2.2188 2.3984-2.543-0.29297-0.25391-0.53516-0.46484-0.77734-0.67188-0.42969-0.3125-0.71094-0.78516-0.78125-1.3125-0.070313-0.52344 0.078125-1.0547 0.41406-1.4648 1.543-1.918 4.3438-2.2344 6.2773-0.70703 0.69922 0.71094 0.92188 1.7656 0.57031 2.6992-0.17187 0.77734-0.48047 1.5273-0.75391 2.3789h-0.003906c0.80078 0.37109 1.2695 1.2148 1.168 2.0898-0.042969 0.61328-0.42578 1.1484-0.99219 1.3867 0 0.31641 0.027344 0.64844-0.003906 0.97656-0.019531 0.44531-0.25391 0.85547-0.63281 1.0938-0.375 0.23828-0.84375 0.27734-1.2539 0.10547-0.50391-0.17578-1.0156-0.33594-1.5859-0.52734h-0.003907c-1.168 3.1875-2.0938 6.4609-2.7656 9.7891-0.29297 1.4766-0.73047 2.9258-1.1367 4.3789-0.66406 2.3906-1.3672 4.7695-2.0273 7.1602-0.23438 0.85547-0.14844 0.90234 0.75 1.2188 1.7539 0.53906 3.4609 1.2266 5.1055 2.0469 1.4648 0.76953 2.7344 1.8633 3.7188 3.1914 1.4336 1.8086 2.582 3.8242 3.4141 5.9766 1.168 0 2.2891 0.007812 3.4141-0.003906 1.1367-0.011719 2.2773-0.050782 3.4141-0.054688l-0.003906 0.003906c0.83594 0.027344 1.5273 0.65625 1.6367 1.4844 0.03125 0.25391-0.042969 0.50781-0.20312 0.71094-0.16406 0.19922-0.39844 0.32812-0.65234 0.35156-0.50391 0.046875-1.0117 0.0625-1.5156 0.050781-1.7188 0.050782-3.4375 0.10547-5.1875 0.16016zm-16.008-11.598c-0.21094 0.40625-0.39844 0.82422-0.55859 1.2539-0.18359 0.60156-0.26562 1.2305-0.42969 1.8398-0.48438 1.7812-0.99219 3.5547-1.4727 5.332-0.0625 0.32422-0.10156 0.65625-0.11719 0.98828l0.31641 0.042969c0.65234-2.4961 1.3164-4.9883 1.9453-7.4922 0.13281-0.65625 0.23047-1.3164 0.29688-1.9805 0.17969-0.42188 0.35938-0.84375 0.53516-1.2656l-0.25391-0.078124c-0.085937 0.45312-0.17188 0.90625-0.26172 1.3594zm-6.3516 6.5742c-0.085937-0.37891-0.17578-0.76172-0.32422-1.4219-0.15625 0.6875-0.25 1.0977-0.34766 1.5352l0.69141-0.13672c-0.53125 0.99219-0.82031 2.0898-0.84375 3.2109 0.64844 0.21484 0.88281-0.089843 1.0312-0.62109 0.26172-0.92969 0.54688-1.8516 0.85938-2.7617 1.5391-4.4453 3.082-8.8906 4.6328-13.332 0.046875-0.19141 0.074218-0.38672 0.082031-0.58203-0.40625 0.47656-0.71484 1.0312-0.89844 1.6289-0.14844 1.1445-0.96484 2.0898-2.0742 2.4062 1.2734 0.62109 0.66797 1.2148 0.30469 1.8203l0.003906 0.003906c-0.13281 0.21484-0.23828 0.44141-0.32031 0.67969-0.79297 2.375-1.5703 4.7539-2.3711 7.125-0.058594 0.17578-0.28125 0.29688-0.42578 0.44531zm5.0938 5.4258c-0.48047 1.5742-0.48047 1.5508-1.9648 1.5312-0.32031 0.023438-0.62109 0.17578-0.83203 0.41797-0.20703 0.31641-0.36328 0.66406-0.45703 1.0312-0.93359 2.5898-1.1641 5.3359-1.7578 8.0039-0.22266 0.58203-0.070312 1.2422 0.39062 1.6641-0.058593-0.47656-0.09375-0.75781-0.12891-1.0352-0.035156-0.28516-0.074219-0.57422-0.11328-0.89062 0.30859-0.23438 0.63281-0.44922 0.96875-0.64062 0.38672-0.1875 0.83984-0.17969 1.2188 0.019531 0.37891 0.20312 0.63672 0.57422 0.69922 0.99609 0.027344 0.42188 0.027344 0.84375-0.003906 1.2656 0.003906 0.88672-0.023437 1.7734 0.039063 2.6562v-0.003906c0.03125 0.80469 0.35547 1.5703 0.91797 2.1445 0.41797 0.51953 0.67578 1.1523 0.73828 1.8164 0.14453 1.0195-0.44531 1.3828-1.3906 0.99609-1.0391-0.40234-1.8164-1.2852-2.082-2.3633-0.13281-0.46875-0.23828-0.94141-0.35937-1.4297l-1.4609 0.33984c-0.78906 1.5742-0.79688 3.3125-1.1445 4.8945 0.5 0.52734 1.3711 0.054687 1.5273 0.78125v-0.003906c-2.043 6.082-3.6523 12.301-4.8203 18.609 0.16406 0.050781 0.33203 0.089844 0.50391 0.11719 3.1914 0.30469 6.0312-0.96094 8.9258-1.9883 0.11719-0.050781 0.22266-0.11719 0.32031-0.19922 1.8008-1.4062 3.1641-3.293 3.9297-5.4453 0.59375-1.4375 0.50391-2.9844 0.78125-4.4727 0.16016-0.73828 0.23437-1.4922 0.21875-2.25-0.046876-1.3047-0.1875-2.6055-0.41016-3.8906-0.27344-1.0625-0.125-2.1914 0.41016-3.1523 0.027343-0.046875-0.03125-0.15234-0.042969-0.19531-0.76172-0.12109-1.5078-0.22266-2.25-0.35938v-0.003906c-0.77734-0.097656-1.3945-0.69531-1.5234-1.4688-0.24609-1.1211-0.21094-2.2812 0.10547-3.3828 0.54688-2.168 1.1484-4.293 2.8203-5.9727 0.75781-1 2.0859-1.3789 3.2539-0.92578 0.70703 0.25781 0.92969 0.070312 1.2227-0.67969 0.30469-0.78125 0.63281-1.5508 0.88281-2.3477 0.44141-1.3867 0.83594-2.7891 1.3125-4.4102-3.6133 0.078125-7.0039 0.15234-10.445 0.22656zm-21.754 14.738c0.125 0.50391 0.19922 1.0195 0.21875 1.5391-0.085938 1.7266-0.28516 3.4414-0.59766 5.1367-0.72656 3.168-1.043 6.418-0.94531 9.6641-0.027344 2.8984 1.5703 5.5625 4.1328 6.9102 1.8125 1.0703 3.75 1.918 5.7695 2.5195 0.30469 0.0625 0.61328 0.10156 0.92188 0.11719 0-0.51562 0.019531-0.92969-0.003907-1.3398-0.078124-1.3477-0.19922-2.6953-0.25781-4.043-0.09375-2.1484-0.10547-4.3008-0.23047-6.4453-0.13281-2.2734-0.33594-4.543-0.54688-6.8086-0.054687-0.58984 0.03125-0.95312 0.68359-1.125l0.003906-0.003906c0.34375-0.10156 0.63281-0.34766 0.78906-0.67188 0.75781-1.9844 0.81641-4.1641 0.17188-6.1836-0.12109-0.55859-0.18359-1.125-0.18359-1.6953l1.2227-0.3125c0.43359-0.71484 0.375-1.6289 1.1914-2.3945v2.2773-0.003907c0.71484-1.4922 1.1758-3.0938 1.3594-4.7383-0.67188 0.47266-0.55859 1.3086-1.4453 1.6406 0.10938-0.6875 0.15625-1.2188 0.28125-1.7305 0.36719-1.4727 0.78516-2.9297 1.1445-4.4023 0.09375-0.35938 0.085938-0.73438-0.015625-1.0898-0.17188-0.40625-0.38281-0.79688-0.63281-1.1602-1.0742 0-2.082-0.015625-3.0898 0.003906-0.96875 0.015625-1.9453 0.027344-2.9062 0.12109-0.45703 0-0.89453 0.16406-1.2383 0.46484-0.44141 0.72656-0.82031 1.4883-1.1406 2.2773 1.625 1.3633 1.9609 1.793 2.082 3.1875 0.22266 2.1172-0.18359 4.25-1.1641 6.1367-1.2266 2.2773-2.4844 2.6055-4.5742 2.2969-0.27734-0.039063-0.55469-0.078125-1-0.14453zm33.449 5.0352c-1.3359-0.26172-2.7266-0.58203-4.1328-0.79297l-0.003906-0.003906c-0.39453-0.11328-0.82031-0.058594-1.1758 0.14844-0.35938 0.20703-0.61328 0.55078-0.71484 0.95313-0.69922 1.5391-0.32031 3.1406-0.21484 4.7227 0.070312 1.0469 0.19922 2.0898 0.18359 3.1367h0.003906c-0.046875 0.92188-0.14844 1.8398-0.30078 2.75-0.070313 0.53906-0.15625 1.0781-0.26172 1.6094-0.37109 1.4258-0.93359 2.7969-1.6758 4.0742-0.875 1.8867-2.5 3.3281-4.4766 3.9766-0.28125 0.11719-0.55078 0.25391-0.80859 0.41406 0.35938 0.17188 0.76563 0.21484 1.1562 0.12891 1.8438-0.4375 3.6602-0.99219 5.4336-1.6602 1.1133-0.48828 2.0781-1.2578 2.8047-2.2344 1.9727-2.7617 3.0742-6.0508 3.1562-9.4453 0-1.1328 0.058594-2.2656 0.17578-3.3945 0.20312-1.4453 0.54688-2.8711 0.84766-4.3828zm-19.875-21.727c0.50781-1.2461 1-2.4453 1.4805-3.6523 0.98047-2.4609 1.9648-4.9219 2.9258-7.3906h-0.003907c0.097657-0.375 0.15234-0.75781 0.16797-1.1445-2.6367 0.11328-5.1875 0.96484-7.3633 2.4609-2.0234 1.4023-3.5977 3.3633-4.5312 5.6406-0.52734 1.3984-0.65625 2.9141-0.37891 4.3828zm10.918-11.324c-0.85547 3.6758-1.9531 7.1875-2.5977 10.902 0.56641 0.042969 0.98047 0.10547 1.3945 0.097657 0.83984-0.015625 1.6836-0.070313 2.5234-0.10156 1.8867-0.0625 3.7773-0.10156 5.6641-0.18359 1.1992-0.050781 1.3477-0.24609 1.3828-1.4492 0.027344-1.0938-0.16406-2.1836-0.57031-3.2031-0.53906-1.1875-1.2266-2.3008-2.0508-3.3125-1.3438-1.8086-3.4961-2.8398-5.75-2.75zm6.5859 22.395c-1.1289-0.32031-2.0703-0.52344-2.9648-0.85547-0.6875-0.26953-1.4688-0.078125-1.9531 0.47656-0.40625 0.36719-0.74609 0.80078-0.99609 1.2891-1.0234 1.8477-1.5977 3.9062-1.6797 6.0156 0.03125 1.6875 0.23828 2.0234 1.8828 2.0742 0.37891 0.011719 0.75781-0.003906 1.1328-0.042969 0.6875-0.039062 1.2734-0.51953 1.4453-1.1875 0.66406-1.9023 1.3906-3.7852 2.125-5.6641 0.25391-0.65234 0.60156-1.2695 1.0078-2.1055zm4.9141-0.09375c0.007813-0.25-0.011718-0.5-0.058594-0.74609-0.28906-0.89453-0.17969-1.8711 0.29688-2.6797 0.23828-0.49219 0.50391-0.97266 0.75391-1.4648v0.003906c0.59375-1.0781 0.83594-2.3164 0.6875-3.5352-0.10938-0.78906-0.21875-0.92188-1.0469-0.94531-1.0469-0.027343-2.0938-0.007812-3.1641-0.007812-0.96875 2.7656-1.8828 5.3789-2.8438 8.1133 1.7305 0.65234 3.5352 1.0781 5.375 1.2617zm-2.4375-52.176c0.19922-0.44922 0.36719-0.91406 0.50391-1.3867 0.28906-1.3125-0.19531-2.0273-1.5391-2.1953h0.003906c-0.66406-0.054688-1.332-0.042969-1.9922 0.035156-0.77734 0.058594-1.418 0.63281-1.5625 1.3984-0.058594 0.64062 0.32812 1.0195 1.3008 1.2695 0.97656 0.25 1.0859 0.49219 0.62891 1.4062-0.09375 0.1875-0.22656 0.35547-0.32031 0.54297-0.85156 1.6797-1.5586 3.4258-2.1094 5.2227l1.3516-0.074219c0.17969-0.52734 0.34766-0.95703 0.47266-1.4023l-0.003907 0.003906c0.33984-1.5508 0.98047-3.0195 1.8867-4.3242 0.48828-0.625 0.44141-0.66406 1.3789-0.49609zm-16.359 41.961-0.011719 0.32422c0.55469 0.078125 1.1133 0.12109 1.6758 0.13281 3.4141-0.10938 6.8242-0.25781 10.238-0.37109 2.7812-0.09375 5.5664-0.17188 8.3516-0.23828 2.1484-0.046874 4.2969-0.050781 6.4453-0.089843 0.49609-0.007813 1.1016 0.16406 1.3828-0.51562-0.62109-0.40625-1.3867-0.53125-2.1055-0.34766-2.4805 0.12891-4.9609 0.32031-7.4414 0.46094-1.0117 0.054687-2.0273 0.011719-3.0391 0.050781-3.875 0.14062-7.7461 0.28516-11.621 0.44141-1.293 0.046876-2.582 0.10156-3.875 0.15234zm19.66-1.625c-0.625-2.8281-3.6016-7.0234-5.2969-7.5625 1.6719 2.2109 2.5117 4.9375 2.3789 7.7031zm-23.523 14.961 0.41406 0.13281c0.51953-1.0938 0.89453-2.25 1.1211-3.4414 0.36719-1.25 0.73438-2.5 1.0273-3.7656 0.41406-1.1797 0.63672-2.4141 0.66797-3.6641-0.73047 0.21484-0.76953 0.71094-0.87891 1.1289-0.67969 2.5078-1.3594 5.0195-2.0039 7.5352-0.17578 0.67578-0.23438 1.3828-0.34766 2.0742zm4.7109-10.773c-0.26563 0.15625-0.47656 0.20312-0.52344 0.32031-1.2734 3.0781-1.7695 6.3711-2.6094 9.5703-0.058594 0.35938-0.089844 0.72266-0.089844 1.0859 0.82422-0.96875 3.3906-9.7695 3.2227-10.977zm0.98047-3.6367 0.34766 0.070312c0.78906-2.8242 1.6055-5.6406 2.4062-8.4648 0.8125-2.8711 1.6562-5.7344 2.4883-8.6016l-0.26953-0.078125c-1.6641 5.5039-3.3281 11.004-4.9883 16.508l-0.007812 0.007813c-0.019531 0.1875-0.015625 0.375 0.023437 0.5625zm-2.7656 17.332c0.074219-1.418-0.15234-1.6992-1.3164-1.7266-0.88281-0.019531-1.7656 0-2.6445-0.011718-0.48047-0.007813-0.83203 0.12109-0.86328 0.67187-0.035156 0.21484 0.027344 0.42969 0.17188 0.58984 0.14453 0.16406 0.35156 0.25 0.56641 0.23438 1.332 0.089844 2.6641 0.16016 4.0859 0.24219zm5.3633-28.805-0.30859-0.10156h0.003906c-1.4844 3.7891-2.7734 7.6523-3.8633 11.574 0.79297 0.054687 0.73438-0.50391 0.83984-0.84766 0.55859-1.8008 1.0547-3.625 1.6172-5.4258 0.54297-1.7422 1.1406-3.4688 1.7148-5.1992zm-17.117 13.418 11.492-0.33203c-1.0312-0.55469-8.7969-0.30859-11.492 0.33203zm9.2188 16.852c-1.0195 0.80078-1.6328 3.7656-1.125 4.9609 0.12109-0.10156 0.20312-0.25 0.22266-0.41016 0.30469-1.5156 0.60547-3.0312 0.90234-4.5508zm-0.019531 4.8633 0.41406 0.066406c0.32422-1.6602 0.64844-3.3203 0.97266-4.9805l-0.26953-0.058593h0.003907c-0.52734 1.6172-0.90234 3.2852-1.1172 4.9727zm-2.0195-5.1016c-0.125 0.80859-0.26172 1.6133-0.37109 2.4258-0.10547 0.78125-0.65625 1.4961-0.42969 2.4648 0.77344-1.5039 1.0547-3.2148 0.80078-4.8906zm2.3398-10.672v0.003906c0.53125-1.2109 0.83203-2.5117 0.88281-3.832-0.53125 1.2109-0.83203 2.5117-0.88281 3.832zm1.1016-5.4219 0.019531 0.16406h4.9648v-0.16406zm3.4336 13.223c0.14844-0.5 0.25-1.0078 0.30859-1.5234 0.003906-0.21484-0.25-0.4375-0.38672-0.65625-0.12891 0.21875-0.37891 0.44922-0.35938 0.64844v0.003906c0.10547 0.51953 0.25 1.0312 0.4375 1.5273zm1.832 5.1602c-0.38281-0.48047-0.61328-0.75391-0.82422-1.0391-0.21484-0.28906-0.41016-0.59766-0.76562-1.1211 0.30859 1.4531 0.33203 1.4883 1.5898 2.1602zm2.3203-38.957c0.26953-0.42969 0.62891-0.67969 0.44141-1.2812-0.625 0.23438-0.69141 0.61719-0.44141 1.2812zm1.9336-4.6875-0.28516-0.078124c-0.09375 0.41016-0.19141 0.82031-0.28516 1.2305l0.14844 0.039063z" fill="#fff"/>
 <path d="m39.016 60.426c-0.19531 0.40625-0.42969 0.79688-0.70312 1.1602-0.71094 0.78125-1.2422 1.707-1.5586 2.7188-0.47656 1.4609-1.5312 2.6641-2.918 3.3242-0.52344 0.31641-1.1953 0.21484-1.6016-0.23828-0.22266-0.17188-0.36328-0.42578-0.38672-0.70703-0.027344-0.27734 0.0625-0.55859 0.25-0.76562 0.35938-0.50781 0.8125-0.94531 1.3359-1.2852 0.87109-0.44141 1.5312-1.2148 1.832-2.1445 0.28906-0.79297 0.5625-1.5938 0.92578-2.3516h-0.003906c0.14062-0.42969 0.47656-0.76562 0.90625-0.90625s0.90234-0.070313 1.2695 0.19531c0.26562 0.29688 0.48828 0.63281 0.65234 1zm-5.8906 6.1641c0.84766-0.15234 1.5664-0.71875 1.9141-1.5078-0.70312 0.42969-1.7344 0.38281-1.9141 1.5078zm4.457-5.9844-0.33984-0.20703-0.69531 1.3008 0.25 0.14453c0.26172-0.41016 0.52344-0.82422 0.78516-1.2383z" fill="#fff"/>
</svg>
