<?xml version="1.0" encoding="UTF-8"?>
<svg viewBox="0 0 100 100" xmlns="http://www.w3.org/2000/svg">
 <rect x="-10" y="-10" width="120" height="120"/>
 <path d="m79.484 21.668s-0.37109 0.41797-0.67578 0.92188c0.19922 0.27344 0.30469 0.58594 0.097656 0.92188-0.027344 0.039062-0.070312 0.085937-0.11719 0.13672l0.51172 0.51953s-0.45703 0.45312-0.69141 0.58984c-0.17578 0.10156-0.28906 0.10547-0.46875 0.058594-0.22656-0.058594-0.41797-0.18359-0.59375-0.33984-0.24219 0.24219-0.4375 0.42969-0.4375 0.42969l-0.19531-0.19141-1.3242 1.4805c0.003906 0.003907 0.007812 0.003907 0.007812 0.007813l1.3633 1.3828 0.13281-0.12891c0.44141-0.42188 0.69922-0.13672 1.125 0.29688s0.4375 1.0312 0.003906 1.457l-0.25 0.24609c-0.43359 0.42969-0.98828 0.42188-1.418-0.007812-0.42578-0.43359-0.76172-0.75-0.32031-1.1719l0.10547-0.10156-1.3242-1.3438-1.4336 1.6016c0.015625 0.015625 0.03125 0.023437 0.042969 0.039062l1.3633 1.3828 0.13281-0.12891c0.44141-0.42187 0.69922-0.13672 1.125 0.29688 0.42969 0.43359 0.4375 1.0312 0.003906 1.457l-0.25 0.24609c-0.43359 0.42969-0.98828 0.42188-1.418-0.007812-0.42969-0.43359-0.76172-0.75-0.32031-1.1719l0.10547-0.10156-1.3516-1.375-0.003906-0.003906-0.039063 0.042969-10.277 10.801c2.5703 3.6836 2.5273 8.5898-0.21094 11.031-1.3008 1.1602-2.7852 2-4.2461 2.6758-0.40625 0.1875-0.16406 1.1016-0.57031 1.2969-0.15625 0.074219-0.34375 0.28906-0.55859 0.13281-0.39844-0.28906-0.30078-0.88281-1.0781-0.87891-1.9922 0.007812-3.0039 1.3672-4 2.5664-1.3945 1.6797-2.1055 3.5273 0.058594 5.6758 0.011718 0.28516-0.019532 0.67969-0.38672 0.79688-0.34375 0.11328-0.71094 0.36328-0.99219 0.58203-0.34375 0.26563-0.77734 1.2578-0.84766 1.4023-2.2188 4.75-4.6797 6.4531-9.7188 5.957-2.3242-0.22656-4.5195-1.2266-6.3438-2.7109-0.019531 0.03125-0.039062 0.066406-0.066406 0.09375-0.15234 0.14844-0.39453 0.14844-0.54297-0.003906l-0.75391-0.76172-10.52 10.367 0.15625 0.15625-0.94141 0.92578-0.61719-0.625 0.94141-0.92578 0.15625 0.15625 10.52-10.367-0.90625-0.92188c-0.14844-0.15234-0.14844-0.39453 0.003907-0.54297 0.027343-0.027343 0.058593-0.046875 0.09375-0.066406-1.4648-1.8516-2.4336-4.0625-2.6289-6.3984-0.42187-5.0469 1.3164-7.4805 6.0977-9.6289 0.14453-0.066406 1.1445-0.48828 1.4141-0.82422 0.22266-0.27734 0.48047-0.64062 0.59766-0.98437 0.125-0.36719 0.51953-0.39063 0.80469-0.375 2.1172 2.1953 3.9727 1.5117 5.6719 0.14062 1.2109-0.97656 2.582-1.9648 2.6211-3.9609 0.015625-0.77344-0.57812-0.6875-0.86328-1.0898-0.15234-0.21484 0.0625-0.40234 0.14063-0.55469 0.20312-0.40234 1.1133-0.14453 1.3047-0.55078 0.69531-1.4492 1.5586-2.9219 2.7383-4.207 2.4609-2.6836 7.3125-2.6758 10.949-0.10938l12.215-11.379-1.2891-1.3086-0.10156 0.10547c-0.24609 0.23047-0.30859-0.51953-0.73438-0.95312s-0.85547-0.375-0.42188-0.80078l0.25-0.24609c0.39844-0.35547 0.42188-0.21094 0.89062 0.44531 0.35156 0.43359 1.0938 0.53516 0.84766 0.70703l-0.12891 0.13281 1.3164 1.3359 1.2227-1.1406-1.2852-1.3047-0.10156 0.10547c-0.24609 0.23047-0.30859-0.51953-0.73437-0.95312-0.42969-0.43359-0.85156-0.375-0.42188-0.80078l0.25-0.24609c0.39844-0.35547 0.42188-0.21094 0.89063 0.44531 0.35156 0.43359 1.0938 0.53516 0.84766 0.70703l-0.12891 0.13281 1.3125 1.332 0.51953-0.48437-0.17578-0.17578s0.21875-0.21875 0.50781-0.48438c-0.12891-0.17969-0.23828-0.37109-0.28906-0.58984-0.050782-0.21484-0.085938-0.32422 0.035156-0.52344 0.125-0.20312 0.57812-0.57031 0.57812-0.57031l0.57812 0.58984c0.066406-0.058593 0.13281-0.11328 0.18359-0.15234 0.34375-0.24219 0.58984-0.13281 0.83203 0.089843 0.51562-0.25391 0.94922-0.60547 0.94922-0.60547s0.046874 0.26563 0.125 0.33984c0.082031 0.082032 0.35937 0.13672 0.35937 0.13672s0.027344 0.24609 0.097657 0.3125c0.070312 0.066406 0.32031 0.09375 0.32031 0.09375zm-37.203 36.02c-0.71094-0.71094-2.5938-1.457-2.5938-1.457s-1.7422 3.9102-3.1172 5.7109c-1.1367 1.4844-3.5234 3.5352-4.4961 4.3516l1.2461 1.2656c0.87109-0.9375 3.125-3.293 4.7227-4.3789 1.8516-1.2539 5.8164-2.7969 5.8164-2.7969s-0.8125-1.9297-1.5742-2.6953z" fill="#fff"/>
</svg>
