<?xml version="1.0" encoding="UTF-8"?>
<svg viewBox="0 0 100 100" xmlns="http://www.w3.org/2000/svg">
 <rect x="-10" y="-10" width="120" height="120"/>
 <path d="m47.617 34.852h-13.094c-0.65625 0-1.1914 0.53516-1.1914 1.1914s0.53516 1.1914 1.1914 1.1914v4.7617h1.1914c1.6055 0 2.9531 1.0781 3.3984 2.5391 2.4258-1.8711 5.3281-3.1406 8.5-3.5664v-3.7422c0.65625 0 1.1914-0.53516 1.1914-1.1914s-0.53516-1.1914-1.1914-1.1914z" fill="#fff"/>
 <path d="m60.883 44.535c0.44922-1.4609 1.7969-2.5391 3.3984-2.5391h1.1914v-4.7617c0.65625 0 1.1914-0.53516 1.1914-1.1914s-0.53516-1.1914-1.1914-1.1914h-13.094c-0.65625 0-1.1914 0.53516-1.1914 1.1914s0.53516 1.1914 1.1914 1.1914v3.7422c3.1719 0.42188 6.0781 1.6953 8.5 3.5664z" fill="#fff"/>
 <path d="m66.668 52.293v-7.918h-2.3828c-0.65625 0-1.1914 0.53516-1.1914 1.1914s0.53516 1.1914 1.1914 1.1914v1.2031c0.98828 1.3164 1.7812 2.7773 2.3828 4.332z" fill="#fff"/>
 <path d="m77.383 56.277v-9.5234c0.65625 0 1.1914-0.53516 1.1914-1.1914s-0.53516-1.1914-1.1914-1.1914h-3.5703v14.289h3.5703c0.65625 0 1.1914-0.53516 1.1914-1.1914s-0.53516-1.1914-1.1914-1.1914z" fill="#fff"/>
 <path d="m35.711 44.375h-2.3828v7.918c0.59766-1.5547 1.3984-3.0156 2.3828-4.332v-1.2031c0.65625 0 1.1914-0.53516 1.1914-1.1914s-0.53516-1.1914-1.1914-1.1914z" fill="#fff"/>
 <path d="m26.188 44.375h-3.5703c-0.65625 0-1.1914 0.53516-1.1914 1.1914s0.53516 1.1914 1.1914 1.1914v9.5234c-0.65625 0-1.1914 0.53516-1.1914 1.1914s0.53516 1.1914 1.1914 1.1914h3.5703z" fill="#fff"/>
 <path d="m78.574 31.277c0-1.2031-3.1133-2.1914-7.1484-2.3555v-1.2148c0-0.65625-0.53516-1.1914-1.1914-1.1914s-1.1914 0.53516-1.1914 1.1914v1.2148c-4.0352 0.16406-7.1484 1.1523-7.1484 2.3555s3.1055 2.1836 7.1406 2.3555v31.676l-4.4141 4.4141c-0.46484 0.46484-0.46484 1.2148 0 1.6836 0.46484 0.46484 1.2148 0.46484 1.6836 0l2.7266-2.7266v1.8906c0 0.65625 0.53516 1.1914 1.1914 1.1914s1.1914-0.53516 1.1914-1.1914v-1.8906l2.7266 2.7266c0.23438 0.23438 0.53516 0.34766 0.84375 0.34766s0.60938-0.12109 0.84375-0.34766c0.46484-0.46484 0.46484-1.2148 0-1.6836l-4.4141-4.4141 0.003907-31.676c4.0352-0.16406 7.1406-1.1523 7.1406-2.3555z" fill="#fff"/>
 <path d="m38.098 31.277c0-1.2031-3.1133-2.1914-7.1484-2.3555v-1.2148c0-0.65625-0.53516-1.1914-1.1914-1.1914s-1.1914 0.53516-1.1914 1.1914v1.2148c-4.0352 0.16406-7.1484 1.1523-7.1484 2.3555s3.1055 2.1836 7.1406 2.3555v31.676l-4.4141 4.4141c-0.46484 0.46484-0.46484 1.2148 0 1.6836 0.46484 0.46484 1.2148 0.46484 1.6836 0l2.7266-2.7266v1.8906c0 0.65625 0.53516 1.1914 1.1914 1.1914s1.1914-0.53516 1.1914-1.1914v-1.8906l2.7266 2.7266c0.23438 0.23438 0.53516 0.34766 0.84375 0.34766 0.30859 0 0.60938-0.12109 0.84375-0.34766 0.46484-0.46484 0.46484-1.2148 0-1.6836l-4.4141-4.4141 0.003906-31.676c4.0352-0.16406 7.1406-1.1523 7.1406-2.3555z" fill="#fff"/>
 <path d="m50 43.188c-8.5352 0-15.477 6.9414-15.477 15.477 0 8.5391 6.9414 15.477 15.477 15.477 8.5391 0 15.477-6.9414 15.477-15.477 0-8.5391-6.9414-15.477-15.477-15.477zm5.3594 23.812c-1.6445 0-2.9805-1.3359-2.9805-2.9805s1.3359-2.9805 2.9805-2.9805 2.9805 1.3359 2.9805 2.9805-1.3359 2.9805-2.9805 2.9805z" fill="#fff"/>
</svg>
