<?xml version="1.0" encoding="UTF-8"?>
<svg width="100pt" height="100pt" version="1.1" viewBox="0 0 100 100" xmlns="http://www.w3.org/2000/svg">
 <path d="m32.645 74.371c-1.5781-1.543-3.9414 0.93359-2.3711 2.4766 1.6094 1.582 3.9766-0.91016 2.3711-2.4766zm-1.793 0.60547c0.78906-0.82031 2.0703 0.39063 1.2578 1.2109-0.77344 0.78125-2-0.43359-1.2578-1.2109z" fill="#fff"/>
 <path d="m31.352 81.055c-1.4219 1.6211 1.0039 3.8945 2.5234 2.375 1.6367-1.6367-0.99609-4.1133-2.5234-2.375zm0.73047 1.7188c-0.75391-0.73047 0.25-1.957 1.1055-1.2891 0.98438 0.76562-0.21875 2.1445-1.1055 1.2891z" fill="#fff"/>
 <path d="m31.684 86.754c-1.6523 1.6641 1.1367 4.0469 2.5547 2.207 1.293-1.6797-1.0547-3.7188-2.5547-2.207zm0.58594 1.7383c-0.78125-0.77734 0.38672-2.0156 1.1992-1.2305 0.89062 0.85938-0.33594 2.0938-1.1992 1.2305z" fill="#fff"/>
 <path d="m37.285 75.992c-0.25391 0.39453-0.10547 0.84375-0.17188 1.3008-0.71094 0.61719-0.71094 0.70312-0.027343 1.5195 0 0.50391-0.21094 1.0352 0.13281 1.5547 0.52344-0.73828 0.54297-4 0.066406-4.375z" fill="#fff"/>
 <path d="m84.395 12.246c1.0547 1.0195 2.3633-0.59375 1.4727-1.6133-1.0508-1.1992-2.582 0.54688-1.4727 1.6133zm1.0273-1.3281c0.42969 0.29688 0.17578 0.82422-0.29297 0.86328 0.078125-0.25781 0.33594-0.37109 0.24219-0.625-0.32812-0.23047-0.45703 0.11328-0.66016 0.32812-0.14453-0.46875 0.25391-0.88672 0.71094-0.56641z" fill="#fff"/>
 <path d="m93.836 8.2031c1.0273 1.043 2.5703-0.52344 1.5234-1.5781-1.0273-1.043-2.5039 0.58203-1.5234 1.5781zm1-1.3438c0.48437 0.15625 0.39844 0.82812-0.03125 0.98047-0.11328-0.25391 0.28906-0.42969 0.03125-0.68359-0.37109-0.11719-0.36719 0.28516-0.57813 0.52344-0.16406-0.38672 0.066407-0.98828 0.57813-0.82031z" fill="#fff"/>
 <path d="m90.582 9.6953c1.0586 1.0703 2.5039-0.63281 1.4766-1.6602-1.0859-1.0898-2.4766 0.65234-1.4766 1.6602zm1.1367-1.2695c0.32031 0.32031 0.085938 0.85547-0.36328 0.83984-0.082031-0.32422 0.26562-0.4375 0.20703-0.69531-0.30078-0.19141-0.42188 0.20703-0.69922 0.19922 0.027344-0.4375 0.53906-0.65625 0.85547-0.34375z" fill="#fff"/>
 <path d="m27.094 89.508c0.16016-0.60156 0.23047-1.2344 0.24609-1.8555 0.011718-0.50391 0.11328-1.4688-0.21875-1.8828-0.60547-0.75781-2.4453-0.23438-3.1211 0.15234 0.042969 1.3008 0.32812 2.5859 0.94141 3.7383 0.66406 1.2422 1.793 1.1914 2.1523-0.15234zm-0.45312-2.9688c0.011719 1.2188 0.003906 2.332-0.35156 3.418-0.41016-0.96875-0.42187-2.0273-0.875-3 0.38281-0.14844 0.81641-0.097656 1.2266-0.41797zm-1.0078 3.0586c-0.58203-0.78906-0.66406-1.7773-1.0938-2.6875 0.61719 0.10156 0.90234 0.83594 1.0938 2.6875z" fill="#fff"/>
 <path d="m38.598 88.645c2.2031-3.8242 2.8516-8.3398 5.0312-12.172 1.1445-2.0117 2.8242-3.418 4.9062-4.3906 1.9922-0.92969 4.0625-1.7188 5.9414-2.8672 1.7148-1.0508 3.3164-2.4336 4.4141-4.1367 0.89062-1.3828 1.7812-3.5781 1.0625-5.2031-0.76172-1.7266-2.9141-1.3281-4.2812-0.66016-1.7773 0.87109-3.3008 2.0234-5.3672 2.0664-1.6797 0.035156-3.3242-0.64453-4.3008-2.0469-0.41797-0.60156-0.97656-1.625-0.84375-2.3828 0.15234-0.87109 1.4727-1.7617 2.0664-2.3711 6.5938-6.7461 13.148-13.523 19.711-20.297 3.3281-3.4375 6.6562-6.875 9.9766-10.32 1.4766-1.5312 2.8242-3.1055 4.8594-3.8906 1.8164-0.69922 4.1484-0.59375 5.7734-1.7031 0.85938-0.58594 1.4961-1.5273 2.0625-2.3828 0.58594-0.88672 0.94531-2.0195 1.6406-2.8164 1.3477-1.5469 3.9375-1.1133 5.6289-2.0898 1.4805-0.85547 2.1719-2.7461 1.5703-4.3594-0.28125-0.75781-0.86719-1.3789-1.6133-1.6953-0.37891-0.16016-0.79297-0.23828-1.2031-0.23438-0.31641 0-0.82422 0.23047-1.1055 0.10547 0.12109-0.92188-0.5625-2.125-1.625-1.4336-0.95703 0.62109-0.42969 1.5547 0.28516 2.0391-0.57812 0.24219-1.0664 0.52344-1.6367 0.58984-0.0625-0.87891-0.66406-2.0664-1.7344-1.3438-0.96094 0.64844-0.30469 1.5391 0.35156 2.0312-0.57422 0.21875-1.1172 0.42578-1.6836 0.64062 0.007813-0.87109-0.29688-1.957-1.4258-1.5938-0.44531 0.14453-0.72656 0.57031-0.74609 1.0273-0.027344 0.68359 0.44922 0.74609 0.83984 1.1445-0.57422 0.22656-1.0586 0.5-1.6211 0.61328 0.070312-0.91797-0.46484-2.1758-1.6055-1.4805-1.0273 0.62891-0.36719 1.5195 0.31641 2.0469-0.55469 0.24219-1.1133 0.48047-1.6719 0.71484 0.015626-0.89844-0.46875-2.0781-1.5898-1.4922-1.0312 0.53906-0.5625 1.5664 0.20312 2.0391-0.54688 0.28125-1.082 0.51953-1.6719 0.66797 0.11328-0.88672-0.375-2.0625-1.4766-1.5508-0.375 0.17188-0.625 0.58203-0.61328 0.99219 0.015625 0.56641 0.48828 0.76172 0.82422 1.1211-0.98047 0.40234-2.4492 0.6875-2.6992 1.9023-0.21484 1.0508 0.29297 2.1445-0.29688 3.1289-0.57812 0.97266-1.7305 1.7773-2.5391 2.5547-1.0352 0.99609-2.0703 1.9961-3.1016 2.9961-7.2188 6.9961-14.434 14.004-21.648 21.004-0.91406 0.88672-1.8281 1.7773-2.7422 2.6641-0.58984 0.57422-1.1953 1.3242-2.0938 1.332-1.7305 0.011718-3.3281-1.9492-3.6914-3.4844-0.50781-2.1328 0.48047-4.1836 1.6797-5.8945 1.0508-1.5 2.8633-3.1016 2.6953-5.0977 0.42188-0.085937 0.50391 0.35938 0.89844 0.32031 0.23438-0.48438-0.12891-1.4492-0.53125-1.793-0.69922-0.59375-0.44141 0.5-0.78906 0.74219-1.043-1.2734-2.5508-1.2148-4.0078-0.8125-4.1875 1.1602-7.2266 5.168-9.457 8.6484-2.3477 3.6602-3.918 8.0469-7.457 10.781-1.7461 1.3477-3.8047 2.2148-5.7891 3.1445-1.9141 0.89453-3.8398 1.7773-5.7031 2.7812-3.3477 1.8047-6.6641 4.1406-8.4062 7.6289-1.5391 3.0859-1.5352 6.668-0.53906 9.9219 1.2383 4.043 3.9688 7.2656 6.8594 10.25 1.6797 1.7305 3.418 3.4023 5.1367 5.0938 1.6172 1.5898 3.2344 3.1875 5.0625 4.5352 2.9297 2.1641 6.4219 3.7539 10.062 2.4805 3.9102-1.3789 7.375-4.1562 9.4492-7.7539zm2.125-27.637c0.050782 0.14844 0.027344 0.3125-0.058594 0.44141-0.070312 0.10547-0.15234 0.19531-0.25391 0.26172-0.19531 0.125-0.44922 0.085937-0.625-0.066407-0.10156-0.085937-0.18359-0.19531-0.23438-0.3125 0.25-0.28906 0.47656-0.51953 0.75391-0.74609 0.22656 0.089843 0.35156 0.23828 0.41797 0.42187zm-14.422 17.266c-0.39453 0.59375-0.94531 1.0391-1.5 1.5664-2.6445-2.6289-5.2656-5.2305-7.8828-7.832 0.050781-0.050781 0.097656-0.10156 0.14844-0.15234 2.5312 2.5156 5.0625 5.0273 7.5938 7.543 0.46875-0.17969 0.60938-0.42969 0.77734-0.61719-0.011719-0.32422-0.15234-0.53125-0.35156-0.67969-0.1875-0.11719-0.26953 0.15234-0.44922 0.070313-0.14062-0.13672-0.29297-0.28906-0.45703-0.45312 0.55078-0.84375 1.4609-1.3164 2.1406-2.0312-0.15625-0.23047-0.27344-0.40625-0.40234-0.59766 0.12109-0.17969 0.25-0.31641 0.41797-0.47266 0.35937 0.24609 0.63281 0.53516 0.89062 0.91797-0.57812 0.58203-1.1406 1.1445-1.6914 1.6992 0.10938 0.47656 0.53516 0.66016 0.76562 1.0391zm-4.1562-7.8633c-0.26562 0.22656-0.33984 0.30078-0.56641 0.39453-0.49609-0.19141-0.66016-0.80469-1.3242-0.99609-0.69141 0.5-1.2266 1.2773-1.9062 1.9102-0.17969 0.019531-0.27734-0.066406-0.32422-0.28906 0.78516-0.88281 1.6523-1.7227 2.5508-2.5742 0.54688 0.53906 1.0625 1.0508 1.5703 1.5547zm2.1836-3.7891c-0.45703-0.62891 0.35156-1.2266 0.875-0.78516-0.30469 0.27344-0.58203 0.52344-0.875 0.78516zm4.3867-4.2227c-0.34375-0.48047-0.19531-0.67578-0.019532-0.90234 0.19141-0.24219 0.54688-0.27344 0.77344-0.0625 0.035156 0.03125 0.066406 0.0625 0.10156 0.097656-0.31641 0.28125-0.58203 0.62891-0.85547 0.86719zm5.9531-5.875c-0.56641-0.58203 0.25781-1.4258 0.8125-0.81641-0.26172 0.26172-0.51953 0.52344-0.8125 0.81641zm-14.988 16.574c-0.20703-0.078125-0.28906-0.16797-0.31641-0.36328 0.40625-0.34766 0.83984-0.71094 1.4023-1.1914-0.17969 0.79688-0.86328 1-1.0859 1.5547zm-0.60156-0.55078c-0.12891-0.44141 0.41016-1.0781 1.1484-1.3828-0.24219 0.61719-0.73437 0.94922-1.1484 1.3828zm-0.46094-0.52734c0.25-0.52734 0.66016-0.90625 1.1562-1.207-0.22656 0.55078-0.66016 0.91016-1.1562 1.207zm54.32-46.484c-1.0039 1.0078-1.9883 2-2.9648 2.9844-0.23828-0.10547-0.38281-0.25391-0.49609-0.48438 0.98438-0.98828 1.9688-1.9805 2.9844-3.0039 0.23828 0.14844 0.37891 0.30078 0.47656 0.50391zm0.13672-1.0977c1.0547-1.0586 2.0547-2.0664 3.0469-3.0664 0.25 0.089844 0.38672 0.24219 0.48438 0.49219-0.97656 0.98438-1.9648 1.9766-2.9766 2.9961-0.25 0.011719-0.35547-0.21875-0.55469-0.42188zm-3.7539 4.6836c-0.94922 0.95703-1.9062 1.918-2.8867 2.9062-0.19141-0.1875-0.32422-0.32422-0.48047-0.47656 0.96875-0.97656 1.9258-1.9375 2.8672-2.8867 0.24219 0.10156 0.35156 0.26172 0.5 0.45703zm-18.02 18.102c-0.26562-0.078125-0.40234-0.26172-0.55078-0.49219 0.42188-0.42578 0.84375-0.84766 1.3047-1.3125 0.17578 0.17578 0.32422 0.32422 0.49609 0.49219-0.35547 0.51562-0.8125 0.90234-1.25 1.3125zm14.535-14.617c-0.81641 0.82031-1.6172 1.6289-2.4297 2.4453-0.26172-0.046875-0.38672-0.23828-0.51562-0.47656 0.80078-0.80859 1.6055-1.6133 2.4453-2.4609 0.19531 0.19141 0.33203 0.32422 0.5 0.49219zm-3.1172 3.1133c-0.79688 0.80078-1.6016 1.6094-2.4141 2.4297-0.25-0.03125-0.37109-0.23828-0.53125-0.46094 0.81641-0.82031 1.6328-1.6406 2.4336-2.4492 0.27734 0.066407 0.38672 0.24609 0.51172 0.48047zm-3.0664 3.0898c-0.64453 0.64844-1.2891 1.3008-1.9648 1.9805-0.22266-0.16406-0.39062-0.29297-0.5-0.53516 0.63672-0.64062 1.2812-1.293 1.9297-1.9414 0.25781 0.078125 0.39453 0.26172 0.53516 0.49609zm-2.6094 2.6172c-0.5625 0.56641-1.1328 1.1406-1.7148 1.7227-0.25391-0.050782-0.375-0.25781-0.54688-0.47656 0.58594-0.58984 1.168-1.1758 1.7891-1.8008 0.20703 0.16797 0.37891 0.29688 0.47266 0.55469zm-2.3398 2.3633c-0.53125 0.53516-1.0078 1.0156-1.4883 1.5-0.26172-0.089843-0.39844-0.27734-0.55859-0.5 0.49219-0.49609 0.98438-0.99219 1.4961-1.5039 0.24609 0.074219 0.36328 0.27734 0.55078 0.50391zm-4.0625 4.0703c-0.4375 0.44141-0.84375 0.84766-1.2617 1.2695-0.19141-0.1875-0.36719-0.36328-0.5625-0.55859 0.34375-0.51172 0.80859-0.85937 1.2422-1.2344 0.27344 0.066406 0.38672 0.28516 0.58203 0.52344zm-2.4922 1.3359c0.30859 0.054688 0.44141 0.27344 0.60547 0.51563-0.28906 0.45703-0.71094 0.78516-1.1133 1.1719-0.29688-0.15625-0.48828-0.32031-0.57031-0.61719 0.31641-0.39453 0.67969-0.75 1.0781-1.0703zm-1.8047 1.7617c0.30469 0.082031 0.41797 0.32812 0.62891 0.50391-0.24219 0.44141-0.60938 0.72266-0.95312 1.0273-0.26953-0.13281-0.4375-0.31641-0.58594-0.56641 0.23828-0.38281 0.58594-0.66016 0.91016-0.96484zm-1.5664 1.5664c0.26562 0.14062 0.43359 0.32812 0.58594 0.55859-0.1875 0.37109-0.50781 0.60156-0.80859 0.85547-0.28125-0.11719-0.44141-0.30469-0.58984-0.55078 0.21094-0.34766 0.51172-0.60547 0.8125-0.86328zm-1.6016 2.8359c-0.26953-0.058594-0.38672-0.26172-0.55859-0.48828 0.24609-0.27734 0.49219-0.55469 0.74609-0.83984 0.23438 0.12109 0.39844 0.30859 0.54688 0.53906-0.17969 0.32422-0.47266 0.53906-0.73438 0.78906zm-0.70312 0.67188c-0.48047 0.48438-0.95312 0.96094-1.4531 1.4609-0.19922-0.19531-0.38672-0.38672-0.60547-0.60156 0.40234-0.57422 0.93359-0.99219 1.4297-1.4883 0.23047 0.23438 0.41016 0.41406 0.62891 0.62891zm-2.2539 2.207c-0.16016 0.19141-0.28125 0.34766-0.47656 0.53125-0.27344-0.21484-0.47266-0.41406-0.66797-0.64844 0.16797-0.17188 0.28125-0.30469 0.51562-0.50781 0.20312 0.19922 0.40625 0.40234 0.62891 0.625zm-1.1055 1.1016c-0.27734 0.30078-0.49609 0.57812-0.80859 0.83984-0.22656-0.22266-0.42188-0.41797-0.66406-0.66016 0.28516-0.28516 0.53906-0.54297 0.82031-0.82812 0.22266 0.22266 0.42969 0.42578 0.65234 0.64844zm-1.3867 1.3359c-1.3047 1.3125-2.6055 2.625-3.918 3.9453-0.20703-0.16406-0.39844-0.36719-0.62891-0.59375 1.3086-1.3164 2.6133-2.6289 3.9336-3.9609 0.21094 0.21094 0.39453 0.39062 0.61328 0.60938zm-4.5039 4.5469c-0.26172 0.29688-0.52344 0.55859-0.80078 0.79688-0.28125-0.19922-0.46094-0.40234-0.66016-0.62891 0.22656-0.25391 0.52344-0.50781 0.79688-0.79297 0.23438 0.17578 0.4375 0.41406 0.66406 0.625zm-6.5547 5.207c0.32031-0.32813 0.65234-0.67578 0.98438-0.99219 0.21094 0.33203 0.35156 0.55859 0.50391 0.88672-0.30078 0.30469-0.63672 0.63672-0.92578 0.92578-0.23828-0.30469-0.35938-0.55469-0.5625-0.82031zm0.0625 1.3164c-0.39844 0.39844-0.82422 0.81641-1.2031 1.1953-0.28906-0.25391-0.44141-0.44531-0.69141-0.6875 0.44141-0.46875 0.83984-0.90625 1.3438-1.3945 0.20703 0.33594 0.375 0.60156 0.55078 0.88672zm1.4219-2.7812c1.0234-1.0312 2.0742-2.082 3.0664-3.082 0.25391 0.25391 0.42969 0.42578 0.66797 0.65625-1.0703 1.0742-2.1289 2.1445-3.2266 3.2461-0.20703-0.29688-0.375-0.55859-0.50781-0.82031zm44.664-44.871c-0.25391-0.085938-0.39062-0.20703-0.46875-0.43359 1.0078-1.0117 2.0195-2.0312 3.0234-3.043 0.23438 0.089843 0.35156 0.23047 0.45703 0.44922-1 1-1.9961 2.0039-3.0117 3.0273zm-0.66797 0.65234c-0.98438 0.99219-1.9727 1.9844-2.9766 2.9961-0.24609-0.13281-0.39062-0.25781-0.48828-0.47656 0.97656-0.98438 1.9648-1.9766 2.9336-2.9531 0.28906 0.042969 0.39844 0.22266 0.53125 0.43359zm-3.6758 3.6406c-0.92188 0.92969-1.8555 1.8672-2.7734 2.7891-0.28125-0.074219-0.42188-0.21875-0.50781-0.45312 0.93359-0.94141 1.8672-1.8828 2.8164-2.8359 0.26172 0.13281 0.39453 0.26562 0.46484 0.5zm-3.4688 3.4492c-0.80469 0.8125-1.6094 1.6211-2.3945 2.4102-0.26953-0.046875-0.37109-0.21875-0.51953-0.41406 0.8125-0.81641 1.6289-1.6406 2.4688-2.4844 0.21094 0.14062 0.34766 0.27344 0.44531 0.48828zm-3.1094 3.0859c-0.79297 0.80078-1.5977 1.6055-2.3945 2.4102-0.27344-0.015625-0.37109-0.22266-0.54688-0.41797 0.83984-0.84375 1.6445-1.6562 2.4375-2.4531 0.28516 0.042968 0.40625 0.21094 0.50391 0.46094zm-8.0234 8c-0.45703 0.56641-0.97266 1.0391-1.5391 1.5586-0.19531-0.19141-0.33203-0.32812-0.50391-0.5 0.49609-0.49609 0.98828-0.99219 1.4766-1.4883 0.26953 0.027343 0.35547 0.24609 0.56641 0.42969zm0.078125-1.0664c0.58594-0.58984 1.1719-1.1797 1.8086-1.8203 0.18359 0.17969 0.32031 0.31641 0.49219 0.48828-0.59375 0.59766-1.1797 1.1875-1.7617 1.7734-0.25781-0.046875-0.37109-0.23828-0.53906-0.44141zm4.8672-3.8789c-0.64062 0.64844-1.2891 1.3008-1.9336 1.9453-0.25-0.089844-0.39062-0.24219-0.51562-0.50391 0.64062-0.63672 1.2461-1.332 1.9688-1.8867 0.23828 0.089844 0.35937 0.23438 0.48047 0.44531zm-7.0781 7.0977c-0.44141 0.44531-0.87109 0.87891-1.3086 1.3164-0.23828-0.078125-0.37891-0.25781-0.52344-0.48047 0.43359-0.4375 0.86328-0.87109 1.3281-1.3359 0.19922 0.19531 0.33594 0.33203 0.50391 0.5zm-1.9453 1.918c-0.42578 0.42578-0.83594 0.84375-1.2617 1.2695-0.26562-0.17578-0.42188-0.32031-0.53516-0.55078 0.36328-0.46094 0.80078-0.85156 1.293-1.2188 0.17578 0.17187 0.32422 0.32031 0.50391 0.5zm-2.4844 1.4062c0.29688 0.054687 0.39453 0.28516 0.60156 0.4375-0.30859 0.47266-0.71875 0.78516-1.082 1.1758-0.32031-0.125-0.49219-0.30078-0.60938-0.58203 0.33984-0.37109 0.67969-0.75 1.0898-1.0312zm-1.7812 1.7148c0.25 0.14453 0.43359 0.30859 0.5625 0.55078-0.32031 0.32422-0.63672 0.64063-0.94922 0.95313-0.24609-0.14063-0.41406-0.30078-0.54297-0.54688 0.25-0.36719 0.58203-0.66797 0.92969-0.95703zm-1.5898 1.582c0.19922 0.19922 0.37109 0.37109 0.53906 0.53516-0.28906 0.29297-0.54297 0.54688-0.82031 0.82422-0.1875-0.1875-0.34766-0.34375-0.52734-0.52344 0.22656-0.34766 0.51172-0.59375 0.80859-0.83594zm-0.85156 1.9922c-0.26563 0.26562-0.51563 0.51953-0.77734 0.78125-0.27344-0.089844-0.4375-0.30078-0.59766-0.55078 0.25781-0.26172 0.50781-0.51172 0.79687-0.80469 0.22266 0.21875 0.38672 0.38281 0.57813 0.57422zm-1.5469 1.4648c-0.46484 0.46484-0.92969 0.93359-1.418 1.4297-0.27344-0.10156-0.42188-0.33594-0.62891-0.55078 0.42969-0.55469 0.93359-0.98828 1.4414-1.4766 0.28516 0.15625 0.46484 0.32812 0.60547 0.59766zm-15.539 14.051c0.26562-0.26953 0.53516-0.53906 0.84766-0.85547 0.22656 0.30078 0.32812 0.45703 0.55078 0.78125-0.30859 0.26172-0.60547 0.60156-0.96094 0.90625-0.16016-0.29297-0.33984-0.59375-0.4375-0.83203zm-1.4961 2.7539c-0.21484-0.19922-0.38672-0.38672-0.60547-0.60938 0.50391-0.50781 1.0703-1.0508 1.5938-1.582 0.17578 0.24609 0.30078 0.50391 0.45312 0.73438-0.48047 0.48828-0.98437 0.99609-1.4414 1.457zm1.6406-4.7812c0.1875 0.28906 0.34375 0.53516 0.51172 0.80469-0.30859 0.30859-0.59375 0.59766-0.92578 0.93359-0.1875-0.27734-0.34766-0.51562-0.53125-0.78516 0.33984-0.34375 0.625-0.62891 0.94531-0.95312zm13.934-14.871c0.25781-0.25781 0.51172-0.51563 0.75781-0.76172 0.22266 0.089843 0.34766 0.23047 0.46094 0.43359-0.25 0.25-0.5 0.50391-0.75781 0.76172-0.23047-0.066406-0.35937-0.22656-0.46094-0.43359zm-13.391 14.445c0.90234-0.91016 1.7812-1.793 2.6797-2.6953 0.26172 0.26172 0.44531 0.44141 0.625 0.62109-0.93359 0.9375-1.8906 1.9023-2.8086 2.8281-0.24609-0.3125-0.35156-0.54297-0.49609-0.75391zm3.1602-3.1719c0.20312-0.21484 0.60156-0.63281 0.89844-0.88672 0.27344 0.23438 0.41016 0.41016 0.60547 0.65625-0.28516 0.28906-0.58984 0.60547-0.86328 0.88281-0.27734-0.24219-0.44531-0.46094-0.64062-0.65234zm1.5039-1.3555c1.3086-1.3203 2.6094-2.6289 3.8945-3.9219 0.31641 0.13672 0.45312 0.35938 0.65234 0.55469-1.3125 1.3203-2.6016 2.6172-3.9414 3.9688-0.23438-0.23438-0.41406-0.41016-0.60547-0.60156zm4.5195-4.5234c0.25-0.27344 0.49219-0.5 0.77344-0.77344 0.17188 0.18359 0.44141 0.34375 0.625 0.59375-0.25781 0.26172-0.51172 0.51562-0.80469 0.80859-0.21094-0.19922-0.38672-0.35547-0.59375-0.62891zm1.4023-1.3789c0.21484-0.1875 0.39453-0.35937 0.58203-0.51562 0.16406 0.21875 0.39844 0.47656 0.57422 0.69141-0.16016 0.19141-0.31641 0.33203-0.51953 0.46484-0.22656-0.21875-0.44922-0.42188-0.63672-0.64063zm1.3867-1.1602c0.47656-0.48047 0.95703-0.96484 1.4688-1.4805 0.23438 0.17969 0.41016 0.33203 0.52344 0.57031-0.48047 0.48438-0.96094 0.96484-1.4297 1.4414-0.26953-0.11719-0.40625-0.3125-0.5625-0.53125zm2.1445-2.1211c0.25781-0.26172 0.50781-0.51172 0.79687-0.80469 0.21875 0.21875 0.38672 0.38281 0.57422 0.57031-0.26562 0.26562-0.51562 0.51953-0.77734 0.78125-0.26953-0.085938-0.43359-0.29297-0.59375-0.54688zm1.4844-1.3711c0.10156-0.39844 0.48047-0.56641 0.80078-0.84766 0.25 0.16797 0.41797 0.32422 0.54688 0.57031-0.26172 0.26172-0.52344 0.52734-0.80859 0.8125-0.17188-0.17578-0.33594-0.33594-0.53906-0.53516zm1.4492-1.4258c0.32422-0.32813 0.63672-0.64063 0.94531-0.94922 0.25781 0.10547 0.39453 0.28516 0.53906 0.51562-0.26562 0.38281-0.59766 0.6875-0.94922 0.96875-0.21094-0.21094-0.35938-0.35938-0.53516-0.53516zm1.625-1.6289c0.375-0.375 0.74609-0.75 1.1211-1.1289 0.25391 0.14453 0.41016 0.33594 0.5625 0.58203-0.36328 0.36719-0.72266 0.72656-1.1094 1.1133-0.28906-0.11719-0.44531-0.30469-0.57422-0.56641zm-17.941 19.234c0.96094-0.96875 1.9141-1.9297 2.8672-2.8867 0.23047 0.25781 0.43359 0.44141 0.64063 0.67187-0.96875 0.97656-2 2.0117-2.9883 3.0078-0.29297-0.375-0.38672-0.55859-0.51953-0.79297zm3.3828-3.3555c0.25391-0.25391 0.61328-0.58203 0.88281-0.85156 0.22656 0.26172 0.41016 0.38672 0.60938 0.63672-0.32031 0.33203-0.55078 0.59375-0.85156 0.88672-0.25-0.21094-0.46484-0.46094-0.64062-0.67187zm5.3828-5.3359c0.21094 0.21094 0.39062 0.38672 0.60938 0.60547-1.2969 1.3047-2.5977 2.6133-3.9414 3.9688-0.22266-0.22266-0.40234-0.39844-0.60938-0.60547 1.3164-1.332 2.6172-2.6406 3.9414-3.9688zm22.012-23.055c0.80078-0.80859 1.6055-1.6133 2.3828-2.3984 0.30859 0.027344 0.42578 0.19922 0.54297 0.42188-0.8125 0.82031-1.6289 1.6406-2.4375 2.4531-0.25-0.10547-0.39453-0.25-0.48828-0.47656zm-21.438 22.531c0.26172-0.26562 0.52344-0.52734 0.82422-0.82812 0.22656 0.17969 0.42578 0.33984 0.57031 0.60156-0.26562 0.26562-0.52734 0.53125-0.80078 0.80469-0.24609-0.13281-0.39844-0.33594-0.59375-0.57813zm1.4102-1.4141c0.18359-0.19141 0.28516-0.33203 0.50391-0.51172 0.16016 0.16016 0.38281 0.40625 0.60547 0.625-0.16797 0.18359-0.30469 0.33984-0.45312 0.5-0.26562-0.23047-0.44922-0.37891-0.65625-0.61328zm33.879-33.879c-0.25-0.054688-0.34375-0.22266-0.48438-0.39844 1.0234-1.0312 2.0234-2.0391 3.0117-3.0312 0.26953 0.011719 0.35156 0.19922 0.49609 0.38281-0.99609 1.0078-2 2.0156-3.0234 3.0469zm-0.67188 0.65625c-0.98047 0.98828-1.9648 1.9766-2.9648 2.9844-0.25781-0.125-0.40234-0.24609-0.46875-0.46094 0.98438-0.98828 1.9688-1.9805 2.9375-2.957 0.25781 0.074219 0.36719 0.23047 0.49609 0.43359zm-3.6602 3.582c-0.94922 0.95703-1.875 1.8867-2.7812 2.8008-0.27344 0-0.36719-0.17969-0.51953-0.37109 0.9375-0.94141 1.875-1.8867 2.8359-2.8555 0.24219 0.085937 0.33594 0.25 0.46484 0.42578zm-3.4805 3.4453c-0.8125 0.82031-1.6172 1.6289-2.4492 2.4648-0.22266-0.11328-0.35937-0.24609-0.48828-0.51562 0.77734-0.80859 1.582-1.6289 2.4414-2.3672 0.25781 0.070312 0.35156 0.24219 0.49609 0.41797zm-6.2227 6.1484c-0.64844 0.65625-1.2969 1.3047-1.9375 1.9492-0.25-0.078125-0.33984-0.25-0.50391-0.41406 0.66797-0.67188 1.3164-1.3242 1.9648-1.9766 0.23438 0.082031 0.36719 0.23828 0.47656 0.44141zm-2.5898 2.5625c-0.58203 0.58594-1.168 1.1719-1.7852 1.7969-0.21875-0.125-0.37891-0.25781-0.46484-0.47656 0.58594-0.58984 1.1719-1.1797 1.7344-1.7461 0.26953 0.070312 0.37109 0.23438 0.51562 0.42578zm-2.418 2.4141c-0.48437 0.48828-0.97656 0.98047-1.4648 1.4766-0.25391-0.10156-0.41016-0.26172-0.52344-0.50781 0.48047-0.48047 0.95703-0.96484 1.457-1.4648 0.26563 0.11719 0.40625 0.26562 0.53125 0.49609zm-2.1055 2.0781c-0.44141 0.44531-0.87109 0.87891-1.3086 1.3164-0.21094-0.14844-0.36328-0.26562-0.52344-0.48047 0.43359-0.4375 0.86328-0.87109 1.3281-1.3359 0.19922 0.19922 0.33594 0.33203 0.50391 0.5zm-1.918 1.9531c-0.37891 0.48437-0.8125 0.88281-1.2773 1.2539-0.25781-0.12891-0.41797-0.3125-0.53125-0.54297 0.41406-0.41406 0.81641-0.82031 1.2539-1.2617 0.22266 0.21875 0.37109 0.36719 0.55469 0.55078zm22.387-23.613c-0.21484-0.011718-0.30469-0.089844-0.36719-0.26562 0.98828-0.99609 1.9922-2.0039 2.9688-2.9883 0.20312 0.023438 0.28516 0.11328 0.35156 0.28125-0.97266 0.98047-1.9609 1.9766-2.9531 2.9727zm-0.76953 0.68359c-0.98828 0.99219-1.9727 1.9844-2.918 2.9375-0.22266-0.027344-0.29297-0.12891-0.36328-0.25781 0.99219-1 1.9766-1.9883 2.9805-3 0.18359 0.10547 0.28906 0.17578 0.30078 0.32031zm-3.6484 3.582c-0.91406 0.92188-1.8438 1.8555-2.7461 2.7656-0.22656 0.066406-0.30859-0.070312-0.43359-0.22656 0.9375-0.94531 1.8789-1.8906 2.8281-2.8477 0.20703 0.050781 0.28516 0.14062 0.35156 0.30859zm-3.4609 3.4297c-0.81641 0.82031-1.6172 1.6289-2.3984 2.4141-0.25781-0.003906-0.34766-0.14453-0.41797-0.3125 0.80469-0.80859 1.6055-1.6133 2.4492-2.4648 0.16406 0.16406 0.25 0.25 0.36719 0.36328zm-3.4492 2.75c0.097656-0.070313 0.21875 0.097656 0.32422 0.25781-0.80859 0.8125-1.625 1.6328-2.4688 2.4844-0.19141-0.046875-0.28906-0.14844-0.35547-0.375 0.80859-0.78516 1.543-1.6875 2.5-2.3672zm-2.8047 3.3828c-0.63281 0.63672-1.2656 1.2734-1.8906 1.9023-0.26172-0.003906-0.37109-0.14453-0.45312-0.35156 0.63672-0.64062 1.2695-1.2773 1.8789-1.8906 0.26562 0.011718 0.35156 0.16406 0.46484 0.33984zm-2.5977 2.5703c-0.57812 0.58203-1.1641 1.1719-1.7422 1.7539-0.24219-0.039062-0.35156-0.19141-0.47266-0.41016 0.50781-0.64844 1.1289-1.1992 1.7695-1.7578 0.23438 0.097657 0.33984 0.23047 0.44531 0.41406zm-2.4453 2.3359c-0.48828 0.49219-0.98047 0.98438-1.4688 1.4805-0.21875-0.066406-0.34766-0.1875-0.41016-0.42578 0.45703-0.46094 0.92188-0.92969 1.4023-1.4141 0.25 0.039063 0.33984 0.1875 0.47656 0.35938zm-2.1172 2.1328c-0.41797 0.42188-0.91406 0.91797-1.3164 1.3242-0.15234-0.16797-0.28906-0.28125-0.42969-0.43359 0.37109-0.49219 0.82031-0.91406 1.2969-1.3086 0.19141 0.12891 0.29688 0.21484 0.44922 0.41797zm-2.3711 1.4766c0.17188 0.17188 0.28906 0.28906 0.44141 0.4375-0.41797 0.41797-0.82031 0.82422-1.207 1.2148-0.28906-0.03125-0.39844-0.20312-0.49219-0.42969 0.35156-0.45703 0.76953-0.85156 1.2578-1.2227zm-1.4922 2.2695c-0.35156 0.45703-0.72656 0.82812-1.1562 1.2031-0.20703-0.16406-0.36328-0.27734-0.41406-0.51172 0.35156-0.35156 0.71094-0.71484 1.0508-1.0547 0.3125-0.019531 0.36719 0.21094 0.51953 0.36328zm-1.832 1.8125c-0.30469 0.30859-0.61328 0.61719-0.92187 0.92969-0.21094-0.085937-0.32422-0.23047-0.43359-0.44141 0.23047-0.37891 0.57031-0.65234 0.90234-0.92578 0.22656 0.089843 0.35156 0.22266 0.45312 0.4375zm-1.5977 1.5508c-0.16016 0.36328-0.51953 0.53125-0.74219 0.82031-0.25-0.10938-0.40234-0.25391-0.55078-0.5 0.26172-0.26172 0.5-0.5 0.73437-0.73828 0.28516 0 0.40625 0.19922 0.55859 0.41797zm-3.4375 2.4766c0.25 0.054688 0.34375 0.21875 0.48047 0.37891-0.46484 0.46484-0.90234 0.90625-1.3438 1.3516-0.37109-0.50781-0.25-0.74609 0.86328-1.7305zm-14.156 16.363c-0.53906 0.54297-1.0742 1.082-1.6172 1.6289-0.26172-0.25781-0.44141-0.4375-0.625-0.62109 0.58594-0.58984 1.1875-1.207 1.7461-1.7656 0.23438 0.3125 0.33203 0.48828 0.49609 0.75781zm0.97656 5.0898c-0.13672 0.21484-0.23438 0.29297-0.40625 0.51953-1.332-1.3242-2.6367-2.6172-3.9766-3.9492 0.14453-0.18359 0.26953-0.35547 0.47266-0.44922 1.3008 1.2852 2.5898 2.5703 3.9102 3.8789zm47.281-48.445c-1 1.0039-1.9922 2.0039-2.9844 3.0039-0.5625-0.25391 1.0195-1.5117 1.2422-1.7344 0.30078-0.30078 1.3203-1.7188 1.7422-1.2695zm0.49219-0.8125c0.99609-1.0039 1.9961-2.0078 2.9922-3.0117-0.32812 0.625-2.5195 2.8828-2.9922 3.0117zm-22.355 22.352c0.40625-0.44922 0.875-0.90234 1.2461-1.332 0.21875 0.12109 0.30078 0.25391 0.48438 0.4375-0.46094 0.46484-0.86719 0.875-1.2734 1.2812-0.19141-0.082031-0.33203-0.20312-0.45703-0.38672zm-0.19922 1.0234c-0.41797 0.42188-0.83594 0.83984-1.2852 1.293-0.21875-0.082031-0.29297-0.26562-0.4375-0.42578 0.42969-0.43359 0.83594-0.83984 1.2383-1.2461 0.24219 0 0.3125 0.20703 0.48438 0.37891zm2.5547-2.5664c-0.21094-0.089844-0.32031-0.21484-0.42969-0.41016 0.48047-0.48438 0.97266-0.98047 1.4688-1.4766 0.21484 0.058593 0.32422 0.19922 0.41797 0.41797-0.47266 0.48047-0.95313 0.96094-1.457 1.4688zm2.1055-2.1406c-0.20703-0.046874-0.28906-0.22266-0.42969-0.39453 0.58203-0.58594 1.1406-1.1484 1.7266-1.7383 0.20312 0.074219 0.30859 0.20703 0.41016 0.41016-0.55859 0.56641-1.1289 1.1367-1.707 1.7227zm2.3984-2.4336c-0.23047-0.007813-0.33203-0.16016-0.41797-0.37891 0.63281-0.63672 1.2695-1.2773 1.9375-1.9492 0.19531 0.085937 0.32031 0.19531 0.38281 0.41406-0.62109 0.625-1.2578 1.2695-1.9023 1.9141zm2.5312-2.6172c-0.1875 0-0.26953-0.15625-0.38672-0.33203 0.79688-0.80469 1.6016-1.6133 2.4414-2.457 0.17188 0.054687 0.27734 0.14844 0.34375 0.375-0.78125 0.78516-1.582 1.5898-2.3984 2.4141zm3.0156-3.1367c-0.10547-0.10547-0.19531-0.19531-0.3125-0.30859 0.81641-0.82031 1.6172-1.6289 2.4062-2.4219 0.17969 0.007812 0.24219 0.12109 0.33594 0.28516-0.80469 0.8125-1.6172 1.6289-2.4297 2.4453zm3.0039-3.1367c-0.62109-0.16406 1.0117-1.5312 1.2031-1.7227 0.30078-0.30078 1.2852-1.6914 1.6523-1.1523-0.92578 0.93359-1.875 1.8906-2.8555 2.875zm-17.996 17.535c0.25 0.058594 0.33984 0.23047 0.47656 0.41797-0.28906 0.4375-0.63281 0.83203-1.0898 1.2109-0.18359-0.18359-0.32031-0.31641-0.47266-0.47266 0.28906-0.47266 0.72266-0.78906 1.0859-1.1562zm-2.1562 3.207c-0.25-0.12891-0.40234-0.26562-0.51172-0.5 0.30859-0.30859 0.61719-0.62109 0.93359-0.94141 0.23828 0.0625 0.35156 0.24219 0.48438 0.44141-0.19531 0.41016-0.54297 0.6875-0.90625 1zm-1.1562 0.13281c0.23438 0.097656 0.35938 0.26562 0.50391 0.45703-0.14844 0.36328-0.45312 0.59375-0.75 0.85156-0.28516-0.10156-0.41016-0.27344-0.55859-0.46875 0.16016-0.38281 0.49219-0.60547 0.80469-0.83984zm-16.805 16.75c1.1133-1.1211 2.2031-2.2188 3.3008-3.3203 0.30078 0.29297 0.44141 0.41406 0.69531 0.67969-1.1406 1.1484-2.2773 2.293-3.4219 3.4453-0.27734-0.29688-0.36719-0.53516-0.57422-0.80469zm0.046876 1.2773c-0.33203 0.33594-0.62109 0.625-0.92969 0.93359-0.25781-0.30859-0.36328-0.51953-0.53125-0.78906 0.30469-0.32812 0.65234-0.66016 0.96094-0.96484 0.21094 0.33203 0.30859 0.54688 0.5 0.82031zm5.2656-5.2539c-0.26172 0.26172-0.51172 0.51562-0.80859 0.8125-0.24609-0.24609-0.48438-0.48047-0.69531-0.6875 0.21875-0.23438 0.51562-0.54297 0.80469-0.82422 0.29688 0.22656 0.51562 0.46094 0.69922 0.69922zm-0.10547-1.25c1.3047-1.3164 2.5977-2.6172 3.9297-3.957 0.28516 0.19922 0.40625 0.37109 0.66797 0.60547-1.293 1.3047-2.5781 2.6914-3.9023 4.0195-0.28516-0.23438-0.45312-0.41797-0.69531-0.66797zm-6.5547 8.0117c-0.33203 0.33594-0.64844 0.62891-0.96875 0.94922-0.29688-0.27734-0.51172-0.4375-0.76953-0.73438 0.34375-0.38281 0.6875-0.72656 1.125-1.1641 0.22266 0.34766 0.41406 0.64453 0.61328 0.94922zm10.977-12.527c0.23438-0.25391 0.57422-0.57812 0.875-0.81641 0.27734 0.16797 0.51953 0.44531 0.70312 0.6875-0.25781 0.33984-0.55469 0.60938-0.82422 0.86328-0.26562-0.30078-0.51172-0.49219-0.75391-0.73438zm1.5078-1.3945c0.23438-0.23828 0.33594-0.375 0.55859-0.58594 0.25 0.1875 0.51172 0.38281 0.79688 0.59375-0.23047 0.23437-0.46875 0.49219-0.68359 0.71094-0.26172-0.24219-0.41016-0.46094-0.67188-0.71875zm1.332-1.3438c0.46875-0.46875 0.90234-0.90625 1.3555-1.3672 0.26953 0.10156 0.42578 0.32031 0.58984 0.52344-0.74219 1.082-1.3281 1.3555-1.9453 0.84375zm2.6992-1.5c-0.30859-0.039063-0.44141-0.29297-0.66016-0.51172 0.29688-0.29688 0.54688-0.55078 0.79297-0.80078 0.27344 0.089844 0.40234 0.28516 0.57031 0.47656-0.13281 0.35547-0.45703 0.54297-0.70312 0.83594zm44.188-45.926c-0.16406-0.25781 0.23438-0.30859 0.14453-0.53125-0.25-0.21094-0.48828-0.035156-0.78125 0.10938 0.125-0.35938 0.625-0.61719 0.93359-0.26172 0.19141 0.21875 0.10547 0.875-0.29688 0.68359zm-63.176 65.594c-0.32812 0.67578-0.82422 1.0195-1.293 1.4727-0.125-0.51562 0.51562-1.2383 1.293-1.4727zm-1.8477 0.83203c0.23438-0.60547 0.67578-1.0039 1.2422-1.2812-0.27734 0.56641-0.65625 1.0273-1.2422 1.2812zm-0.37891-0.31641c-0.18359-0.28516-0.34375-0.52344-0.67188-0.67578 0.33984-0.56641 0.76953-0.94531 1.3477-1.3242 0.035156 0.68359-0.61328 0.85156-0.80078 1.3711 0.51172-0.21094 0.74609-0.67578 1.1758-0.87891 0.10547 0.40625 0.10547 0.40625-1.0508 1.5078zm-0.96875-0.96875c-0.097657-0.44141 0.38672-1.0156 1.1953-1.4453-0.31641 0.65234-0.79297 0.98047-1.1953 1.4453zm-0.26172-0.51953c-0.21484 0.011718-0.33203-0.054688-0.37109-0.22656 0.015625-0.23828 1.0234-1.0391 1.4336-1.0898-0.23438 0.62891-0.75781 0.89844-1.0625 1.3164zm-0.53906-0.55859c-0.21094 0.042968-0.30859-0.042969-0.34375-0.19922 0.38672-0.38672 0.75781-0.76172 1.1328-1.1406 0.023437 0.67188-0.54688 0.89844-0.78906 1.3398zm-0.61719-0.41406c0.050781-0.51562 0.58594-1.0664 1.2461-1.3438-0.28906 0.66406-0.83594 0.9375-1.2461 1.3438zm-0.39844-0.3125c-0.24219-0.50391 0.23047-1.1133 1.168-1.6133-0.23438 0.73438-0.92578 0.94141-1.168 1.6133zm9.0508-0.52344c-0.22266 0.097656-0.60547-0.03125-0.75781-0.21484-0.039062-0.046875-0.078125-0.10156-0.11719-0.15625l0.88672-0.89062c0.53516 0.6875 0.44922 1.0586-0.011719 1.2617zm47.418-58.746c-0.015625-0.60547 0.011719-0.96094 0.55859-1.2734 0.85938-0.49219 1.8867-0.78906 2.8047-1.168 3.8477-1.582 7.6992-3.1562 11.551-4.7344 1.4062-0.57422 3.4727-1.9883 5.0352-1.3086 1.3086 0.57031 1.4492 2.1836 0.8125 3.3086-0.83203 1.4727-2.8438 1.4922-4.2969 1.9297-0.875 0.26172-1.8164 0.48438-2.4258 1.2188-0.63281 0.76172-1.0117 1.7891-1.5312 2.6328-0.51172 0.83984-1.0742 1.8008-1.8789 2.3945-0.78906 0.57812-1.7539 0.66797-2.6836 0.87109-1.0703 0.23438-2.1328 0.50391-3.1562 0.89844-1.043 0.40234-1.8906 1.1562-2.9219 1.5508 3.1523-3.1719 6.3008-6.3438 9.4219-9.4805 0.32422-0.03125 1.6914-0.75391 1.1992-1.668-0.21094-0.39062-0.66406-0.66016-1.1133-0.57812-1.0859 0.19531-0.96875 1.3867-0.48047 2.0898-3.0977 3.1172-6.1953 6.2344-9.2695 9.332-0.30469-0.066406-0.42188-0.24219-0.58594-0.48828 2.1406-2.4961 4.6289-4.6875 6.8281-7.1445-0.039063-0.039062-0.082031-0.078124-0.12109-0.11719-2.3047 2.3203-4.6133 4.6406-6.8711 6.9141-0.33594-0.003907-0.4375-0.15625-0.52344-0.38281 1.2227-2.0938 2.9961-3.7148 4.7266-5.4141 1.3516 0.51172 2.1484-1.4219 0.92969-2.0977-0.47656-0.26562-1.1211-0.11719-1.3984 0.37109-0.28906 0.50391-0.011718 1.2109 0.16016 1.707-1.7539 1.4922-3.3398 3.1992-4.6523 5.1055-0.29297-0.050781-0.39062-0.21484-0.50391-0.44141 0.85547-1.0078 1.4102-2.2383 2.1953-3.332 0.57812 0.15234 1.1641 0.17578 1.4609-0.44141 0.26953-0.56641 0.09375-1.3516-0.46484-1.6719-0.48828-0.28125-1.125-0.11719-1.4414 0.34766-0.35547 0.52344-0.12109 1.1211 0.21094 1.5938-0.79297 1.0156-1.25 2.2891-2.2148 3.1914-0.59375-0.25 0.3125-1.0547 0.46094-1.457 0.26562-0.73047 0.19922-1.4961 0.17969-2.2578zm5.0625-1.4727c-0.14844-0.46875 0.25-0.88672 0.71094-0.56641 0.42969 0.29687 0.17578 0.82422-0.29297 0.86328 0.078125-0.25781 0.33594-0.37109 0.24219-0.625-0.32422-0.23047-0.45703 0.11328-0.66016 0.32812zm-3.1094 1.1914c-0.22656-0.21094-0.089844-0.40234-0.03125-0.59766 0.21094-0.16406 0.4375-0.16797 0.71875-0.074219 0.33984 0.64453 0.30859 0.75-0.26953 0.92969 0.027344-0.23828 0.32422-0.36719 0.22656-0.67187-0.39844-0.22656-0.49219 0.14844-0.64453 0.41406zm-41.281 40.574c0.125 0.29688 0.30859 0.60547 0.40625 0.84375-0.21875 0.28125-0.40625 0.44141-0.60547 0.60938-0.21094-0.19531-0.39453-0.40625-0.64453-0.60938 0.28125-0.27344 0.53125-0.52734 0.84375-0.84375zm-1.4453 1.3945c0.21875 0.1875 0.40234 0.37109 0.59766 0.55469-0.26172 0.32031-0.55469 0.61719-0.80078 0.89453-0.23828-0.23438-0.41797-0.41406-0.62109-0.61719 0.28906-0.29297 0.55469-0.5625 0.82422-0.83203zm-1.3906 1.3203c0.23828 0.23828 0.43359 0.42969 0.61719 0.61328-1.3125 1.3203-2.6016 2.6172-3.9219 3.9453-0.23047-0.22656-0.41797-0.41406-0.61719-0.61328 1.3281-1.3359 2.6172-2.6328 3.9219-3.9453zm-4.5352 4.4492c0.23438 0.23438 0.41797 0.41406 0.61328 0.60938-0.38672 0.37109-0.60156 0.67578-0.875 0.91406-0.23828-0.25391-0.38672-0.46484-0.57812-0.66406 0.25-0.29688 0.53516-0.53906 0.83984-0.85938zm-1.332 1.3281c0.22266 0.24609 0.39062 0.42969 0.58594 0.64844-0.86328 0.86719-1.707 1.7188-2.6055 2.625-0.21484-0.29688-0.37891-0.51562-0.51953-0.71484 0.85547-0.86328 1.6836-1.6992 2.5391-2.5586zm-3.1016 3.0078c0.21094 0.26172 0.38672 0.44531 0.53125 0.71484-0.28906 0.29297-0.57812 0.57813-0.89453 0.90234-0.23047-0.28516-0.37891-0.50391-0.49219-0.75781 0.26172-0.24609 0.52344-0.52734 0.85547-0.85938zm-0.94141 2.1523c-0.58984 0.59375-1.1758 1.1836-1.7617 1.7695-0.24609-0.20312-0.46484-0.37109-0.64062-0.59375 0.64453-0.64844 1.3203-1.332 1.9531-1.9688 0.17969 0.29688 0.33203 0.53125 0.44922 0.79297zm3.3672-11.109c1.5-0.71875 3.0391-1.4297 4.3555-2.4609 1.3789-1.0859 2.3516-2.5469 3.3086-3.9961 0.61719-0.9375 1.5781-3.0938 2.918-3.0898 1.418 0.003907 1.3398 2.1367 1.7578 3.0508-0.73047 0.73438-1.5078 1.4453-2.1875 2.2266-0.30469 0.34766-0.51172 0.72266-0.75781 1.1016-0.3125 0.47656-0.73047 0.78125-1.125 1.1797-0.49609-0.30078-0.98828-0.52344-1.5312-0.21094-0.18359-0.12891-0.26953-0.35938-0.48047-0.44531-0.09375-0.039062-0.20312-0.03125-0.29297 0.015625-0.17578 0.085938-0.29297 0.23828-0.32812 0.4375 0.027343 0.33984 0.33203 0.33594 0.52734 0.5-0.27734 0.54688-0.19922 1.082 0.10547 1.5703l-3.9297 3.957c-0.49219-0.39062-0.98047-0.47266-1.5508-0.21875-0.66016-1.3242-1.5273 0.54688-0.48828 0.43359-0.38281 0.60938-0.27734 1.1367 0.078125 1.6289-0.82422 0.82812-1.6836 1.6797-2.5078 2.5117-0.32422-0.33984-0.84766-0.42969-1.3398-0.17969-0.55469-1.1289-1.5625 0.14062-0.44141 0.35547-0.48438 0.5-0.45703 1.0234-0.13281 1.5586l-2.0703 2.0859-1.082-1.0742c-0.71875 0.33203-1.0508 1-1.6797 1.4062-2.0469-2.0625-1.0742-5.6094 0.63281-7.5547 2.125-2.4297 5.4258-3.4375 8.2422-4.7891zm-20.469 5.6133c1.6328-2.1836 4.1719-3.6094 6.5391-4.8555 1.3555-0.71484 2.7305-1.3984 4.1055-2.082 0.64453-0.32031 1.2891-0.63672 1.9336-0.95312 0.39062-0.19141 1.3906-0.92578 1.832-0.76172-1.75 1.9336-4.1172 3.207-6.2383 4.6758-1.9844 1.375-3.9609 2.8438-5.4297 4.7852-3.0195 3.9844-2.4609 8.8398-1.4727 13.438-1.5977-2.0586-2.3984-5.207-2.7266-7.75-0.30859-2.3203 0.027343-4.5781 1.457-6.4961zm12.77 30.102c-2.9922-1.8555-5.582-4.3516-8.1797-6.7031-2.5508-2.3086-5.1055-4.707-6.9766-7.6211-0.88672-1.3789-1.625-2.8711-2.1211-4.4375-0.39063-1.2344-0.91797-2.9609-0.43359-4.2305 0.92188 6.418 5.4062 11.43 9.9844 15.68 4.3477 4.0312 9.2188 8.6602 15.539 8.7266-2.4336 1.418-5.6914-0.097656-7.8125-1.4141zm6.4609-10.449c1.5156 1.5547 1.3828 4.5781 1.1797 6.5781-0.085937 0.86328-0.097656 2.7305-0.92578 3.2461-0.95703 0.60156-1.6211-0.90234-1.9766-1.5352-1.0273-1.8359-1.5898-3.8984-1.5156-6.0078 0.058593-1.7188 1.4609-4.0938 3.2383-2.2812zm6.7148 8.3008c-1.6406 0.82422-2.4219-0.75-2.6289-2.1445-0.30078-2.0391-0.30859-4.0508-0.91406-6.043-0.29297-0.96484-0.67969-1.9023-1.1758-2.7812-0.55078-0.98047-1.3281-1.75-2.043-2.6094 0.46875-0.59766 1.0586-1.0312 1.4336-1.7266l-1.168-1.1602c0.32812-0.34766 0.59766-0.64062 0.9375-0.94141 0.47266 0.35156 0.97656 0.59375 1.5742 0.22266 0.089843 0.20703 0.12891 0.42578 0.26172 0.57422 0.13281 0.14844 0.35547 0.16797 0.50391 0.035156 0.046876-0.039063 0.089844-0.089844 0.125-0.14062 0.10938-0.15234 0.10547-0.36719-0.03125-0.49609-0.085937-0.082031-0.19531-0.14844-0.28516-0.24219 0.52344-0.68359 0.14453-1.2969-0.19922-1.9336l3.5-3.5234c0.51562 0.39062 1.043 0.67187 1.6719 0.30859 0.16016 0.28516 0.46875 0.62891 0.82813 0.35156 0.40234-0.30859 0.003906-0.62891-0.19922-0.88281 0.12891-0.60156 0.003906-1.1758-0.41016-1.6914l3.9375-3.9648c0.55469 0.35547 1.0742 0.78125 1.7969 0.30859 0.14062 0.41016 0.61328 0.44141 0.71875-0.019531 0.085937-0.36719-0.44922-0.31641-0.35938-0.42578 0.3125-0.36719 0.55469-0.94141-0.17578-1.6914 0.55078-0.83203 1.2891-1.2969 2.2148-1.4297 0.53516 3.0586 3.5273 4.7656 6.4219 5.0898 1.4297 0.16016 2.8711-0.066406 4.168-0.69922 0.67578-0.32812 1.3086-0.74219 1.9297-1.1602 0.43359-0.28906 0.87891-0.69141 1.4062-0.77734 0.19922-0.03125 0.39844 0.09375 0.44141 0.29297 0.32031 1.4102-1.4375 3.207-2.3008 4.0234-1.4531 1.375-3.1797 2.3125-4.9961 3.1133-1.7148 0.75781-3.4961 1.4414-5.0859 2.457-1.6875 1.0781-2.918 2.6016-3.8633 4.3516-1.8906 3.4883-2.7188 7.4102-4.4414 10.969-0.78125 1.625-1.918 3.543-3.5938 4.3867zm1.1875-24.227c0.10156 0.011719 0.10156 0.039063 0.16797 0.085938 0.21875 0.16016 0.24609 0.48047 0.078125 0.69141-0.074218 0.09375-0.15625 0.17188-0.25 0.23828-0.21094 0.14844-0.50781 0.10938-0.66406-0.097656-0.027344-0.035156-0.050782-0.074219-0.078125-0.11719 0.27734-0.30859 0.49219-0.51562 0.74609-0.80078z" fill="#fff"/>
 <path d="m50.109 67.832c0.14844 0.14844 0.39062 0.14844 0.53906 0 0.14844-0.14844 0.14844-0.39062 0-0.53906-0.14844-0.14844-0.39063-0.14844-0.53906 0-0.14844 0.15234-0.14844 0.39062 0 0.53906z" fill="#fff"/>
 <path d="m42.914 59.805c0 0.50391-0.76172 0.50391-0.76172 0 0-0.50781 0.76172-0.50781 0.76172 0" fill="#fff"/>
 <path d="m38.598 49.121c0.14844-0.14844 0.14844-0.39062 0-0.53906-0.14844-0.14844-0.39062-0.14844-0.53906 0-0.14844 0.14844-0.14844 0.39062 0 0.53906 0.15234 0.14844 0.39062 0.14844 0.53906 0z" fill="#fff"/>
 <path d="m29.281 57.543c0.14844 0.14844 0.39062 0.14844 0.53906 0 0.14844-0.14844 0.14844-0.39062 0-0.53906-0.14844-0.14844-0.39062-0.14844-0.53906 0-0.14844 0.14844-0.14844 0.39062 0 0.53906z" fill="#fff"/>
 <path d="m21.91 61.352c0 0.50781-0.75781 0.50781-0.75781 0 0-0.50781 0.75781-0.50781 0.75781 0" fill="#fff"/>
 <path d="m37.676 75.105c0.14844-0.14844 0.14844-0.39062 0-0.53906-0.14844-0.14844-0.39062-0.14844-0.53906 0-0.14844 0.14844-0.14844 0.39062 0 0.53906 0.15234 0.15234 0.39062 0.14844 0.53906 0z" fill="#fff"/>
 <path d="m37.711 81.543c0 0.50781-0.75781 0.50781-0.75781 0 0-0.50391 0.75781-0.50391 0.75781 0" fill="#fff"/>
 <path d="m25.777 82.781c0 0.50781-0.75781 0.50781-0.75781 0s0.75781-0.50781 0.75781 0" fill="#fff"/>
 <path d="m26.016 91.715c0.14844 0.14844 0.39062 0.14844 0.53906 0 0.14844-0.14844 0.14844-0.39062 0-0.53906-0.14844-0.14844-0.39063-0.14844-0.53906 0-0.15234 0.14844-0.14844 0.39062 0 0.53906z" fill="#fff"/>
 <path d="m19.328 67.613c-0.14844-0.14844-0.39062-0.14844-0.53906 0-0.14844 0.14844-0.14844 0.39062 0 0.53906 0.14844 0.14844 0.39063 0.14844 0.53906 0 0.14844-0.15234 0.14844-0.39062 0-0.53906z" fill="#fff"/>
 <path d="m56.648 62.789c0 0.50781-0.75781 0.50781-0.75781 0 0-0.50781 0.75781-0.50781 0.75781 0" fill="#fff"/>
</svg>
