<?xml version="1.0" encoding="UTF-8"?>
<svg viewBox="0 0 100 100" xmlns="http://www.w3.org/2000/svg">
 <rect x="-10" y="-10" width="120" height="120"/>
 <path d="m39.07 65.348c-0.99609-0.97266-2.4844 0.58984-1.4922 1.5625 1.0117 0.99609 2.5039-0.57422 1.4922-1.5625zm-1.1289 0.38281c0.49609-0.51953 1.3047 0.24609 0.79297 0.76172-0.48828 0.49219-1.2617-0.27344-0.79297-0.76172z" fill="#fff"/>
 <path d="m38.258 69.559c-0.89453 1.0195 0.63281 2.4531 1.5898 1.4961 1.0273-1.0312-0.62891-2.5938-1.5898-1.4961zm0.45703 1.082c-0.47656-0.46094 0.15625-1.2344 0.69922-0.8125 0.61719 0.48438-0.14062 1.3516-0.69922 0.8125z" fill="#fff"/>
 <path d="m38.465 73.145c-1.043 1.0508 0.71484 2.5508 1.6094 1.3906 0.8125-1.0547-0.66406-2.3438-1.6094-1.3906zm0.36719 1.0977c-0.49219-0.48828 0.24219-1.2695 0.75781-0.77344 0.55859 0.53906-0.21484 1.3164-0.75781 0.77344z" fill="#fff"/>
 <path d="m41.992 66.371c-0.16016 0.25-0.066407 0.53125-0.10938 0.82031-0.44922 0.38672-0.44922 0.44531-0.019531 0.95703 0 0.31641-0.13281 0.65234 0.085938 0.98047 0.33203-0.46875 0.34375-2.5234 0.042969-2.7578z" fill="#fff"/>
 <path d="m71.66 26.227c0.66406 0.64063 1.4883-0.375 0.92578-1.0156-0.66016-0.75781-1.625 0.33984-0.92578 1.0156zm0.64844-0.83984c0.26953 0.1875 0.10938 0.51953-0.18359 0.54297 0.050781-0.16016 0.21094-0.23438 0.15234-0.39453-0.20703-0.14453-0.28906 0.070313-0.41797 0.20703-0.089844-0.29297 0.16016-0.55469 0.44922-0.35547z" fill="#fff"/>
 <path d="m77.605 23.676c0.64844 0.65625 1.6172-0.32812 0.96094-0.99609-0.64844-0.65234-1.5781 0.37109-0.96094 0.99609zm0.62891-0.84375c0.30469 0.097657 0.25391 0.51953-0.019531 0.61719-0.070313-0.16016 0.18359-0.26953 0.019531-0.42969-0.23438-0.074219-0.23047 0.17969-0.36328 0.32812-0.10156-0.24219 0.042968-0.62109 0.36328-0.51562z" fill="#fff"/>
 <path d="m75.559 24.617c0.66797 0.67187 1.5781-0.39844 0.92969-1.0469-0.6875-0.68359-1.5625 0.41406-0.92969 1.0469zm0.71484-0.79688c0.20312 0.19922 0.054687 0.53906-0.22656 0.52734-0.050781-0.20312 0.16797-0.27734 0.12891-0.4375-0.1875-0.12109-0.26562 0.12891-0.44141 0.125 0.015625-0.27734 0.33984-0.41406 0.53906-0.21484z" fill="#fff"/>
 <path d="m35.574 74.879c0.10156-0.37891 0.14453-0.77734 0.15625-1.168 0.007812-0.31641 0.070312-0.92578-0.13672-1.1836-0.37891-0.47656-1.5391-0.14844-1.9648 0.097656 0.027344 0.81641 0.20703 1.6289 0.59375 2.3516 0.41406 0.78125 1.125 0.75 1.3516-0.097656zm-0.28516-1.8672c0.007813 0.76562 0 1.4688-0.22266 2.1523-0.25781-0.60937-0.26562-1.2773-0.55078-1.8867 0.24219-0.097656 0.51562-0.066406 0.77344-0.26562zm-0.63672 1.9258c-0.36719-0.49609-0.41797-1.1172-0.69141-1.6914 0.39062 0.0625 0.57422 0.52344 0.69141 1.6914z" fill="#fff"/>
 <path d="m42.82 74.336c1.3867-2.4102 1.7969-5.25 3.168-7.668 0.72266-1.2695 1.7773-2.1523 3.0898-2.7656 1.2539-0.58594 2.5586-1.082 3.7422-1.8047 1.082-0.66016 2.0898-1.5312 2.7812-2.6055 0.55859-0.87109 1.1211-2.2539 0.66797-3.2773-0.48047-1.0898-1.8359-0.83594-2.6953-0.41406-1.1211 0.54688-2.0781 1.2734-3.3789 1.3008-1.0586 0.019532-2.0938-0.40625-2.707-1.2891-0.26172-0.37891-0.61328-1.0234-0.53125-1.5 0.09375-0.54688 0.92969-1.1094 1.3008-1.4922 4.1523-4.2461 8.2812-8.5156 12.414-12.781 2.0977-2.1641 4.1914-4.332 6.2812-6.5 0.92969-0.96484 1.7773-1.957 3.0586-2.4492 1.1445-0.44141 2.6133-0.375 3.6367-1.0703 0.53906-0.36719 0.94141-0.96484 1.2969-1.5 0.36719-0.55859 0.59375-1.2734 1.0312-1.7734 0.84766-0.97266 2.4805-0.69922 3.5469-1.3164 0.93359-0.53906 1.3672-1.7305 0.98828-2.7461-0.17578-0.47656-0.54688-0.86719-1.0156-1.0664-0.23828-0.10156-0.5-0.14844-0.75781-0.14844-0.19922 0-0.51953 0.14453-0.69531 0.066406 0.074219-0.58203-0.35156-1.3359-1.0234-0.90234-0.60156 0.39063-0.26953 0.98047 0.17969 1.2852-0.36328 0.15234-0.67188 0.33203-1.0312 0.37109-0.039063-0.55078-0.41797-1.3008-1.0938-0.84766-0.60547 0.40625-0.19141 0.96875 0.22266 1.2773-0.35938 0.13672-0.70312 0.26953-1.0625 0.40234 0.003906-0.54688-0.1875-1.2344-0.89844-1.0039-0.28125 0.089843-0.45703 0.35937-0.46875 0.64453-0.019532 0.42969 0.28125 0.46875 0.52734 0.72266-0.35938 0.14453-0.66406 0.31641-1.0195 0.38672 0.042969-0.57812-0.29297-1.3711-1.0117-0.93359-0.64453 0.39453-0.23047 0.95703 0.19922 1.2891-0.35156 0.15234-0.69922 0.30078-1.0508 0.44922 0.011719-0.56641-0.29688-1.3086-1-0.9375-0.64844 0.33984-0.35156 0.98828 0.12891 1.2852-0.34375 0.17969-0.67969 0.32812-1.0547 0.42187 0.070312-0.55859-0.23438-1.3008-0.92969-0.97656-0.23438 0.10938-0.39453 0.36719-0.38672 0.625 0.007813 0.35547 0.30859 0.48047 0.51953 0.70703-0.61719 0.25391-1.543 0.43359-1.6992 1.1992-0.13672 0.66406 0.18359 1.3477-0.1875 1.9727-0.36719 0.61328-1.0898 1.1211-1.5977 1.6094-0.65234 0.62891-1.3047 1.2578-1.9531 1.8867-4.5469 4.4062-9.0898 8.8203-13.633 13.23-0.57422 0.55859-1.1523 1.1172-1.7266 1.6758-0.37109 0.35938-0.75391 0.83594-1.3164 0.83984-1.0898 0.007812-2.0938-1.2266-2.3242-2.1953-0.32031-1.3438 0.30469-2.6328 1.0586-3.7109 0.66016-0.94531 1.8047-1.9531 1.6953-3.2109 0.26562-0.054687 0.31641 0.22656 0.56641 0.20312 0.14844-0.30469-0.082031-0.91406-0.33594-1.1289-0.44141-0.375-0.27734 0.31641-0.49609 0.46875-0.65625-0.80469-1.6055-0.76562-2.5234-0.51172-2.6367 0.73047-4.5508 3.2539-5.957 5.4453-1.4766 2.3047-2.4688 5.0664-4.6953 6.7891-1.1016 0.85156-2.3945 1.3945-3.6445 1.9805-1.207 0.56641-2.418 1.1172-3.5898 1.75-2.1094 1.1367-4.1953 2.6094-5.293 4.8047-0.96875 1.9414-0.96875 4.1992-0.33984 6.2461 0.77734 2.5469 2.5 4.5742 4.3203 6.4531 1.0586 1.0898 2.1523 2.1406 3.2344 3.207 1.0156 1.0039 2.0352 2.0078 3.1875 2.8555 1.8438 1.3633 4.043 2.3672 6.3359 1.5625 2.457-0.87109 4.6406-2.6211 5.9453-4.8867zm1.3359-17.402c0.03125 0.09375 0.015625 0.19531-0.035156 0.27734-0.042969 0.066406-0.09375 0.125-0.16016 0.16406-0.125 0.078125-0.28516 0.054688-0.39453-0.039062-0.0625-0.054688-0.11719-0.125-0.14844-0.19922 0.16016-0.18359 0.30078-0.32812 0.47656-0.47266 0.14453 0.058594 0.21875 0.15234 0.26172 0.26953zm-9.082 10.871c-0.25 0.37109-0.59766 0.65625-0.94531 0.98437-1.668-1.6562-3.3164-3.293-4.9648-4.9336 0.03125-0.03125 0.0625-0.0625 0.09375-0.097657 1.5938 1.582 3.1875 3.168 4.7812 4.75 0.29688-0.11328 0.38281-0.26953 0.48828-0.39062-0.007813-0.20313-0.097656-0.33203-0.21875-0.42969-0.11719-0.074219-0.16797 0.097656-0.28125 0.042969-0.085938-0.085938-0.18359-0.18359-0.28906-0.28516 0.34766-0.53125 0.91797-0.82812 1.3477-1.2812-0.097657-0.14453-0.17188-0.25781-0.25391-0.375 0.078125-0.11328 0.15625-0.19922 0.26172-0.29687 0.22656 0.15625 0.39844 0.33984 0.55859 0.57812-0.36328 0.36719-0.71875 0.72266-1.0625 1.0703 0.070312 0.30859 0.33984 0.42578 0.48438 0.66406zm-2.6172-4.9492c-0.16797 0.14453-0.21484 0.1875-0.35547 0.24609-0.3125-0.12109-0.41406-0.50781-0.83203-0.625-0.4375 0.31641-0.77344 0.80469-1.1992 1.2031-0.11328 0.011718-0.17578-0.042969-0.20312-0.18359 0.49219-0.55859 1.0391-1.0859 1.6094-1.6211 0.33594 0.33984 0.66016 0.66016 0.98047 0.98047zm1.375-2.3867c-0.28906-0.39453 0.22266-0.77344 0.55078-0.49609-0.19141 0.17188-0.36719 0.33203-0.55078 0.49609zm2.7656-2.6602c-0.21484-0.30078-0.125-0.42578-0.011718-0.56641 0.12109-0.15234 0.34375-0.17188 0.48828-0.039063 0.019531 0.019531 0.042969 0.039063 0.0625 0.0625-0.20312 0.17188-0.37109 0.39453-0.53906 0.54297zm3.7461-3.6992c-0.35547-0.36719 0.16406-0.89844 0.51172-0.51562-0.16406 0.16406-0.32812 0.32812-0.51172 0.51562zm-9.4375 10.438c-0.12891-0.050781-0.18359-0.10547-0.19922-0.23047 0.25781-0.21875 0.52734-0.44922 0.88281-0.75-0.11328 0.50391-0.54297 0.62891-0.68359 0.98047zm-0.37891-0.34766c-0.082032-0.27734 0.25781-0.67969 0.72266-0.87109-0.15234 0.39062-0.46094 0.59766-0.72266 0.87109zm-0.29297-0.33203c0.15625-0.33203 0.41406-0.57031 0.72656-0.75781-0.14063 0.34375-0.41016 0.57031-0.72656 0.75781zm34.211-29.273c-0.63281 0.63672-1.25 1.2617-1.8672 1.8789-0.15234-0.066406-0.24219-0.16016-0.3125-0.30469 0.62109-0.625 1.2422-1.25 1.8789-1.8906 0.14844 0.089844 0.23828 0.1875 0.30078 0.31641zm0.085938-0.69141c0.66406-0.66797 1.293-1.3008 1.918-1.9297 0.16016 0.054688 0.24219 0.15234 0.30469 0.3125-0.61719 0.62109-1.2383 1.2461-1.875 1.8867-0.15625 0.003906-0.22266-0.14062-0.34766-0.26953zm-2.3672 2.9492c-0.59766 0.60156-1.1992 1.207-1.8203 1.832-0.12109-0.11719-0.20312-0.20312-0.30469-0.30078 0.60938-0.61328 1.2109-1.2188 1.8047-1.8164 0.16016 0.058594 0.23047 0.16016 0.32031 0.28516zm-11.344 11.398c-0.16797-0.046875-0.25391-0.16406-0.34766-0.30859 0.26562-0.26562 0.53125-0.53516 0.82422-0.82812 0.11328 0.10938 0.20703 0.20312 0.3125 0.3125-0.22656 0.32422-0.51562 0.56641-0.78906 0.82422zm9.1523-9.2031c-0.51562 0.51953-1.0195 1.0273-1.5273 1.5391-0.16406-0.027344-0.24219-0.14844-0.32422-0.30078 0.50391-0.50781 1.0117-1.0156 1.5391-1.5508 0.12109 0.12109 0.20703 0.20703 0.3125 0.3125zm-1.9648 1.957c-0.50391 0.50391-1.0078 1.0156-1.5195 1.5312-0.15625-0.019531-0.23438-0.14844-0.33594-0.28906 0.51562-0.51562 1.0273-1.0352 1.5312-1.543 0.17578 0.042969 0.24609 0.15625 0.32422 0.30078zm-1.9297 1.9492c-0.40625 0.41016-0.8125 0.81641-1.2383 1.2461-0.14062-0.10156-0.24609-0.18359-0.31641-0.33594 0.40234-0.40625 0.80859-0.8125 1.2148-1.2227 0.16797 0.046875 0.25 0.16406 0.33984 0.3125zm-1.6445 1.6484c-0.35156 0.35547-0.71484 0.71875-1.0781 1.0859-0.16016-0.03125-0.23438-0.16406-0.34375-0.30078 0.36719-0.37109 0.73828-0.74219 1.125-1.1328 0.13281 0.10156 0.23828 0.18359 0.29688 0.34766zm-1.4727 1.4844c-0.33203 0.33594-0.63672 0.64062-0.9375 0.94531-0.16406-0.058594-0.25-0.17188-0.35156-0.31641 0.30859-0.3125 0.62109-0.625 0.94141-0.94922 0.15625 0.054687 0.23047 0.17969 0.34766 0.32031zm-2.5586 2.5664c-0.27734 0.27734-0.53125 0.53516-0.79688 0.80078-0.12109-0.11719-0.23047-0.23047-0.35156-0.35156 0.21875-0.32422 0.50781-0.54297 0.78516-0.77734 0.16797 0.039062 0.24219 0.17578 0.36328 0.32812zm-1.5664 0.83984c0.19531 0.035156 0.27734 0.17187 0.37891 0.32422-0.17969 0.28906-0.44531 0.49609-0.69922 0.73828-0.1875-0.097657-0.30859-0.19922-0.35938-0.38672 0.19922-0.25 0.42578-0.47266 0.67969-0.67578zm-1.1406 1.1094c0.19141 0.050782 0.26172 0.20703 0.39453 0.31641-0.15234 0.27734-0.38672 0.45312-0.60156 0.64453-0.16797-0.085938-0.27734-0.19922-0.37109-0.35547 0.15625-0.23828 0.375-0.41016 0.57812-0.60547zm-0.98437 0.98828c0.16797 0.089844 0.27344 0.20703 0.37109 0.35156-0.11719 0.23438-0.32031 0.37891-0.50781 0.53906-0.17578-0.074219-0.27734-0.19141-0.37109-0.34766 0.12891-0.21875 0.32031-0.37891 0.50781-0.54297zm-1.0078 1.7852c-0.16797-0.035156-0.24219-0.16406-0.35156-0.30859 0.15625-0.17188 0.30859-0.34766 0.47266-0.53125 0.14844 0.078125 0.25391 0.19531 0.34375 0.33984-0.11719 0.20703-0.30078 0.33984-0.46484 0.5zm-0.44531 0.42188c-0.30078 0.30469-0.60156 0.60547-0.91406 0.92188-0.125-0.125-0.24609-0.24219-0.37891-0.37891 0.25391-0.35938 0.58984-0.625 0.89844-0.9375 0.14453 0.14844 0.25781 0.25781 0.39453 0.39453zm-1.418 1.3906c-0.10156 0.12109-0.17578 0.21875-0.30078 0.33594-0.17187-0.13672-0.29687-0.26172-0.42187-0.41016 0.10547-0.10938 0.17578-0.19141 0.32422-0.32031 0.12891 0.125 0.25781 0.25391 0.39844 0.39453zm-0.69531 0.69531c-0.17188 0.19141-0.3125 0.36328-0.50781 0.52734-0.14062-0.14062-0.26562-0.26562-0.41797-0.41406 0.17969-0.17969 0.33984-0.33984 0.51562-0.51953 0.14062 0.13672 0.26953 0.26563 0.41016 0.40625zm-0.875 0.83984c-0.82031 0.82422-1.6406 1.6523-2.4688 2.4844-0.12891-0.10547-0.25-0.23047-0.39453-0.375 0.82422-0.82812 1.6445-1.6562 2.4766-2.4922 0.13672 0.13281 0.25 0.24609 0.38672 0.38281zm-2.8359 2.8633c-0.16406 0.1875-0.32812 0.35156-0.50391 0.5-0.17969-0.125-0.28906-0.25391-0.41406-0.39453 0.14062-0.16016 0.32812-0.32031 0.5-0.5 0.14844 0.11328 0.27344 0.26172 0.41797 0.39453zm-4.125 3.2812c0.20312-0.20703 0.41016-0.42578 0.62109-0.625 0.13281 0.20703 0.22266 0.35156 0.31641 0.55859-0.19141 0.19141-0.40234 0.39844-0.58203 0.58203-0.15234-0.19141-0.23047-0.35156-0.35547-0.51562zm0.039062 0.82812c-0.25 0.25-0.51953 0.51563-0.75781 0.75391-0.18359-0.16016-0.27734-0.28125-0.4375-0.43359 0.27734-0.29297 0.52734-0.57031 0.84375-0.87891 0.13281 0.21094 0.23828 0.37891 0.35156 0.55859zm0.89453-1.7539c0.64453-0.64844 1.3047-1.3125 1.9336-1.9414 0.16016 0.16016 0.26953 0.26953 0.41797 0.41406-0.67188 0.67578-1.3398 1.3516-2.0312 2.0469-0.13281-0.1875-0.23828-0.35547-0.32031-0.51953zm28.125-28.258c-0.16016-0.054688-0.24609-0.12891-0.29688-0.27344 0.63281-0.63672 1.2695-1.2812 1.9023-1.9141 0.14844 0.058594 0.22266 0.14453 0.28516 0.28125-0.62109 0.62891-1.25 1.2656-1.8906 1.9062zm-0.41797 0.41406c-0.62109 0.625-1.2422 1.25-1.875 1.8867-0.15625-0.082031-0.24609-0.16016-0.30859-0.30078 0.61719-0.62109 1.2383-1.2461 1.8477-1.8594 0.17969 0.027343 0.25 0.14062 0.33594 0.27344zm-2.3164 2.293c-0.58203 0.58594-1.168 1.1758-1.7461 1.7578-0.17578-0.046876-0.26562-0.13672-0.32031-0.28516 0.58984-0.59375 1.1758-1.1836 1.7734-1.7852 0.16406 0.078125 0.24609 0.16016 0.29297 0.3125zm-2.1836 2.168c-0.50781 0.51172-1.0156 1.0195-1.5078 1.5195-0.17188-0.03125-0.23438-0.13672-0.32812-0.26172 0.51172-0.51562 1.0273-1.0312 1.5547-1.5664 0.13281 0.09375 0.21875 0.17578 0.28125 0.30859zm-1.957 1.9453c-0.5 0.50391-1.0039 1.0117-1.5078 1.5156-0.17188-0.011719-0.23438-0.14062-0.34375-0.26562 0.52734-0.53125 1.0352-1.043 1.5352-1.543 0.17578 0.03125 0.25391 0.13672 0.31641 0.29297zm-5.0547 5.0391c-0.28906 0.35938-0.61328 0.65625-0.96875 0.98047-0.12109-0.12109-0.20703-0.20703-0.31641-0.31641 0.3125-0.3125 0.62109-0.625 0.92969-0.9375 0.16797 0.019531 0.22266 0.15625 0.35547 0.27344zm0.050781-0.67188c0.36719-0.37109 0.73828-0.74219 1.1367-1.1445 0.11328 0.11328 0.19922 0.19922 0.30859 0.30859-0.375 0.375-0.74219 0.74609-1.1094 1.1172-0.16016-0.035156-0.23047-0.15234-0.33594-0.28125zm3.0625-2.4414c-0.40625 0.40625-0.8125 0.81641-1.2188 1.2266-0.15625-0.058594-0.24609-0.15234-0.32422-0.31641 0.40625-0.39844 0.78516-0.83984 1.2422-1.1875 0.14844 0.050781 0.22656 0.14453 0.30078 0.27734zm-4.457 4.4688c-0.27734 0.28125-0.54688 0.55078-0.82422 0.83203-0.15234-0.050781-0.23828-0.16406-0.33203-0.30469 0.27344-0.27344 0.54297-0.54688 0.83594-0.84375 0.12891 0.125 0.21484 0.21094 0.32031 0.31641zm-1.2266 1.207c-0.26563 0.26953-0.52734 0.53125-0.79297 0.80078-0.16797-0.10938-0.26562-0.19922-0.33594-0.34766 0.23047-0.28906 0.50391-0.53516 0.81641-0.76562 0.10547 0.10547 0.19922 0.19922 0.3125 0.3125zm-1.5625 0.88672c0.1875 0.035156 0.25 0.17969 0.37891 0.27344-0.19531 0.29688-0.45312 0.49609-0.68359 0.74219-0.20312-0.078124-0.30859-0.1875-0.38281-0.36719 0.21484-0.23438 0.42969-0.47266 0.6875-0.64844zm-1.1211 1.0781c0.15625 0.089844 0.27344 0.19531 0.35547 0.34766-0.20312 0.20312-0.40234 0.40234-0.59766 0.60156-0.15625-0.089843-0.26172-0.1875-0.34375-0.34375 0.15625-0.23438 0.36719-0.42188 0.58594-0.60547zm-1 0.99609c0.125 0.125 0.23438 0.23438 0.33984 0.33594-0.18359 0.18359-0.34375 0.34375-0.51563 0.51953l-0.33203-0.33203c0.14062-0.21484 0.32031-0.37109 0.50781-0.52344zm-0.53906 1.2539c-0.16797 0.16797-0.32422 0.32813-0.48828 0.49219-0.17188-0.058594-0.27734-0.1875-0.375-0.34766 0.16406-0.16406 0.32031-0.32422 0.50391-0.50781 0.13672 0.14062 0.23828 0.24609 0.35938 0.36328zm-0.97266 0.92188c-0.29297 0.29297-0.58594 0.58984-0.89453 0.89844-0.17188-0.066406-0.26562-0.21094-0.39453-0.34766 0.26953-0.34766 0.58594-0.62109 0.90625-0.92969 0.17969 0.10156 0.29297 0.21094 0.38281 0.37891zm-9.7852 8.8516c0.16797-0.16797 0.33984-0.33984 0.53516-0.53906 0.14453 0.1875 0.20703 0.28906 0.34766 0.49219-0.19531 0.16406-0.38281 0.37891-0.60547 0.57031-0.10547-0.1875-0.21875-0.375-0.27734-0.52344zm-0.94531 1.7344c-0.13672-0.125-0.24219-0.24219-0.37891-0.38281 0.31641-0.32031 0.67188-0.66406 1.0039-0.99609 0.10938 0.15234 0.19141 0.31641 0.28516 0.46094-0.30469 0.30469-0.62109 0.62891-0.91016 0.91797zm1.0352-3.0117c0.11719 0.18359 0.21484 0.33984 0.32422 0.50391-0.19531 0.19531-0.375 0.375-0.58594 0.58594-0.11719-0.17188-0.21875-0.32422-0.33203-0.49609 0.21094-0.21094 0.39063-0.39062 0.59375-0.59375zm8.7734-9.3672c0.16406-0.16406 0.32422-0.32422 0.47656-0.48047 0.14063 0.054688 0.21875 0.14453 0.29297 0.27344-0.15625 0.15625-0.31641 0.31641-0.47656 0.48047-0.14453-0.039062-0.22656-0.14062-0.29297-0.27344zm-8.4297 9.0977c0.57031-0.57422 1.1211-1.1289 1.6875-1.6992 0.16406 0.16406 0.28125 0.27734 0.39453 0.39062-0.58594 0.58984-1.1914 1.1992-1.7695 1.7812-0.15625-0.19531-0.22266-0.33984-0.3125-0.47266zm1.9883-1.9961c0.12891-0.13281 0.37891-0.39844 0.56641-0.55859 0.17188 0.14844 0.25781 0.25781 0.38281 0.41406-0.17969 0.18359-0.37109 0.38281-0.54297 0.55469-0.17578-0.15234-0.28516-0.28906-0.40625-0.41016zm0.94531-0.85156c0.82422-0.83203 1.6445-1.6562 2.4531-2.4688 0.19922 0.085937 0.28516 0.22656 0.41016 0.35156-0.82422 0.83203-1.6367 1.6484-2.4844 2.5-0.14453-0.15234-0.25781-0.26562-0.37891-0.38281zm2.8477-2.8516c0.15625-0.17188 0.30859-0.31641 0.48438-0.48828 0.10937 0.11719 0.27734 0.21484 0.39453 0.375-0.16406 0.16406-0.32031 0.32422-0.50391 0.50781-0.13281-0.12109-0.24609-0.22266-0.375-0.39453zm0.88281-0.86719c0.13672-0.11719 0.25-0.22656 0.36719-0.32422 0.10156 0.13672 0.25 0.30078 0.36328 0.4375-0.10156 0.12109-0.19922 0.21094-0.32812 0.29297-0.14453-0.14062-0.28516-0.26953-0.40234-0.40625zm0.875-0.73047c0.30078-0.30469 0.60156-0.60547 0.92578-0.93359 0.14844 0.11328 0.25781 0.21094 0.33203 0.35938-0.30078 0.30469-0.60547 0.60938-0.90234 0.90625-0.17188-0.074219-0.25781-0.19531-0.35547-0.33203zm1.3516-1.3359c0.16406-0.16406 0.32031-0.32422 0.50391-0.50781 0.13672 0.13672 0.24219 0.24219 0.36328 0.35938-0.16797 0.16797-0.32422 0.32812-0.48828 0.49219-0.17578-0.054687-0.28125-0.18359-0.37891-0.34375zm0.93359-0.86328c0.0625-0.25 0.30469-0.35547 0.50391-0.53516 0.15625 0.10547 0.26172 0.20312 0.34375 0.35938-0.16406 0.16406-0.33203 0.33203-0.50781 0.51172-0.10938-0.10938-0.21484-0.21094-0.33984-0.33594zm0.91016-0.89844c0.20703-0.20703 0.39844-0.40234 0.59375-0.59766 0.16016 0.066406 0.25 0.17969 0.33984 0.32422-0.16797 0.24219-0.375 0.43359-0.59766 0.60938-0.12891-0.13281-0.22266-0.22656-0.33594-0.33594zm1.0273-1.0234c0.23438-0.23828 0.46875-0.47266 0.70703-0.71094 0.16016 0.089843 0.25781 0.21094 0.35547 0.36719-0.23047 0.23047-0.45703 0.45703-0.69922 0.70312-0.18359-0.078125-0.28516-0.19531-0.36328-0.35938zm-11.301 12.109c0.60547-0.60938 1.207-1.2148 1.8047-1.8164 0.14453 0.16016 0.27344 0.27734 0.40234 0.42578-0.60938 0.61328-1.2578 1.2656-1.8828 1.8945-0.17969-0.23828-0.24219-0.35547-0.32422-0.50391zm2.1289-2.1133c0.16016-0.16016 0.38672-0.36719 0.55469-0.53516 0.14453 0.16406 0.25781 0.24609 0.38672 0.40234-0.19922 0.21094-0.34766 0.375-0.53516 0.55859-0.16016-0.13281-0.29297-0.29297-0.40625-0.42578zm3.3906-3.3594 0.38281 0.38281c-0.81641 0.82031-1.6367 1.6445-2.4805 2.5-0.14062-0.14063-0.25391-0.25391-0.38281-0.38281 0.82813-0.83984 1.6484-1.6641 2.4805-2.5zm13.863-14.52c0.50391-0.50781 1.0117-1.0156 1.5-1.5117 0.19531 0.019531 0.26953 0.125 0.34375 0.26562-0.51172 0.51562-1.0273 1.0312-1.5352 1.543-0.16016-0.0625-0.25-0.15234-0.30859-0.29688zm-13.5 14.191c0.16406-0.16797 0.33203-0.33203 0.51953-0.52344 0.14453 0.11328 0.26953 0.21484 0.35938 0.37891-0.16797 0.16797-0.33203 0.33594-0.50391 0.50781-0.15625-0.085937-0.25391-0.21094-0.375-0.36328zm0.88672-0.89062c0.11328-0.12109 0.17969-0.20703 0.31641-0.32422 0.10156 0.10156 0.24219 0.25391 0.38281 0.39453-0.10547 0.11719-0.19141 0.21484-0.28516 0.31641-0.16797-0.14844-0.28516-0.23828-0.41406-0.38672zm21.336-21.336c-0.16016-0.035157-0.21484-0.14063-0.30469-0.25 0.64453-0.64844 1.2734-1.2852 1.8945-1.9102 0.16797 0.007813 0.22266 0.125 0.3125 0.24219-0.625 0.63281-1.2578 1.2695-1.9023 1.918zm-0.42578 0.41016c-0.61719 0.62109-1.2383 1.2461-1.8672 1.8789-0.16406-0.078125-0.25391-0.15234-0.29688-0.28906 0.62109-0.625 1.2422-1.25 1.8516-1.8633 0.16406 0.046875 0.23437 0.14844 0.3125 0.27344zm-2.3047 2.2578c-0.59766 0.60156-1.1797 1.1875-1.7539 1.7656-0.17188 0-0.23438-0.11328-0.32812-0.23438 0.58984-0.59375 1.1797-1.1875 1.7852-1.7969 0.16016 0.054688 0.21875 0.15625 0.29688 0.26562zm-2.1914 2.168c-0.51172 0.51562-1.0195 1.0234-1.543 1.5508-0.14062-0.070312-0.22656-0.15625-0.30469-0.32422 0.48828-0.50781 0.99609-1.0273 1.5391-1.4922 0.16016 0.046875 0.21875 0.15625 0.30859 0.26562zm-3.918 3.875c-0.41016 0.41406-0.81641 0.82422-1.2188 1.2266-0.15625-0.046876-0.21484-0.15625-0.31641-0.26172 0.41797-0.42188 0.82812-0.83203 1.2383-1.2461 0.14453 0.054687 0.23047 0.15234 0.29688 0.28125zm-1.6289 1.6133c-0.36719 0.36719-0.73438 0.73828-1.125 1.1328-0.13672-0.078125-0.23828-0.16406-0.29297-0.30078 0.37109-0.37109 0.73828-0.74219 1.0938-1.0977 0.16797 0.042969 0.23438 0.14453 0.32422 0.26562zm-1.5234 1.5195c-0.30469 0.30859-0.61328 0.61719-0.92188 0.92969-0.16016-0.0625-0.25781-0.16406-0.33203-0.32031 0.30078-0.30469 0.60156-0.60547 0.91797-0.92187 0.16797 0.074218 0.25781 0.16797 0.33594 0.3125zm-1.3281 1.3086c-0.27734 0.28125-0.54688 0.55078-0.82422 0.83203-0.13281-0.09375-0.23047-0.16797-0.33203-0.30469 0.27344-0.27344 0.54297-0.54688 0.83594-0.84375 0.12891 0.12891 0.21484 0.21094 0.32031 0.31641zm-1.207 1.2305c-0.23828 0.30469-0.51172 0.55469-0.80469 0.78906-0.16406-0.082031-0.26563-0.19922-0.33594-0.34375 0.26172-0.26172 0.51562-0.51562 0.78906-0.79297 0.14453 0.14062 0.23828 0.23438 0.35156 0.34766zm14.102-14.871c-0.13672-0.007812-0.19141-0.058594-0.23047-0.16797 0.625-0.62891 1.2539-1.2617 1.8711-1.8828 0.12891 0.015625 0.17969 0.070313 0.21875 0.17578-0.61719 0.62109-1.2383 1.2461-1.8594 1.875zm-0.48828 0.42969c-0.62109 0.625-1.2422 1.25-1.8398 1.8516-0.14062-0.019531-0.1875-0.078125-0.23047-0.16016 0.625-0.62891 1.2422-1.2539 1.8789-1.8906 0.11719 0.066406 0.18359 0.10938 0.19141 0.19922zm-2.2969 2.2578c-0.57812 0.58203-1.1602 1.168-1.7305 1.7422-0.14453 0.042968-0.19531-0.042969-0.27344-0.14062 0.58984-0.59375 1.1836-1.1914 1.7812-1.793 0.13281 0.027344 0.18359 0.085938 0.22266 0.19141zm-2.1797 2.1602c-0.51562 0.51563-1.0195 1.0273-1.5078 1.5195-0.16406-0.003906-0.21875-0.09375-0.26172-0.19531 0.50781-0.50781 1.0117-1.0156 1.543-1.5508 0.097657 0.097656 0.15625 0.15625 0.22656 0.22656zm-2.1719 1.7305c0.0625-0.042969 0.13672 0.0625 0.20312 0.16016-0.50781 0.51172-1.0234 1.0312-1.5547 1.5625-0.12109-0.03125-0.18359-0.09375-0.22656-0.23438 0.51562-0.49219 0.97656-1.0625 1.5781-1.4883zm-1.7656 2.1328c-0.39844 0.39844-0.79688 0.80469-1.1914 1.1992-0.16406 0-0.23438-0.089843-0.28516-0.22266 0.39844-0.40234 0.80078-0.80469 1.1836-1.1914 0.16797 0.007812 0.22266 0.10156 0.29297 0.21484zm-1.6367 1.6172c-0.36328 0.36719-0.73438 0.73828-1.0977 1.1055-0.15234-0.023438-0.21875-0.12109-0.29688-0.25781 0.32031-0.41016 0.71094-0.75781 1.1133-1.1055 0.14844 0.058593 0.21484 0.14062 0.28125 0.25781zm-1.5391 1.4688c-0.30859 0.30859-0.61719 0.62109-0.92578 0.93359-0.13672-0.042969-0.21875-0.11719-0.25781-0.26953 0.28906-0.28906 0.58203-0.58594 0.88281-0.89062 0.15625 0.027343 0.21484 0.12109 0.30078 0.22656zm-1.332 1.3438c-0.26562 0.26562-0.57422 0.57812-0.82812 0.83203-0.097656-0.10547-0.17969-0.17969-0.26953-0.27344 0.23438-0.30859 0.51562-0.57422 0.81641-0.82422 0.11719 0.085938 0.18359 0.14062 0.28125 0.26562zm-1.4961 0.92969c0.10937 0.10547 0.18359 0.18359 0.27734 0.27344-0.26172 0.26562-0.51562 0.51953-0.76172 0.76562-0.18359-0.019531-0.25-0.12891-0.30859-0.26953 0.22266-0.28516 0.48438-0.53125 0.79297-0.76953zm-0.9375 1.4297c-0.22266 0.28906-0.45703 0.51953-0.72656 0.75781-0.12891-0.10547-0.23047-0.17578-0.25781-0.32031 0.22266-0.22266 0.44531-0.44922 0.66016-0.66406 0.19531-0.015625 0.22656 0.13281 0.32422 0.22656zm-1.1562 1.1406c-0.19141 0.19141-0.38672 0.39062-0.58203 0.58594-0.13281-0.054688-0.20312-0.14453-0.27344-0.27734 0.14453-0.23828 0.35938-0.41016 0.57031-0.58203 0.14453 0.054687 0.22266 0.14062 0.28516 0.27344zm-1.0039 0.97656c-0.10156 0.23047-0.32812 0.33594-0.46484 0.51562-0.16016-0.070313-0.25391-0.16016-0.34766-0.31641 0.16406-0.16406 0.3125-0.31641 0.46484-0.46484 0.17578 0.003906 0.25 0.13281 0.34766 0.26562zm-2.168 1.5625c0.15625 0.035156 0.21484 0.13672 0.30078 0.23828-0.29297 0.29297-0.56641 0.57031-0.84766 0.85156-0.22656-0.32031-0.15234-0.47266 0.54687-1.0898zm-8.9141 10.305c-0.33984 0.33984-0.67578 0.67969-1.0195 1.0273-0.16406-0.16406-0.27734-0.27734-0.39453-0.39062 0.37109-0.37109 0.75-0.76172 1.0977-1.1133 0.15234 0.19531 0.21484 0.30469 0.31641 0.47656zm0.61719 3.207c-0.085938 0.13672-0.14844 0.18359-0.25391 0.32813-0.83984-0.83203-1.6602-1.6484-2.5039-2.4883 0.089844-0.11328 0.17188-0.22656 0.29688-0.28125 0.81641 0.80469 1.6289 1.6133 2.4609 2.4414zm29.773-30.512c-0.62891 0.63281-1.2539 1.2617-1.8789 1.8906-0.35547-0.16016 0.64062-0.95312 0.78125-1.0898 0.19141-0.19141 0.83203-1.0859 1.0977-0.80078zm0.3125-0.51172c0.62891-0.63281 1.2578-1.2656 1.8867-1.8984-0.21094 0.39453-1.5898 1.8164-1.8867 1.8984zm-14.078 14.078c0.25781-0.28125 0.55078-0.57031 0.78516-0.83984 0.13672 0.078125 0.19141 0.16016 0.30469 0.27344-0.28906 0.29297-0.54688 0.55078-0.80078 0.80859-0.125-0.050782-0.21094-0.12891-0.28906-0.24219zm-0.125 0.64062c-0.26562 0.26562-0.52734 0.53125-0.80859 0.81641-0.13672-0.050781-0.18359-0.16797-0.27734-0.26953 0.26953-0.27344 0.52344-0.52734 0.77734-0.78516 0.15234 0.003906 0.19922 0.13281 0.30859 0.23828zm1.6055-1.6133c-0.13281-0.054688-0.20312-0.13281-0.26953-0.25781 0.30469-0.30469 0.61328-0.61719 0.92578-0.92969 0.13672 0.035156 0.20312 0.125 0.26172 0.26172-0.29688 0.30078-0.59766 0.60547-0.91797 0.92578zm1.3281-1.3477c-0.13281-0.03125-0.18359-0.14063-0.26953-0.24609 0.36719-0.36719 0.71875-0.72266 1.0859-1.0938 0.12891 0.046875 0.19141 0.12891 0.25781 0.25781-0.35156 0.35156-0.71094 0.71484-1.0742 1.082zm1.5117-1.5352c-0.14453-0.003906-0.20703-0.10156-0.26562-0.23828 0.39844-0.39844 0.80078-0.80469 1.2188-1.2266 0.125 0.054687 0.19922 0.125 0.24219 0.26172-0.39062 0.39453-0.79297 0.79688-1.1953 1.2031zm1.5938-1.6484c-0.11719 0-0.16797-0.097656-0.24219-0.21094 0.50391-0.50781 1.0078-1.0156 1.5352-1.5469 0.10547 0.035157 0.17578 0.09375 0.21875 0.23438-0.49219 0.5-1 1.0078-1.5117 1.5234zm1.8984-1.9727c-0.066406-0.066407-0.125-0.12109-0.19531-0.19531 0.51562-0.51953 1.0195-1.0234 1.5156-1.5234 0.11328 0.007812 0.15234 0.078124 0.21094 0.17969-0.50781 0.50781-1.0195 1.0234-1.5312 1.5391zm1.8906-1.9766c-0.39062-0.10156 0.63672-0.96484 0.75781-1.0859 0.19141-0.19141 0.80859-1.0664 1.043-0.72656-0.58594 0.58984-1.1836 1.1914-1.8008 1.8125zm-11.332 11.043c0.15625 0.039062 0.21484 0.14453 0.30078 0.26172-0.18359 0.27734-0.39844 0.52344-0.6875 0.76172-0.11719-0.11719-0.20312-0.19922-0.29688-0.29688 0.17969-0.29688 0.45312-0.49609 0.68359-0.72656zm-1.3594 2.0195c-0.15625-0.078125-0.25391-0.16797-0.32422-0.31641 0.19531-0.19531 0.39062-0.39062 0.58984-0.59375 0.14844 0.039062 0.21875 0.15234 0.30469 0.27734-0.125 0.26172-0.33984 0.43359-0.57031 0.63281zm-0.72656 0.082031c0.14453 0.0625 0.22656 0.16797 0.31641 0.28906-0.09375 0.23047-0.28516 0.37109-0.47266 0.53516-0.17969-0.066406-0.25781-0.17188-0.35156-0.29297 0.10156-0.24219 0.30859-0.38281 0.50781-0.53125zm-10.582 10.551c0.70312-0.70703 1.3867-1.3984 2.0781-2.0898 0.19141 0.18359 0.27734 0.26172 0.4375 0.42969-0.71875 0.72266-1.4336 1.4453-2.1562 2.168-0.17578-0.1875-0.23047-0.33984-0.35938-0.50781zm0.027344 0.80469c-0.21094 0.21094-0.39062 0.39453-0.58594 0.58984-0.16406-0.19531-0.23047-0.32812-0.33594-0.49609 0.19141-0.20703 0.41016-0.41406 0.60547-0.60938 0.13281 0.20703 0.19531 0.34375 0.31641 0.51562zm3.3164-3.3086c-0.16406 0.16406-0.32031 0.32422-0.50781 0.51172-0.15625-0.15234-0.30469-0.30078-0.4375-0.43359 0.14063-0.14844 0.32422-0.33984 0.50781-0.51953 0.18359 0.14062 0.32031 0.28906 0.4375 0.44141zm-0.066406-0.78906c0.82422-0.82812 1.6367-1.6484 2.4766-2.4922 0.17969 0.125 0.25781 0.23438 0.42188 0.38281-0.81641 0.82031-1.625 1.6953-2.457 2.5312-0.18359-0.14844-0.28906-0.26172-0.44141-0.42188zm-4.1289 5.0469c-0.21094 0.21094-0.41016 0.39844-0.60937 0.59766-0.1875-0.17578-0.32031-0.27734-0.48438-0.46094 0.21875-0.24219 0.43359-0.45703 0.71094-0.73047 0.13672 0.21484 0.25781 0.40234 0.38281 0.59375zm6.9141-7.8906c0.14844-0.16016 0.36328-0.36328 0.55078-0.51172 0.17578 0.10547 0.32812 0.28125 0.44531 0.43359-0.16016 0.21484-0.34766 0.38281-0.51953 0.54297-0.17188-0.19141-0.32422-0.3125-0.47656-0.46484zm0.94922-0.87891c0.14844-0.15234 0.21094-0.23437 0.35156-0.36719 0.15625 0.11719 0.32422 0.24219 0.5 0.375-0.14453 0.14453-0.29688 0.3125-0.42969 0.44531-0.16406-0.15234-0.25781-0.28906-0.42188-0.45313zm0.83984-0.84375c0.29297-0.29687 0.56641-0.57031 0.85547-0.85937 0.16797 0.0625 0.26953 0.20312 0.37109 0.33203-0.46875 0.67578-0.83984 0.85156-1.2266 0.52734zm1.6992-0.94531c-0.19531-0.023438-0.27734-0.18359-0.41797-0.32422 0.1875-0.1875 0.34375-0.34766 0.5-0.50391 0.17187 0.054687 0.25391 0.17969 0.35937 0.30078-0.082031 0.22656-0.28516 0.34375-0.44141 0.52734zm27.828-28.922c-0.10547-0.16406 0.14844-0.19531 0.089844-0.33594-0.16016-0.13281-0.30859-0.023438-0.49219 0.066406 0.078124-0.22656 0.39453-0.39062 0.58984-0.16406 0.12109 0.14062 0.066407 0.55469-0.1875 0.43359zm-39.785 41.309c-0.20703 0.42578-0.51953 0.64062-0.8125 0.92969-0.082031-0.32812 0.32031-0.78125 0.8125-0.92969zm-1.1641 0.52344c0.14844-0.38281 0.42578-0.63281 0.78125-0.80859-0.17578 0.35938-0.41406 0.64844-0.78125 0.80859zm-0.23828-0.19922c-0.11328-0.17969-0.21484-0.32813-0.42188-0.42578 0.21484-0.35547 0.48438-0.59375 0.84766-0.83203 0.023438 0.42969-0.38672 0.53516-0.50391 0.86328 0.32422-0.13281 0.46875-0.42578 0.73828-0.55469 0.066406 0.25391 0.066406 0.25391-0.66016 0.94922zm-0.60938-0.60938c-0.058594-0.27734 0.24609-0.64062 0.75391-0.91016-0.20312 0.41016-0.50391 0.61719-0.75391 0.91016zm-0.16797-0.32812c-0.13672 0.007812-0.20703-0.035157-0.23438-0.14453 0.011719-0.15234 0.64453-0.65234 0.90234-0.68359-0.14453 0.39453-0.47656 0.56641-0.66797 0.82813zm-0.33984-0.35156c-0.13281 0.027344-0.19531-0.027344-0.21484-0.125 0.24219-0.24219 0.47656-0.48047 0.71484-0.71875 0.011718 0.42188-0.34766 0.56641-0.5 0.84375zm-0.38672-0.26172c0.03125-0.32422 0.36719-0.67188 0.78516-0.84766-0.18359 0.42188-0.52734 0.59375-0.78516 0.84766zm-0.25-0.19531c-0.15234-0.32031 0.14453-0.69922 0.73438-1.0156-0.14844 0.46094-0.58203 0.59375-0.73438 1.0156zm5.6992-0.33203c-0.14062 0.0625-0.37891-0.019531-0.47656-0.13672-0.023437-0.03125-0.050781-0.0625-0.074219-0.097656l0.55859-0.5625c0.33594 0.4375 0.28125 0.67187-0.007812 0.79687zm29.859-36.992c-0.007813-0.37891 0.007812-0.60547 0.35156-0.80078 0.54297-0.3125 1.1875-0.49609 1.7656-0.73438 2.4258-0.99609 4.8516-1.9883 7.2734-2.9805 0.88672-0.36328 2.1875-1.2539 3.1719-0.82422 0.82422 0.35938 0.91406 1.375 0.51172 2.0859-0.52344 0.92578-1.7891 0.94141-2.707 1.2148-0.55078 0.16406-1.1445 0.30469-1.5273 0.76563-0.39844 0.48047-0.63672 1.125-0.96484 1.6562-0.32422 0.52734-0.67578 1.1367-1.1836 1.5078-0.49609 0.36328-1.1055 0.42188-1.6914 0.55078-0.67188 0.14844-1.3438 0.31641-1.9883 0.56641-0.65625 0.25391-1.1914 0.73047-1.8398 0.97656 1.9844-1.9961 3.9688-3.9961 5.9336-5.9727 0.20312-0.019532 1.0664-0.47656 0.75391-1.0508-0.13281-0.24609-0.41797-0.41406-0.70312-0.36328-0.68359 0.125-0.60938 0.875-0.30469 1.3164-1.9492 1.9648-3.9023 3.9258-5.8398 5.875-0.19141-0.042969-0.26563-0.15234-0.37109-0.30859 1.3477-1.5703 2.9141-2.9531 4.3008-4.5-0.023437-0.023438-0.050781-0.050782-0.074219-0.074219-1.4531 1.4609-2.9062 2.9219-4.3281 4.3555-0.21094-0.003906-0.27734-0.097656-0.32812-0.24219 0.76953-1.3164 1.8867-2.3398 2.9766-3.4102 0.85156 0.32031 1.3516-0.89453 0.58594-1.3203-0.30078-0.16797-0.70703-0.074219-0.88281 0.23437-0.17969 0.31641-0.007813 0.76172 0.10156 1.0742-1.1055 0.9375-2.1016 2.0156-2.9297 3.2148-0.18359-0.03125-0.24609-0.13672-0.31641-0.27734 0.53906-0.63672 0.88672-1.4102 1.3828-2.0977 0.36328 0.09375 0.73438 0.10938 0.91797-0.27734 0.16797-0.35547 0.058594-0.85156-0.29297-1.0508-0.30859-0.17969-0.70703-0.074219-0.91016 0.21875-0.22266 0.32812-0.074219 0.70703 0.13281 1.0039-0.5 0.64062-0.78516 1.4414-1.3945 2.0078-0.37109-0.15625 0.19922-0.66406 0.28906-0.91797 0.18359-0.46484 0.14453-0.94531 0.12891-1.4219zm3.1914-0.92969c-0.09375-0.29688 0.15625-0.55859 0.44531-0.35547 0.26953 0.1875 0.10937 0.51953-0.18359 0.54297 0.050781-0.16016 0.21094-0.23438 0.15234-0.39453-0.20313-0.14453-0.28906 0.070313-0.41406 0.20703zm-1.9609 0.75c-0.14063-0.13281-0.058594-0.25391-0.019532-0.375 0.13281-0.10547 0.27344-0.10547 0.45312-0.046876 0.21484 0.40625 0.19531 0.47266-0.16797 0.58594 0.015626-0.15234 0.20313-0.23047 0.14453-0.42188-0.25391-0.14453-0.3125 0.089844-0.41016 0.25781zm-25.996 25.555c0.078125 0.1875 0.19141 0.37891 0.25781 0.53125-0.13672 0.17578-0.25781 0.27734-0.38281 0.38281-0.13281-0.125-0.24609-0.25781-0.40625-0.38281l0.53125-0.53125zm-0.91016 0.875c0.14062 0.11719 0.25391 0.23438 0.375 0.35156-0.16406 0.19922-0.35156 0.38672-0.50391 0.5625-0.14844-0.14844-0.26172-0.26172-0.39062-0.38672 0.18359-0.1875 0.35156-0.35547 0.51953-0.52734zm-0.875 0.83203c0.15234 0.14844 0.27344 0.26953 0.38672 0.38672-0.82812 0.83203-1.6367 1.6484-2.4688 2.4844-0.14453-0.14453-0.26172-0.26172-0.38672-0.38672 0.83594-0.83984 1.6445-1.6562 2.4688-2.4844zm-2.8555 2.8047c0.14844 0.14844 0.26172 0.26172 0.38672 0.38281-0.24219 0.23438-0.37891 0.42578-0.55078 0.57422-0.14844-0.16016-0.24219-0.29297-0.36328-0.41797 0.15625-0.1875 0.33203-0.33984 0.52734-0.53906zm-0.83984 0.83203c0.14062 0.15234 0.24609 0.26953 0.36719 0.40625-0.54297 0.54688-1.0742 1.082-1.6406 1.6523-0.13672-0.1875-0.23828-0.32422-0.32813-0.44922 0.54297-0.53906 1.0625-1.0664 1.6016-1.6094zm-1.9531 1.8984c0.13281 0.16406 0.24219 0.28125 0.33594 0.44922-0.18359 0.18359-0.36328 0.36719-0.5625 0.56641-0.14453-0.17969-0.23828-0.31641-0.30859-0.47656 0.16016-0.15234 0.32422-0.33203 0.53516-0.53906zm-0.59375 1.3516c-0.37109 0.375-0.74219 0.74609-1.1094 1.1172-0.15625-0.12891-0.29297-0.23437-0.40234-0.37109 0.40625-0.40625 0.83203-0.83984 1.2305-1.2422 0.10938 0.1875 0.20703 0.33203 0.28125 0.49609zm2.1211-6.9961c0.94531-0.45312 1.9141-0.89844 2.7422-1.5508 0.86719-0.68359 1.4805-1.6055 2.0859-2.5156 0.39062-0.58984 0.99219-1.9492 1.8359-1.9453 0.89062 0.003907 0.84375 1.3477 1.1055 1.9219-0.46094 0.46094-0.94922 0.91016-1.3789 1.4023-0.19141 0.21875-0.32031 0.45312-0.47656 0.69531-0.19531 0.30078-0.46094 0.49219-0.71094 0.74219-0.3125-0.19141-0.62109-0.32812-0.96484-0.13281-0.11719-0.082031-0.17188-0.22656-0.30078-0.28125-0.058594-0.023438-0.12891-0.019531-0.18359 0.007812-0.10938 0.054688-0.18359 0.14844-0.20703 0.27734 0.019531 0.21484 0.21094 0.21094 0.33203 0.3125-0.17578 0.34375-0.125 0.68359 0.066406 0.98828l-2.4766 2.4922c-0.30859-0.24609-0.61719-0.29688-0.97656-0.13672-0.41406-0.83594-0.96094 0.34375-0.30859 0.27344-0.24219 0.38281-0.17578 0.71484 0.050781 1.0273-0.51953 0.52344-1.0625 1.0586-1.5781 1.582-0.20312-0.21484-0.53516-0.26953-0.84375-0.11328-0.35156-0.71094-0.98438 0.085938-0.27734 0.22656-0.30469 0.31641-0.28906 0.64453-0.082031 0.98047l-1.3047 1.3125-0.67969-0.67578c-0.45312 0.21094-0.66406 0.62891-1.0586 0.88672-1.2891-1.2969-0.67578-3.5312 0.39844-4.7578 1.3398-1.5312 3.418-2.168 5.1914-3.0195zm-12.891 3.5391c1.0273-1.375 2.6289-2.2734 4.1172-3.0586 0.85547-0.44922 1.7188-0.88281 2.5859-1.3086 0.40625-0.19922 0.8125-0.39844 1.2148-0.59766 0.24609-0.12109 0.875-0.58203 1.1562-0.48047-1.1016 1.2188-2.5898 2.0195-3.9297 2.9453-1.25 0.86328-2.4961 1.7891-3.4219 3.0117-1.9023 2.5078-1.5508 5.5664-0.92969 8.4648-1.0078-1.2969-1.5117-3.2812-1.7188-4.8828-0.1875-1.4688 0.023437-2.8906 0.92578-4.0938zm8.043 18.957c-1.8828-1.168-3.5156-2.7383-5.1523-4.2227-1.6055-1.4531-3.2148-2.9648-4.3945-4.8008-0.55859-0.87109-1.0234-1.8086-1.3359-2.793-0.24609-0.77734-0.57812-1.8672-0.27344-2.6641 0.58203 4.043 3.4023 7.1992 6.2891 9.875 2.7383 2.5391 5.8047 5.4531 9.7852 5.4961-1.5312 0.89062-3.582-0.0625-4.918-0.89062zm4.0664-6.582c0.95312 0.98047 0.87109 2.8828 0.74219 4.1445-0.054687 0.54297-0.0625 1.7188-0.58203 2.043-0.60547 0.37891-1.0195-0.57031-1.2422-0.96875-0.64453-1.1562-1-2.4531-0.95703-3.7852 0.039063-1.082 0.92188-2.5742 2.0391-1.4336zm4.2305 5.2266c-1.0352 0.51953-1.5273-0.47266-1.6562-1.3516-0.19141-1.2852-0.19531-2.5508-0.57812-3.8047-0.18359-0.60938-0.42969-1.1953-0.74219-1.75-0.34766-0.61719-0.83594-1.1016-1.2852-1.6445 0.29297-0.37891 0.66797-0.64844 0.90234-1.0898l-0.73438-0.73047c0.20703-0.21875 0.375-0.40234 0.58984-0.59375 0.29688 0.22266 0.61719 0.375 0.99219 0.14063 0.054687 0.12891 0.082031 0.26953 0.16406 0.36328 0.085938 0.09375 0.22266 0.10547 0.32031 0.023437 0.03125-0.027344 0.054687-0.054687 0.078125-0.089844 0.070312-0.097656 0.066406-0.23047-0.019532-0.3125-0.054687-0.050781-0.12109-0.09375-0.17969-0.15234 0.33203-0.42969 0.09375-0.81641-0.125-1.2188l2.2031-2.2188c0.32422 0.24609 0.65625 0.42188 1.0508 0.19531 0.10156 0.17969 0.29688 0.39453 0.52344 0.22266 0.25391-0.19531 0.003906-0.39453-0.125-0.55859 0.082031-0.37891 0-0.74219-0.25781-1.0664l2.4805-2.4961c0.34766 0.22266 0.67578 0.49219 1.1328 0.19531 0.085937 0.25781 0.38672 0.27734 0.45312-0.011718 0.054688-0.23047-0.28516-0.19922-0.22656-0.26563 0.19531-0.23047 0.34766-0.59375-0.10938-1.0664 0.34766-0.52344 0.8125-0.81641 1.3945-0.90234 0.33594 1.9258 2.2227 3 4.043 3.2031 0.89844 0.10156 1.8086-0.042969 2.625-0.4375 0.42578-0.20703 0.82422-0.46875 1.2148-0.73047 0.27344-0.18359 0.55469-0.43359 0.88672-0.48828 0.125-0.019532 0.25 0.058593 0.27734 0.18359 0.20312 0.88672-0.90625 2.0195-1.4492 2.5352-0.91406 0.86328-2.0039 1.457-3.1445 1.9609-1.082 0.47656-2.2031 0.91016-3.2031 1.5469-1.0625 0.67969-1.8359 1.6367-2.4336 2.7383-1.1914 2.1953-1.7148 4.668-2.7969 6.9062-0.49609 1.0273-1.2109 2.2344-2.2656 2.7656zm0.75-15.258c0.0625 0.007812 0.066407 0.023437 0.10547 0.054687 0.13672 0.10156 0.15234 0.30078 0.050781 0.4375-0.046874 0.058594-0.097656 0.10938-0.15625 0.15234-0.13281 0.09375-0.32031 0.066406-0.41797-0.0625-0.015625-0.023437-0.03125-0.046875-0.046875-0.074219 0.16797-0.19922 0.30469-0.32812 0.46484-0.50781z" fill="#fff"/>
 <path d="m50.07 61.23c0.09375 0.09375 0.24609 0.09375 0.33984 0s0.09375-0.24609 0-0.33984-0.24609-0.09375-0.33984 0c-0.097656 0.09375-0.09375 0.24609 0 0.33984z" fill="#fff"/>
 <path d="m45.535 56.172c0 0.32031-0.47656 0.32031-0.47656 0 0-0.31641 0.47656-0.31641 0.47656 0" fill="#fff"/>
 <path d="m42.82 49.445c0.09375-0.09375 0.09375-0.24609 0-0.33984s-0.24609-0.09375-0.33984 0-0.09375 0.24609 0 0.33984 0.24609 0.09375 0.33984 0z" fill="#fff"/>
 <path d="m36.953 54.75c0.09375 0.09375 0.24609 0.09375 0.33984 0s0.09375-0.24609 0-0.33984-0.24609-0.09375-0.33984 0-0.09375 0.24609 0 0.33984z" fill="#fff"/>
 <path d="m32.312 57.148c0 0.32031-0.48047 0.32031-0.48047 0 0-0.32031 0.48047-0.32031 0.48047 0" fill="#fff"/>
 <path d="m42.238 65.812c0.09375-0.09375 0.09375-0.24609 0-0.33984s-0.24609-0.09375-0.33984 0-0.09375 0.24609 0 0.33984c0.097656 0.09375 0.24609 0.09375 0.33984 0z" fill="#fff"/>
 <path d="m42.262 69.867c0 0.31641-0.48047 0.31641-0.48047 0 0-0.32031 0.48047-0.32031 0.48047 0" fill="#fff"/>
 <path d="m34.746 70.645c0 0.32031-0.48047 0.32031-0.48047 0 0-0.32031 0.48047-0.32031 0.48047 0" fill="#fff"/>
 <path d="m34.895 76.27c0.09375 0.09375 0.24609 0.09375 0.33984 0s0.09375-0.24609 0-0.33984-0.24609-0.09375-0.33984 0-0.09375 0.24609 0 0.33984z" fill="#fff"/>
 <path d="m30.684 61.09c-0.09375-0.09375-0.24609-0.09375-0.33984 0s-0.09375 0.24609 0 0.33984 0.24609 0.09375 0.33984 0 0.09375-0.24609 0-0.33984z" fill="#fff"/>
 <path d="m54.188 58.055c0 0.31641-0.48047 0.31641-0.48047 0 0-0.32031 0.48047-0.32031 0.48047 0" fill="#fff"/>
</svg>
