<?xml version="1.0" encoding="UTF-8"?>
<svg viewBox="0 0 100 100" xmlns="http://www.w3.org/2000/svg">
 <rect x="-10" y="-10" width="120" height="120"/>
 <path d="m78.199 41.625c-30.789-17.969-15.539-9.0703-19.949-11.641-0.18359-0.10547-0.41016-0.10938-0.59375-0.003906l-35.875 20.625c-0.21094 0.12109-0.29688 0.375-0.29688 0.51172 0 0.003906-0.003906 0.003906-0.003906 0.007812l0.015625 6.7344c0 0.21094 0.11328 0.40625 0.29297 0.51172 23.797 13.879 13.266 7.7383 19.965 11.645 0.1875 0.10938 0.41406 0.10547 0.59375 0 14.973-8.5898 35.703-20.527 35.871-20.625 0.18359-0.10547 0.29688-0.30469 0.29688-0.51562l-0.023437-6.7383c0-0.21094-0.11719-0.40625-0.29297-0.51172zm-5.3008 3.3984 0.003906 1.1719c-1.1797-0.69141-9.8945-5.7773-11.199-6.5391l-0.003906-1.1758c0.16406 0.10156 11.051 6.457 11.199 6.543zm-24.148 9.1797 0.70312-0.40234c0.18359-0.10547 0.29688-0.30078 0.29688-0.51172 0-0.21094-0.11328-0.41016-0.29297-0.51562l-4.6406-2.7148c0.14062-0.082032 2.8125-1.6211 2.6914-1.5547l5.2227 3.0586c0.18359 0.10938 0.41016 0.10938 0.59766 0l1.043-0.60156 5.6875 3.3164-5.625 3.2344zm10.926-7.6523-4.3438-2.543 1.5781-0.91016 4.3516 2.543zm-10.977 1.2734 1.5586-0.89844 4.3516 2.5312-1.5781 0.91016zm6.8594 2.457 0.53516-0.30859c0.18359-0.10547 0.29688-0.30078 0.29688-0.51562 0-0.21094-0.11328-0.41016-0.29688-0.51562l-4.6523-2.7031c0.12891-0.074219 2.8242-1.6289 2.6914-1.5508l5.2344 3.0625c0.09375 0.054688 0.19531 0.082031 0.29687 0.082031h0.003907c0.10156 0 0.20312-0.027343 0.29688-0.078125l0.98438-0.56641 5.6797 3.3164-5.3828 3.0938zm6.5781-3.7773 0.59766-0.34375c0.18359-0.10547 0.29688-0.30078 0.29688-0.51172 0-0.21094-0.11328-0.40625-0.29297-0.51563l-4.6406-2.7148 3.0078-1.7305c6.0352 3.5234 4.8438 2.8281 11.211 6.5469l-4.5 2.5898zm-20.09 5.1445 1.5781-0.91016 4.3477 2.543c-0.11719 0.070312-1.6992 0.97656-1.582 0.91016zm18.461-13.176c0 0.12109 0.003907 1.3047 0.003907 1.1875-0.17188 0.097656-24.355 14.004-24.223 13.926l-1.0156-0.59375zm-23.031 15.801 3.3828-1.9414 5.2266 3.0586c0.09375 0.054687 0.19531 0.082031 0.29687 0.082031h0.003907c0.10156 0 0.20312-0.027344 0.29688-0.078125l0.87891-0.50391 5.6836 3.3125-6.1875 3.5664-0.007813-1.5586c0-0.12109-0.125-0.41016-0.29297-0.51172zm20.469-23.094 18.77 10.953-3.2227 1.8594c-0.32422-0.1875-12.277-7.168-12.098-7.0625-0.18359-0.10547-0.41016-0.10547-0.59375 0l-27.008 15.543c-0.18359 0.10547-0.29688 0.30078-0.29688 0.51172s0.11328 0.40625 0.29297 0.51562c0.94531 0.55078-3.8086-2.2266 11.48 6.707l-3.2461 1.8711c-1.918-1.1211 6.9492 4.0586-18.766-10.953zm-35.262 26.34-0.011719-5.3594c0.55859 0.32812 18.203 10.625 18.762 10.949l0.019531 5.3594zm19.957 10.961-0.019531-5.3711 3.2461-1.8711 0.019531 5.3789zm4.4492-5.3594 25.82-14.859 0.011719 2.8125-25.832 14.859zm27.016-12.73c-0.011719-4.6211-0.019531-5.4336-0.019531-5.3672 0.15625-0.089844 3.4297-1.9766 3.2227-1.8594l0.019531 5.3672z" fill="#fff"/>
 <path d="m39.09 45.863c0.99609 0.57812 2.5664 0.57812 3.5742 0l0.003907-0.003906c1.2266-0.71875 1.2344-2.0586 0.019531-2.7617-1.0273-0.58594-2.5703-0.58203-3.5859 0.011719-1.2266 0.70312-1.2266 2.0273-0.011718 2.7539zm0.60938-1.7266c0.64453-0.37891 1.7461-0.38281 2.3945-0.011719 0.42188 0.24609 0.40234 0.45703-0.023438 0.70703-0.65234 0.37109-1.7461 0.37109-2.3828 0.003907-0.42188-0.25391-0.41797-0.45313 0.011719-0.69922z" fill="#fff"/>
 <path d="m44.535 42.723c1 0.58203 2.5703 0.57422 3.5742 0 0 0 0.003906 0 0.003906-0.003906 1.2344-0.72266 1.2227-2.0664 0.027344-2.7578-0.99219-0.58984-2.5664-0.58984-3.5938-0.003907-1.2188 0.69922-1.2383 2.0391-0.011719 2.7656zm0.60156-1.7305c0.65234-0.375 1.7734-0.375 2.4023 0 0.42578 0.24609 0.39844 0.45703-0.023437 0.70703-0.65234 0.37109-1.7422 0.375-2.3828 0.003906-0.40625-0.24609-0.4375-0.45703 0.003907-0.71094z" fill="#fff"/>
 <path d="m49.977 39.574c0.99609 0.57812 2.5664 0.57812 3.5742 0h0.003907c1.2188-0.70703 1.2344-2.0625 0.019531-2.7656-1.0195-0.58203-2.5977-0.57422-3.582 0.011718-1.2305 0.70703-1.2344 2.0508-0.015626 2.7539zm0.61328-1.7227c0.62891-0.375 1.75-0.37891 2.3945-0.007812 0.40625 0.23438 0.40625 0.45703-0.023437 0.70703-0.65625 0.37109-1.7461 0.37109-2.3867 0-0.43359-0.25391-0.41016-0.45703 0.015625-0.69922z" fill="#fff"/>
 <path d="m55.418 36.438c1 0.57812 2.5703 0.57812 3.5742 0 0.003906 0 0.003906-0.003906 0.007812-0.003906 1.2148-0.72266 1.2266-2.0586 0.015625-2.7617-1.0117-0.57812-2.5859-0.57812-3.5898 0.003906-1.2188 0.71875-1.2422 2.0391-0.007812 2.7617zm0.60938-1.7344c0.63672-0.37109 1.7578-0.36328 2.3984 0 0.39453 0.23047 0.41797 0.44141-0.023437 0.70703-0.65625 0.37109-1.7461 0.37109-2.3828 0-0.45312-0.26172-0.40625-0.46484 0.007813-0.70703z" fill="#fff"/>
 <path d="m33.648 49.012c0.99609 0.57812 2.5664 0.57422 3.5742-0.011719 1.2383-0.70703 1.2344-2.0547 0.027344-2.75-1.0234-0.59766-2.5703-0.60156-3.5898-0.003906-1.2148 0.69531-1.2383 2.0352-0.011718 2.7656zm0.60937-1.7383c0.65234-0.37891 1.7461-0.37891 2.3984 0 0.42578 0.24609 0.39844 0.45312-0.019531 0.69141h-0.003907c-0.64062 0.37109-1.7539 0.375-2.3789 0.015625-0.40625-0.23438-0.44922-0.44531 0.003906-0.70703z" fill="#fff"/>
 <path d="m28.207 52.148c1.0039 0.58203 2.5742 0.58203 3.5781 0h0.003906c1.2422-0.72656 1.2188-2.0703 0.027344-2.7578-0.98828-0.58984-2.5664-0.58984-3.5938-0.003906-1.2109 0.69531-1.2383 2.0312-0.015625 2.7617zm0.60547-1.7344c0.32812-0.1875 0.77344-0.28125 1.2148-0.28125 0.4375 0 0.875 0.09375 1.1875 0.27734 0.42188 0.24609 0.40234 0.45703-0.023438 0.70703-0.63672 0.36719-1.75 0.36719-2.3828 0.003906-0.40234-0.23828-0.4375-0.45312 0.003906-0.70703z" fill="#fff"/>
</svg>
