<?xml version="1.0" encoding="UTF-8"?>
<svg width="100pt" height="100pt" version="1.1" viewBox="0 0 100 100" xmlns="http://www.w3.org/2000/svg">
 <path d="m91.164 37.871c1.5195 0.4375 6.457 0.5625 5.6133 3.293-0.11328 0.35938-0.25 0.71094-0.41016 1.0508 0.027343 0.078125 0.039062 0.16406 0.042968 0.24609 0 2.4531-0.26172 4.8984-0.76953 7.2969-0.015625 0.058594-0.035156 0.11328-0.0625 0.16406-0.011719 0.070313-0.039063 0.14062-0.078125 0.19922-5.1289 8.8086-12.988 15.812-19.531 23.543-2.4883 2.9414-6.332 6.7617-10.492 6.9141-4.1914 0.15625-8.1445-3.7188-11.641-5.6719-0.19141-0.097656-0.32031-0.28906-0.33203-0.50391-0.45703-0.23438-0.91797-0.46094-1.3672-0.70312-4.8086-2.5586-9.6484-5.0859-14.305-7.9336-4.6328-2.8398-9.5508-5.1836-14.16-8.0547-4.3867-2.832-8.9258-5.4141-13.602-7.7344-1.582-0.76562-3.2148-1.4688-4.3594-2.8477-1.0352-1.25-0.99609-3.2812-1.5469-4.7578v-0.015625c-0.097656-0.082031-0.16797-0.19531-0.19922-0.32031-0.64062-2.2461 3.9414-4.6211 5.332-5.5117 3.0703-1.9727 6.3594-3.6211 9.3906-5.6406v0.003907c0.027344-0.050781 0.0625-0.097657 0.10156-0.13672 0.33594-1.7227 0.84375-3.4102 1.5156-5.0312 0.039062-0.09375 0.097656-0.17578 0.17969-0.24219 0.097656-0.15625 0.26172-0.26172 0.44922-0.28516 1.6172-1.1445 3.3945-2.043 5.2773-2.6641 2.6953-1.0625 5.3672-2.1133 8.125-3.0195 0.042968-0.015624 0.085937-0.027343 0.13281-0.03125 0.13672-0.058593 0.28516-0.070312 0.42969-0.039062 5.4062 1.1914 10.812 2.3867 16.172 3.7969 5.375 1.4141 10.617 3.2969 15.996 4.6797 5.3711 1.2734 10.652 2.9023 15.809 4.875 2.3984 0.96484 6.6797 1.5781 7.6719 4.3438h0.003906c0.035157 0.089844 0.046875 0.1875 0.042969 0.28125 0.12109 0.15625 0.25391 0.30078 0.39453 0.43359 0.0625 0.003906 0.12109 0.011719 0.17578 0.023438zm1.9453 6.5781c0.40625-0.48438 3.4102-3.7578 1.8125-4.2578-0.39453-0.125-0.79297-0.22266-1.1914-0.32031 0.027343 0.14062 0.046875 0.28125 0.050781 0.42578 0.03125 1.2695-1.957 3.2227-2.6523 4.1406-3.1289 4.1797-6.5078 8.168-10.113 11.945-3.9297 4.0977-7.6211 8.4219-11.051 12.949-1.3711 1.8125-3.0469 4.8477-5.6875 4.6328-1.582-0.13672-3.2109-1.8828-4.5508-2.6367l-6.9453-3.8906c-5.3164-2.9766-10.629-5.9492-15.945-8.9219-9.8711-5.5195-19.582-11.461-29.676-16.57-0.27734 0.09375-0.54688 0.20703-0.8125 0.33594 9.7227 4.9766 19.105 10.688 28.633 16.023 9.6758 5.418 19.75 10.434 29.133 16.336 2.7188 1.707 4.5898-2.5117 5.918-4.2578 1.3906-1.8008 2.9297-3.4766 4.6055-5.0156 3.9766-3.7656 7.6992-7.7969 11.133-12.066 2.418-2.9766 4.8906-5.9023 7.3438-8.8477zm1.7695 1.3711c0.046875-0.48437 0.085938-0.97266 0.11328-1.4648-1.0898 1.3828-2.4062 2.6289-3.4883 3.9258-4.0391 4.8789-7.7383 10.109-12.273 14.562-2.3164 2.2773-4.9688 4.3594-7 6.9102-1.4531 1.8125-2.6406 4.2148-4.3516 5.8047-1.1445 1.0625-2.375 1.5625-3.8086 0.66016-2.4297-1.5312-5-2.8594-7.5039-4.2617-5.8633-3.293-11.734-6.582-17.609-9.8711-10.992-6.1562-21.832-12.762-33.047-18.508 0.11328 0.50391 0.22266 1.0078 0.37891 1.5078 0.53125 1.6758 1.6875 2.3633 3.1523 3.0742 1.7344 0.84766 3.4609 1.7188 5.1953 2.5664 4.2891 2.0938 8.0742 4.9219 12.203 7.3008 8.0078 4.6133 16.043 9.2695 24.219 13.574 2.3438 1.2305 4.7188 2.4336 7.0664 3.6602 1.6875 0.87891 3.4102 2.5312 5.3125 2.875 3.5 0.61328 5.3125-2.0078 7.3555-4.2852 1.5508-1.7227 3.1406-3.4219 4.668-5.168 6.5195-7.457 13.141-14.902 19.246-22.699v-0.003906c0.046875-0.0625 0.10547-0.11719 0.17188-0.16016zm-0.55469 3.5742c0.078125-0.33594 0.12891-0.67969 0.19531-1.0156-6.7969 8.5742-14.102 16.855-21.441 24.961-1.2969 1.4258-2.7227 3.3984-4.4414 4.7617 3.7578-2.0117 5.9375-5.1328 8.707-8.2266 5.8711-6.5742 12.504-12.754 16.98-20.422v-0.003906c0.003906-0.015625 0.003906-0.035157 0.003906-0.054688zm-2.3125-8.8086c-0.003907-0.011719-0.015625-0.015626-0.019531-0.023438-0.96094-1.0469-2.1641-1.7852-2.8867-2.9688l0.003906 0.003906c-3.207 2.4805-6.2031 5.2266-8.9531 8.2031 0.050781 0.21875-0.003906 0.44922-0.14062 0.625-0.32812 2.918-0.81641 5.8164-1.4609 8.6836-0.046876 0.22656-0.21875 0.40625-0.44141 0.46094-3.3984 4.1602-7.2344 8.0156-10.645 12.176-1.043 1.2695-1.8203 2.918-3.3242 3.6992l-0.003906-0.003906c-0.625 0.24219-1.3242 0.19531-1.9141-0.12109-0.003906 0.003907-0.003906 0.011719-0.011718 0.019532-0.003906 0.011718-0.027344 0.042968-0.042969 0.070312 1.25 0.78125 2.5859 1.4297 3.2305 0.99609 1.4336-0.96484 2.3633-2.4141 3.3906-3.7656l0.003906 0.003906c2.4297-3.3633 5.0547-6.5859 7.8516-9.6484 3.1719-3.3359 6.4531-6.5938 9.3594-10.164 1.5469-1.8984 3.0703-3.8242 4.4961-5.8125 0.67188-0.94531 1.4688-1.7188 1.5117-2.4297zm-3.6328-4.1328c-1.3398-0.98047-3.75-1.5117-4.9102-1.9805-2.2266-0.89453-4.4609-1.8203-6.75-2.5547-4.6328-1.4805-9.4414-2.3281-14.051-3.8555l0.003906 0.003906c-9.1758-2.9062-18.5-5.3359-27.93-7.2773-0.015626 0.007813-0.03125 0.015626-0.046876 0.023438-2.5273 0.82812-4.9766 1.7852-7.4531 2.7617v-0.003907c-1.3633 0.48438-2.6992 1.0469-3.9961 1.6914 4.2539 0.44141 8.4727 2.3125 12.605 3.168 2.5859 0.41016 5.1445 0.96094 7.6719 1.6484 2.4297 0.78516 4.7617 1.7969 7.1328 2.75 4.9688 1.9961 10.098 3.418 14.914 5.7852 2.5039 1.2305 4.9766 2.5273 7.5234 3.6562 2.0547 0.77734 4.0625 1.668 6.0156 2.6641 2.8477-3.0859 5.9492-5.9219 9.2734-8.4766zm-10.809 16.934c0.50391-2.3555 0.75781-4.7461 1.1133-7.125-1.9648-1.1875-4.1875-1.8672-6.2695-2.8203-2.5391-1.168-5.0156-2.4414-7.5273-3.6562-4.7305-2.2852-9.7461-3.6602-14.59-5.6484-2.3281-1.043-4.7109-1.9609-7.1367-2.75-2.5156-0.73047-5.1133-1.0938-7.6758-1.6484-4.543-0.98047-9.3828-3.2266-14.066-3.2109-0.53906 1.3555-0.94922 2.7578-1.2266 4.1914 3.9258 0.64062 7.457 2.9219 11.074 4.4805 5.4531 2.3359 10.941 4.5781 16.469 6.7227 9.8984 3.8359 19.773 8.0938 29.836 11.465zm-6.6797 3.3203c0.85938 1.7852-1.4062 3.8789-2.5156 4.9297h-0.003906c-2.4844 2.4414-4.7773 5.0742-6.8477 7.8789 0.875 0.39453 2.0664 0.92188 2.6445 0.27734 0.5625-0.64062 1.0898-1.3086 1.5742-2.0078 0.98828-1.3438 2.2109-2.4883 3.2656-3.7852 2.6016-3.2031 5.5-6.1602 8.1094-9.3438-10.023-3.3594-19.883-7.5859-29.734-11.422-4.6484-1.8047-9.2734-3.6523-13.855-5.6055-2.4219-1.0312-4.8438-2.0391-7.2031-3.2031-2.1953-1.0859-4.3867-2.1641-6.8438-2.4414-2.2656 1.5078-4.7188 2.7539-7.0391 4.1719-0.91797 0.55859-6.5898 3.5352-7.1406 5.1406 0.52734-0.28906 1.0781-0.52344 1.6484-0.71094 0.17969-0.0625 0.375-0.039063 0.53125 0.066406 0.09375 0.003906 0.17969 0.03125 0.26172 0.078125 0.011718 0.003906 0.027343 0.011719 0.039062 0.015625s0.015625-0.011719 0.023438-0.015625c3.3867-2.0508 6.5078-4.793 10.242-6.2422 3.375-1.3086 7.1758 1.582 10.137 2.9922 4.1523 1.9688 8.4023 3.6914 12.543 5.6836 3.9414 1.8945 8.1289 3.1836 12.078 5.0586 3.4102 1.6289 6.7617 3.5 10.398 4.5898 2.4688 0.74219 6.4375 1.2812 7.6836 3.8945zm-4.5977 5.0547c1.5273-1.5234 5.1914-4.2031 1.8281-5.7812-0.55469-0.25391-1.1172-0.5-1.6797-0.73047-0.003906 0.011719-0.011718 0.015625-0.015625 0.027344-1.7188 2.4883-4.0781 4.3398-6.2734 6.3711-0.64062 0.59766-1.6016-0.36328-0.96094-0.95313 2.0625-1.9141 4.3242-3.6484 5.9531-5.9609-0.37891-0.14062-0.75781-0.28906-1.1445-0.42969h-0.003906c-0.082032 0.042968-0.16406 0.082031-0.25 0.11328-0.039063 0.066406-0.085938 0.12891-0.14453 0.17969-2.1367 1.9023-3.9844 4.1016-6.1016 6.0352-0.64062 0.58984-1.5977-0.36719-0.95312-0.96094 2.0586-1.8945 3.8828-4.0312 5.9648-5.9062-0.72656-0.26172-1.4492-0.51953-2.168-0.78516-2.4727 1.8438-4.5078 4.207-6.9727 6.0625-0.70312 0.52734-1.3789-0.65234-0.6875-1.1719 2.207-1.6523 4.0625-3.7148 6.1992-5.457-0.30469-0.11719-0.60547-0.24219-0.91016-0.375-2.543 1.6797-4.6367 3.9336-7.1094 5.7109-0.71094 0.51562-1.3867-0.66016-0.68359-1.168 2.2188-1.5977 4.1289-3.5742 6.3398-5.1797-0.54297-0.23828-1.0781-0.48828-1.6172-0.73828l-0.007813 0.007813c-0.050781 0.12109-0.13281 0.22656-0.24219 0.30078-2.1055 1.5195-4.0312 3.2578-6.1016 4.8164-0.70312 0.52734-1.3711-0.65234-0.68359-1.1719 1.9531-1.4688 3.7812-3.0898 5.7422-4.5469-0.51562-0.23437-1.0312-0.47656-1.5508-0.71484-2.3906 1.6875-4.9727 3.1094-7.2344 4.9688-0.67188 0.55469-1.6328-0.40234-0.96094-0.95312 2.1133-1.7422 4.4805-3.125 6.7422-4.6523-0.12109-0.054688-0.23828-0.10938-0.35938-0.15625-0.16406-0.070312-0.32422-0.13672-0.48828-0.20703-2.4531 1.5195-4.9062 3.0273-7.2383 4.7227-0.71094 0.51562-1.3867-0.66016-0.6875-1.1719 2.0664-1.5039 4.2305-2.8516 6.3984-4.1992-0.39453-0.16797-0.79297-0.33203-1.1875-0.5-0.015625 0.011719-0.03125 0.027344-0.050781 0.039063-2.5469 1.5742-5.1406 3.0703-7.5273 4.8789-0.69531 0.52734-1.3711-0.65234-0.68359-1.1719 2.1367-1.6211 4.4414-2.9922 6.7227-4.3945-0.1875-0.078125-0.375-0.15625-0.5625-0.23438-0.023437 0.011719-0.03125 0.027343-0.054687 0.039062l0.003906 0.003907c-2.5977 1.543-5.1094 3.2266-7.5234 5.0469-0.67969 0.53516-1.6406-0.41406-0.96094-0.96094l0.003906 0.003906c2.2461-1.7227 4.5859-3.3125 7.0156-4.7656-0.36719-0.15625-0.73828-0.3125-1.1055-0.46875-0.023437 0.019532-0.046874 0.039063-0.070312 0.058594-2.3047 1.5547-4.6367 3.0625-6.9844 4.543-0.74219 0.46875-1.4219-0.70312-0.68359-1.1719 2.1055-1.3242 4.1914-2.6758 6.2578-4.0625-0.39453-0.16797-0.78516-0.33203-1.1758-0.5-0.019531 0.011718-0.039062 0.027344-0.058593 0.039062-2.3867 1.2266-5.1992 2.4219-6.9141 4.5703-0.54688 0.68359-1.4961-0.28125-0.95312-0.96094 1.5781-1.9844 4.0469-3.2031 6.3164-4.3438l-0.94531-0.40625v0.003907c-0.027344 0.019531-0.050781 0.039062-0.078125 0.050781-2.375 1.25-4.2305 3.2422-6.5742 4.5391-0.76953 0.42969-1.4531-0.74219-0.6875-1.1641 2.082-1.1562 3.7852-2.8594 5.8047-4.1016-0.26562-0.11328-0.53125-0.22656-0.79297-0.34766l-0.003906 0.003906c-0.054688 0.14844-0.17188 0.26953-0.32422 0.32422-2.332 1.0469-4.5586 2.3203-6.6445 3.7969-0.72266 0.5-1.3984-0.67188-0.68359-1.1641 1.957-1.3828 4.0352-2.5859 6.207-3.5938-0.21094-0.09375-0.42188-0.19141-0.64062-0.28906h0.003906c-0.050781 0.042969-0.10937 0.078125-0.17187 0.10156-2.582 1-5.0156 2.3555-7.2227 4.0312-0.67969 0.53516-1.6406-0.41797-0.96094-0.96094 2.0664-1.5859 4.3242-2.8984 6.7266-3.9062-0.070312-0.027344-0.13672-0.058594-0.20703-0.09375v0.003906c-2.5117 1-4.9023 2.2891-7.1211 3.8398-0.69531 0.53125-1.3711-0.64453-0.68359-1.1641 1.918-1.3789 3.9922-2.5273 6.1719-3.4297-0.23828-0.11328-0.46875-0.22656-0.71094-0.34375l0.003906 0.003906c-0.050781 0.046875-0.10938 0.089844-0.17188 0.125-2.4219 1.2734-5.0391 2.1328-7.3203 3.6602-0.72656 0.48828-1.4062-0.6875-0.68359-1.1719 2.0781-1.3945 4.4375-2.2305 6.6719-3.3281-0.19922-0.097656-0.40234-0.19141-0.60156-0.28906-0.046874 0.046875-0.10156 0.082031-0.16406 0.10938-2.4531 1.1133-5.043 2.1211-7.0508 3.9648-0.64453 0.58984-1.6055-0.36719-0.96094-0.96094 1.9102-1.75 4.2695-2.7969 6.6055-3.8516-0.19531-0.09375-0.39062-0.19141-0.58984-0.28125-2.7188 0.92188-5.2891 2.2383-7.6289 3.9062-0.72266 0.50391-1.3984-0.67188-0.6875-1.1719 1.793-1.2617 3.7109-2.3359 5.7266-3.2031-0.011718-0.011719-0.027343-0.023438-0.039062-0.03125-2.5586 0.89453-5.0078 2.0742-7.3047 3.5156-0.73828 0.48047-1.4141-0.6875-0.6875-1.168 2.2109-1.3945 4.5703-2.5469 7.0312-3.4375-0.023437 0-0.042968-0.011719-0.058593-0.011719h-0.003907c-1.2891 0.03125-2.5508 0.41016-3.6484 1.0938-2.7188 1.457-5.168 3.25-7.7695 4.8711 0.58594 0.29688 1.1719 0.59766 1.75 0.89844 1.5664-1.1836 2.1758-1.4297 2.3047-1.2695 0.12891 0.16406-0.21094 0.625-1.5273 1.6875 0.54297 0.28906 1.0859 0.58203 1.6211 0.875 0.3125-0.22656 0.60156-0.43359 0.85156-0.60938 0.41406-0.29688 0.73047-0.52734 0.98828-0.6875 0.51562-0.32031 0.76562-0.39062 0.84766-0.3125s-0.039062 0.30469-0.46875 0.75391c-0.21484 0.22266-0.51562 0.50391-0.91016 0.84766-0.15625 0.12891-0.33594 0.26953-0.52734 0.42188 0.38672 0.21094 0.76953 0.42188 1.1562 0.64062 0.13672-0.10156 0.26953-0.19531 0.39453-0.28906 0.22656-0.17188 0.4375-0.32422 0.625-0.46875h-0.003906c0.30469-0.23047 0.625-0.4375 0.95312-0.625 0.51953-0.26562 0.75391-0.29688 0.8125-0.19922 0.058594 0.097657-0.070312 0.30469-0.47656 0.66797-0.19922 0.18359-0.46094 0.4375-0.82031 0.74219-0.17969 0.15234-0.37891 0.32422-0.60547 0.51172-0.03125 0.027343-0.078126 0.058593-0.10938 0.085937 0.46875 0.26562 0.94922 0.52734 1.4258 0.79297 0.15234-0.12109 0.29688-0.23438 0.43359-0.33594 0.24219-0.16797 0.46484-0.32031 0.66797-0.45703 0.39062-0.26953 0.71094-0.46094 0.94531-0.61719 0.46094-0.3125 0.69531-0.38672 0.77344-0.30469 0.082032 0.082031-0.011718 0.29688-0.40625 0.74609h0.003906c-0.27344 0.27734-0.5625 0.53906-0.87109 0.78125-0.19141 0.14453-0.40234 0.3125-0.63281 0.49219-0.050781 0.039063-0.10156 0.078125-0.15625 0.11719 0.49219 0.28125 0.98828 0.5625 1.4844 0.84766 0.73828-0.61719 1.5156-1.1836 2.3242-1.6992 0.55859-0.34375 0.82031-0.41797 0.89453-0.33203s-0.066406 0.32031-0.53516 0.78125c-0.39453 0.38672-1.0195 0.93359-1.9297 1.6875 0.61328 0.34766 1.2266 0.69922 1.8398 1.0508 1.9141-1.7617 2.6367-2.1875 2.7969-2.0312 0.14844 0.15625-0.28906 0.79297-2.0586 2.4531 0.57422 0.32422 1.1445 0.65625 1.7188 0.98828l-0.003906-0.003906c0.3125-0.27734 0.64453-0.53125 0.99609-0.75781 0.35156-0.22656 0.625-0.40625 0.82812-0.54688 0.40625-0.26953 0.58203-0.375 0.68359-0.29688 0.078125 0.054687 0.058593 0.30469-0.29297 0.72656l0.003906-0.003906c-0.23438 0.26562-0.49219 0.51172-0.76953 0.72656-0.21484 0.17188-0.46094 0.35938-0.71094 0.57422 0.4375 0.25391 0.88281 0.50781 1.3242 0.76562 0.55859-0.36719 1.0352-0.66797 1.4375-0.91016 0.44141-0.26953 0.78125-0.47656 1.0586-0.61719 0.54688-0.28906 0.80078-0.33984 0.86719-0.25 0.066406 0.09375-0.066407 0.30469-0.53906 0.72266-0.23438 0.20703-0.55469 0.46875-0.97656 0.77344-0.29687 0.21875-0.65625 0.46094-1.0625 0.73438 0.53906 0.30859 1.0703 0.61328 1.6055 0.92188 1.8828-1.6328 2.5859-2.0195 2.7344-1.8594 0.14062 0.14453-0.29297 0.75391-1.9922 2.2812 0.64453 0.36719 1.2891 0.73047 1.9375 1.1016 0.56641-0.625 1.1719-1.2188 1.8047-1.7734 0.45703-0.37891 0.67578-0.46875 0.75781-0.39062s0 0.3125-0.34375 0.78516h0.003906c-0.46484 0.62109-0.96484 1.2148-1.4961 1.7852 0.38672 0.22266 0.76953 0.4375 1.1562 0.65625l0.66797 0.375c1.1602-0.88281 1.9023-1.5234 2.4062-1.9375 0.5625-0.50391 0.83984-0.65625 0.92578-0.58203 0.085938 0.074219-0.03125 0.35156-0.51562 0.98047-0.33594 0.40234-0.70312 0.78125-1.0938 1.1367-0.25 0.21875-0.52734 0.45703-0.83594 0.71484-0.042969 0.03125-0.09375 0.078125-0.13672 0.10938l2 1.1211c0.51953-0.42969 0.97656-0.78125 1.3594-1.0586 0.46094-0.36328 0.83984-0.61719 1.1055-0.83594 0.53906-0.42969 0.80469-0.55469 0.89062-0.47656 0.085937 0.078125-0.03125 0.33203-0.49219 0.89844l0.003907 0.003906c-0.32422 0.35156-0.66797 0.6875-1.0312 0.99609-0.30859 0.25391-0.66797 0.55859-1.0742 0.89453 1.0625 0.58984 2.1211 1.1875 3.1836 1.7773 3.418-3.6367 4.6094-4.6562 4.7734-4.5078 0.16406 0.15234-0.75391 1.3711-4.0391 4.9219 0.64062 0.35938 1.2734 0.71484 1.9141 1.0664 0.68359-0.54688 1.2617-0.99219 1.7461-1.3438 0.51953-0.39062 0.92188-0.6875 1.2383-0.92188 0.59766-0.46875 0.88281-0.60938 0.96875-0.53125s-0.058594 0.35156-0.58594 0.96094v0.003907c-0.36328 0.37891-0.75 0.73828-1.1484 1.0781-0.41016 0.33594-0.89453 0.73047-1.4531 1.1875 0.64062 0.36328 1.2852 0.72266 1.9258 1.0781 0.45703-0.50781 0.85938-0.93359 1.1992-1.2695 0.40625-0.40625 0.71484-0.72266 0.96094-0.96484 0.46094-0.48828 0.70313-0.64062 0.79688-0.58203 0.09375 0.058594 0.023437 0.33203-0.34766 0.94531h-0.003906c-0.26562 0.38672-0.55078 0.75781-0.85938 1.1133-0.28906 0.33203-0.625 0.71484-1.0234 1.168l2.9141 1.625c0.26953-0.26562 0.54297-0.52734 0.79688-0.77344 0.33594-0.3125 0.65625-0.58984 0.96094-0.86719 0.30469-0.27734 0.58594-0.53516 0.85937-0.78516 0.27344-0.25 0.53516-0.47656 0.75-0.72656 0.4375-0.48438 0.84766-0.89453 1.1758-1.2969 0.33203-0.40234 0.61328-0.76562 0.85938-1.0781l-0.003907-0.003906c0.35938-0.46094 0.78906-0.86328 1.2734-1.1875 0.33203-0.17188 0.48438-0.21094 0.51172-0.16406 0.070312 0.125-0.45703 0.40234-1.3242 1.7031-0.22266 0.32031-0.46875 0.70312-0.78516 1.1445-0.31641 0.44141-0.72266 0.88281-1.1641 1.3984-0.21875 0.26562-0.48828 0.5-0.75391 0.76562s-0.55469 0.54297-0.85156 0.8125c-0.29687 0.26953-0.61719 0.57031-0.94922 0.87109-0.19531 0.19531-0.40625 0.40234-0.61328 0.60156 0.79297 0.4375 1.5781 0.88281 2.3711 1.3242 0.51953-0.54688 0.97656-1.0156 1.3672-1.4102 0.5-0.48438 0.89844-0.83984 1.2188-1.1133 0.63281-0.53125 0.92578-0.6875 1.0156-0.60938 0.089843 0.082031-0.070313 0.36719-0.60156 1.0078-0.26562 0.32422-0.625 0.72656-1.1016 1.2422-0.33203 0.375-0.71484 0.80078-1.1719 1.2891 0.75391 0.41797 1.5078 0.83984 2.2539 1.2578 0.69531-0.83984 1.3359-1.6211 1.9375-2.3203 0.70312-0.76562 1.3281-1.4492 1.8984-2.0703 1.1602-1.2109 2.0859-2.1328 2.8047-2.832 1.4297-1.3828 2.0312-1.8594 2.1133-1.7773s-0.375 0.69531-1.7031 2.1797l-2.6641 2.9453c-0.55469 0.625-1.1641 1.3125-1.8477 2.082-0.55469 0.67188-1.168 1.4141-1.8164 2.2031 0.89062 0.49219 1.7734 0.99219 2.6562 1.4844v0.003906c0.027344 0.015625 0.050781 0.03125 0.078125 0.050782 2.0156-2.8125 4.2344-5.4805 6.6289-7.9805z" fill="#fff"/>
 <path d="m89.832 41.984c0.10156 0.078125-0.5625 1.0859-1.7305 2.6562-0.58203 0.78516-1.2852 1.707-2.082 2.7344s-1.707 2.0938-2.6562 3.2305c-0.86719 1.0312-1.707 2.0117-2.4883 2.9062l-0.74219 0.85156-0.011718-1.0859c-0.003906-0.51953-0.011719-1.0234-0.015625-1.5078-0.003907-0.48438 0.070312-0.92578 0.10156-1.3516 0.058594-0.85156 0.21094-1.582 0.30469-2.1953h-0.003907c0.054688-0.66016 0.22656-1.3047 0.51172-1.9023 0.11719 0.65234 0.12109 1.3164 0.011719 1.9688-0.015625 0.61328-0.10156 1.3438-0.10938 2.1797 0 0.41406-0.039063 0.85938-0.023437 1.3086 0.003906 0.10938 0.011718 0.22656 0.015624 0.33594 0.55469-0.67188 1.1328-1.3672 1.7422-2.0938 0.96484-1.1289 1.8828-2.207 2.7188-3.1875s1.5781-1.8633 2.2227-2.5938c1.2852-1.4648 2.1289-2.3281 2.2344-2.2539z" fill="#fff"/>
 <path d="m84.336 35.887c-0.66406-0.046875-1.3242-0.17188-1.9609-0.375-0.61719-0.15625-1.3672-0.39453-2.2461-0.65625-0.85938-0.26953-1.832-0.60547-2.9336-0.93359-1.0898-0.34766-2.293-0.67188-3.5859-1.0469-1.2891-0.375-2.668-0.76562-4.1289-1.1719-1.457-0.40625-2.9883-0.83594-4.5703-1.3164-0.79297-0.23828-1.5938-0.48438-2.4141-0.72656-0.8125-0.26562-1.6211-0.55859-2.4453-0.83984s-1.6406-0.57422-2.4531-0.85156c-0.79297-0.28906-1.5781-0.57031-2.3477-0.84766-1.5586-0.51562-3.0586-1.0156-4.5-1.4258-2.8906-0.85156-5.5273-1.5078-7.7539-1.9727-4.4375-0.9375-7.2656-1.2422-7.2656-1.3945 0.66406-0.066406 1.3359-0.050781 1.9961 0.042969 0.63281 0.03125 1.4141 0.12891 2.3203 0.25 0.45703 0.058594 0.9375 0.11328 1.4531 0.19141l1.6094 0.27734h0.003906c2.6484 0.46484 5.2734 1.0625 7.8633 1.7969 1.4688 0.39453 2.9883 0.88281 4.5586 1.3867 1.5586 0.54687 3.1602 1.1094 4.8125 1.6875 0.82812 0.28125 1.6406 0.57422 2.4453 0.83984 0.80859 0.25 1.6055 0.49219 2.3867 0.73047 1.5625 0.49219 3.0781 0.9375 4.5312 1.3672 1.4531 0.42969 2.8242 0.84766 4.1094 1.25 1.2852 0.40234 2.4883 0.77344 3.5703 1.1562 1.0781 0.36328 2.0508 0.75 2.9023 1.0703 0.85156 0.30859 1.582 0.57812 2.1875 0.80078 0.64453 0.16016 1.2695 0.39844 1.8555 0.71094z" fill="#fff"/>
 <path d="m77.559 47.52c0.13672 0.53906 0.13672 1.1016 0 1.6406-0.11719 0.73438-0.28516 1.4609-0.50391 2.1758l-0.14844 0.50781-0.51562-0.25c-0.51172-0.24219-1.043-0.49219-1.5742-0.75391h0.003906c-1.4766-0.57031-2.9883-1.0586-4.5195-1.4648-0.71094-0.19922-1.3867-0.39062-2.0234-0.57422-0.63281-0.18359-1.2188-0.38672-1.7578-0.55859h0.003907c-0.84766-0.29297-1.668-0.65625-2.4531-1.0859-0.54687-0.3125-0.83984-0.50391-0.8125-0.55859 0.027344-0.054687 0.36719 0.027344 0.96094 0.23438 0.58594 0.23828 1.4492 0.47656 2.5 0.79297 0.53516 0.13672 1.1289 0.28906 1.7617 0.44531 0.63281 0.15625 1.3164 0.32031 2.0391 0.49219 1.5859 0.36719 3.1406 0.84766 4.6523 1.4375 0.39062 0.19141 0.76953 0.375 1.1562 0.55859 0.14844-0.50391 0.26562-1.0156 0.35938-1.5352 0.16406-0.5625 0.14062-1.168-0.066406-1.7188-0.24609-0.46875-0.61328-0.87109-1.0586-1.1602-0.41016-0.28125-0.84375-0.53125-1.2969-0.73828-0.83984-0.39453-1.5586-0.66797-2.0312-0.89453-0.47656-0.21484-0.72656-0.37891-0.70312-0.42969 0.023438-0.046875 0.30469 0 0.8125 0.125l0.003906 0.003907c0.73047 0.17187 1.4492 0.38672 2.1562 0.64453 0.50781 0.17969 1 0.41016 1.4609 0.69141 0.57812 0.33594 1.0586 0.82422 1.3867 1.4062 0.085938 0.18359 0.15625 0.37109 0.20703 0.56641z" fill="#fff"/>
 <path d="m75.656 41.305c0.61328 0.33984 1.1836 0.75 1.7031 1.2266-0.085937 0.13672-2.5938-1.4688-6.9961-3.3047-2.2109-0.91016-4.875-1.9414-7.8242-3.125-1.4648-0.59766-3.0117-1.2266-4.6055-1.875-1.5938-0.64844-3.2578-1.2812-4.9531-1.9531-3.4219-1.2852-6.7148-2.4219-9.7344-3.3398-1.4961-0.50391-2.9609-0.85938-4.3125-1.2422-0.67578-0.18359-1.3281-0.37891-1.9648-0.53906-0.63672-0.15625-1.2422-0.29688-1.8203-0.43359-1.1641-0.27734-2.2109-0.55469-3.1406-0.75391l-2.3906-0.51562v0.003906c-0.6875-0.10938-1.3672-0.29297-2.0156-0.54688 0.69922-0.019531 1.3984 0.046875 2.082 0.19531 0.66016 0.10156 1.4766 0.22266 2.4219 0.36328 0.94531 0.14062 2 0.39062 3.1836 0.625 0.58984 0.12109 1.2109 0.25 1.8477 0.37891 0.64062 0.12891 1.3008 0.32031 1.9883 0.48828 1.3672 0.35938 2.8477 0.68359 4.3594 1.1719 3.0625 0.87891 6.3789 2 9.8047 3.2852 1.707 0.67969 3.3906 1.3164 4.9766 1.9844 1.5898 0.66797 3.125 1.3125 4.5938 1.9258 2.918 1.2266 5.5586 2.3203 7.75 3.3086h0.003906c1.7383 0.78125 3.4219 1.6758 5.043 2.6719z" fill="#fff"/>
 <path d="m63.059 41.035c0.20703 1.3984-0.51953 2.6797-0.90625 3.9805-0.050782 0.18359-0.17969 0.33594-0.35156 0.41406-0.21094 0.19922-0.52344 0.24609-0.78125 0.12109-1.0352-0.46875-2.375-0.25-3.2148-1.1484h-0.003907c-0.35547-0.46094-0.37891-1.1016-0.050781-1.5859 0.30859-0.91016 0.57031-1.8359 0.78516-2.7734 0.027344-0.089844 0.074219-0.17578 0.13672-0.24609 0.023437-0.14062 0.10547-0.26172 0.22266-0.34375 0.11719-0.078125 0.26172-0.10547 0.40234-0.078125 1.082 0.12891 3.5508 0.17969 3.7617 1.6602zm-1.3125 0.71484c0.039062-0.61328-0.41797-0.69531-0.97266-0.80078-0.34766-0.070313-0.69531-0.12109-1.043-0.16406-0.17969 0.625-0.33984 1.25-0.51562 1.875-0.11328 0.42969-0.55469 0.86719-0.078125 1.0234 0.61328 0.19922 1.2578 0.28125 1.875 0.45703h0.003906c0.35938-0.75781 0.60547-1.5625 0.73047-2.3906z" fill="#fff"/>
 <path d="m57.82 38.57c0.054688 0.14063 0.054688 0.30078-0.007812 0.44141-0.69141 1.4727-1.2148 3.0195-1.5625 4.6094-0.097656 0.35938-0.47266 0.57422-0.83594 0.47656-2.2891-0.48438-4.1406-1.9375-6.3008-2.7461-0.1875-0.070312-0.33594-0.21875-0.41406-0.40625-0.074219-0.1875-0.066407-0.39453 0.019531-0.57812 0.32031-1.2969 0.48438-2.6289 0.83594-3.9141v-0.003906c0.0625-0.28125 0.32031-0.48047 0.60937-0.47656 0.14844-0.066406 0.31641-0.066406 0.46094 0 2.1094 0.85938 4.2461 1.9688 6.5625 2.082 0.30469 0.007812 0.56641 0.21875 0.63281 0.51562zm-2.7422 4.0312c0.29688-1.125 0.6875-2.2266 1.1602-3.2891-0.80078-0.125-1.5898-0.32422-2.3594-0.59375-0.44922 0.97656-0.69141 2.0312-0.71484 3.1055 0.61719 0.3125 1.2578 0.57031 1.9141 0.77734zm-2.5039-4.25c0.015625-0.03125 0.03125-0.066406 0.050781-0.09375-0.64062-0.25391-1.2734-0.52734-1.9141-0.79297-0.21875 0.94531-0.375 1.8984-0.58594 2.8477 0.58203 0.25391 1.1445 0.54297 1.707 0.83594h-0.003906c0.11328-0.96484 0.36328-1.9062 0.74219-2.8008z" fill="#fff"/>
 <path d="m48.875 35.781c0.375 1.2812-0.57422 2.8477-0.92578 4.0469-0.039063 0.14844-0.12891 0.27734-0.25391 0.36328-0.14062 0.25391-0.44922 0.36328-0.71875 0.25-1.1484-0.41797-2.6211-0.39453-3.5938-1.2148-0.46875-0.375-0.61328-1.0273-0.34375-1.5625 0.41016-0.94141 0.69531-1.9297 0.85156-2.9414 0.019531-0.23047 0.19141-0.41797 0.41406-0.46875 0.16016-0.12109 0.37109-0.14844 0.55469-0.070312 1.0508 0.37109 3.6211 0.24609 4.0156 1.5977zm-1.2734 0.45703c-0.046874 0-0.09375-0.007812-0.13672-0.035156-0.12891-0.050781-0.26172-0.09375-0.39844-0.12891-0.29688-0.078125-0.60938-0.14453-0.91016-0.20703-0.35156-0.070313-0.70312-0.12891-1.0586-0.21094-0.12891 0.64844-0.30859 1.2852-0.53906 1.9023-0.19922 0.52734-0.48828 0.64453 0.15625 0.85938 0.68359 0.23438 1.3984 0.35156 2.0938 0.54688 0.40625-0.82812 0.66797-1.7227 0.77734-2.6406-0.003907-0.03125 0-0.0625 0.015624-0.089844z" fill="#fff"/>
 <path d="m39.297 32.867c0.80859 0.61719 1.0508 1.7305 0.57031 2.6289-0.28516 0.46094-0.74219 0.78906-1.2734 0.90625-0.52734 0.11328-1.082 0.007812-1.5312-0.29297-0.41797-0.29297-0.73828-0.70703-0.91797-1.1875-0.66797 0.55078-1.6211 0.58984-2.3359 0.10156-0.79297-0.49609-1.1719-1.4492-0.9375-2.3516-0.023438 0.039063-0.03125 0.078125-0.054688 0.11328-0.28125 0.46094-0.74219 0.78906-1.2695 0.90234-0.53125 0.11719-1.0859 0.011719-1.5352-0.28906-0.47266-0.27344-0.8125-0.72656-0.94531-1.2539-0.13281-0.52734-0.042968-1.0859 0.24219-1.5508 0.57422-0.82031 1.6602-1.1094 2.5664-0.67578 0.074219 0.019531 0.14453 0.050781 0.20703 0.097656 0.0625 0.035156 0.12109 0.082031 0.16797 0.14062 0.67578 0.53906 0.96875 1.4336 0.73438 2.2695 0.23828-0.47266 0.65625-0.83203 1.1602-0.99609 0.50391-0.16797 1.0508-0.125 1.5273 0.11328 0.074219 0.019531 0.14062 0.054687 0.20312 0.097656 0.066406 0.035156 0.12109 0.085937 0.16797 0.14062 0.34375 0.29297 0.60156 0.67188 0.73828 1.1016 0.60547-0.49609 1.4414-0.59375 2.1445-0.25391 0.074219 0.019532 0.14062 0.050782 0.20312 0.097656 0.066406 0.035157 0.12109 0.082032 0.16797 0.14063zm-1.4531 2.1328c0.78516 0.40234 1.2617-0.63281 0.59766-1.1055-0.14844-0.11328-0.33594-0.15625-0.51953-0.11328-0.17969 0.039062-0.33594 0.15234-0.42188 0.31641-0.089844 0.16406-0.10156 0.35938-0.035156 0.53125s0.20703 0.30859 0.37891 0.37109zm-3.2539-1.0859c0.78516 0.40234 1.2617-0.63672 0.59766-1.1055-0.14844-0.11328-0.33594-0.15625-0.51953-0.11719-0.18359 0.039063-0.33984 0.15625-0.42578 0.32031-0.089844 0.16406-0.10156 0.35547-0.035157 0.53125 0.066407 0.17188 0.20703 0.30859 0.38281 0.37109zm-3.7969-1.6289c0.78516 0.40234 1.2617-0.63281 0.59766-1.1055v0.003906c-0.14453-0.11719-0.33594-0.16016-0.51953-0.12109s-0.33984 0.15625-0.42969 0.32031c-0.085937 0.16406-0.097656 0.35938-0.03125 0.53125 0.066406 0.17578 0.20703 0.3125 0.38672 0.37109z" fill="#fff"/>
 <path d="m26.762 31.293c0.18359 0.19922 0.26562 0.33594 0.23438 0.38672-0.03125 0.050781-0.19531 0.015624-0.44531-0.10156-0.25-0.12891-0.58984-0.26562-1.0039-0.44141-0.22266-0.070313-0.45703-0.16797-0.71484-0.25-0.13672-0.042969-0.26953-0.085938-0.41016-0.12891l-0.10156-0.03125-0.023437-0.007812c-0.007813-0.003906-0.015625-0.003906-0.023437-0.003906l-0.046876-0.011719c-0.066406-0.019531-0.13281-0.035156-0.19922-0.042969-0.59766-0.097656-1.2891-0.14844-2.0625-0.33594-0.10156-0.027344-0.20312-0.058594-0.30469-0.097657-0.058594-0.019531-0.11719-0.046874-0.17188-0.078124l-0.097656-0.054688c-0.046875-0.03125-0.085937-0.066406-0.125-0.10547-0.027344-0.019531-0.050781-0.046875-0.070313-0.078125l-0.058593-0.082031c-0.027344-0.042969-0.042969-0.066406-0.078125-0.125v0.003906c-0.066406-0.10156-0.12109-0.21094-0.16406-0.32031-0.097656-0.25-0.11328-0.52344-0.039062-0.78125 0.082031-0.24219 0.23438-0.44922 0.44141-0.59375 0.28906-0.20312 0.61719-0.34766 0.96484-0.41797 0.26953-0.058594 0.54688-0.09375 0.82422-0.11328 0.99609-0.058594 1.6016 0.078125 1.5938 0.19922-0.003907 0.12109-0.59766 0.22266-1.4961 0.43359v0.003907c-0.48438 0.09375-0.94922 0.28125-1.3633 0.55078-0.90625 0.75391 2.125 1.1055 2.375 1.1641v0.003907c0.089844 0.019531 0.17578 0.046874 0.26172 0.078124l0.054688 0.015626 0.046875 0.015624 0.027344 0.011719 0.10156 0.050781c0.14062 0.058594 0.28125 0.11719 0.41016 0.17969l0.003906-0.003906c0.24609 0.11328 0.48828 0.23828 0.72266 0.375 0.34766 0.19531 0.66016 0.44531 0.9375 0.73438z" fill="#fff"/>
</svg>
