<?xml version="1.0" encoding="UTF-8"?>
<svg viewBox="0 0 100 100" xmlns="http://www.w3.org/2000/svg">
 <rect x="-10" y="-10" width="120" height="120"/>
 <path d="m51.75 52.488 25.012-9.8281s3.1523-1.1133 3.1523-3.2773c0-3.6758-2.582-6.3008-7.5625-9.5117-3.8359-2.4766-6.5508-3.6445-9.3242-3.6445-0.82422 0-1.6523 0.10156-2.5195 0.30469-3.6914 0.85938-7.8047 2.1445-10.285 2.1445-0.058594 0-0.11719 0-0.17188-0.003906-2.457-0.0625-8.5039 0.0625-13.734-4.0977l-12.535 3.9062 9.4102 8.0742-1.9492 3.4414-7.7383 2.6484v3.2891l-3.418 1.168v5.9336l7.3047 2.6289c0.023437 0.26953 0.054687 0.53125 0.082031 0.77734-0.21094 0.23438-0.34375 0.54297-0.34375 0.88281 0 0.44922 0.22266 0.83984 0.55859 1.0781-0.17188 0.59766-0.28125 1.3984-0.28125 2.2812 0 0.65625 0.058594 1.2695 0.16016 1.7852-0.26953 0.24219-0.44141 0.58984-0.44141 0.98047 0 0.46094 0.23438 0.86719 0.59375 1.1055 0.03125 0.32422 0.078125 0.62109 0.14062 0.875-0.27344 0.1875-0.45703 0.50391-0.45703 0.85937 0 0.57813 0.46875 1.0469 1.0469 1.0469s1.0469-0.46875 1.0469-1.0469c0-0.35547-0.17969-0.67187-0.45703-0.85937 0.0625-0.25391 0.11328-0.55078 0.14063-0.875 0.35547-0.23828 0.59375-0.64063 0.59375-1.1055 0-0.39062-0.17188-0.73828-0.44141-0.98047 0.10156-0.51562 0.16406-1.1289 0.16406-1.7852 0-0.87891-0.10547-1.6836-0.28125-2.2812 0.33594-0.24219 0.55859-0.63281 0.55859-1.0781 0-0.33984-0.13281-0.64844-0.34375-0.88281 0.003906-0.011718 0.003906-0.023437 0.003906-0.039062l17.77 6.4023 0.007813 0.003906v-0.003906l2.1289-0.76563c0.035156 0.90625 0.10156 1.75 0.19141 2.4805-0.21094 0.23438-0.34375 0.54297-0.34375 0.88281 0 0.44531 0.22266 0.83984 0.55859 1.0781-0.17188 0.59766-0.28125 1.3984-0.28125 2.2812 0 0.65625 0.058594 1.2656 0.16016 1.7852-0.26953 0.24219-0.44141 0.58984-0.44141 0.98047 0 0.46094 0.23438 0.86719 0.59375 1.1055 0.03125 0.32422 0.078125 0.62109 0.14062 0.875-0.27344 0.1875-0.45703 0.50391-0.45703 0.85938 0 0.57812 0.46875 1.0469 1.0469 1.0469 0.57813 0 1.0469-0.46875 1.0469-1.0469 0-0.35547-0.17969-0.67578-0.45703-0.85938 0.0625-0.25391 0.11328-0.55078 0.14453-0.875 0.35547-0.23828 0.59375-0.64062 0.59375-1.1055 0-0.39062-0.17188-0.73828-0.44141-0.98047 0.10156-0.51562 0.16406-1.125 0.16406-1.7852 0-0.87891-0.10547-1.6836-0.27734-2.2812 0.33594-0.24219 0.5625-0.63281 0.5625-1.0781 0-0.34375-0.13281-0.64844-0.34375-0.88281 0.12109-0.95703 0.19922-2.0977 0.21484-3.3359l3.7227-1.3438 3.3359-1.1992 4.3125-1.5547 1.668-0.60156 0.93359-0.33594 1.832-0.66016c0.011719 0.59766 0.066407 1.1562 0.15625 1.6328-0.26953 0.24219-0.44141 0.58984-0.44141 0.98047 0 0.46094 0.23438 0.86719 0.59375 1.1055 0.03125 0.32422 0.078125 0.62109 0.14453 0.875-0.27734 0.1875-0.45703 0.50391-0.45703 0.85938 0 0.57812 0.46875 1.0469 1.0469 1.0469s1.0469-0.46875 1.0469-1.0469c0-0.35547-0.17969-0.67578-0.45703-0.85938 0.0625-0.25391 0.11328-0.55078 0.14062-0.875 0.35547-0.23828 0.59375-0.64062 0.59375-1.1055 0-0.39062-0.17188-0.73828-0.44141-0.98047 0.10156-0.51562 0.16406-1.1289 0.16406-1.7852 0-0.20313-0.007813-0.40234-0.015625-0.59375l1.8477-0.66406 2.0703-0.74609c2.1836-0.78125 3.4414-1.2188 3.4414-3.0469v-6.8867l-24.914 9.793c-0.089843 0.035156-0.18359 0.054688-0.27734 0.054688-0.17578 0-0.35547-0.0625-0.49219-0.18359l-4.2422-3.6406-19.703-7.1016 5.8945-2.0156 5.4922 1.9766-2.9961-2.5703-1.7617-0.63281-1.2617 0.43359 1.293-2.2812zm-23.926-2.5938-2.3633 0.80859v0.26562l0.58203 0.21484v-0.26562l2.375-0.8125 0.375 0.13672-2.3711 0.8125v0.26562l0.58203 0.21484v-0.26562l2.3828-0.8125 0.91406 0.32812-2.375 0.8125v0.26562l0.58203 0.21484v-0.26562l2.3867-0.81641 0.39062 0.14062-2.3672 0.8125v0.26562l0.58203 0.21484v-0.26953l2.3828-0.8125 0.38672 0.14062-2.3672 0.8125v0.26562l0.58203 0.21484v-0.26562l2.3789-0.8125 1.0977 0.39453-2.3594 0.80859v0.26562l0.58203 0.21484v-0.26562l2.3711-0.80859 0.375 0.13672-2.3672 0.8125v0.26562l0.58203 0.21484v-0.26563l2.3789-0.82031 0.91406 0.32812-2.3672 0.8125v0.26562l0.58203 0.21484v-0.26562l2.3789-0.8125 0.39062 0.14062-2.3633 0.80859v0.26562l0.58203 0.21484v-0.26562l2.375-0.8125 0.38672 0.14062-2.3633 0.80859v0.26562l0.58203 0.21484v-0.26562l2.375-0.8125 1.2266 0.44141-2.3633 0.80859v0.26562l0.58203 0.21484v-0.26562l2.375-0.80859 0.375 0.13672-2.3672 0.8125v0.26563l0.58203 0.21484v-0.26562l2.3828-0.8125 0.91406 0.32812-2.3711 0.8125v0.26562l0.58203 0.21484v-0.26562l2.3828-0.8125 0.39062 0.14062-2.3672 0.8125v0.26562l0.58203 0.21484v-0.26562l2.3789-0.8125 0.38672 0.14062-2.3633 0.80859v0.26563l0.58203 0.21484v-0.26953l2.375-0.8125 1.9883 0.71875-0.011719 0.003906v1.0586l-2.3672 0.80859v0.76172l-21.684-7.8125v-0.76562l3.8789-1.332z" fill="#fff"/>
</svg>
