<?xml version="1.0" encoding="UTF-8"?>
<svg width="100pt" height="100pt" version="1.1" viewBox="0 0 100 100" xmlns="http://www.w3.org/2000/svg">
 <path d="m52.781 53.953 39.715-15.605s5.0039-1.7695 5.0039-5.2031c0-5.8359-4.1016-10.004-12.008-15.105-6.0938-3.9336-10.402-5.7852-14.809-5.7852-1.3086 0-2.625 0.16406-4 0.48438-5.8633 1.3672-12.395 3.4062-16.332 3.4062-0.09375 0-0.18359 0-0.27344-0.003906-3.9023-0.10156-13.504 0.10156-21.809-6.5039l-19.902 6.2031 14.941 12.82-3.0938 5.4648-12.285 4.2031v5.2227l-5.4297 1.8555v9.4219l11.598 4.1758c0.039063 0.42969 0.085938 0.84375 0.13281 1.2344-0.33594 0.37109-0.54688 0.85938-0.54688 1.4023 0 0.71094 0.35156 1.332 0.88672 1.7148-0.27344 0.94922-0.44531 2.2227-0.44531 3.6211 0 1.043 0.09375 2.0156 0.25391 2.8359-0.42578 0.38672-0.69922 0.9375-0.69922 1.5586 0 0.73047 0.375 1.3789 0.94141 1.7539 0.046875 0.51562 0.12109 0.98438 0.22266 1.3906-0.43359 0.30078-0.72266 0.80078-0.72266 1.3672 0 0.91797 0.74219 1.6602 1.6602 1.6602s1.6602-0.74219 1.6602-1.6602c0-0.56641-0.28516-1.0664-0.72266-1.3672 0.10156-0.40234 0.17969-0.875 0.22266-1.3906 0.56641-0.37891 0.94141-1.0195 0.94141-1.7539 0-0.62109-0.27344-1.1719-0.69922-1.5586 0.16016-0.82031 0.25781-1.793 0.25781-2.8359 0-1.3984-0.16797-2.6719-0.44531-3.6211 0.53516-0.38281 0.88672-1.0039 0.88672-1.7148 0-0.53906-0.21094-1.0273-0.54687-1.4023 0.003906-0.019531 0.003906-0.039062 0.007812-0.0625l28.215 10.164 0.011718 0.003906v-0.007812l3.3828-1.2188c0.054687 1.4414 0.16016 2.7773 0.30469 3.9375-0.33594 0.37109-0.54687 0.85937-0.54687 1.4023 0 0.70703 0.35156 1.332 0.88672 1.7148-0.27344 0.94922-0.44531 2.2227-0.44531 3.6211 0 1.043 0.09375 2.0117 0.25391 2.8359-0.42578 0.38672-0.69922 0.9375-0.69922 1.5586 0 0.73438 0.375 1.3789 0.94141 1.7539 0.046874 0.51562 0.12109 0.98438 0.22266 1.3906-0.43359 0.30078-0.72266 0.80078-0.72266 1.3672 0 0.91797 0.74219 1.6602 1.6602 1.6602 0.91797 0 1.6602-0.74219 1.6602-1.6602 0-0.56641-0.28516-1.0703-0.72266-1.3672 0.10156-0.40234 0.17969-0.875 0.22656-1.3906 0.56641-0.37891 0.94141-1.0195 0.94141-1.7539 0-0.61719-0.27344-1.1719-0.69922-1.5586 0.16016-0.82031 0.25781-1.7891 0.25781-2.8359 0-1.3984-0.16797-2.6719-0.44141-3.6211 0.53516-0.38281 0.89062-1.0078 0.89062-1.7148 0-0.54297-0.21094-1.0312-0.54688-1.4023 0.19141-1.5195 0.31641-3.332 0.34375-5.2969l5.9102-2.1328 5.2969-1.9023 6.8477-2.4688 2.6484-0.95312 1.4805-0.53125 2.9062-1.0508c0.015625 0.94922 0.10547 1.8359 0.25 2.5938-0.42578 0.38672-0.69922 0.9375-0.69922 1.5586 0 0.73047 0.375 1.375 0.94141 1.7539 0.046875 0.51562 0.12109 0.98438 0.22656 1.3867-0.4375 0.30078-0.72266 0.80078-0.72266 1.3672 0 0.91797 0.74219 1.6602 1.6602 1.6602 0.91797 0 1.6602-0.74219 1.6602-1.6602 0-0.56641-0.28516-1.0703-0.72266-1.3672 0.10156-0.40234 0.17969-0.875 0.22266-1.3867 0.56641-0.37891 0.94141-1.0195 0.94141-1.7539 0-0.62109-0.27344-1.1719-0.69922-1.5586 0.16016-0.82031 0.25781-1.793 0.25781-2.8359 0-0.32031-0.011719-0.63672-0.027344-0.94141l2.9336-1.0547 3.2852-1.1875c3.4648-1.2383 5.4648-1.9375 5.4648-4.8398v-10.934l-39.559 15.551c-0.14453 0.058594-0.28906 0.085938-0.4375 0.085938-0.28125 0-0.5625-0.10156-0.78125-0.28906l-6.7383-5.7812-31.289-11.277 9.3594-3.1992 8.7188 3.1406-4.7578-4.082-2.7969-1.0078-2.0039 0.6875 2.0508-3.6211zm-37.992-4.1172-3.7539 1.2852v0.42188l0.92188 0.34375v-0.42188l3.7734-1.2891 0.59766 0.21484-3.7656 1.293v0.42188l0.92188 0.34375v-0.42188l3.7852-1.293 1.4531 0.52344-3.7695 1.293v0.42188l0.92188 0.34375v-0.42188l3.7891-1.2969 0.61719 0.22266-3.7617 1.2891v0.42188l0.92188 0.34375v-0.42969l3.7812-1.293 0.61328 0.22266-3.7578 1.2891v0.42188l0.92188 0.33984v-0.42188l3.7773-1.2891 1.7422 0.62891-3.7461 1.2852v0.42188l0.92187 0.34375v-0.42188l3.7656-1.2852 0.59766 0.21484-3.7578 1.2891v0.42188l0.92188 0.34375v-0.42188l3.7773-1.3008 1.4531 0.52344-3.7617 1.2891v0.42188l0.92188 0.34375v-0.42188l3.7773-1.293 0.61719 0.22266-3.7539 1.2852v0.42188l0.92188 0.34375v-0.42188l3.7734-1.2891 0.61328 0.22266-3.75 1.2852v0.42188l0.92188 0.34375v-0.42188l3.7695-1.2891 1.9453 0.69922-3.75 1.2852v0.42188l0.92188 0.34375v-0.42188l3.7695-1.2852 0.59766 0.21484-3.7617 1.2891v0.42188l0.92188 0.33984v-0.42188l3.7812-1.293 1.4531 0.52344-3.7656 1.2891v0.42188l0.92187 0.33984v-0.42188l3.7812-1.293 0.61719 0.22266-3.7578 1.2891v0.42188l0.92187 0.33984v-0.42188l3.7773-1.293 0.61328 0.22266-3.7539 1.2852v0.42187l0.92188 0.33984v-0.42578l3.7734-1.2891 3.1602 1.1406-0.019531 0.007812v1.6836l-3.7617 1.2852v1.2109l-34.43-12.406v-1.2148l6.1602-2.1133z" fill="#fff"/>
</svg>
