<?xml version="1.0" encoding="UTF-8"?>
<svg width="128pt" height="128pt" version="1.1" viewBox="0 0 128 128" xmlns="http://www.w3.org/2000/svg">
 <path d="m104.13 32.805h-46.836v60.266h13.371l0.007813-24.375h2.3203v24.379h13.375l-0.003907-24.379h2.0703v24.375h13.375v-24.375h2.3203v24.375h13.375l-0.003906-60.266zm-34.844 57.359h-10.602v-54.449h8.5703v32.98h2.0312zm1.3867-26.164v-4.582h2.3203v4.582zm14.309 26.164h-10.602v-21.469h1.1992v-32.98h7.7891v32.98h1.6172zm15.441 0h-10.602v-21.469h1.8633v-32.98h7.125v32.98h1.6133zm15.695 0h-10.602v-21.469h1.6172l-0.003906-32.98h8.9883z" fill="#fff"/>
 <path d="m41.605 32.805h-31.137v60.266h13.375l-0.003906-24.375h2.3203v24.375h13.375v-24.375h2.0703v24.379h13.375l-0.003907-60.27zm-19.152 57.359h-10.602v-54.449h8.6836v32.98h1.9219zm15.695 0h-10.602v-21.469h1.3086v-32.98h7.6797v32.98h1.6133zm15.441-54.449v54.449h-10.602v-21.469h1.8633l0.003907-32.98z" fill="#fff"/>
 <path d="m65.238 96h12.355v14.078h-12.355z" fill="#fff"/>
 <path d="m88.945 96h12.355v14.078h-12.355z" fill="#fff"/>
 <path d="m26.668 96h12.355v14.078h-12.355z" fill="#fff"/>
</svg>
