<?xml version="1.0" encoding="UTF-8"?>
<svg viewBox="0 0 100 100" xmlns="http://www.w3.org/2000/svg">
 <rect x="-10" y="-10" width="120" height="120"/>
 <path d="m36.969 55.891-0.85547-1.4844 0.66016-0.38281 0.85547 1.4844zm-7.1367-0.90625c-0.92578 0.86328-1.3125 1.8867-2.6094 2.8516-0.74219 0.55859-1.7383 1.168-2.6523 1.7266 0.003907 0.007812 0.003907 0.011719 0.007813 0.019531 0.13281 0.42188 0.35547 0.98828 0.60156 1.5625 0.003906 0.007813 0.007812 0.015625 0.011718 0.023438 1.0391-0.55469 2.1953-1.1719 3.1367-1.5586 1.4531-0.59766 2.4883-0.38281 3.7578-0.75781l0.18359-0.054687-2.2812-3.9531zm10.953 2.6914c-2.9141 1.6836-2.4531 2.4805-2.2812 2.7812 0.12109 0.21094 0.30859 0.26562 0.49219 0.26172-0.050782-0.28125 0.078125-0.57812 0.33984-0.73047 0.33984-0.19531 0.77344-0.078125 0.96875 0.26172 0.19531 0.33984 0.082031 0.77344-0.25781 0.96875-0.039063 0.019531-0.078125 0.023438-0.11328 0.035156l0.007812 0.011719c-0.49219 0.28125-1.5781 0.56641-2.1406-0.40625-0.91797-1.5938 0.89062-2.9141 2.5781-3.8867 2.2695-1.3086 1.9297-1.9023 1.8008-2.1211-0.019532-0.035156-0.046876-0.0625-0.074219-0.089843-0.011719 0.089843-0.058594 0.17578-0.13672 0.23438-0.058594 0.14453-0.15234 0.27734-0.29688 0.36328-0.33984 0.19531-0.77344 0.078125-0.96875-0.25781-0.19531-0.33984-0.078125-0.77344 0.26172-0.96875 0.03125-0.015624 0.066406-0.019531 0.097656-0.03125l-0.003906-0.011718c0.41797-0.23828 1.1211-0.37109 1.5977 0.070312l-1.5312-2.6523-3.6484 2.1055 0.85547 1.4844 0.40625 0.69922-0.70312 0.40625-0.66016 0.37891-0.70312 0.40625-0.40625-0.70312-0.85547-1.4805-3.3828 1.9492 0.94141 1.6289 0.51172 0.88672-1.168 0.35156c-0.60938 0.17969-1.1602 0.23828-1.6914 0.29297-0.65234 0.070313-1.2656 0.13672-1.9922 0.43359-0.87109 0.35938-1.9805 0.94922-2.9648 1.4727-0.054687 0.027344-0.097656 0.050782-0.14844 0.078126 0.10938 0.24219 0.21875 0.48047 0.32031 0.6875l0.14844 0.30859-0.72266 0.41797-0.62891 0.36328-0.011718 0.003907c5.5156 6.875 13.066 4.2461 16.211-0.27344 0.15625-0.21875 0.84375-0.49219 1.3477-0.55078-0.011719-0.019531-0.046876-0.070313-0.089844-0.14844-0.39062-0.67578-1.6758-3.3281 1.9688-5.4297l0.29688-0.17188-1.3203-2.2891c0.32031 1.2031-1.0938 2.1953-2.25 2.8594zm-15.758 4.9336c-0.054688-0.11328-0.11328-0.24219-0.17969-0.38672-0.10156-0.21875-0.21484-0.47656-0.32812-0.74219-0.21094-0.49609-0.42578-1.0273-0.58203-1.5039-0.10547-0.32031-0.17969-0.60547-0.21094-0.82812-0.011718-0.089844-0.023437-0.17969-0.019531-0.24609 0.023438-0.34766 0.33203-0.70312 0.84375-1.2969 0.92578-1.082 2.3281-2.7188 2.0352-4.6211-0.070313-0.44922-0.22266-0.87109-0.44531-1.2656-0.81641-1.418-2.4414-2.1133-3.0547-2.3359-0.17188 0.24609-0.3125 0.49219-0.45313 0.74219-0.98828 1.7734-1.1055 3.6797-0.87109 5.4805 0.38672 2.9258 2.25 6.2539 2.6484 6.8359 0.097656 0.14453 0.18359 0.27344 0.25391 0.36719zm1.75-11.254c0.27344 0.47266 0.45312 0.98438 0.53516 1.5195 0.34766 2.2422-1.2539 4.1055-2.207 5.2148-0.10547 0.125-0.22266 0.25781-0.32422 0.39062 0.69922-0.43359 1.4062-0.88672 1.9531-1.2969 0.67188-0.5 1.0586-1.0156 1.4727-1.5625 0.3125-0.40625 0.63281-0.82812 1.0703-1.2344l0.89844-0.83203 0.50781 0.88281 0.9375 1.6211 3.3828-1.9531-0.85547-1.4805-0.40625-0.70312 0.70312-0.40625 0.66016-0.38281 0.70312-0.40625 0.40625 0.70313 0.85547 1.4844 3.6445-2.1055-1.5273-2.6484c0.14453 0.63281-0.32031 1.1758-0.73828 1.418l-0.003907-0.007813c-0.027343 0.023438-0.050781 0.054688-0.082031 0.070313-0.33984 0.19531-0.77344 0.082031-0.96875-0.25781-0.19531-0.33984-0.078125-0.77344 0.25781-0.96875 0.15234-0.085937 0.31641-0.10547 0.47656-0.074218 0.089844-0.035156 0.17969-0.03125 0.26172 0-0.007813-0.039063-0.019531-0.074219-0.039063-0.11328-0.12891-0.22266-0.46875-0.8125-2.7383 0.5-1.6836 0.97266-3.7344 1.8828-4.6523 0.28906-0.5625-0.97266 0.22266-1.7695 0.71875-2.0547l0.003906 0.011718c0.03125-0.023437 0.050781-0.058594 0.085937-0.078125 0.33984-0.19531 0.77344-0.078125 0.97266 0.26172 0.19531 0.33984 0.078124 0.77344-0.26172 0.96875-0.26172 0.15234-0.58203 0.11328-0.80469-0.070312-0.09375 0.15625-0.13672 0.34766-0.019531 0.55859 0.17578 0.30078 0.63281 1.0977 3.5469-0.58203 1.1523-0.66797 2.7227-1.3945 3.5898-0.52734l-1.3203-2.2852-0.29688 0.17188c-3.6445 2.1055-5.3008-0.33594-5.6875-1.0117-0.042969-0.078125-0.074219-0.12891-0.082031-0.15234-0.30469 0.40234-0.87891 0.86719-1.1484 0.89063-2.5469 0.21484-5.2031 1.4727-7.0156 3.5625 0.070312 0.023437 0.14453 0.050781 0.25 0.089843 0.79297 0.28516 2.4062 1.0625 3.2852 2.5859zm50.227-19.496 0.097656-0.070313-0.62109 0.40625-0.14453-0.25-0.74609 0.46094 0.77734 1.3477c0.61328-0.29688 0.70703-0.13672 0.77734-0.011718 0.23438 0.40625 0.40625 1.3086-0.21875 1.668-0.63281 0.36719-1.3477-0.24219-1.5742-0.63281-0.066406-0.11719-0.16797-0.28906 0.41406-0.67969l-0.76562-1.3281-1.6992 1.0547 0.75 1.2969c0.61328-0.29688 0.70703-0.13281 0.78125-0.007813 0.23438 0.40234 0.40625 1.3086-0.21875 1.668-0.63281 0.36328-1.3477-0.24609-1.5742-0.63281-0.070312-0.12109-0.16797-0.28906 0.41406-0.68359l-0.73828-1.2773-1.793 1.1094-13.969 8.3438-0.69922 0.41406-9.9961 5.9688 0.17969 0.30859 0.22656 0.39453 9.9297-5.9258c2.6562 5.9844 0.25 9.2109-4.0703 10.758-0.28516 0.097656-0.69922 0.46484-0.92969 0.85938 0 0-0.71875-1.2188-2.3828-1.2812l0.019531 0.035156 12.094 20.949-1.2031 0.69531-2.2305-3.8594-2.7734 1.6016-2.9297-5.0703 0.011719-0.007812-7.1406-12.359-1.3203-2.2891-0.38672-0.66797-1.5312-2.6523-0.40625-0.70312-1.5273-2.6484-0.38672-0.66797-1.3203-2.2852-10.926-18.93-1.3359-2.3125 0.34766-0.20312c0.90234 0.078125 3.293 0.11328 4.4922-0.58203l10.863 18.816c0.77734-1.4766 0.082031-2.7031 0.082031-2.7031 0.45703-0.003907 0.98438-0.18359 1.2109-0.375 3.5-2.9688 7.5-3.4375 11.359 1.8672l-10.098 5.6367 0.17188 0.29297 0.23438 0.40625 10.168-5.6758 0.70703-0.39453 14.211-7.9297 0.003906 0.007812 1.2188-0.62891-0.76172-1.3203c-0.63281 0.30859-0.73047 0.14062-0.79688 0.019531-0.22656-0.39062-0.39453-1.3125 0.23828-1.6758 0.62891-0.36328 1.3242 0.23828 1.5586 0.64062 0.070313 0.125 0.16797 0.29297-0.39844 0.67188l0.77734 1.3477 1.7773-0.92188-0.80859-1.4062c-0.62891 0.30859-0.73047 0.13672-0.79687 0.019531-0.22656-0.39062-0.39453-1.3125 0.23828-1.6758 0.62891-0.36328 1.3242 0.23828 1.5547 0.64062 0.074219 0.125 0.16797 0.29297-0.39844 0.67188l0.82812 1.4336 1.4336-0.74219-0.15234-0.26953 0.55859-0.28125-0.30078-0.51953 1.043-0.51953 0.30078 0.51953 0.39062-0.19531 1.1641 2.0391-0.36328 0.23828 0.30859 0.53516-0.97266 0.64453zm-22.109 38.789c-0.27734 0.16016-0.37109 0.50781-0.21094 0.77734 0.15625 0.27344 0.50391 0.36719 0.77734 0.20703 0.26953-0.15625 0.36719-0.50781 0.21094-0.78125-0.16016-0.26562-0.50781-0.35937-0.77734-0.20312zm-7.0391-15.074-3.2656-5.6562-0.40625-0.70312-3.2656-5.6523-10.559-18.289s-0.90625-0.35156-2.3281 0.46875c-0.17578 0.10156-0.36328 0.23047-0.55859 0.37109l0.34766-0.19922 10.77 18.656 0.84375-0.48437c0.29688-0.17188 0.55078-0.34766 0.78516-0.52344l3.2656 5.6523-1.6562 0.95703 0.17578 0.30078 0.23047 0.39844 1.6602-0.95703 3.2656 5.6562c-0.26953 0.11719-0.54688 0.25-0.84375 0.41797l-0.84375 0.48828 0.17578 0.30078 7.1367 12.359 2.1836-1.2578zm22.637-21.016-0.40625-0.70312-24.875 14.359 0.17578 0.30078 0.23047 0.40234zm-35.641 17.66 0.85547 1.4844 0.66016-0.38281-0.85547-1.4805z" fill="#fff"/>
</svg>
