<?xml version="1.0" encoding="UTF-8"?>
<svg width="100pt" height="100pt" version="1.1" viewBox="0 0 100 100" xmlns="http://www.w3.org/2000/svg">
 <path d="m31.699 59.398c-1.6992-1-3.5 0.30078-5.1992 1.5-2.1992 1.6016-3.3008 2.1992-4.1016 1.3984-0.10156-0.10156-0.19922-0.19922-0.30078-0.39844 0 0 0-0.10156 0.10156-0.10156 0.60156 0 1.1992-0.5 1.3008-1.1016 0.10156-0.69922-0.39844-1.3008-1.1016-1.3984-1.1016-0.10156-2 0.5-2.5 1.5-0.5 1.1016-0.19922 2.5 0.80078 3.3008 0.60156 0.69922 1.5 1.1016 2.5 1.1016 1.6992 0 3.5-1.1992 4.8984-2.1992 0.69922-0.5 2.1016-1.5 2.5-1.3984 0.19922 0.10156 0.39844 0.19922 0.19922 0.5-0.39844 0.60156-0.19922 1.3984 0.39844 1.6992 0.60156 0.39844 1.3984 0.19922 1.6992-0.39844 0.39844-0.69922 0.5-1.5 0.39844-2.1992-0.39453-0.80469-0.89453-1.4023-1.5938-1.8047z" fill="#fff"/>
 <path d="m40.602 68.301c-0.39844-0.69922-1-1.1992-1.8008-1.3984-0.80078-0.19922-1.6016 0-2.1992 0.39844-0.60156 0.39844-0.69922 1.1016-0.39844 1.6992 0.39844 0.60156 1.1016 0.80078 1.6992 0.39844 0.30078-0.19922 0.39844 0 0.5 0.19922 0.10156 0.39844-0.89844 1.8008-1.3984 2.5-1.3984 2-3.5 4.8984-1.1016 7.3008 0.60156 0.60156 1.3008 1 2.1992 1 0.39844 0 0.80078-0.10156 1.1016-0.30078 1-0.5 1.5-1.5 1.5-2.5-0.10156-0.69922-0.69922-1.1992-1.3984-1.1016-0.60156 0.10156-1.1016 0.60156-1.1016 1.3008l-0.20312 0.003906s-0.19922 0-0.39844-0.30078c-0.80078-0.80078-0.19922-1.8984 1.3984-4.1016 1.1992-1.5977 2.5-3.3984 1.6016-5.0977z" fill="#fff"/>
 <path d="m94.102 5.8984c-1.3984-1.3984-3.8984-1.6016-7-0.5-0.89844 0.30078-1.8008 0.69922-2.6016 1.1992l-0.89844-0.89844c-0.5-0.5-1.3008-0.5-1.8008 0s-0.5 1.3008 0 1.8008l0.5 0.5c-0.60156 0.39844-1.1992 0.89844-1.8008 1.5l-0.19922-0.5c-0.5-0.5-1.3008-0.5-1.8008 0s-0.5 1.3008 0 1.8008l0.39844 0.39844c-1.3008 1.5-2 3.5-1.8008 5.6016l-26.496 25.5c-2.3008-2-5.1992-3.1992-8.1992-3.3984-4-0.19922-7.8984 1.6016-11.602 5.3008-0.39844 0.39844-0.5 1-0.19922 1.5 0.10156 0.10156 1.6016 2.8984-1.5 6-1.1016 1.1992-2.6016 2-4.3008 2.1992-1.5 0.10156-3-0.5-4-1.6016-0.39844-0.39844-1-0.5-1.5-0.19922-3.6992 2.1992-7 5.1016-9.8008 8.3984-5.1016 6.3008-8.8008 16.199 2.5 27.5 0.39844 0.39844 0.89844 0.80078 1.3008 1.1992 1.1016 1 2.3008 2 3.6016 2.8008 1.5 1 3.1992 1.8008 4.8984 2.3984 1.6992 0.60156 3.5 0.89844 5.3008 0.89844 12.398 0 20.602-14.5 20.699-14.699 0.30078-0.5 0.19922-1.1016-0.19922-1.5-2.3984-2.3984-2.1992-5.5 0.60156-8.3008 3.1016-3.1016 5.8984-1.6016 6-1.6016 0.5 0.30078 1.1016 0.19922 1.5-0.19922 3.6992-3.6992 5.5-7.6016 5.3008-11.602-0.19922-3-1.3984-5.8984-3.3984-8.1992l25.602-26.398c0.19922 0 0.5 0.10156 0.69922 0.10156 1.8008-0.10156 3.3984-0.69922 4.8008-1.8008l0.39844 0.39844c0.19922 0.19922 0.60156 0.39844 0.89844 0.39844 0.69922 0.10156 1.3008-0.5 1.3008-1.1992 0-0.39844-0.10156-0.80078-0.39844-1l-0.30078-0.30078c0.5-0.60156 1-1.1992 1.3984-1.8008l0.5 0.5c0.19922 0.19922 0.60156 0.39844 0.89844 0.39844 0.69922 0 1.1992-0.60156 1.1992-1.3008 0-0.30078-0.10156-0.60156-0.39844-0.89844l-0.89844-0.89844c2.0938-3.3945 2.9961-7.3945 0.79687-9.4961zm-48.801 74.301c-2.1016 3.3008-10.902 15.801-22.602 11.902-1-0.30078-1.8984-0.69922-2.8008-1.1992 1.1016-0.89844 1.8984-2.1016 2.6016-3.3008l0.5 0.60156c0.19922 0.19922 0.60156 0.39844 0.89844 0.39844 0.30078 0 0.60156-0.10156 0.89844-0.39844l4.6016-4.6016c0.5-0.5 0.5-1.3008 0-1.8008l-10-10c0-1.1016 0.10156-2.3984 0.19922-3.8984 0.30078-2-0.39844-4.1016-1.6992-5.6016-1.3008-1.1992-2.8984-1.8984-4.6992-2.1016 2-2 4.1992-3.8008 6.6016-5.3008 1.3984 1.1992 3.3008 1.8008 5.1992 1.6992 2.3008-0.19922 4.3984-1.3008 5.8984-2.8984 3-3 3-6.1992 2.3008-8.1016 3-2.8008 6-4.1016 9-4 2.3984 0.19922 4.6992 1.1016 6.6016 2.6992l-11.699 11.102c-0.19922 0.19922-0.39844 0.60156-0.39844 0.89844 0 0.30078 0.10156 0.69922 0.39844 0.89844l5.8008 5.8008c0.19922 0.19922 0.60156 0.39844 0.89844 0.39844 0.30078 0 0.69922-0.10156 0.89844-0.39844l11.301-11.797c1.5 1.8984 2.5 4.1992 2.6016 6.6016 0.10156 3-1.1992 6.1016-4 9-1.8984-0.60156-5.1016-0.69922-8.1016 2.3008-3.3984 3.5-3.8984 7.7969-1.1992 11.098zm-34.199-17.801c2.3008 0 4 0.5 5 1.3984 0.89844 1 1.1992 2.3984 1 3.6992-0.10156 1-0.10156 1.8008-0.10156 2.6992-0.19922 0.10156-0.30078 0.10156-0.39844 0.30078l-4.6016 4.6992c-0.5 0.5-0.5 1.3008 0 1.8008l8.6992 8.6992c-0.60156 1.5-1.6016 2.8008-2.8984 3.8008-1.3984-1-2.6992-2.1016-3.8984-3.3008-8.0039-7.9961-8.9023-15.895-2.8008-23.797zm32.598-2.1992-4-4 38.301-36.898c0.30078 0.5 0.69922 1 1.1992 1.5s1 0.89844 1.5 1.1992z" fill="#fff"/>
 <path d="m3.8008 43.301c0.19922 0.5 0.60156 0.80078 1.1016 0.80078l3.8008 0.30078-1.1016 1.1016c-0.5 0.5-0.5 1.3008 0 1.8008l3.5 3.5c0.19922 0.19922 0.5 0.39844 0.89844 0.39844 0.30078 0 0.69922-0.10156 0.89844-0.39844l38-37.805c0.5-0.5 0.5-1.3008 0-1.8008l-3.5-3.6016c-0.5-0.5-1.3008-0.5-1.8008 0l-1.1016 1.1016-0.30078-3.8008c0-0.69922-0.60156-1.1992-1.3008-1.1992-0.30078 0-0.60156 0.19922-0.80078 0.39844l-37.992 37.902c-0.30078 0.30078-0.5 0.89844-0.30078 1.3008zm42.699-33 1.8008 1.8008-36.199 36.098-1.8008-1.8008 34.102-34.102z" fill="#fff"/>
</svg>
