<?xml version="1.0" encoding="UTF-8"?>
<svg width="128pt" height="128pt" version="1.1" viewBox="0 0 128 128" xmlns="http://www.w3.org/2000/svg">
 <path d="m114.77 23.117h-56.988v26.676h56.988zm-45.48 9.1914h-4.2227v0.73047h2.6367v0.64063l-2.6367-0.003907v2.9453h2.6367v0.64062h-2.6367v2.957h2.6367v0.64062h-2.6367v2.9453h2.6367v0.64062l-2.6367-0.003906v2.418h2.6367v0.64062h-2.6367v1.1406h-0.64062v-1.1016h-2.6367v-0.64062h2.6367v-2.457h-2.6367v-0.64062h2.6367v-2.9453l-2.6367 0.003906v-0.64062h2.6367v-2.957h-2.6367v-0.64062h2.6367v-2.9453h-2.6367v-0.64062h2.6367v-0.73047l-4.2617 0.003906v-2.5586h4.2227v-0.87109l-2.5977-0.003906v-0.71484h2.6367v-1.6641h-2.6367v-0.64062h2.6367v-1.5352h0.64062v1.5352h2.6367v0.64062h-2.6367v1.6641h2.6367v0.64062h-2.6367v0.87109h4.2227zm21.246 8.9609h-4.2227v2.5586h2.6367v0.64062h-2.6367v2.418h2.6367v0.64062h-2.6367v1.1133h-0.64062v-1.1016h-2.6328v-0.64062h2.6367v-2.457h-2.6367v-0.64062h2.6367v-2.5586h-4.2227v-2.5586h4.2227v-1.4219h-2.6367v-0.64062h2.6367v-2.9453h-2.6367v-0.64062h2.6367v-4.2109h-2.6367v-0.66406h2.6367v-1.6641h-2.6367v-0.64062h2.6367v-1.5352h0.64062l-0.003906 1.5352h2.6367v0.64062h-2.6367v1.6641h2.6367v0.64062h-2.6367v4.2109h2.6367v0.64062h-2.6367v2.9453h2.6367v0.64062l-2.6367-0.003906v1.4219h4.2227zm21.246-3.8398-4.2578-0.003907v2.7891h2.6367v0.64062l-2.6367 0.003906v2.9453h2.6367v0.64062l-2.6367-0.003906v2.418h2.6367v0.64062h-2.6367v1.1406h-0.64062v-1.1016h-2.5977v-0.64062h2.6367v-2.457h-2.6367v-0.64062h2.6367v-2.9453l-2.6367 0.003906v-0.64062h2.6367v-2.793h-4.2227v-2.5586h4.2227v-1.1406h-2.6367v-0.64062h2.6367v-4.2617h-2.6367v-0.66406h2.6367v-1.6641h-2.6367v-0.64062h2.6367v-1.5352h0.60156v1.5352h2.6367v0.64062h-2.6367v1.6641h2.6367v0.64062h-2.6367v4.2109h2.6367v0.64062h-2.6367v1.1406h4.2227z" fill="#fff"/>
 <path d="m6.207 18.406v90.664h115.59v-90.664zm50.293 4.0703c0-0.35156 0.28516-0.64062 0.64062-0.64062h58.266c0.16797 0 0.33203 0.066406 0.44922 0.1875 0.12109 0.12109 0.1875 0.28516 0.1875 0.45312v27.957c0 0.16797-0.066407 0.33203-0.1875 0.44922-0.11719 0.12109-0.28125 0.1875-0.44922 0.1875h-58.266c-0.35547 0-0.64062-0.28516-0.64062-0.63672zm0.62891 30.797h-0.003906c2.4805 0.003906 4.6719 1.6094 5.4258 3.9688 0.75 2.3633-0.11328 4.9414-2.1367 6.375-0.28906 0.17969-0.66797 0.10156-0.85937-0.17969-0.19531-0.28125-0.13672-0.66406 0.13281-0.87109 1.5625-1.1133 2.2305-3.1133 1.6445-4.9414-0.58203-1.832-2.2852-3.0742-4.207-3.0742-1.918 0-3.6211 1.2422-4.207 3.0742-0.58203 1.8281 0.082031 3.8281 1.6484 4.9414 0.14062 0.09375 0.23438 0.24219 0.26172 0.41016 0.03125 0.16406-0.007813 0.33594-0.10938 0.47266-0.11719 0.17188-0.31641 0.27344-0.52344 0.26953-0.13281 0-0.26172-0.042969-0.37109-0.11719-2.0234-1.4336-2.8867-4.0078-2.1328-6.3711 0.75-2.3633 2.9453-3.9688 5.4219-3.9688zm-47.723-28.801c0-0.35156 0.28906-0.64062 0.64062-0.64062h40.832c0.17188 0 0.33203 0.070313 0.45312 0.1875 0.12109 0.12109 0.1875 0.28516 0.1875 0.45312v23.039c0 0.17188-0.066406 0.33594-0.1875 0.45312-0.12109 0.12109-0.28125 0.1875-0.45312 0.1875h-40.832c-0.35156 0-0.64062-0.28516-0.64062-0.64062zm7.9492 80.754-7.3086 0.003907v-36.379h6.0273l0.003906 19.969h1.2812zm-2.0859-42.508c-1.5508 0-2.9531-0.93359-3.5469-2.3711-0.59375-1.4336-0.26562-3.0859 0.83203-4.1836 1.0977-1.0977 2.75-1.4258 4.1836-0.83203 1.4375 0.59375 2.3711 1.9961 2.3711 3.5469 0 2.1211-1.7188 3.8398-3.8398 3.8398zm3.2891 0.84375v0.003906c-0.28516 0.19531-0.67969 0.12891-0.88281-0.15625-0.19922-0.28516-0.14062-0.68359 0.14062-0.89453 1.5586-1.1133 2.2188-3.1055 1.6328-4.9258-0.58203-1.8242-2.2773-3.0586-4.1914-3.0586-1.9141 0-3.6094 1.2344-4.1914 3.0586-0.58594 1.8203 0.074219 3.8125 1.6328 4.9258 0.13672 0.09375 0.23047 0.24219 0.26172 0.41016 0.027343 0.16406-0.011719 0.33594-0.10938 0.47266-0.12109 0.17187-0.31641 0.27344-0.52344 0.26953-0.13281 0-0.26172-0.042969-0.37109-0.11719-2.0273-1.4297-2.8906-4.0117-2.1406-6.375s2.9492-3.9688 5.4297-3.9688c2.4805 0 4.6758 1.6055 5.4258 3.9688 0.75391 2.3633-0.11328 4.9453-2.1367 6.375zm11.418 41.613h-8.8047v-16.355h1.2812v-19.98h6.2734l-0.003906 19.98h1.2812zm-4.5703-46.207c0-1.5508 0.9375-2.9531 2.3711-3.5469 1.4375-0.59375 3.0859-0.26562 4.1875 0.83203 1.0977 1.0977 1.4258 2.75 0.83203 4.1836-0.59375 1.4375-1.9961 2.3711-3.5508 2.3711-2.1172 0-3.8398-1.7188-3.8398-3.8398zm7.1055 4.6484c-0.28906 0.17969-0.66797 0.10156-0.86328-0.17969-0.19531-0.28125-0.13672-0.66406 0.13281-0.87109 1.5664-1.1133 2.2305-3.1133 1.6484-4.9414-0.58594-1.832-2.2852-3.0742-4.207-3.0742s-3.6211 1.2422-4.207 3.0742c-0.58594 1.8281 0.082031 3.8281 1.6484 4.9414 0.13672 0.09375 0.23047 0.24219 0.26172 0.41016 0.027344 0.16406-0.011719 0.33594-0.10938 0.47266-0.12109 0.17188-0.31641 0.27344-0.52344 0.26953-0.13281 0-0.26172-0.042969-0.37109-0.11719-2.0273-1.4297-2.8906-4.0117-2.1406-6.375 0.75-2.3633 2.9492-3.9688 5.4297-3.9688 2.4805 0 4.6758 1.6055 5.4258 3.9688 0.75391 2.3633-0.11328 4.9453-2.1367 6.375zm10.113 41.613h-8.832v-16.41h1.2812l-0.003907-19.996h7.5508zm-3.2656-46.262c0-1.5508 0.9375-2.9531 2.3711-3.5469 1.4336-0.59375 3.0859-0.26562 4.1836 0.83203 1.0977 1.0977 1.4297 2.75 0.83203 4.1836-0.59375 1.4375-1.9922 2.3711-3.5469 2.3711-2.1211 0-3.8398-1.7188-3.8398-3.8398zm6.2227 4.4922c-0.10156-0.13672-0.14062-0.30859-0.10938-0.48047 0.027344-0.16797 0.12109-0.31641 0.26172-0.41406 1.5664-1.1133 2.2305-3.1133 1.6484-4.9414-0.58594-1.832-2.2891-3.0742-4.207-3.0742-1.9219 0-3.625 1.2422-4.207 3.0742-0.58594 1.8281 0.082031 3.8281 1.6445 4.9414 0.14062 0.09375 0.23438 0.24219 0.26172 0.41016 0.03125 0.16406-0.007812 0.33594-0.10547 0.47266-0.12109 0.17188-0.31641 0.27344-0.52734 0.26953-0.13281 0-0.26172-0.042969-0.37109-0.11719-2.0234-1.4297-2.8906-4.0117-2.1367-6.375 0.75-2.3633 2.9453-3.9688 5.4258-3.9688 2.4805 0 4.6797 1.6055 5.4297 3.9688 0.75 2.3633-0.11328 4.9453-2.1367 6.375-0.28516 0.19531-0.66406 0.13281-0.87109-0.14062zm9.7422 41.766-8.8867 0.003907v-36.418h7.6172v20.008h1.2812zm-2.0117-46.258c0-1.5508 0.93359-2.9531 2.3711-3.5469 1.4336-0.59375 3.0859-0.26562 4.1836 0.83203 1.0977 1.0977 1.4258 2.75 0.83203 4.1836-0.59375 1.4375-1.9922 2.3711-3.5469 2.3711-2.1211 0-3.8398-1.7188-3.8398-3.8398zm14.707 46.262h-8.8828v-16.41h1.2812l-0.003907-20.02h6.3984l0.003906 20.02h1.2812zm0.66406-41.766v-0.003906c-0.11719 0.17187-0.31641 0.27344-0.52344 0.26953-0.11328-0.007813-0.22656-0.050781-0.32031-0.11328-2.0234-1.4336-2.8906-4.0117-2.1367-6.3789 0.75-2.3633 2.9453-3.9688 5.4258-3.9688 2.4805 0 4.6758 1.6055 5.4297 3.9688 0.75 2.3672-0.11328 4.9453-2.1406 6.3789-0.28906 0.17969-0.66797 0.10156-0.86328-0.17969-0.19141-0.28125-0.13281-0.66406 0.13672-0.87109 1.5625-1.1133 2.2305-3.1133 1.6445-4.9414-0.58594-1.832-2.2852-3.0742-4.207-3.0742s-3.6211 1.2422-4.207 3.0742c-0.58203 1.8281 0.082031 3.8281 1.6484 4.9414 0.13672 0.10156 0.22656 0.25391 0.24609 0.42188 0.023438 0.17188-0.023437 0.33984-0.13281 0.47266zm-1.4219-4.4922 0.003906-0.003906c0-1.5508 0.93359-2.9531 2.3672-3.5469 1.4375-0.59375 3.0898-0.26562 4.1875 0.83203 1.0977 1.0977 1.4258 2.75 0.83203 4.1836-0.59375 1.4375-1.9961 2.3711-3.5469 2.3711-2.1211 0-3.8398-1.7188-3.8398-3.8398zm13.559 46.258h-8.9609v-16.41h1.2812v-20.031h6.3984v20.031h1.2812zm1.8164-41.766v-0.003906c-0.12109 0.17187-0.31641 0.27344-0.52344 0.26953-0.12891 0-0.25391-0.039063-0.35938-0.11328-2.0273-1.4336-2.8984-4.0117-2.1484-6.3789 0.75391-2.3633 2.9492-3.9727 5.4297-3.9727 2.4844 0 4.6797 1.6094 5.4297 3.9727 0.75 2.3672-0.11719 4.9453-2.1445 6.3789-0.28906 0.17969-0.66797 0.10156-0.86328-0.17969-0.19531-0.28125-0.13672-0.66406 0.13281-0.87109 1.5664-1.1133 2.2305-3.1133 1.6484-4.9414-0.58594-1.832-2.2852-3.0742-4.207-3.0742s-3.6211 1.2422-4.207 3.0742c-0.58594 1.8281 0.082031 3.8281 1.6445 4.9414 0.14453 0.09375 0.24609 0.24219 0.27734 0.41406 0.03125 0.16797-0.007813 0.34375-0.10938 0.48047zm2.3945-0.74609c-1.5547 0-2.9531-0.93359-3.5469-2.3711-0.59766-1.4336-0.26562-3.0859 0.83203-4.1836 1.0977-1.0977 2.75-1.4258 4.1836-0.83203s2.3711 1.9961 2.3711 3.5469c0 2.1211-1.7188 3.8398-3.8398 3.8398zm8.6016 42.457h-8.9609v-16.355h1.2812v-20.047h7.6797zm2.957-41.766c-0.11719 0.17578-0.31641 0.27734-0.52734 0.26953-0.12891 0-0.25391-0.039063-0.35547-0.11328-2.0195-1.4336-2.8789-4.0039-2.125-6.3633 0.75-2.3555 2.9414-3.957 5.4141-3.957s4.6641 1.6016 5.4141 3.957c0.75 2.3594-0.10938 4.9297-2.125 6.3633-0.29297 0.19922-0.6875 0.12891-0.89453-0.15625-0.10156-0.13672-0.14062-0.3125-0.11328-0.48047 0.03125-0.16797 0.125-0.31641 0.26562-0.41406 1.5664-1.1133 2.2305-3.1133 1.6445-4.9414-0.58203-1.832-2.2852-3.0742-4.207-3.0742-1.918 0-3.6211 1.2422-4.2031 3.0742-0.58594 1.8281 0.078125 3.8281 1.6445 4.9414 0.16016 0.09375 0.27344 0.25 0.30469 0.43359 0.03125 0.18359-0.019531 0.37109-0.13672 0.51172zm2.3906-0.69141c-1.5508 0-2.9531-0.93359-3.5469-2.3711-0.59375-1.4336-0.26562-3.0859 0.83203-4.1836 1.1016-1.0977 2.75-1.4258 4.1875-0.83203 1.4336 0.59375 2.3711 1.9961 2.3711 3.5469 0 2.1211-1.7227 3.8398-3.8438 3.8398zm7.4609 42.457h-8.9609l0.003906-36.402h7.6797v20.047h1.2812zm11.52 0h-7.6797l0.003906-16.355h1.2812v-20.047h6.3984zm-8.8281-46.207c0-1.5508 0.9375-2.9531 2.3711-3.5469s3.0859-0.26562 4.1836 0.83203 1.4258 2.75 0.83203 4.1836c-0.59375 1.4375-1.9922 2.3711-3.5469 2.3711-2.1211 0-3.8398-1.7188-3.8398-3.8398zm7.1055 4.6445v0.003907c-0.29297 0.19922-0.6875 0.12891-0.89844-0.15625-0.097656-0.13672-0.13672-0.30859-0.10938-0.48047 0.027343-0.16797 0.125-0.31641 0.26562-0.41406 1.5625-1.1133 2.2305-3.1133 1.6445-4.9414-0.58594-1.832-2.2852-3.0742-4.207-3.0742s-3.6211 1.2422-4.207 3.0742c-0.58203 1.8281 0.082032 3.8281 1.6484 4.9414 0.13672 0.09375 0.23438 0.24219 0.26172 0.41016 0.027343 0.16406-0.011719 0.33594-0.10938 0.47266-0.20312 0.28516-0.59375 0.35156-0.88281 0.15234-2.0156-1.4297-2.875-4.0039-2.125-6.3594 0.75-2.3555 2.9414-3.957 5.4141-3.957s4.6641 1.6016 5.4141 3.957c0.75391 2.3555-0.10547 4.9297-2.125 6.3594z" fill="#fff"/>
 <path d="m50.238 25.113h-39.551v21.762h39.551zm-30.883 19.391h-2.5586l-0.003906-5.6797h2.5586zm-1.2812-7.8477v0.003906c-1.8906 0-3.5977-1.1406-4.3164-2.8867-0.72266-1.75-0.32031-3.7578 1.0156-5.0938 1.3398-1.3359 3.3516-1.7305 5.0977-1.0039 1.7461 0.72656 2.8789 2.4336 2.875 4.3242 0 1.2383-0.49219 2.4258-1.3711 3.3008-0.875 0.87109-2.0625 1.3633-3.3008 1.3594zm13.453 7.8477h-2.5586l-0.003906-5.6797h2.5586zm-1.2812-7.8477v0.003906c-1.8906 0-3.5938-1.1406-4.3164-2.8867-0.72266-1.75-0.32031-3.7578 1.0195-5.0938 1.3359-1.3359 3.3477-1.7305 5.0938-1.0039 1.7461 0.72656 2.8789 2.4336 2.875 4.3242 0 1.2383-0.49219 2.4258-1.3672 3.3008-0.87891 0.87109-2.0664 1.3633-3.3047 1.3594zm13.887 7.8477h-2.5586v-5.6797h2.5586zm-1.2812-7.8477 0.003907 0.003906c-1.8945 0.003906-3.6016-1.1328-4.3281-2.8789-0.72656-1.7461-0.32812-3.7617 1.0117-5.0977 1.3359-1.3359 3.3477-1.7383 5.0977-1.0117 1.7461 0.72656 2.8828 2.4375 2.875 4.3281-0.003907 2.5703-2.0859 4.6523-4.6562 4.6602z" fill="#fff"/>
</svg>
