<?xml version="1.0" encoding="UTF-8"?>
<svg viewBox="0 0 100 100" xmlns="http://www.w3.org/2000/svg">
 <rect x="-10" y="-10" width="120" height="120"/>
 <path d="m78.477 50.391v-22.434h-56.68l0.003906 22.434h-0.089843v22.707h56.867v-22.707zm-15.164-18.895h12.773v6.4883h-12.773zm0 8.7461 12.773 0.003906v6.4844h-12.773zm-11.008-8.5039h6.8086v2.2109l-6.8086-0.003907zm0 6.2344h6.8086v2.2148h-6.8086zm0 6.3906h6.8086v2.2109h-6.8086zm-8.8984-12.625h6.8086v2.2109l-6.8086-0.003907zm0 6.2344h6.8086v2.2148h-6.8086zm0 6.3906h6.8086v2.2109h-6.8086zm-10.309-12.625h6.8242v2.2109l-6.8242-0.003907zm0 6.2344h6.8242v2.2148h-6.8242zm0 6.3906h6.8242v2.2109h-6.8242zm-8.918-12.625h6.8008v2.2109l-6.8008-0.003907zm0 6.2344h6.8008v2.2148h-6.8008zm0 6.4102h6.8008v2.2109h-6.8008zm3.0039 26.828h-3.582v-17.898h2.9727v9.8242h0.62891zm6.2109 0h-4.3164v-8.0742h0.62891v-9.832h3.0859v9.832h0.62891zm6.2227 0h-4.3438l-0.003907-8.0742h0.62891v-9.8359h3.7148zm6.2461 0h-4.3516v-17.918h3.7461v9.8438h0.62891zm6.2461 0h-4.3516v-8.0742h0.62891v-9.8477h3.1484v9.8477h0.62891zm6.2969 0h-4.4102l0.003906-8.0742h0.62891v-9.8555h3.1484v9.8555h0.62891zm6.2969 0h-4.4102l0.003906-8.0742h0.62891v-9.8633h3.7773zm6.2969 0h-4.4102l0.003906-17.938h3.7773v9.8633h0.62891zm5.668 0h-3.7773v-8.0742h0.62891v-9.8633h3.1484z" fill="#fff"/>
</svg>
