<?xml version="1.0" encoding="UTF-8"?>
<svg viewBox="0 0 100 100" xmlns="http://www.w3.org/2000/svg">
 <rect x="-10" y="-10" width="120" height="120"/>
 <path d="m67.805 52.828c-0.44141-2.1172-1.6836-3.9844-3.4727-5.2031-0.78906-0.54297-1.6328-1-2.5195-1.3672-1.8242-0.75-3.6094-1.6055-5.3398-2.5547-2.3516-1.2969-4.5742-2.8164-6.6367-4.5352-1.8633-1.5664-3.4453-3.4414-4.6797-5.543-0.21875-0.39062-0.46094-0.76172-0.69922-1.1406-0.82031-1.2969-1.6562-2.5742-2.4492-3.8867v0.003906c-0.8125-1.3008-1.5117-2.6719-2.0859-4.0938-0.52734-1.1367-0.74609-2.3945-0.62891-3.6406 0.03125-0.17969-0.042969-0.35938-0.1875-0.46484h-0.20312c-0.15625 0.089844-0.30859 0.1875-0.45312 0.30078-1.4453 1.2227-2.1406 3.1172-1.832 4.9883 0.085937 0.44922 0.19141 0.89453 0.32031 1.3359-0.085938 0.042968-0.16797 0.09375-0.25 0.14844-0.78516 0.47656-1.4141 1.1719-1.8008 2.0039-0.42578 0.91797-0.60938 1.9258-0.53125 2.9336 0 0.32031 0.058593 0.62891 0.082031 0.94922v0.03125l-0.21484 0.17188c-1.3711 1.0156-2.1133 2.6719-1.957 4.3711 0.03125 0.55469 0.13672 1.1094 0.21875 1.6875-2.2148 1.4062-3.0859 3.4023-2.4102 6.0156-0.56641 0.36719-1.0664 0.82031-1.4844 1.3477-1.4414 1.8906-1.5664 4.0039-0.94922 6.2148 0.070313 0.25 0.23438 0.31641 0.47266 0.20703l0.93359-0.42969-0.003906 0.003906c3.8516-1.6953 7.8594-3.0195 11.965-3.9492 2.1133-0.48828 4.2656-0.80859 6.4297-0.95703 1.6094-0.10547 3.2227-0.097656 4.8281 0.03125 1.7305 0.13281 3.4453 0.41406 5.1289 0.84375 1.3633 0.31641 2.6836 0.78906 3.9414 1.4023 1.0469 0.52344 1.9805 1.2422 2.75 2.125 0.29297 0.34375 0.51953 0.74219 0.66797 1.1719h3.1484c-0.042969-0.20312-0.0625-0.35937-0.097656-0.52344zm-30.398-4.2344c-0.36719 0-0.73047 0.042969-1.0977 0.09375v0.003906c-1.0742 0.16406-2.1289 0.44141-3.1484 0.82422-1.4766 0.51953-2.9141 1.1289-4.3125 1.8242-0.089844 0.042968-0.17578 0.09375-0.26953 0.13281-0.26953 0.11328-0.46484 0-0.46484-0.29688h-0.003906c0-0.27344 0.023437-0.54688 0.070313-0.81641 0.1875-1.0859 0.63672-2.1094 1.3086-2.9805 0.37109-0.50391 0.8125-0.95703 1.2266-1.4219 0.046875-0.042969 0.097656-0.082031 0.15234-0.11328-0.039063-2.5195 0.66016-4.668 2.7656-6.1836-0.03125-0.09375-0.0625-0.1875-0.10156-0.27734-0.28125-0.67969-0.41406-1.4102-0.38281-2.1406 0.023437-0.55078 0.20703-1.082 0.52734-1.5312 0.066407-0.09375 0.14453-0.17578 0.23438-0.25391 0.12109-0.09375 0.29688-0.082031 0.40234 0.03125 0.089844 0.11328 0.089844 0.26953 0 0.37891-0.54688 0.65234-0.72656 1.5391-0.48047 2.3555 0.10938 0.42969 0.25 0.84766 0.42188 1.2539 0.15625 0.40234 0.15234 0.44531-0.20312 0.66797h0.003907c-0.9375 0.59766-1.6602 1.4805-2.0586 2.5195-0.37891 0.95703-0.54688 1.9883-0.49219 3.0156 0.015625 0.22656-0.074218 0.44922-0.24609 0.59766-0.95703 0.84766-1.7031 1.9062-2.1836 3.0938-0.12109 0.34375-0.22266 0.69531-0.30469 1.0508-0.007812 0.078125-0.007812 0.16016 0 0.23828 0.67969-0.30078 1.3398-0.62891 2.0078-0.89453h0.003906c1.4414-0.63281 2.9375-1.1406 4.4688-1.5117 0.67969-0.15625 1.3711-0.25 2.0664-0.27734h0.089844c0.21484 0 0.33984 0.125 0.33984 0.30859s-0.097656 0.29297-0.33984 0.30859z" fill="#fff"/>
 <path d="m42.695 67.594c-0.058593 0.51172-0.039062 5.0391 0 5.3164h20.852v-5.3164zm3.8789 1.3008h-2.5195v0.39062 2.332-0.003907c0.007812 0.089844 0.007812 0.17969 0 0.26953-0.019532 0.12891-0.12891 0.22656-0.25781 0.23438-0.14453 0.019531-0.28125-0.074219-0.31641-0.21484-0.003907-0.066406-0.003907-0.13281 0-0.19922v-2.9492c-0.003907-0.054687-0.003907-0.11328 0-0.16797 0-0.16016 0.12891-0.28516 0.28516-0.28516 0.066406-0.007812 0.13281-0.007812 0.19922 0h2.6016c0.24609 0 0.37109 0.125 0.36719 0.31641-0.007813 0.1875-0.125 0.27734-0.35938 0.27734z" fill="#fff"/>
 <path d="m66.707 56.859h-2.6055c-0.53125 0.042969-1.0508-0.16406-1.3984-0.5625l-8.9258 0.36719c-0.30859-0.24219-0.62891-0.46484-0.96094-0.66797-0.69141-0.35156-1.4766-0.46875-2.2383-0.32812-0.57812 0.082031-1.125 0.32422-1.5742 0.69922-0.45703 0.33984-0.73047 0.875-0.73828 1.4453-0.011719 0.57422 0.24609 1.1133 0.69531 1.4688 0.39062 0.33984 0.85937 0.57422 1.3672 0.67969 0.23438 0.050781 0.46484 0.082031 0.69141 0.12109 0.003907 0.039063 0.003907 0.082031 0 0.12109 0.070313 0.69141 0.13281 1.3867 0.20312 2.0781 0 0.11328 0.019532 0.22656 0.054688 0.33203 0.007812 0.16797 0.14844 0.30078 0.31641 0.29688s0.30078-0.14453 0.29688-0.31641c0.007813-0.125 0.007813-0.25 0-0.375 0.039063-0.37891 0.0625-0.75 0.09375-1.1289s0.074219-0.74219 0.10547-1.082l1.4062-0.67969h0.86719c1.6133-0.050781 3.2188-0.125 4.832-0.17188 1.2461 0.011719 2.4922-0.0625 3.7266-0.21484 0.96094-0.13281 1.8945-0.42578 2.7578-0.86328 0.48437-0.24219 0.91016-0.58203 1.2617-0.99219 0.046875-0.074219 0.089844-0.14453 0.13281-0.22266zm-15.617-0.21484c-0.023438 0.0625-0.054688 0.125-0.09375 0.18359-0.40234 0.5-0.98828 0.81641-1.625 0.88672-0.085938-0.011719-0.16797-0.03125-0.24609-0.058594-0.074219-0.015625-0.13281-0.066406-0.16406-0.13672-0.03125-0.070312-0.027344-0.14844 0.007812-0.21484 0.042969-0.11719 0.10547-0.22266 0.1875-0.31641 0.33594-0.35938 0.77734-0.61328 1.2578-0.71484 0.14453-0.027344 0.29297-0.027344 0.4375 0 0.089844-0.003907 0.17578 0.042968 0.22266 0.11719 0.050781 0.074219 0.054687 0.17188 0.015625 0.25391z" fill="#fff"/>
 <path d="m63.496 73.238h-10.516-10.457-0.37891 0.003907c-0.39453 0.023438-0.71094 0.33594-0.73047 0.73047-0.015625 0.16797-0.015625 0.33984 0 0.51172 0.015625 0.33203 0.24609 0.61328 0.57031 0.69141 0.16797 0.03125 0.33594 0.046875 0.50391 0.042969h21.125c0.25 0.023437 0.50391-0.066406 0.68359-0.24609 0.17969-0.17969 0.26953-0.42969 0.24609-0.68359 0.042969-0.67578-0.34766-1.0469-1.0508-1.0469zm-19.762 0.93359h-1.5742c-0.12109 0.007813-0.22266-0.082031-0.22656-0.20312-0.003906-0.066406 0.023437-0.12891 0.070312-0.17188s0.10938-0.066406 0.17578-0.0625h1.3672-0.003906c0.070312-0.003906 0.14062-0.003906 0.21094 0 0.125-0.003906 0.22266 0.10547 0.20703 0.22656 0.003906 0.125-0.10547 0.22656-0.22656 0.21094z" fill="#fff"/>
 <path d="m63.938 65.008c-0.066406-0.007812-0.13672-0.007812-0.20312 0h-21.293c-0.10156-0.007812-0.20312-0.007812-0.30859 0-0.38672 0.039063-0.6875 0.34766-0.71484 0.73438-0.015625 0.17187-0.015625 0.34375 0 0.51172 0.023437 0.37891 0.32422 0.68359 0.70312 0.71875 0.125 0.007813 0.25391 0.007813 0.37891 0h21.223c0.41797 0 0.76562-0.3125 0.82031-0.72656 0.074219-0.68359-0.12891-1.1016-0.60547-1.2383zm-20.102 0.91797h-1.4375c-0.066407 0.015625-0.13672 0.015625-0.20313 0-0.066406-0.050781-0.11719-0.12109-0.14844-0.19922-0.023437-0.097656 0.039063-0.19531 0.13672-0.21484 0.078125-0.011719 0.15625-0.011719 0.23438 0h1.4375-0.003907c0.12109 0.007812 0.21094 0.11328 0.20313 0.23047-0.011719 0.11328-0.10938 0.19531-0.21875 0.18359z" fill="#fff"/>
 <path d="m67.93 56.859h1.6367c0.23828 0.49609 0.40625 1.0234 0.50391 1.5664 0.34375 1.7617 0.15234 3.582-0.54687 5.2344-0.45313 1.1328-1.2227 2.1094-2.2188 2.8125-0.73047 0.5-1.5859 0.78516-2.4688 0.83203h-0.22656c0.59375-0.59766 0.72656-1.5078 0.33594-2.2539 0.027344-0.027343 0.058594-0.046875 0.09375-0.070312 0.66406-0.36719 1.1914-0.94141 1.5-1.6367 0.34375-0.74609 0.54297-1.5547 0.58203-2.3789 0.085937-0.93359 0-1.875-0.25-2.7773-0.003906-0.027344-0.003906-0.050781 0-0.078125z" fill="#fff"/>
 <path d="m61.129 62.301h-8.332c-0.089844-0.007812-0.17969-0.007812-0.27344 0 0 0.11328 0 0.21484-0.050782 0.31641l0.003906-0.003907c-0.074218 0.42969-0.4375 0.74609-0.87109 0.76172-0.43359 0.015625-0.81641-0.27734-0.91797-0.69922 0-0.12109-0.042969-0.24609-0.074219-0.38281h-5.8594c-0.089844 0-0.18359 0.011719-0.26953 0.039062-0.29297 0.074219-0.50391 0.32812-0.51953 0.62891-0.042969 0.49609 0.082031 0.79297 0.39844 0.9375 0.074219 0.03125 0.15234 0.046874 0.23438 0.058593h16.738c0.25781-0.011719 0.48828-0.17969 0.57422-0.42188 0.21094-0.57422 0.054688-1.2422-0.78125-1.2344zm-15.23 0.88672h-0.62891-0.57812c-0.0625 0.007812-0.12891-0.011719-0.17578-0.054688-0.046875-0.042968-0.074219-0.10156-0.078125-0.16797 0-0.0625 0.023438-0.12109 0.070312-0.16406 0.046876-0.042969 0.10938-0.066406 0.17188-0.0625h1.2578c0.0625-0.003906 0.12891 0.019531 0.17188 0.0625 0.046875 0.046875 0.070313 0.10938 0.066406 0.17188-0.007812 0.066406-0.039062 0.125-0.09375 0.16406-0.050781 0.042969-0.11719 0.058593-0.18359 0.050781z" fill="#fff"/>
 <path d="m70.152 54.59c-0.11328-0.39453-0.48438-0.65625-0.89453-0.62891h-2.707-2.6758c-0.50391-0.015626-0.92578 0.37109-0.95703 0.87109-0.019531 0.20703-0.019531 0.41797 0 0.62891 0.042969 0.33984 0.29297 0.62109 0.62891 0.70312 0.14453 0.035157 0.29297 0.050782 0.44141 0.046876h5.0391-0.003906c0.09375 0.003906 0.1875 0.003906 0.27734 0 0.36719 0.007812 0.70312-0.20703 0.85156-0.54297 0.11719-0.35156 0.11719-0.72656 0-1.0781zm-4.7617 0.36719h-0.75-0.72266c-0.078125 0-0.15625-0.019531-0.22266-0.0625-0.125-0.10547-0.085937-0.3125 0.070313-0.35938 0.089844-0.027344 0.17969-0.039062 0.27344-0.03125h1.3906c0.15625 0 0.25 0.11328 0.24609 0.23828-0.007812 0.125-0.09375 0.20703-0.25781 0.21484z" fill="#fff"/>
 <path d="m46.547 75.555h-4.5586c-0.20703 0.91406 0.17578 1.8594 0.95703 2.375 0.83984 0.57031 1.9453 0.54297 2.7539-0.070313 0.72266-0.52734 1.0586-1.4336 0.84766-2.3047zm-3.3125 1.8281c-0.36328-0.074218-0.64453-0.375-0.69141-0.74219-0.003907-0.082031 0.023437-0.16406 0.082031-0.21875 0.058594-0.058594 0.14062-0.085937 0.22266-0.078125 0.36719 0.066406 0.65234 0.36328 0.70312 0.73438 0.011719 0.085937-0.019531 0.17188-0.082031 0.23047-0.0625 0.0625-0.14844 0.089844-0.23438 0.074218z" fill="#fff"/>
 <path d="m64.074 75.551h-4.5664c-0.19141 0.96875 0.25 1.957 1.1016 2.4609 0.86328 0.50781 1.957 0.41797 2.7227-0.22656 0.66406-0.53516 0.95312-1.4102 0.74219-2.2344zm-3.3359 1.7773v-0.003906c-0.36328-0.074219-0.63281-0.37891-0.66406-0.75-0.003907-0.085938 0.03125-0.16797 0.097656-0.22656 0.066406-0.054687 0.15234-0.074218 0.23828-0.054687 0.33984 0.097656 0.58594 0.38672 0.62891 0.73438 0.011719 0.085937-0.015624 0.16797-0.078124 0.22656-0.058594 0.058594-0.14063 0.082032-0.22266 0.070313z" fill="#fff"/>
 <path d="m70.852 55.367v-0.46484-0.003906c-0.003906-0.26172-0.074218-0.51953-0.20703-0.75-0.10156-0.17578-0.20703-0.35156-0.31641-0.52344v0.003906c-0.082031-0.14453-0.23047-0.23047-0.39453-0.23438h-1.3867l-0.43359-1.7773c0.074219-0.039063 0.17188-0.10156 0.26562-0.14453h-0.003906c0.73828-0.42188 1.6367-0.46484 2.4062-0.10547 0.72266 0.33984 1.2422 1 1.3984 1.7812 0.21094 0.76562-0.078126 1.5781-0.72266 2.0391-0.16797 0.14453-0.38672 0.21094-0.60547 0.17969z" fill="#fff"/>
</svg>
