<?xml version="1.0" encoding="UTF-8"?>
<svg width="128pt" height="128pt" version="1.1" viewBox="0 0 128 128" xmlns="http://www.w3.org/2000/svg">
 <path d="m90.891 94.586s-0.003906 0 0 0zm-42.094 0s0.003906 0 0 0c0.003906 0 0 0 0 0zm22.434-21.523c-0.32812-0.32812-0.78125-0.53125-1.2734-0.53125-0.5 0-0.94922 0.19922-1.2734 0.53125-0.32422 0.32422-0.53125 0.77344-0.53125 1.2734s0.19922 0.94922 0.53125 1.2734c0.32422 0.32812 0.77344 0.53125 1.2734 0.53125s0.94922-0.19922 1.2734-0.53125c0.32422-0.32422 0.52344-0.77344 0.52344-1.2734 0.003906-0.5-0.19531-0.94922-0.52344-1.2734zm-1.2734-2.7891c1.125 0 2.1406 0.45312 2.8711 1.1914 0.73438 0.73438 1.1914 1.75 1.1914 2.8711 0 1.125-0.45312 2.1406-1.1914 2.875-0.73438 0.73437-1.75 1.1914-2.8711 1.1914-1.1211 0-2.1367-0.45312-2.8711-1.1914-0.73438-0.73438-1.1914-1.75-1.1914-2.875 0-1.1211 0.45312-2.1367 1.1914-2.8711 0.73437-0.73047 1.75-1.1914 2.8711-1.1914zm19.102 2.7812c-0.77344-0.77344-1.8438-1.2539-3.0312-1.2539-1.1836 0-2.2539 0.48047-3.0312 1.2539-0.77344 0.77344-1.2539 1.8438-1.2539 3.0312 0 1.1836 0.48047 2.2539 1.2539 3.0312 0.77344 0.77344 1.8438 1.2539 3.0312 1.2539 1.1836 0 2.2539-0.48047 3.0312-1.2539 0.77344-0.77344 1.2539-1.8516 1.2539-3.0312 0.003906-1.1836-0.47656-2.2539-1.2539-3.0312zm-3.0312-3.5156c1.8047 0 3.4414 0.73047 4.625 1.9141s1.9141 2.8203 1.9141 4.625-0.73047 3.4414-1.9141 4.625-2.8203 1.9141-4.625 1.9141c-1.8047 0-3.4414-0.73047-4.625-1.9141s-1.9141-2.8203-1.9141-4.625 0.73047-3.4453 1.9141-4.625 2.8203-1.9141 4.625-1.9141zm-28.555 3.5156c-0.77344-0.77344-1.8516-1.2539-3.0312-1.2539-1.1836 0-2.2539 0.48047-3.0312 1.2539-0.77344 0.77344-1.2539 1.8438-1.2539 3.0312 0 1.1836 0.48047 2.2539 1.2539 3.0312 0.77344 0.77344 1.8438 1.2539 3.0312 1.2539 1.1836 0 2.2539-0.48047 3.0312-1.2539 0.77344-0.77344 1.2539-1.8516 1.2539-3.0312 0.003907-1.1836-0.47656-2.2539-1.2539-3.0312zm-3.0312-3.5156c1.8047 0 3.4453 0.73047 4.625 1.9141 1.1836 1.1836 1.9141 2.8203 1.9141 4.625s-0.73047 3.4414-1.9141 4.625-2.8203 1.9141-4.625 1.9141c-1.8047 0-3.4453-0.73047-4.625-1.9141-1.1836-1.1836-1.9141-2.8203-1.9141-4.625s0.73047-3.4453 1.9141-4.625c1.1797-1.1797 2.8164-1.9141 4.625-1.9141zm13.266-33.141c0.60547-0.14844 1.2148 0.21484 1.3633 0.82031 0.14844 0.60547-0.21484 1.2148-0.82031 1.3633l-8.125 2.0312c-0.60547 0.14844-1.2148-0.21484-1.3633-0.82031-0.14844-0.60547 0.21484-1.2148 0.82031-1.3633zm1.3203-4.7617c0.61328 0.078125 1.0508 0.64062 0.97656 1.2539-0.078125 0.61328-0.64062 1.0508-1.2539 0.97656l-8.8008-1.1289c-0.61328-0.078125-1.0508-0.64062-0.97656-1.2539 0.078125-0.61328 0.64062-1.0508 1.2539-0.97656zm1.7148-4.4062c0.55469 0.27344 0.78125 0.94922 0.5 1.5039-0.27344 0.55469-0.94922 0.78125-1.5039 0.50391l-9.0312-4.5156c-0.55469-0.28125-0.78125-0.94922-0.50391-1.5117 0.28125-0.55469 0.94922-0.78125 1.5117-0.5zm15.504 6.7969c-0.48438 0.39062-1.1953 0.30859-1.5781-0.17188-0.39062-0.48438-0.30859-1.1953 0.17578-1.5859 0.58594-0.46875 1.2891-0.72656 2.0039-0.75391 0.71484-0.03125 1.4414 0.16016 2.0664 0.57812 0.625 0.42188 1.0781 1.0156 1.3203 1.6914 0.23828 0.67578 0.28125 1.4258 0.066406 2.1445-0.21094 0.71875-0.64844 1.3359-1.2148 1.7656-0.57031 0.43359-1.2734 0.69141-2.0312 0.70313-0.75 0.015624-1.4609-0.21875-2.0469-0.63672l-0.003906-0.003907h-0.003906c-0.57812-0.41016-1.0352-1.0039-1.2734-1.7266-0.19531-0.58984 0.125-1.2266 0.71484-1.4219s1.2266 0.125 1.4219 0.71484c0.078125 0.24609 0.23828 0.44922 0.44531 0.59375v0.003906c0.19922 0.14062 0.44922 0.21875 0.71094 0.21484 0.25391-0.003907 0.5-0.09375 0.69922-0.24609 0.19922-0.14844 0.35156-0.36328 0.42188-0.60938 0.074219-0.25 0.066406-0.51172-0.019531-0.74609-0.085938-0.23438-0.23828-0.44141-0.45312-0.58594-0.21875-0.14453-0.46875-0.21094-0.71875-0.19922-0.23828 0.011719-0.48438 0.10156-0.69141 0.26562zm4.9258 27.668c1.5508 0 2.9609 0.63672 3.9844 1.6602 1.0234 1.0234 1.6602 2.4336 1.6602 3.9844v19.637h-7.0508l-39.84-0.003906h-6.8242v-19.629c0-1.5508 0.63672-2.9609 1.6602-3.9844 1.0234-1.0234 2.4297-1.6602 3.9844-1.6602zm-42.371 27.535h-1.1289v5.3594h1.1289zm43.215 0h-1.1289v5.3594h1.1289zm-23.523-29.789h2.9336v-4.3984c0-0.39844-0.16406-0.76953-0.43359-1.0352-0.26563-0.26562-0.62891-0.42969-1.0352-0.42969-0.39844 0-0.76953 0.16406-1.0352 0.42969-0.26562 0.26563-0.42969 0.63672-0.42969 1.0352zm25.309-19.234-0.023437 0.003907-6 1.3594-10.754 2.4414 6.5312-21.07 7.4883 8.0938 3.8086 4.1133c0.12109 0.14453 0.27344 0.26172 0.46094 0.33594 7.4609 2.8984 12.477 10.969 14.359 19.25 0.80859 3.5547 1.0352 7.1406 0.62891 10.359-0.39844 3.1484-1.4062 5.9414-3.0586 7.9844-1.8398 2.2734-4.5352 3.6445-8.1641 3.5781l-0.011719-1.0117c0.80469 0.039063 1.5742 0.046875 2.2969-0.015625 1.1914-0.10156 2.2617-0.39453 3.1484-1.0195 3.1641-2.2305 4.6133-6.0703 4.7812-10.406 0.10938-2.9297-0.36328-6.1016-1.3008-9.1367-0.92969-3.0312-2.3203-5.9453-4.0234-8.3594-2.6445-3.7539-6.0859-6.3594-9.8555-6.5312-0.089843-0.011719-0.18359-0.003906-0.28125 0.015625h-0.003906l-0.023437 0.003906h-0.003907zm-11.984-21.672c-0.089844-0.21875-0.26953-0.39844-0.53906-0.48047-0.33594-0.10156-0.67969-0.050782-0.96484 0.10547s-0.51172 0.41406-0.60938 0.74609l-8.0195 26.961c-0.003906 0.015624-0.011719 0.035156-0.015625 0.050781-0.10156 0.32812-0.050781 0.67578 0.10547 0.96484 0.15625 0.28516 0.41406 0.51172 0.74609 0.60938 0.28516 0.085937 0.53125 0.054687 0.71875-0.066407 0.24609-0.14844 0.44141-0.43359 0.55078-0.81641l8.0312-27.004c0.12109-0.39453 0.12109-0.77344 0-1.0703zm-39.238 15.336c-0.55859 0.058594-1.2539 0.30469-1.9609 0.72656l-0.023438 0.019532-0.039062 0.023437c-0.72656 0.44531-1.2852 0.96875-1.6055 1.4531-0.16406 0.25391-0.26562 0.41406-0.25391 0.42969 0.003907 0.011718 0.19531-0.003907 0.5-0.035157 0.57813-0.058593 1.3008-0.32031 2.0234-0.76562 0.72656-0.44531 1.2852-0.96875 1.6055-1.4531 0.14844-0.23438 0.25-0.39062 0.25391-0.42188l-0.003906-0.011718c-0.035157-0.015626-0.21875 0-0.49609 0.03125zm8.2656-6.9062 0.011719 0.03125c0.054687 0 0.23047-0.015625 0.48047-0.039063 0.57422-0.058593 1.3008-0.32031 2.0234-0.76562 0.72656-0.44531 1.2852-0.96875 1.6055-1.4531 0.16406-0.25391 0.26562-0.41406 0.25391-0.42969-0.003906-0.011719-0.19531 0.003906-0.5 0.035156-0.57812 0.058594-1.3008 0.32031-2.0312 0.76562-0.72656 0.44531-1.2852 0.96875-1.6055 1.4531-0.125 0.20312-0.21484 0.34375-0.23828 0.40625zm-5.8984 5.5352c0.015626 0.046875 0.023438 0.085938 0.03125 0.12891l0.019532 0.03125 0.003906 0.011719c0.49609 0.81641 0.34375 1.8281-0.29688 2.8164-0.48828 0.75391-1.3008 1.5312-2.3164 2.1562-1.0156 0.62109-2.0742 0.98828-2.9688 1.0859-1.1719 0.125-2.1445-0.21094-2.6484-1.0312-0.5-0.81641-0.35547-1.8359 0.28906-2.8242 0.48438-0.74609 1.2812-1.5117 2.2812-2.1289 0.035156-0.023438 0.074218-0.046875 0.10938-0.066406 0.98438-0.58984 2.0039-0.94141 2.875-1.0391l-2.9961-9.7148c-0.125-0.39844-0.011719-0.82031 0.26172-1.1055l5.5664-5.8398c0.42969-0.44922 1.1406-0.46875 1.5898-0.039063 0.14062 0.13672 0.23828 0.29688 0.29688 0.46484l2.9492 8.9805c0.42578-0.42578 0.94141-0.83594 1.5234-1.1914 1.0156-0.62109 2.0742-0.98828 2.9688-1.0859 1.1719-0.125 2.1445 0.21094 2.6484 1.0312 0.5 0.81641 0.35156 1.8359-0.28906 2.8242-0.48047 0.73438-1.2656 1.4961-2.2461 2.1055-0.046875 0.035157-0.09375 0.066407-0.14453 0.089844-0.98828 0.59375-2.0234 0.94922-2.8984 1.0391-1.1719 0.125-2.1484-0.21094-2.6484-1.0312-0.125-0.20312-0.21094-0.42188-0.25391-0.64453l-3.1641-9.6367-3.8164 4.0039zm-21.324-5.8555c-0.55859 0.058594-1.2539 0.30469-1.9648 0.73047l-0.023438 0.015625-0.039062 0.023437c-0.72656 0.44531-1.2852 0.96875-1.6055 1.4531-0.16406 0.25391-0.26562 0.41406-0.25391 0.42969 0.003906 0.011719 0.19531-0.003906 0.5-0.035156 0.57812-0.058594 1.3008-0.32031 2.0234-0.76562 0.72656-0.44531 1.2852-0.96875 1.6055-1.4531 0.15625-0.23438 0.25-0.39062 0.25391-0.42578l-0.003907-0.003907c-0.023437-0.015625-0.21094 0-0.48828 0.03125zm8.2656-6.8984 0.003906 0.03125c0.054687 0 0.23047-0.015625 0.48047-0.039063 0.57422-0.058593 1.3008-0.32031 2.0234-0.76562 0.72656-0.44531 1.2852-0.96875 1.6055-1.4531 0.16406-0.25391 0.26562-0.41406 0.25391-0.42969-0.003906-0.011719-0.19531 0.003906-0.5 0.035156-0.57812 0.058594-1.3008 0.32031-2.0312 0.76562-0.72656 0.44531-1.2852 0.96875-1.6055 1.4609-0.12109 0.19531-0.20313 0.33984-0.23438 0.39844zm-5.8945 5.5312-3.2695-10.609 3.8164-4.0039 3.1641 9.6367c0.046875 0.22656 0.12891 0.44141 0.25391 0.64453 0.5 0.82031 1.4766 1.1562 2.6484 1.0312 0.875-0.089843 1.9062-0.44531 2.8984-1.0391 0.050782-0.023438 0.10156-0.054688 0.14453-0.089844 0.98047-0.61328 1.7656-1.3711 2.2461-2.1055 0.64453-0.98828 0.78906-2.0117 0.28906-2.8242-0.5-0.82031-1.4766-1.1484-2.6484-1.0312-0.89453 0.09375-1.9531 0.46484-2.9688 1.0859-0.57812 0.35547-1.1016 0.76562-1.5234 1.1914l-2.9492-8.9805c-0.054688-0.17578-0.15625-0.33594-0.29688-0.46484-0.44922-0.42969-1.1641-0.41016-1.5898 0.039062l-5.5664 5.8398c-0.26953 0.28516-0.38672 0.70312-0.26172 1.1055l2.9961 9.7148c-0.87109 0.09375-1.8945 0.44922-2.875 1.0391-0.035156 0.019531-0.074219 0.039063-0.10938 0.066407-0.99609 0.61328-1.7969 1.3867-2.2812 2.1289-0.64453 0.98828-0.78906 2.0117-0.28906 2.8242 0.5 0.82031 1.4766 1.1562 2.6484 1.0312 0.89453-0.09375 1.9531-0.46484 2.9688-1.0859s1.8242-1.3984 2.3164-2.1562c0.64062-0.98438 0.78906-2 0.29688-2.8164l-0.003906-0.011719-0.019531-0.03125c-0.011719-0.046875-0.019532-0.085938-0.035156-0.12891z" fill="#fff" fill-rule="evenodd"/>
</svg>
