<?xml version="1.0" encoding="UTF-8"?>
<svg viewBox="0 0 100 100" xmlns="http://www.w3.org/2000/svg">
 <rect x="-10" y="-10" width="120" height="120"/>
 <path d="m61.426 21.461 13.602 13.602c1.0195-1.6055 1.5312-3.4453 1.5312-5.2773 0-2.5078-0.94922-5.0156-2.8672-6.9492-1.9414-1.9414-4.4609-2.9023-6.9844-2.9023-1.8359 0-3.6758 0.50781-5.2812 1.5312zm-24.188 39.125-10.664 10.664c-1.332 1.332-1.4844 2.8906-0.96094 4.1562 0.21094 0.50391 0.52344 0.96875 0.91016 1.3555 0.38672 0.38672 0.84375 0.69922 1.3438 0.90625 1.25 0.51953 2.7891 0.35938 4.1367-0.98828l13.684-13.684 0.10938-0.09375c1.7656-1.5508 3.7266-1.75 5.3008-1.1484 0.64844 0.25 1.2383 0.64062 1.7109 1.1328l0.003906 0.003906c0.47656 0.49219 0.83984 1.0859 1.0547 1.7422 0.50781 1.5469 0.19531 3.418-1.4648 5.0781l-10.082 10.082c-0.36719 0.36719-0.96875 0.36719-1.3359 0-0.36719-0.36719-0.36719-0.96875 0-1.3359l10.082-10.082c1.0859-1.0859 1.3086-2.2383 1.0078-3.1602-0.125-0.38281-0.33984-0.73047-0.61719-1.0195l-0.003906-0.003906c-0.28125-0.28906-0.63281-0.52344-1.0234-0.67578-0.97266-0.375-2.2227-0.22656-3.3789 0.78906l-13.703 13.707c-1.9727 1.9727-4.2891 2.1836-6.1953 1.3906-0.72656-0.30078-1.3984-0.75781-1.957-1.3203-0.55859-0.5625-1.0117-1.2305-1.3164-1.9609-0.80078-1.9219-0.59375-4.2539 1.3672-6.2148l10.664-10.664-2.4609-2.4609 22.809-26.695 10.141 10.145-26.695 22.809-2.4609-2.4609zm37.031-24.496-13.875-13.875c-0.21484 0.17969-0.42188 0.36719-0.64062 0.58203-0.39453 0.39844-0.74219 0.80078-1.0469 1.2227l13.758 13.758c0.42188-0.30469 0.82812-0.64844 1.207-1.0312 0.21094-0.21094 0.41406-0.42969 0.60156-0.65625zm-2.8984 2.375-13.352-13.352c-0.10938 0.20703-0.21484 0.41406-0.30859 0.62891-0.46094 1.0195-0.74219 2.1016-0.84766 3.1875l10.695 10.699c1.0859-0.10156 2.168-0.38672 3.1875-0.84766 0.21094-0.097656 0.42188-0.19922 0.62891-0.30859zm-15.352 4.8828c0.66016-0.66016 0.72656-1.4609 0.44141-2.1562-0.10938-0.25391-0.25391-0.46875-0.45313-0.67578-0.21094-0.21484-0.44531-0.375-0.69922-0.48438-0.67969-0.29688-1.5-0.24219-2.1758 0.4375l-1.1406 1.1406c-0.66016 0.66016-0.72656 1.4609-0.44141 2.1562 0.12109 0.27734 0.28125 0.50781 0.47266 0.69922 0.19141 0.19141 0.42578 0.35156 0.67969 0.46094 0.67969 0.29688 1.5 0.24219 2.1758-0.4375l1.1406-1.1445zm-2.0312 0.25781c-0.25 0.25-0.54688 0.27734-0.78516 0.17188-0.10156-0.042969-0.20312-0.11719-0.28906-0.20312-0.085937-0.085938-0.15625-0.1875-0.21094-0.30078-0.097656-0.24609-0.066406-0.53125 0.17578-0.77344l1.1406-1.1406c0.25-0.25 0.54297-0.27734 0.78516-0.17188 0.10156 0.042969 0.20312 0.11719 0.30469 0.21484 0.085937 0.089844 0.14453 0.17969 0.19531 0.28906 0.097656 0.24609 0.066406 0.53125-0.17578 0.77344l-1.1406 1.1445zm-3.5781 5.3516c0.67578-0.67578 0.72656-1.4961 0.43359-2.1758-0.10938-0.25391-0.26953-0.48828-0.46094-0.67969-0.19141-0.19141-0.42578-0.35156-0.67969-0.46094-0.66797-0.28906-1.4648-0.24609-2.1328 0.39062l-1.1836 1.1797c-0.67578 0.67578-0.72656 1.4961-0.43359 2.1758 0.10938 0.25391 0.26953 0.48828 0.46484 0.67969 0.19531 0.19141 0.42578 0.35156 0.67578 0.46094 0.67969 0.29688 1.5 0.24219 2.1758-0.43359zm-2.0312 0.25c-0.25 0.25-0.54688 0.27734-0.78516 0.17188-0.10547-0.046875-0.20312-0.11719-0.28906-0.20312-0.085938-0.085937-0.15625-0.1875-0.20313-0.28906-0.10156-0.23828-0.078124-0.53516 0.17188-0.78516l1.168-1.168c0.24609-0.22656 0.52734-0.24219 0.75781-0.14453 0.10156 0.042969 0.20312 0.11719 0.28906 0.20313 0.085938 0.085937 0.15625 0.1875 0.20312 0.28906 0.10156 0.23828 0.078125 0.53516-0.17188 0.78516z" fill="#fff"/>
</svg>
