<?xml version="1.0" encoding="UTF-8"?>
<svg width="100pt" height="100pt" version="1.1" viewBox="0 0 100 100" xmlns="http://www.w3.org/2000/svg">
 <g fill="#fff">
  <path d="m21.875 10.938h3.125v3.125h-3.125z"/>
  <path d="m21.875 35.938h3.125v3.125h-3.125z"/>
  <path d="m31.25 10.938h3.125v3.125h-3.125z"/>
  <path d="m31.25 35.938h3.125v3.125h-3.125z"/>
  <path d="m40.625 12.5h3.125v3.125h-3.125z"/>
  <path d="m40.625 34.375h3.125v3.125h-3.125z"/>
  <path d="m50 12.5h3.125v3.125h-3.125z"/>
  <path d="m50 34.375h3.125v3.125h-3.125z"/>
  <path d="m59.375 14.062h3.125v3.125h-3.125z"/>
  <path d="m59.375 32.812h3.125v3.125h-3.125z"/>
  <path d="m68.75 15.625h3.125v3.125h-3.125z"/>
  <path d="m68.75 31.25h3.125v3.125h-3.125z"/>
  <path d="m78.125 17.188h3.125v3.125h-3.125z"/>
  <path d="m78.125 29.688h3.125v3.125h-3.125z"/>
  <path d="m81.25 41.156 0.45312-0.042969v-0.003906c1.9961-0.19922 3.6445-1.6523 4.0938-3.6094h3.5547c0.75781 2.1523 2.9531 3.4414 5.2031 3.0547 2.2461-0.38672 3.8867-2.3359 3.8828-4.6172v-21.875c0.003906-2.2812-1.6367-4.2305-3.8828-4.6172-2.25-0.38672-4.4453 0.90234-5.2031 3.0547h-3.5547c-0.44922-1.9609-2.1016-3.4141-4.1016-3.6094l-59.375-5.7422c-1.3047-0.125-2.6016 0.30469-3.5703 1.1875-0.56641 0.52734-0.99609 1.1836-1.25 1.9141h-3.4375c0-2.5898-2.0977-4.6875-4.6875-4.6875h-3.125c-2.5898 0-4.6875 2.0977-4.6875 4.6875v37.5c0 2.5898 2.0977 4.6875 4.6875 4.6875h3.125c2.5898 0 4.6875-2.0977 4.6875-4.6875h3.4375c0.25391 0.73047 0.68359 1.3867 1.25 1.9141 0.85547 0.77734 1.9688 1.207 3.125 1.2109v0.3125c0.011719 1.6758 0.74219 3.2656 2.0078 4.3672 1.1758 1.0234 2.6836 1.582 4.2422 1.5703 0.28516 0 0.57031-0.019531 0.85156-0.054688l46.875-6.0938c2.9961-0.33594 5.293-2.8125 5.3984-5.8203zm4.6875-6.7812v-18.75h3.125v18.75zm6.25-20.312c0-0.86328 0.69922-1.5625 1.5625-1.5625s1.5625 0.69922 1.5625 1.5625v21.875c0 0.86328-0.69922 1.5625-1.5625 1.5625s-1.5625-0.69922-1.5625-1.5625zm-9.375-0.45703v22.789c0.011719 0.82031-0.60156 1.5156-1.418 1.6055l-4.832 0.46875v-26.938l4.832 0.46875c0.81641 0.089844 1.4297 0.78516 1.418 1.6055zm-53.125 29.395v-36l6.25 0.60547v34.793zm9.375-35.094 6.25 0.60156v32.984l-6.25 0.60156zm9.375 0.90625 6.25 0.60547v31.164l-6.25 0.60547zm9.375 0.90625 6.25 0.60547v29.352l-6.25 0.60547zm9.375 0.90625 6.25 0.60547v27.539l-6.25 0.60547zm-56.25 33.125c0 0.41406-0.16406 0.8125-0.45703 1.1055s-0.69141 0.45703-1.1055 0.45703h-3.125c-0.86328 0-1.5625-0.69922-1.5625-1.5625v-37.5c0-0.86328 0.69922-1.5625 1.5625-1.5625h3.125c0.41406 0 0.8125 0.16406 1.1055 0.45703s0.45703 0.69141 0.45703 1.1055zm3.125-34.375h3.125v31.25h-3.125zm6.7812 33.973c-0.34375-0.30859-0.53516-0.74609-0.53125-1.207v-34.281c-0.003906-0.46094 0.1875-0.89844 0.53125-1.207 0.28125-0.26172 0.64844-0.40234 1.0312-0.40234h0.15625l4.5312 0.44531v36.609l-4.543 0.44531c-0.42969 0.039062-0.85938-0.10547-1.1758-0.40234zm7.7266 6.6211c-0.94922 0.12891-1.9023-0.15625-2.625-0.78125-0.59375-0.5-0.9375-1.2344-0.94531-2.0078v-0.58594l53.086-5.1328c-0.24219 1.3047-1.3203 2.2891-2.6406 2.4219z"/>
  <path d="m97.398 91.996-17.152-18.188 3.2812-3.4688c2.4648-2.3672 5.543-3.9922 8.8867-4.6875 2.457-0.55859 4.4844-2.2773 5.4336-4.6055 1.2461-2.9883 0.56641-6.4336-1.7227-8.7266-2.2891-2.2891-5.7344-2.9727-8.7227-1.7305-2.3555 0.97266-4.082 3.0391-4.6211 5.5273-0.69922 3.3281-2.3242 6.3945-4.6875 8.8438l-3.0938 3.2852-3.125-3.3047v-0.003906c-2.3633-2.4688-3.9844-5.5547-4.6719-8.9062-0.55469-2.4531-2.2734-4.4844-4.6016-5.4375-2.9883-1.2422-6.4336-0.55859-8.7227 1.7305-2.2891 2.293-2.9688 5.7383-1.7227 8.7266 0.96875 2.3555 3.0312 4.082 5.5156 4.625 3.3047 0.69141 6.3438 2.3008 8.7773 4.6367l3.3047 3.5039-17.152 18.18c-1.043 1.1094-1.3281 2.7305-0.72656 4.1328 0.60156 1.3984 1.9766 2.3047 3.5 2.3086h0.054688c1.0352-0.011719 2.0195-0.44531 2.7266-1.1992l16.844-17.863 16.844 17.863c0.70703 0.75391 1.6914 1.1875 2.7266 1.1992h0.054688c1.5234-0.003906 2.8984-0.91016 3.5-2.3086 0.60156-1.4023 0.31641-3.0234-0.72656-4.1328zm-28.707-23.871c-2.8672-2.7734-6.457-4.6836-10.359-5.5078-1.4609-0.31641-2.6797-1.3242-3.2617-2.6992-0.79297-1.8359-0.38281-3.9648 1.0273-5.3789 1.4141-1.4141 3.543-1.8203 5.3789-1.0273 1.3945 0.59766 2.4102 1.8438 2.7109 3.332 0.82422 3.8672 2.7109 7.4258 5.4531 10.273l3.2148 3.4062-0.95312 1.0078zm-12.812 26.961c-0.12891 0.13672-0.30469 0.21875-0.49219 0.21875s-0.36328-0.070313-0.49609-0.20313c-0.26953-0.26172-0.27344-0.69141-0.015625-0.96484l25.453-26.992v-0.003906c2.7734-2.8711 4.6797-6.4648 5.5-10.375 0.31641-1.4609 1.3203-2.6797 2.6992-3.2617 1.832-0.79297 3.9648-0.38672 5.3789 1.0273 1.4102 1.4141 1.8203 3.543 1.0273 5.3789-0.59766 1.3945-1.8398 2.4102-3.3281 2.7148-3.8945 0.83203-7.4727 2.7461-10.324 5.5234zm39.219 0.015624v0.003907c-0.12891 0.12891-0.30469 0.20312-0.48438 0.19922-0.19141-0.003907-0.37109-0.082032-0.50391-0.21875l-16.961-17.988 0.95312-1.0078 17.031 18.055-0.003906-0.003906c0.25781 0.27734 0.25 0.70703-0.019531 0.96875z"/>
 </g>
</svg>
