<?xml version="1.0" encoding="UTF-8"?>
<svg width="100pt" height="100pt" version="1.1" viewBox="0 0 100 100" xmlns="http://www.w3.org/2000/svg">
 <path d="m90.57 10.316c-0.92187-0.51562-2.082-0.77734-3.4531-0.77734-5.3164 0-13.867 4.2539-16.504 9.5352-0.11328 0.22656-0.15625 0.48438-0.11719 0.73438 0.13281 0.92969 0.039062 1.4688-0.003906 1.6719l-3.2656 3.2656c-0.007812 0.007812-0.015624 0.007812-0.019531 0.015625-0.007812 0.007812-0.007812 0.015625-0.015625 0.019531l-3.0547 3.0547c-0.007813 0.007812-0.015625 0.007812-0.019531 0.011718-0.007813 0.007813-0.007813 0.015625-0.015626 0.019532l-3.6133 3.6133c-0.003906 0.003906-0.011719 0.007812-0.015625 0.011719-0.003906 0.003906-0.007812 0.011718-0.011718 0.015624l-3.4531 3.4492c-0.003906 0.003907-0.011718 0.007813-0.015624 0.011719-0.003907 0.003906-0.007813 0.011719-0.011719 0.019531l-3.2891 3.2891c-0.003906 0.003906-0.011718 0.007812-0.015625 0.011718-0.003906 0.003907-0.007812 0.011719-0.011719 0.015626l-3.2969 3.293c-0.003907 0.003906-0.007813 0.003906-0.011719 0.007813-0.003907 0.003906-0.003907 0.007812-0.007813 0.011719l-3.0039 3.0039c-0.003906 0.003906-0.007812 0.003906-0.011719 0.007812-0.003906 0.003906-0.003906 0.007813-0.007812 0.011719l-3.168 3.168c-0.003906 0.003906-0.007812 0.003906-0.007812 0.007812-0.003907 0.003906-0.003907 0.007813-0.007813 0.007813l-2.2188 2.2188c-2.1367-3.3516-1.4844-6.2148-0.019531-11.367 0.26953-0.95312 1.0938-3.8555-0.66406-5.1211-1.8906-1.3594-5.0117 0.56641-5.9453 1.207-3.4258 2.4609-4.6445 5.4453-6.332 9.5781-0.32813 0.80078-0.67578 1.6523-1.0625 2.5547-1.8594 4.3359-5.0938 5.6953-9.9883 7.7578-1.3984 0.58594-2.9805 1.2539-4.6562 2.0469-3.625 1.7188-5.7383 4.2773-6.2852 7.5977-1.0586 6.4492 4.25 14.242 9.1211 18.949 4.9727 4.8086 9.543 7.2266 13.641 7.2266 1.0664 0 2.1016-0.16406 3.1016-0.49219 5.8203-1.9141 8.9609-8.9883 9.8828-14.465 0.89453-5.3242 5.0703-6.9805 7.4805-7.4922 3.9297-0.83594 9.3086-1.9844 9.1406-5.9375-0.0625-1.4062-0.94531-3.875-6.1797-4.5781-1.457-0.19531-2.9688-0.71484-4.5859-1.5469l5.0391-5.0391s0.003906 0 0.003906-0.003906c0 0 0-0.003907 0.003907-0.003907l6.332-6.332h0.003906v-0.003906l16.699-16.699c0.41406-0.015625 1.1328 0.023438 2.0469 0.32812 0.12891 0.042969 0.26172 0.0625 0.39453 0.0625 0.19531 0 0.39062-0.046875 0.56641-0.13672 0.29688-0.15234 0.52344-0.41406 0.625-0.73437l0.089844-0.29297c0.59375-1.9219 1.8281-5.9258 7.5586-7.4336 2.2148-0.50781 4.8203-2.5625 5.1719-5 0.16016-1.0195 0.023437-2.9258-2.5352-4.3555zm-17.961 18.074-2.75-2.75 1.7031-1.7031 2.75 2.75zm-3.0898 3.0859-2.75-2.7539 1.3203-1.3203 2.75 2.75zm-3.6445 3.6445-2.75-2.75 1.875-1.875 2.75 2.7539zm-3.4766 3.4805-2.75-2.75 1.7109-1.7109 2.75 2.75zm-3.3203 3.3164-2.75-2.75 1.5508-1.5508 2.75 2.75zm-3.3164 3.3164-2.75-2.75 1.5508-1.5508 2.75 2.75zm-3.0195 3.0234-2.75-2.75 1.2539-1.2539 2.75 2.75zm-3.1875 3.1836-2.75-2.75 1.418-1.418 2.75 2.75zm-23.91 15.738 5.2539 5.2539c-0.87891 0.45312-2.5508 0.089844-3.9453-1.3047-1.3984-1.3984-1.7617-3.0703-1.3086-3.9492zm3.7266 0.19141 9.6914-9.6914 1.3203 1.3203-9.6914 9.6914zm13.59-9.332-2.75-2.75 1.6445-1.6445 2.75 2.75zm3.4102-3.4141-2.75-2.75 1.418-1.418 2.75 2.75zm10.473 7.5625c0.078125 1.8359-4.6328 2.8438-7.1641 3.3828-5.1562 1.0977-8.5938 4.5703-9.4258 9.5234-0.64844 3.8555-3.1055 10.828-8.1953 12.504-3.8945 1.2812-8.6758-0.78906-14.223-6.1562-4.7852-4.6289-9.2383-11.602-8.3906-16.75 0.41016-2.5 2.0078-4.375 4.8906-5.7422 1.625-0.76953 3.1133-1.3984 4.5547-2.0039 5.0625-2.1289 9.0625-3.8125 11.316-9.0742 0.39453-0.91797 0.74609-1.7812 1.0781-2.5938 1.5859-3.8828 2.6367-6.4492 5.4531-8.4766 1.1484-0.78125 2.6641-1.3789 3.0234-1.25 0.003906 0.003907 0.29297 0.50781-0.25391 2.4336-1.6016 5.6406-2.4414 9.4336 0.62109 13.855l-2.5664 2.5664c-0.39453 0.39453-0.45312 0.98438-0.20703 1.4531l-9.7422 9.7422-1-1c-0.003906-0.003906-0.011719-0.007812-0.015625-0.007812-0.070312-0.070312-0.16016-0.11328-0.24609-0.16406-0.054687-0.035157-0.10547-0.082032-0.16797-0.10547-0.042969-0.015625-0.089844-0.015625-0.13672-0.027344-0.10938-0.03125-0.21875-0.0625-0.33594-0.0625-0.039063 0-0.078126 0.019531-0.11328 0.023437-0.12109 0.011719-0.24219 0.027344-0.35938 0.078126-0.007812 0.003906-0.011719 0-0.019531 0.003906-0.42578 0.1875-0.80469 0.44531-1.1289 0.77344-1.8711 1.875-1.3906 5.293 1.0977 7.7812 1.4688 1.4688 3.2578 2.2383 4.8672 2.2383 1.1172 0 2.1484-0.37109 2.918-1.1406 0.32422-0.32422 0.58203-0.70313 0.76953-1.125 0.003906-0.007813 0-0.011719 0.003906-0.019532 0.042968-0.097656 0.054687-0.20312 0.066406-0.30859 0.007812-0.054687 0.03125-0.11328 0.03125-0.17187 0-0.082032-0.027344-0.16016-0.042969-0.24219-0.015625-0.078125-0.015625-0.15625-0.042969-0.22656-0.019531-0.054688-0.0625-0.09375-0.09375-0.14844-0.050781-0.09375-0.10156-0.1875-0.17578-0.26562-0.003906-0.003906-0.003906-0.007813-0.007812-0.015625l-1.0156-1.0156 9.707-9.707c0.23047 0.19531 0.50781 0.30469 0.79297 0.30469 0.32031 0 0.64062-0.12109 0.88281-0.36719 0.003906-0.003906 0.003906-0.007813 0.007813-0.011719l2.8828-2.8828c2.1328 1.1875 4.1328 1.918 6.0938 2.1797 1.1836 0.16797 3.9492 0.70312 4.0117 2.2188zm33.805-47.883c-0.16406 1.1562-1.7461 2.5742-3.293 2.9297-6.2539 1.6445-8.2656 5.9141-9.0781 8.2695-0.59766-0.10938-1.1055-0.14062-1.4766-0.14062-0.097656 0-0.1875 0-0.27344 0.003907l-3.5586-3.5586c0.085938-0.46875 0.13672-1.1133 0.054688-1.9414 2.3867-4.25 9.6211-7.832 14.098-7.832 0.92188 0 1.6953 0.15625 2.2305 0.45703 1.4414 0.8125 1.332 1.5664 1.2969 1.8125z" fill="#fff"/>
</svg>
