<?xml version="1.0" encoding="UTF-8"?>
<svg width="1200pt" height="1200pt" version="1.1" viewBox="0 0 1200 1200" xmlns="http://www.w3.org/2000/svg">
 <g fill="none" stroke="#81c784" stroke-linecap="round" stroke-linejoin="round" stroke-miterlimit="10" stroke-width=".75">
  <path transform="scale(12)" d="m81.3 63.3c8.3001 0 5.5-12.6 15.1-12.6-9.5999 0-6.8001-12.6-15.1-12.6h-0.099935c5.9001-5.9001-5-12.8 1.6999-19.6-6.8001 6.8001-13.7-4.1999-19.6 1.6999v0.099935c0-8.3001-12.6-5.5-12.6-15.1 0 9.5999-12.6 6.8001-12.6 15.1v0.099935c-5.9001-5.9001-12.8 5-19.6-1.6999 6.8001 6.8001-4.1999 13.7 1.6999 19.6v0.099935c-8.3001 0-5.5 12.6-15.1 12.6 9.5999 0 6.8001 12.6 15.1 12.6"/>
  <path transform="scale(12)" d="m81.3 63.4"/>
  <path transform="scale(12)" d="m20.1 63.4c-5.8001 5.9001 5.0999 12.9-1.6999 19.6 6.8001-6.8001 13.7 4.1999 19.6-1.6999v-0.099935c0 8.3001 12.6 5.5 12.6 15.1 0-9.5999 12.6-6.8001 12.6-15.1v-0.099935c5.9001 5.9001 12.8-5 19.6 1.6999-6.8001-6.8001 4.1999-13.7-1.6999-19.6"/>
  <path transform="scale(12)" d="m50.7 17.9 28.3 49.4h-56.6z"/>
  <path transform="scale(12)" d="m50.7 83.4-28.3-49.4h56.6z"/>
  <path transform="scale(12)" d="m83.5 50.7c0 11.718-6.2516 22.547-16.4 28.406-10.148 5.859-22.652 5.859-32.8 0-10.148-5.8594-16.4-16.688-16.4-28.406 0-11.718 6.2516-22.546 16.4-28.406 10.148-5.859 22.651-5.859 32.8 0 10.148 5.8594 16.4 16.688 16.4 28.406"/>
 </g>
</svg>
