<?xml version="1.0" encoding="UTF-8"?>
<svg width="128pt" height="128pt" version="1.1" viewBox="0 0 128 128" xmlns="http://www.w3.org/2000/svg">
 <path d="m64 8.3555c-30.68 0-55.645 24.965-55.645 55.645s24.961 55.645 55.645 55.645c30.68 0 55.645-24.965 55.645-55.645s-24.965-55.645-55.645-55.645zm0 105.99c-27.762 0-50.344-22.582-50.344-50.344s22.582-50.344 50.344-50.344 50.344 22.586 50.344 50.344-22.582 50.344-50.344 50.344zm-24.949-50.344c0 1.4609-1.1875 2.6484-2.6484 2.6484-1.4648 0-2.6484-1.1875-2.6484-2.6484 0-9.2031 7.4883-16.691 16.691-16.691h31.23l-1.5586-1.5586c-1.0352-1.0352-1.0352-2.7109 0-3.7461 1.0352-1.0352 2.7109-1.0352 3.7461 0l6.082 6.082c0.49609 0.49609 0.77734 1.1719 0.77734 1.875 0 0.70312-0.27734 1.3789-0.77734 1.875l-6.082 6.082c-0.51562 0.51562-1.1953 0.77734-1.875 0.77734-0.67969 0-1.3555-0.25781-1.875-0.77734-1.0352-1.0352-1.0352-2.7109 0-3.7461l1.5586-1.5586-31.23-0.003906c-6.2812 0-11.391 5.1094-11.391 11.391zm55.199 0c0 9.2031-7.4883 16.691-16.691 16.691h-29.906l1.5586 1.5586c1.0352 1.0352 1.0352 2.7109 0 3.7461-0.51563 0.51562-1.1953 0.77734-1.875 0.77734-0.67578 0-1.3555-0.25781-1.875-0.77734l-6.082-6.082c-0.49609-0.49609-0.77734-1.1719-0.77734-1.875 0-0.70312 0.27734-1.375 0.77734-1.875l6.082-6.082c1.0352-1.0352 2.7109-1.0352 3.7461 0 1.0352 1.0352 1.0352 2.7109 0 3.7461l-1.5586 1.5586h29.906c6.2812 0 11.391-5.1094 11.391-11.395 0-1.4648 1.1875-2.6484 2.6484-2.6484 1.4688 0.003906 2.6562 1.1953 2.6562 2.6562z"/>
</svg>
