<?xml version="1.0" encoding="UTF-8"?>
<svg width="45" height="45" version="1.1" viewBox="0 0 100 100" xmlns="http://www.w3.org/2000/svg">
 <defs>
  <clipPath id="a">
   <path d="m18.512 18.512h62.977v47.488h-62.977z"/>
  </clipPath>
 </defs>
 <g clip-path="url(#a)">
  <path d="m39.504 65.742h-13.109c-4.3438 0-7.8828-3.5312-7.8828-7.8789v-31.473c0-4.3438 3.5391-7.8789 7.8828-7.8789h47.211c4.3438 0 7.8828 3.5352 7.8828 7.8789v23.609c0 1.4492-1.1719 2.625-2.625 2.625-1.4492 0-2.625-1.1758-2.625-2.625v-23.609c0-1.4492-1.1797-2.6328-2.6328-2.6328h-47.211c-1.4531 0-2.6367 1.1836-2.6367 2.6328v31.473c0 1.4531 1.1836 2.6328 2.6367 2.6328h13.109c1.4492 0 2.625 1.1758 2.625 2.625 0 1.4453-1.1758 2.6211-2.625 2.6211" fill="#fff" fill-rule="evenodd"/>
 </g>
 <path d="m62.418 80.215c-0.70312 0-1.4062-0.27734-1.9219-0.83984l-11.543-12.453c-5.6133-5.6094-5.6133-14.852 0.070313-20.531 5.6719-5.6797 14.914-5.6875 20.598 0l10.449 11.027c0.99219 1.0547 0.94922 2.7148-0.10547 3.7109-1.0469 0.99609-2.707 0.95312-3.7109-0.097656l-10.391-10.984c-3.5859-3.582-9.4961-3.5781-13.129 0.054687-3.6367 3.6328-3.6367 9.5469 0 13.18l11.609 12.527c0.98438 1.0664 0.92188 2.7227-0.14062 3.707-0.50781 0.46875-1.1484 0.69922-1.7852 0.69922" fill="#fff" fill-rule="evenodd"/>
 <path d="m62.934 57.957s0.003906 0 0.003906 0.003907zm-4.625-0.019531 1.8164 1.8086c1.1562-0.25781 2.0469-1.1406 2.3203-2.2773l-1.7422-1.7422c-0.30859-0.3125-0.71484-0.48047-1.1523-0.48047-0.43359 0-0.84375 0.16797-1.1523 0.48047-0.36719 0.36328-0.52734 0.74609-0.52734 1.1523 0 0.39844 0.15625 0.77344 0.4375 1.0586zm1.4492 7.1406c-1.1758 0-2.1289-0.40234-2.8398-1.1133l-2.3164-2.3125c-1.2773-1.2812-1.9805-2.9766-1.9766-4.7812 0-1.8047 0.70703-3.5039 1.9883-4.7812 1.375-1.375 3.1016-2.0898 4.9375-2.0898h0.003907c1.8359 0 3.5625 0.71484 4.8594 2.0156l2.2305 2.2305c0.77734 0.76953 1.1875 1.8555 1.125 2.9688-0.23438 3.9336-3.1133 7.1172-6.9883 7.7461l-0.61719 0.10156c-0.13672 0.011719-0.27344 0.015625-0.40625 0.015625z" fill="#fff" fill-rule="evenodd"/>
 <path d="m44.75 55.246h-2.6211c-1.4492 0-2.625-1.1719-2.625-2.6211v-18.371c0-1.4453 1.1758-2.6211 2.625-2.6211h2.6211c1.4492 0 2.625 1.1758 2.625 2.6211v18.371c0 1.4492-1.1758 2.6211-2.625 2.6211" fill="#fff" fill-rule="evenodd"/>
 <path d="m60.496 46.062v-11.809c0-1.4453-1.1758-2.6211-2.625-2.6211h-2.625c-1.4453 0-2.6211 1.1758-2.6211 2.6211v14.406c2.2969-1.8281 5.0859-2.707 7.8711-2.5977" fill="#fff" fill-rule="evenodd"/>
</svg>
