<?xml version="1.0" encoding="UTF-8"?>
<svg width="1200pt" height="1200pt" version="1.1" viewBox="0 0 1200 1200" xmlns="http://www.w3.org/2000/svg">
 <g fill="none" stroke="#C62828" stroke-miterlimit="10" stroke-width=".75">
  <path transform="scale(12)" d="m89.3 49.8c12.7-12.7-10.9-27.6 3.5999-42.2-14.5 14.6-29.5-8.8001-42.2 3.9001l-0.099935 0.099935" stroke-linecap="round" stroke-linejoin="round"/>
  <path transform="scale(12)" d="m12.1 49.8c-12.7-12.7 10.9-27.6-3.5999-42.2 14.5 14.6 29.5-8.7998 42.2 3.9001l0.099935 0.099935" stroke-linecap="round" stroke-linejoin="round"/>
  <path transform="scale(12)" d="m12.2 50.2c-12.7 12.7 10.9 27.6-3.5999 42.2 14.5-14.6 29.5 8.8001 42.2-3.9001l0.099935-0.099935" stroke-linecap="round" stroke-linejoin="round"/>
  <path transform="scale(12)" d="m89.4 50.2c12.6 12.7-10.9 27.6 3.5999 42.2-14.5-14.6-29.5 8.8001-42.2-3.9001l-0.099935-0.099935" stroke-linecap="round" stroke-linejoin="round"/>
  <path transform="scale(12)" d="m89.1 50.1c0 13.683-7.2998 26.327-19.15 33.169-11.85 6.8415-26.45 6.8415-38.3 0-11.85-6.8418-19.15-19.486-19.15-33.169s7.2998-26.327 19.15-33.169c11.85-6.8418 26.45-6.8418 38.3 0 11.85 6.8415 19.15 19.485 19.15 33.169"/>
  <path transform="scale(12)" d="m24.1 23.4h53.3v53.3h-53.3z"/>
  <path transform="scale(12)" d="m50.8 67.5-16.9-29.3h33.8z"/>
 </g>
</svg>
