<?xml version="1.0" encoding="UTF-8"?>
<svg width="1200pt" height="1200pt" version="1.1" viewBox="0 0 1200 1200" xmlns="http://www.w3.org/2000/svg">
 <g fill="none" stroke="#bbdefb" stroke-miterlimit="10" stroke-width=".75">
  <path transform="scale(12)" d="m88 49.5c0 13.433-7.1667 25.846-18.8 32.562-11.633 6.7168-25.966 6.7168-37.6 0-11.633-6.7165-18.8-19.129-18.8-32.562s7.1663-25.846 18.8-32.562c11.633-6.7168 25.966-6.7168 37.6 0 11.633 6.7165 18.8 19.129 18.8 32.562"/>
  <path transform="scale(12)" d="m50.4 86.6-31.9-55.4h63.9z"/>
  <path transform="scale(12)" d="m68.7 49.5c0 10.107-8.193 18.3-18.3 18.3s-18.3-8.1934-18.3-18.3 8.1934-18.3 18.3-18.3 18.3 8.1934 18.3 18.3"/>
  <path transform="scale(12)" d="m64.8 15c0.90006-4.6999-6.5999-4.5999-5.5-10-1.0999 5.5-8 2.4001-8.9001 7.1999"/>
  <path transform="scale(12)" d="m77.2 22.9c2.6999-4-4.4001-6.6999-1.3001-11.4-3.0999 4.5999-8.3001-0.80013-10.9 3.3001"/>
  <path transform="scale(12)" d="m85.5 35.3c4-2.6999-1.5-7.9001 3.0999-11-4.5999 3.0999-7.4001-3.9001-11.4-1.0999"/>
  <path transform="scale(12)" d="m88.3 49.7c4.6999-1 1.6999-7.8001 7.0999-8.9001-5.4001 1.0999-5.3001-6.4001-10-5.5"/>
  <path transform="scale(12)" d="m36 14.9c-0.90006-4.6999 6.5999-4.5999 5.5-10 1.0999 5.5 8 2.4001 8.9001 7.1999"/>
  <path transform="scale(12)" d="m23.6 22.9c-2.6999-4 4.4001-6.6999 1.3001-11.4 3.0999 4.5999 8.3001-0.80013 10.9 3.3001"/>
  <path transform="scale(12)" d="m15.3 35.2c-4-2.6999 1.5-7.9001-3.0999-11 4.5999 3.0999 7.4001-3.9001 11.4-1.0999"/>
  <path transform="scale(12)" d="m12.6 49.7c-4.6999-1-1.6999-7.8001-7.0999-8.9001 5.4001 1.0999 5.3001-6.4001 10-5.5"/>
  <path transform="scale(12)" d="m36 84.4c-0.90006 4.6999 6.5999 4.5999 5.5 10 1.0999-5.5 8-2.4001 8.9001-7.1999"/>
  <path transform="scale(12)" d="m23.6 76.5c-2.6999 4 4.4001 6.6999 1.3001 11.4 3.0999-4.5999 8.3001 0.80013 10.9-3.3001"/>
  <path transform="scale(12)" d="m15.3 64.1c-4 2.6999 1.5 7.9001-3.0999 11 4.5999-3.0999 7.4001 3.9001 11.4 1.0999"/>
  <path transform="scale(12)" d="m12.6 49.7c-4.6999 1-1.6999 7.8001-7.0999 8.9001 5.4001-1.0999 5.3001 6.4001 10 5.5"/>
  <path transform="scale(12)" d="m64.8 84.5c0.90006 4.6999-6.5999 4.5999-5.5 10-1.0999-5.5-8-2.4001-8.9001-7.1999"/>
  <path transform="scale(12)" d="m77.2 76.5c2.6999 4-4.4001 6.6999-1.3001 11.4-3.0999-4.5999-8.3001 0.80013-10.9-3.3001"/>
  <path transform="scale(12)" d="m85.5 64.2c4 2.6999-1.5 7.9001 3.0999 11-4.5999-3.1999-7.2998 3.8001-11.3 1.1003"/>
  <path transform="scale(12)" d="m88.3 49.7c4.6999 1 1.6999 7.8001 7.0999 8.9001-5.4001-1.0999-5.3001 6.4001-10 5.5"/>
 </g>
</svg>
